<svg viewBox="0 0 257 257" version="1.1" xmlns="http://www.w3.org/2000/svg" xmlns:xlink="http://www.w3.org/1999/xlink" id="ryJcrI9Jm"><style>@-webkit-keyframes SJHycBU9J7_Animation{0%{opacity: 0;}33.33%{opacity: 1;}66.67%{opacity: 1;}100%{opacity: 0;}}@keyframes SJHycBU9J7_Animation{0%{opacity: 0;}33.33%{opacity: 1;}66.67%{opacity: 1;}100%{opacity: 0;}}@-webkit-keyframes SJHycBU9J7_r1VGI8cJX_Animation{0%{-webkit-transform: scale(0.5, 0.5);transform: scale(0.5, 0.5);}33.33%{-webkit-transform: scale(1, 1);transform: scale(1, 1);}66.67%{-webkit-transform: scale(1, 1);transform: scale(1, 1);}100%{-webkit-transform: scale(0.5, 0.5);transform: scale(0.5, 0.5);}}@keyframes SJHycBU9J7_r1VGI8cJX_Animation{0%{-webkit-transform: scale(0.5, 0.5);transform: scale(0.5, 0.5);}33.33%{-webkit-transform: scale(1, 1);transform: scale(1, 1);}66.67%{-webkit-transform: scale(1, 1);transform: scale(1, 1);}100%{-webkit-transform: scale(0.5, 0.5);transform: scale(0.5, 0.5);}}@-webkit-keyframes SJHycBU9J7_BJZorI5y7_Animation{0%{-webkit-transform: translate(-210px, -40px);transform: translate(-210px, -40px);}33.33%{-webkit-transform: translate(0px, -40px);transform: translate(0px, -40px);}35.56%{-webkit-transform: translate(0px, -40px);transform: translate(0px, -40px);}66.67%{-webkit-transform: translate(0px, -40px);transform: translate(0px, -40px);}100%{-webkit-transform: translate(220px, -40px);transform: translate(220px, -40px);}}@keyframes SJHycBU9J7_BJZorI5y7_Animation{0%{-webkit-transform: translate(-210px, -40px);transform: translate(-210px, -40px);}33.33%{-webkit-transform: translate(0px, -40px);transform: translate(0px, -40px);}35.56%{-webkit-transform: translate(0px, -40px);transform: translate(0px, -40px);}66.67%{-webkit-transform: translate(0px, -40px);transform: translate(0px, -40px);}100%{-webkit-transform: translate(220px, -40px);transform: translate(220px, -40px);}}#ryJcrI9Jm *{-webkit-animation-duration: 3s;animation-duration: 3s;-webkit-animation-iteration-count: infinite;animation-iteration-count: infinite;-webkit-animation-timing-function: cubic-bezier(0, 0, 1, 1);animation-timing-function: cubic-bezier(0, 0, 1, 1);}#HJgJcrL5y7{stroke: none;stroke-width: 1;fill: none;}#HkbJ5H85y7{-webkit-transform:  translate(-247.000000px, -386.000000px);transform:  translate(-247.000000px, -386.000000px);}#BJf1qBU5JX{-webkit-transform:  translate(247.000000px, 386.000000px);transform:  translate(247.000000px, 386.000000px);}#SJQk5S85JX{fill: #EBEBEB;}#SJHycBU9J7{-webkit-transform:  translate(30.000000px, 58.000000px);transform:  translate(30.000000px, 58.000000px);-webkit-animation-name: SJHycBU9J7_Animation;animation-name: SJHycBU9J7_Animation;-webkit-transform-origin: 50% 50%;transform-origin: 50% 50%;transform-box: fill-box;opacity: 0;}#ryUJ5rUq17{fill: #671F03;}#HJwk9HLqkX{stroke-width: 1;fill: none;}#r1dJ5rUcJm{fill: #C1C1C1;}#HyYJqSI517{fill: #CECECE;}#H19kqB891X{fill: #A6A6A6;}#BJoy9rI9J7{-webkit-transform:  translate(44.440000px, 25.488281px);transform:  translate(44.440000px, 25.488281px);}#HJa19BU9kQ{fill: #F4F4F4;}#SJHycBU9J7_BJZorI5y7{-webkit-animation-name: SJHycBU9J7_BJZorI5y7_Animation;animation-name: SJHycBU9J7_BJZorI5y7_Animation;-webkit-animation-timing-function: cubic-bezier(0.42, 0, 0.58, 1);animation-timing-function: cubic-bezier(0.42, 0, 0.58, 1);-webkit-transform-origin: 50% 50%;transform-origin: 50% 50%;transform-box: fill-box;-webkit-transform: translate(-210px, -40px);transform: translate(-210px, -40px);}#SJHycBU9J7_r1VGI8cJX{-webkit-animation-name: SJHycBU9J7_r1VGI8cJX_Animation;animation-name: SJHycBU9J7_r1VGI8cJX_Animation;-webkit-animation-timing-function: cubic-bezier(0.42, 0, 1, 1);animation-timing-function: cubic-bezier(0.42, 0, 1, 1);-webkit-transform-origin: 50% 50%;transform-origin: 50% 50%;transform-box: fill-box;-webkit-transform: scale(0.5, 0.5);transform: scale(0.5, 0.5);}</style>
    <!-- Generator: Sketch 50.2 (55047) - http://www.bohemiancoding.com/sketch -->
    <title>1</title>
    <desc>Created with Sketch.</desc>
    <defs>
        <circle id="path-1" cx="128.5" cy="128.5" r="128.5"/>
        <polygon id="path-3" points="0.15268 106.195166 108.65184 106.195166 108.65184 0.223242188 0.15268 0.223242188"/>
    </defs>
    <g id="HJgJcrL5y7" fill-rule="evenodd">
        <g id="HkbJ5H85y7">
            <g id="BJf1qBU5JX">
                <mask id="mask-2" fill="white">
                    <use xlink:href="#path-1"/>
                </mask>
                <use id="SJQk5S85JX" xlink:href="#path-1"/>
                <g id="S1V19SIqym" mask="url(#mask-2)">
                    <g id="SJHycBU9J7_BJZorI5y7" data-animator-group="true" data-animator-type="0"><g id="SJHycBU9J7_r1VGI8cJX" data-animator-group="true" data-animator-type="2"><g id="SJHycBU9J7">
                        <polygon id="ryUJ5rUq17" points="98.842788 112.500571 98.845428 112.499253 98.842788 112.498374"/>
                        <g id="HJwk9HLqkX">
                            <path d="M98.84292,112.500439 L98.84292,112.498682 L98.84556,112.5 L98.84292,112.500439 Z M196.515,56.4793945 C195.679,54.9391113 194.4294,53.6264648 192.85772,52.719873 L103.67016,1.29199219 C100.683,-0.430664063 97.0024,-0.430664063 94.01524,1.29199219 L4.82724,52.720752 C3.25732,53.6264648 2.00728,54.9386719 1.17128,56.4780762 C0.418,57.8658691 0,59.437793 0,61.0712402 L0,163.92832 C0,167.373193 1.84008,170.557031 4.82724,172.279248 L94.01524,223.708008 C95.5086,224.569336 97.17576,225 98.84248,225 C100.5092,225 102.1768,224.569336 103.66972,223.708008 L192.85728,172.279248 C195.84444,170.557031 197.68452,167.373633 197.68452,163.92832 L197.68452,61.0712402 C197.6854,59.4386719 197.26828,57.867627 196.515,56.4793945 L196.515,56.4793945 Z" id="r1dJ5rUcJm"/>
                            <path d="M98.84292,112.498682 L98.84292,112.498682 L1.17172,56.4780762 C2.00772,54.9382324 3.25732,53.6264648 4.82768,52.720752 L94.01612,1.29199219 C97.00328,-0.430664063 100.68388,-0.430664063 103.67104,1.29199219 L192.8586,52.720752 C194.42984,53.6264648 195.67988,54.9399902 196.51588,56.4802734 L98.846,112.5 L98.84292,112.498682 Z" id="HyYJqSI517"/>
                            <path d="M98.84556,112.499561 L98.84556,112.499561 L196.51544,56.479834 C197.26872,57.8671875 197.6854,59.4391113 197.6854,61.0716797 L197.6854,163.92876 C197.6854,167.373633 195.84532,170.557471 192.85816,172.279688 L103.67016,223.708008 C102.1768,224.569336 100.50964,225 98.84292,225 L98.84292,112.500439 L98.84556,112.499561 Z" id="H19kqB891X"/>
                            <g id="BJoy9rI9J7">
                                <mask id="mask-4" fill="white">
                                    <use xlink:href="#path-3"/>
                                </mask>
                                <g id="HJhJcSU5km"/>
                                <path d="M108.63864,61.0382812 C108.63204,60.844043 108.62588,60.6498047 108.60828,60.4573242 C108.59552,60.3087891 108.57528,60.1624512 108.5568,60.0152344 C108.53568,59.8583496 108.51412,59.7014648 108.48552,59.5467773 C108.45384,59.3762695 108.41556,59.2092773 108.37464,59.0422852 C108.34296,58.9113281 108.31172,58.7799316 108.27432,58.6507324 C108.22416,58.4758301 108.16872,58.3044434 108.10844,58.1330566 C108.06576,58.0095703 108.02176,57.8869629 107.9738,57.7652344 C107.90956,57.6017578 107.83916,57.4417969 107.76656,57.2822754 C107.70716,57.1530762 107.64688,57.0251953 107.58176,56.8977539 C107.50916,56.7571289 107.4326,56.6187012 107.3534,56.4820312 C107.27288,56.3427246 107.18972,56.2042969 107.10172,56.0680664 C107.02648,55.9516113 106.94728,55.8373535 106.86676,55.7239746 C106.7638,55.5780762 106.6582,55.4352539 106.54644,55.2950684 C106.46724,55.1953125 106.3854,55.0981934 106.30136,55.0019531 C106.18168,54.8626465 106.05848,54.7259766 105.92912,54.5932617 C105.83716,54.4979004 105.74168,54.407373 105.64664,54.3155273 C105.52124,54.1951172 105.39232,54.0777832 105.259,53.9639648 C105.13932,53.8624512 105.01612,53.7670898 104.89336,53.6712891 C104.77368,53.5794434 104.65576,53.4880371 104.5308,53.4014648 C104.3724,53.2907227 104.20916,53.1887695 104.04416,53.0876953 C103.97024,53.0419922 103.90072,52.9901367 103.82416,52.945752 L14.6366,1.51699219 C10.0188,-1.1465332 4.114,0.434619141 1.44804,5.04624023 C-1.2188,9.65830078 0.36432,15.5557617 4.98168,18.2184082 L89.342,66.8632324 L89.342,96.5522461 C89.342,101.877539 93.66544,106.195166 98.99692,106.195166 C104.32972,106.195166 108.65184,101.877539 108.65184,96.5522461 L108.65184,61.2975586 C108.65096,61.2101074 108.64128,61.125293 108.63864,61.0382812" id="HJa19BU9kQ" mask="url(#mask-4)"/>
                            </g>
                        </g>
                    </g></g></g>
                </g>
            </g>
        </g>
    </g>
<script>(function(){var a=document.querySelector('#ryJcrI9Jm'),b=a.querySelectorAll('style'),c=function(d){b.forEach(function(f){var g=f.textContent;g&amp;&amp;(f.textContent=g.replace(/transform-box:[^;\r\n]*/gi,'transform-box: '+d))})};c('initial'),window.requestAnimationFrame(function(){return c('fill-box')})})();</script></svg>