<?xml version="1.0" encoding="utf-8"?>
<!-- Generator: Adobe Illustrator 21.1.0, SVG Export Plug-In . SVG Version: 6.00 Build 0)  -->
<svg version="1.1" id="Layer_1" xmlns="http://www.w3.org/2000/svg" xmlns:xlink="http://www.w3.org/1999/xlink" x="0px" y="0px"
	 viewBox="0 0 24 24" style="enable-background:new 0 0 24 24;" xml:space="preserve">
<g>
	<g>
		<g>
			<path d="M18.9,10.1h-0.3c-0.2,0-0.4,0.1-0.6,0.2l0.8-4.2l0.4-2.4c0-0.2-0.1-0.3-0.3-0.4h-0.1h-8.2c-0.2,0-0.3,0.2-0.3,0.3v0.1
				l0.4,2.4l0.8,4.2c-0.2-0.1-0.4-0.2-0.6-0.2H9.1c-0.2,0-0.4,0-0.6,0.1l-2.4,1.1v-0.2c0-0.2-0.2-0.3-0.3-0.3h-2
				c-0.2,0-0.3,0.2-0.3,0.3v10.3c0,0.2,0.2,0.3,0.3,0.3h2c0.2,0,0.3-0.2,0.3-0.3v-0.3h8.4c2,0,3.9-0.8,5.4-2.2
				c0.3-0.3,0.4-0.6,0.4-0.9v-6.5C20.2,10.7,19.6,10.1,18.9,10.1z M5.5,21.1H4.1v-9.6h1.4V21.1z M18.5,3.9l-0.3,1.6
				c-0.7-0.3-1.2-0.8-1.3-1.6H18.5z M11.1,3.9h1.6c-0.2,0.7-0.7,1.3-1.4,1.6L11.1,3.9z M11.5,6.2c1-0.3,1.8-1.2,1.9-2.3h2.8
				c0.2,1,0.8,2,1.9,2.3L16.9,12c-0.1,0.1-0.3,0.2-0.4,0.2h-3.4c-0.2,0-0.3-0.1-0.4-0.2L11.5,6.2z M19.6,12.7
				c-0.8,0.8-1.9,1.3-3,1.4l-2.9,0.4l0.1,0.7l2.9-0.4c1-0.2,2-0.6,2.9-1.3v0.8c-0.8,0.8-1.9,1.3-3,1.4l-2.9,0.5l0.1,0.7l2.9-0.4
				c1-0.2,2-0.6,2.9-1.3v0.8c-0.8,0.8-1.9,1.3-3,1.4L13.7,18l0.1,0.7l2.9-0.4c1-0.2,2-0.6,2.9-1.3v0.8c0,0.2-0.1,0.3-0.2,0.5
				c-1.3,1.3-3.1,2-4.8,2H6.1V12l2.7-1.2c0.1,0,0.2-0.1,0.3-0.1H11c0.3,0,0.7,0.3,0.7,0.7c0,0.8,0.6,1.4,1.4,1.4h3.4
				c0.8,0,1.4-0.6,1.4-1.4c0-0.3,0.3-0.7,0.7-0.7h0.3c0.3,0,0.7,0.3,0.7,0.7L19.6,12.7L19.6,12.7z"/>
		</g>
	</g>
	<g>
		<g>
			<path d="M14.7,8.3C13.8,8.3,13,9.1,13,10s0.8,1.7,1.7,1.7c0.9,0,1.7-0.8,1.7-1.7S15.7,8.3,14.7,8.3z M14.7,11.2c-0.6,0-1-0.4-1-1
				c0-0.6,0.4-1,1-1s1,0.4,1,1C15.7,10.7,15.3,11.2,14.7,11.2z"/>
		</g>
	</g>
	<g>
		<g>
			<rect x="16.4" y="6.3" transform="matrix(0.2169 -0.9762 0.9762 0.2169 8.8498 24.282)" width="6.4" height="0.7"/>
		</g>
	</g>
	<g>
		<g>
			<path d="M12,2.2H8.9c-0.2,0-0.3,0.2-0.3,0.3v0.1l1.7,7.2L11,9.7L9.4,2.9H12V2.2z"/>
		</g>
	</g>
</g>
</svg>
