<?xml version="1.0" encoding="utf-8"?>
<!-- Generator: Adobe Illustrator 21.1.0, SVG Export Plug-In . SVG Version: 6.00 Build 0)  -->
<svg version="1.1" id="Layer_1" xmlns="http://www.w3.org/2000/svg" xmlns:xlink="http://www.w3.org/1999/xlink" x="0px" y="0px"
	 viewBox="0 0 24 24" style="enable-background:new 0 0 24 24;" xml:space="preserve">
<style type="text/css">
	.st0{fill:#020202;}
	.st1{filter:url(#Adobe_OpacityMaskFilter);}
	.st2{fill:#FFFFFF;}
	.st3{mask:url(#mask-2_2_);fill:#020202;}
</style>
<g>
	<g id="Group-3" transform="translate(0.000000, 0.080763)">
		<path id="Fill-1" class="st0" d="M3.6,9H1.9C1.8,9,1.7,9,1.6,9.2l-0.7,4.4c0,0.1,0.1,0.2,0.1,0.2h0.8c0.1,0,0.2-0.1,0.2-0.2
			l0.2-1.2c0-0.1,0.1-0.2,0.2-0.2h0.5c1.1,0,1.8-0.6,2-1.6c0.1-0.5,0-0.9-0.2-1.1C4.6,9.1,4.2,9,3.6,9 M3.8,10.6
			c-0.1,0.6-0.6,0.6-1,0.6H2.5L2.7,10c0-0.1,0.1-0.1,0.1-0.1H3c0.3,0,0.6,0,0.8,0.2C3.8,10.2,3.8,10.4,3.8,10.6"/>
	</g>
	<path id="Fill-4" class="st0" d="M8.7,10.6H7.9c-0.1,0-0.1,0.1-0.1,0.1l0,0.2l-0.1-0.1c-0.2-0.3-0.6-0.3-1-0.3
		c-0.9,0-1.7,0.7-1.8,1.7c-0.1,0.5,0,0.9,0.3,1.3c0.3,0.3,0.6,0.4,1,0.4c0.7,0,1.1-0.5,1.1-0.5l0,0.2c0,0.1,0.1,0.2,0.1,0.2h0.7
		c0.1,0,0.2-0.1,0.2-0.2l0.4-2.8C8.9,10.7,8.8,10.6,8.7,10.6 M7.6,12.2C7.5,12.7,7.1,13,6.7,13c-0.2,0-0.4-0.1-0.6-0.2
		C6,12.7,5.9,12.5,6,12.2c0.1-0.5,0.5-0.8,0.9-0.8c0.2,0,0.4,0.1,0.5,0.2C7.6,11.8,7.6,12,7.6,12.2"/>
	<path id="Fill-6" class="st0" d="M13.1,10.6h-0.8c-0.1,0-0.2,0-0.2,0.1L11,12.4l-0.5-1.6c0-0.1-0.1-0.2-0.2-0.2H9.4
		c-0.1,0-0.2,0.1-0.1,0.2l0.9,2.7l-0.9,1.2c-0.1,0.1,0,0.2,0.1,0.2h0.8c0.1,0,0.2,0,0.2-0.1l2.8-4C13.3,10.8,13.2,10.6,13.1,10.6"/>
	<path id="Fill-8" class="st0" d="M15.9,9h-1.7c-0.1,0-0.2,0.1-0.2,0.2l-0.7,4.4c0,0.1,0.1,0.2,0.1,0.2h0.9c0.1,0,0.2-0.1,0.2-0.1
		l0.2-1.3c0-0.1,0.1-0.2,0.2-0.2h0.5c1.1,0,1.8-0.6,2-1.6c0.1-0.5,0-0.9-0.2-1.1C16.9,9.2,16.4,9,15.9,9 M16.1,10.7
		c-0.1,0.6-0.6,0.6-1,0.6h-0.3l0.2-1.2C15,10,15,10,15.1,10h0.1c0.3,0,0.6,0,0.8,0.2C16.1,10.3,16.1,10.4,16.1,10.7"/>
	<path id="Fill-10" class="st0" d="M21,10.6h-0.8c-0.1,0-0.1,0.1-0.1,0.1l0,0.2L20,10.9c-0.2-0.3-0.6-0.3-1-0.3
		c-0.9,0-1.7,0.7-1.8,1.7c-0.1,0.5,0,0.9,0.3,1.3c0.3,0.3,0.6,0.4,1,0.4c0.7,0,1.1-0.5,1.1-0.5l0,0.2c0,0.1,0.1,0.2,0.1,0.2h0.7
		c0.1,0,0.2-0.1,0.2-0.2l0.4-2.8C21.2,10.7,21.1,10.6,21,10.6 M19.9,12.2c-0.1,0.5-0.5,0.8-0.9,0.8c-0.2,0-0.4-0.1-0.6-0.2
		c-0.1-0.1-0.2-0.4-0.1-0.6c0.1-0.5,0.5-0.8,0.9-0.8c0.2,0,0.4,0.1,0.5,0.2C19.8,11.8,19.9,12,19.9,12.2"/>
	<g id="Group-14" transform="translate(104.669137, 0.080763)">
		<g id="Clip-13">
		</g>
		<defs>
			<filter id="Adobe_OpacityMaskFilter" filterUnits="userSpaceOnUse" x="-83.4" y="9" width="1.8" height="4.8">
				<feColorMatrix  type="matrix" values="1 0 0 0 0  0 1 0 0 0  0 0 1 0 0  0 0 0 1 0"/>
			</filter>
		</defs>
		<mask maskUnits="userSpaceOnUse" x="-83.4" y="9" width="1.8" height="4.8" id="mask-2_2_">
			<g class="st1">
				<polygon id="path-1_2_" class="st2" points="-81.6,13.8 -81.6,9 -83.4,9 -83.4,13.8 				"/>
			</g>
		</mask>
		<path id="Fill-12" class="st3" d="M-82.7,9.1l-0.7,4.5c0,0.1,0.1,0.2,0.1,0.2h0.7c0.1,0,0.2-0.1,0.2-0.2l0.7-4.4
			c0-0.1-0.1-0.2-0.1-0.2h-0.8C-82.6,9-82.7,9-82.7,9.1"/>
	</g>
</g>
</svg>
