<?xml version="1.0" encoding="utf-8"?>
<!-- Generator: Adobe Illustrator 21.1.0, SVG Export Plug-In . SVG Version: 6.00 Build 0)  -->
<svg version="1.1" id="Layer_1" xmlns="http://www.w3.org/2000/svg" xmlns:xlink="http://www.w3.org/1999/xlink" x="0px" y="0px"
	 viewBox="0 0 24 24" style="enable-background:new 0 0 24 24;" xml:space="preserve">
<g>
	<path d="M19.6,7.3C19.4,7,19.2,6.9,19,6.7c0,0.5,0,1.1-0.2,1.7c-0.4,1.7-1.2,3.1-2.4,4.1c-1.2,1-2.8,1.5-4.5,1.5H9.5l-0.8,3.7
		C8.5,18.5,7.9,19,7.1,19H6l-0.2,0.9c-0.1,0.2,0,0.5,0.2,0.7c0.2,0.2,0.4,0.3,0.6,0.3h2.7c0.4,0,0.7-0.3,0.8-0.6l0.9-4.4h3.1
		c1.5,0,2.9-0.5,4-1.4c1.1-0.9,1.8-2.1,2.2-3.6C20.6,9.4,20.4,8.2,19.6,7.3z"/>
	<path d="M7.9,17.6l0.9-4.4h3.1c1.5,0,2.9-0.5,4-1.4c1.1-0.9,1.8-2.1,2.2-3.6c0.3-1.5,0.1-2.7-0.7-3.7c-0.7-0.9-2-1.5-3.3-1.5H7.3
		C7,3.1,6.6,3.3,6.5,3.7L3.6,17.3c-0.1,0.2,0,0.5,0.2,0.7c0.2,0.2,0.4,0.3,0.6,0.3h2.7C7.5,18.2,7.8,18,7.9,17.6z M10.4,6.2h2.1
		c0.5,0,1,0.2,1.2,0.6c0.3,0.4,0.4,0.9,0.2,1.5c0,0,0,0,0,0c-0.3,1.1-1.4,2.1-2.5,2.1h-2L10.4,6.2z"/>
</g>
</svg>
