<?xml version="1.0" encoding="UTF-8"?>
<svg width="446px" height="342px" viewBox="0 0 446 342" version="1.1" xmlns="http://www.w3.org/2000/svg" xmlns:xlink="http://www.w3.org/1999/xlink">
    <!-- Generator: Sketch 50.2 (55047) - http://www.bohemiancoding.com/sketch -->
    <title>illustration 2</title>
    <desc>Created with Sketch.</desc>
    <defs></defs>
    <g id="RTL" stroke="none" stroke-width="1" fill="none" fill-rule="evenodd">
        <g id="onboarding-2" transform="translate(-152.000000, -255.000000)">
            <g id="top">
                <g id="illustration-2" transform="translate(154.000000, 257.000000)">
                    <polyline id="Stroke-1" stroke="#FFFFFF" stroke-width="6" points="139.193214 261.368364 139.193214 170.333701 193.837652 170.333701 193.837652 261.368364"></polyline>
                    <polygon id="Fill-2" fill="#FFFFFF" points="304.756366 211.472285 304.756366 216.992008 282.69473 216.992008 282.69473 261.592297 277.167685 261.592297 277.167685 216.992008 255.10605 216.992008 255.10605 211.472285"></polygon>
                    <polygon id="Fill-3" fill="#FFFFFF" points="265.681323 257.910735 265.681323 230.340071 239.016531 230.340071 239.016531 203.508863 233.494141 203.508863 233.494141 257.910735 239.016531 257.910735 239.016531 235.859793 260.165914 235.859793 260.165914 257.910735"></polygon>
                    <polygon id="Fill-4" fill="#FFFFFF" points="326.370835 257.910735 326.370835 203.508863 320.855426 203.508863 320.855426 230.340071 294.183653 230.340071 294.183653 257.910735 299.706044 257.910735 299.706044 235.859793 320.855426 235.859793 320.855426 257.910735"></polygon>
                    <path d="M98.7387364,259.977487 L98.7387364,147.068885" id="Stroke-5" stroke="#FFFFFF" stroke-width="6"></path>
                    <path d="M339.940719,147.069235 L339.940719,259.977836" id="Stroke-6" stroke="#FFFFFF" stroke-width="6"></path>
                    <g id="Group-44" transform="translate(0.000000, 0.105969)">
                        <path d="M346.26203,146.100489 C342.549019,146.100489 339.185085,144.47252 336.748531,141.858221 C334.322449,139.233441 332.810948,135.613016 332.809784,131.614128 L332.809784,131.60947 C332.809784,128.826319 330.714161,126.568357 328.130995,126.568357 C325.557138,126.568357 323.451043,128.826319 323.451043,131.60947 L323.451043,131.614128 C323.449879,135.613016 321.94885,139.234606 319.51346,141.858221 C317.076906,144.47252 313.714135,146.100489 309.999961,146.100489 C306.392837,146.100489 303.126644,144.58897 300.718016,142.130713 L300.484135,141.858221 C298.05689,139.233441 296.546552,135.609522 296.546552,131.60947 C296.546552,128.826319 294.450929,126.568357 291.866599,126.568357 C289.283433,126.568357 287.187811,128.826319 287.187811,131.60947 C287.187811,135.609522 285.676309,139.233441 283.249064,141.858221 C280.81251,144.47252 277.448576,146.100489 273.735565,146.100489 C270.021391,146.100489 266.657457,144.47252 264.220903,141.858221 C261.793658,139.233441 260.282156,135.609522 260.282156,131.60947 C260.282156,129.86971 259.464154,128.336065 258.219114,127.430085 C257.47209,126.886265 256.572636,126.568357 255.603367,126.568357 C254.957576,126.568357 254.342037,126.709261 253.782351,126.964286 C252.103293,127.730526 250.924578,129.522689 250.924578,131.60947 C250.924578,135.609522 249.413077,139.233441 246.985832,141.858221 C244.549278,144.47252 241.18418,146.100489 237.471169,146.100489 C233.758159,146.100489 230.394225,144.47252 227.957671,141.858221 C225.530425,139.233441 224.020088,135.609522 224.020088,131.60947 C224.020088,128.826319 221.923301,126.568357 219.340135,126.568357 C216.756969,126.568357 214.661346,128.826319 214.661346,131.60947 C214.661346,135.609522 213.149845,139.233441 210.714454,141.859385 L210.480573,142.131878 C208.082417,144.58897 204.816225,146.101653 201.209101,146.101653 C197.49609,146.101653 194.132156,144.473684 191.695602,141.859385 C189.268357,139.233441 187.756855,135.610687 187.756855,131.60947 C187.756855,129.86971 186.937689,128.336065 185.69265,127.430085 C184.945626,126.886265 184.046172,126.568357 183.076903,126.568357 C180.492573,126.568357 178.39695,128.826319 178.39695,131.60947 C178.39695,135.609522 176.886613,139.233441 174.459367,141.858221 C172.02165,144.47252 168.658879,146.100489 164.944705,146.100489 C161.230531,146.100489 157.866597,144.47252 155.430043,141.858221 C153.002797,139.233441 151.49246,135.609522 151.49246,131.60947 C151.49246,128.826319 149.396837,126.568357 146.812507,126.568357 C144.229341,126.568357 142.133718,128.826319 142.133718,131.60947 C142.133718,135.609522 140.622217,139.233441 138.196135,141.858221 C135.758417,144.47252 132.395647,146.100489 128.681473,146.100489 C124.956826,146.100489 121.594056,144.483 119.176119,141.879182 L119.166811,141.868701 L119.166811,141.858221 C116.739565,139.232277 115.229227,135.609522 115.229227,131.608306 C115.229227,128.825155 113.132441,126.568357 110.549275,126.568357 C107.966109,126.568357 105.869322,128.826319 105.869322,131.608306 L105.869322,131.60947 C105.869322,135.609522 104.358985,139.233441 101.931739,141.858221 C99.4940216,144.47252 96.1312512,146.100489 92.417077,146.100489 C88.7029029,146.100489 85.3401325,144.47252 82.9024148,141.858221 C80.7858475,139.567652 79.3662697,136.517831 79.0393013,133.120989 L125.005697,65.032767 L313.673409,65.032767 L359.640969,133.122154 C359.312837,136.518996 357.894423,139.568817 355.775528,141.858221 C353.338974,144.47252 349.97504,146.100489 346.26203,146.100489 Z" id="Stroke-7" stroke="#FFFFFF" stroke-width="6"></path>
                        <path d="M353.382609,28.4333971 L353.382609,75.831976 C353.382609,79.4139731 350.482946,82.3159031 346.914221,82.3159031 L293.41359,82.3159031 C292.529263,82.3159031 291.657735,82.2600072 290.79668,82.1237609 L285.890991,84.584346 L274.620474,90.2181894 L274.620474,40.7677642 C274.620474,35.5985558 276.738205,30.8939822 280.137047,27.4808374 C283.546361,24.080502 288.247258,21.9599504 293.41359,21.9599504 L346.914221,21.9599504 C350.482946,21.9599504 353.382609,24.8618804 353.382609,28.4333971" id="Fill-9" fill="#F3073E"></path>
                        <path d="M353.382609,28.4333971 L353.382609,75.831976 C353.382609,79.4139731 350.482946,82.3159031 346.914221,82.3159031 L293.41359,82.3159031 C292.529263,82.3159031 291.657735,82.2600072 290.79668,82.1237609 L285.890991,84.584346 L274.620474,90.2181894 L274.620474,40.7677642 C274.620474,35.5985558 276.738205,30.8939822 280.137047,27.4808374 C283.546361,24.080502 288.247258,21.9599504 293.41359,21.9599504 L346.914221,21.9599504 C350.482946,21.9599504 353.382609,24.8618804 353.382609,28.4333971 Z" id="Stroke-11" stroke="#FFFFFF" stroke-width="6"></path>
                        <path d="M334.68002,45.657726 L340.283861,46.4379399 C341.545191,46.6126147 342.05717,48.1590686 341.150735,49.0545679 L337.123555,53.0313299 C336.764007,53.3865019 336.602268,53.8965523 336.690701,54.3937931 L337.680914,59.9694115 C337.904323,61.2235763 336.592959,62.1889455 335.463115,61.6032028 L330.43874,58.9993843 C329.989595,58.7664846 329.455508,58.7699781 329.009854,59.0075358 L324.018059,61.6730727 C322.895197,62.2727893 321.572197,61.3237231 321.779315,60.0672293 L322.702041,54.479966 C322.783492,53.9815606 322.615935,53.4738393 322.251732,53.1221608 L318.175682,49.1954722 C317.258774,48.3116179 317.752136,46.7593415 319.011139,46.5683637 L324.604508,45.7194444 C325.104851,45.643752 325.535379,45.3270084 325.75646,44.8716896 L328.229086,39.779338 C328.785281,38.6334716 330.413141,38.6229911 330.983299,39.7618705 L333.518759,44.8239451 C333.744495,45.276935 334.179677,45.5878561 334.68002,45.657726" id="Fill-13" fill="#FFFFFF"></path>
                        <path d="M295.426133,52.4164748 L297.316964,37.9254565 L312.601861,37.9254565 L312.601861,41.1848876 L300.896162,41.1848876 L300.05256,47.7060787 C300.989249,47.2495953 301.90732,46.9747737 302.806774,46.8804493 C303.705064,46.7872894 304.369473,46.7407095 304.798837,46.7407095 C306.111365,46.7407095 307.337787,46.9817607 308.478104,47.4650275 C309.617257,47.9471299 310.595835,48.606236 311.413837,49.4365233 C312.23184,50.2691397 312.875304,51.2414959 313.34423,52.3547564 C313.81432,53.4691813 314.049365,54.6569697 314.049365,55.9181215 C314.049365,57.0989229 313.848064,58.2389668 313.445463,59.3394178 C313.044025,60.4410333 312.433141,61.4133895 311.615138,62.2576509 C310.797135,63.1030767 309.758051,63.7878018 308.497885,64.3106616 C307.237718,64.8335213 305.763452,65.096698 304.073922,65.096698 C302.947568,65.096698 301.881721,64.9348327 300.876381,64.6134311 C299.869877,64.2908651 298.951806,63.8075982 298.121003,63.1636306 C297.290201,62.519663 296.578085,61.7138301 295.989309,60.7484609 C295.39937,59.7819272 294.943244,58.6546928 294.622093,57.3667575 L299.046056,57.3667575 C299.502183,58.816558 300.199172,59.9368055 301.137025,60.7286644 C302.07604,61.5193589 303.067418,61.9152883 304.114647,61.9152883 C304.863998,61.9152883 305.583096,61.7615745 306.266122,61.4529825 C306.949149,61.1443904 307.546069,60.7216775 308.055721,60.1848437 C308.565373,59.6480099 308.967974,59.0180163 309.263526,58.2925338 C309.557914,57.5682157 309.704526,56.7775213 309.704526,55.9181215 C309.704526,55.0598862 309.543951,54.2680272 309.221637,53.5437092 C308.900486,52.8193912 308.478104,52.1952201 307.955653,51.6711958 C307.432038,51.148336 306.83628,50.7395971 306.16489,50.4438145 C305.494663,50.1491964 304.810473,50.0013051 304.114647,50.0013051 C303.336207,50.0013051 302.505404,50.2085858 301.619914,50.6243117 C300.734423,51.0412021 299.997872,51.6374253 299.407932,52.4164748 L295.426133,52.4164748 Z" id="Fill-15" fill="#FFFFFF"></path>
                        <path d="M36.0089881,179.387093 C36.0089881,183.907676 32.3471755,187.571188 27.8312889,187.571188 C23.3142388,187.571188 19.6524261,183.907676 19.6524261,179.387093 C19.6524261,174.866511 23.3142388,171.202999 27.8312889,171.202999 C32.3471755,171.202999 36.0089881,174.866511 36.0089881,179.387093 Z" id="Stroke-17" stroke="#FFFFFF" stroke-width="4" opacity="0.6" stroke-linecap="round"></path>
                        <path d="M412.930408,17.915298 C412.930408,22.4358809 409.268596,26.0993929 404.752709,26.0993929 C400.235659,26.0993929 396.573846,22.4358809 396.573846,17.915298 C396.573846,13.3947152 400.235659,9.73120319 404.752709,9.73120319 C409.268596,9.73120319 412.930408,13.3947152 412.930408,17.915298 Z" id="Stroke-19" stroke="#FFFFFF" stroke-width="4" opacity="0.6" stroke-linecap="round"></path>
                        <path d="M219.33967,329.651057 C219.33967,334.17164 215.677857,337.835152 211.16197,337.835152 C206.64492,337.835152 202.983108,334.17164 202.983108,329.651057 C202.983108,325.130475 206.64492,321.466963 211.16197,321.466963 C215.677857,321.466963 219.33967,325.130475 219.33967,329.651057 Z" id="Stroke-21" stroke="#FFFFFF" stroke-width="4" opacity="0.6" stroke-linecap="round"></path>
                        <g id="Group-27" opacity="0.6" transform="translate(138.467018, 0.000000)" stroke="#FFFFFF" stroke-linecap="round" stroke-width="4">
                            <path d="M0.726195515,0.0255747212 L18.602404,17.9157638" id="Stroke-23"></path>
                            <path d="M18.6018222,0.0255747212 L0.72561372,17.9157638" id="Stroke-25"></path>
                        </g>
                        <g id="Group-32" opacity="0.6" transform="translate(0.000000, 256.320613)" stroke="#FFFFFF" stroke-linecap="round" stroke-width="4">
                            <path d="M0.000465435356,0.393716913 L17.8766739,18.283906" id="Stroke-28"></path>
                            <path d="M17.8762084,0.393716913 L0,18.283906" id="Stroke-30"></path>
                        </g>
                        <g id="Group-37" opacity="0.6" transform="translate(395.620053, 148.022260)" stroke="#FFFFFF" stroke-linecap="round" stroke-width="4">
                            <path d="M0.19443562,0.431679562 L18.0706441,18.3218687" id="Stroke-33"></path>
                            <path d="M18.0701786,0.431679562 L0.193970185,18.3218687" id="Stroke-35"></path>
                        </g>
                        <path d="M58.0332728,261.262395 L380.646299,261.262395" id="Stroke-38" stroke="#FFFFFF" stroke-width="6" stroke-linecap="round"></path>
                        <polygon id="Stroke-40" stroke="#FFFFFF" stroke-width="4" opacity="0.6" stroke-linecap="round" points="36.0089881 61.2713207 17.6196372 55.944905 31.4232863 42.6696231"></polygon>
                        <polygon id="Stroke-42" stroke="#FFFFFF" stroke-width="4" opacity="0.6" stroke-linecap="round" points="440.90284 267.105731 422.513489 261.779315 436.317139 248.504034"></polygon>
                    </g>
                </g>
            </g>
        </g>
    </g>
</svg>