<?xml version="1.0" encoding="UTF-8"?>
<svg width="521px" height="317px" viewBox="0 0 521 317" version="1.1" xmlns="http://www.w3.org/2000/svg" xmlns:xlink="http://www.w3.org/1999/xlink">
    <!-- Generator: Sketch 50.2 (55047) - http://www.bohemiancoding.com/sketch -->
    <title>illusrtation 3</title>
    <desc>Created with Sketch.</desc>
    <defs>
        <polygon id="path-1" points="53.0375939 0.734535714 0.960654545 0.734535714 0.960654545 23.8839614 53.0375939 23.8839614 53.0375939 0.734535714"></polygon>
        <polygon id="path-3" points="0.960654545 17.5694214 53.0375939 17.5694214 53.0375939 0.207352143 0.960654545 0.207352143 0.960654545 17.5694214"></polygon>
        <polygon id="path-5" points="58.1729697 11.6994157 58.1729697 0.0567442857 0.309454545 0.0567442857 0.309454545 11.6994157 58.1729697 11.6994157"></polygon>
        <polygon id="path-7" points="52.9085424 0.734535714 0.83160303 0.734535714 0.83160303 23.8839614 52.9085424 23.8839614 52.9085424 0.734535714"></polygon>
        <polygon id="path-9" points="0.83160303 17.5694214 52.9085424 17.5694214 52.9085424 0.207352143 0.83160303 0.207352143 0.83160303 17.5694214"></polygon>
        <polygon id="path-11" points="58.0440303 11.6994157 58.0440303 0.0567442857 0.180515152 0.0567442857 0.180515152 11.6994157 58.0440303 11.6994157"></polygon>
    </defs>
    <g id="RTL" stroke="none" stroke-width="1" fill="none" fill-rule="evenodd">
        <g id="onboarding-3" transform="translate(-115.000000, -272.000000)">
            <g id="top">
                <g id="illusrtation-3" transform="translate(117.000000, 274.000000)">
                    <path d="M369.095742,260.104569 L189.695076,260.104569 C184.702318,260.104569 180.655864,256.056212 180.655864,251.062491 L180.655864,91.1837836 C180.655864,86.1900621 184.702318,82.141705 189.695076,82.141705 L369.095742,82.141705 C374.0885,82.141705 378.136076,86.1900621 378.136076,91.1837836 L378.136076,251.062491 C378.136076,256.056212 374.0885,260.104569 369.095742,260.104569" id="Fill-1"></path>
                    <path d="M369.095742,260.104569 L189.695076,260.104569 C184.702318,260.104569 180.655864,256.056212 180.655864,251.062491 L180.655864,91.1837836 C180.655864,86.1900621 184.702318,82.141705 189.695076,82.141705 L369.095742,82.141705 C374.0885,82.141705 378.136076,86.1900621 378.136076,91.1837836 L378.136076,251.062491 C378.136076,256.056212 374.0885,260.104569 369.095742,260.104569 Z" id="Stroke-3" stroke="#FFFFFF" stroke-width="6"></path>
                    <path d="M15.7602061,143.343109 C15.7276909,147.696494 12.1734485,151.198716 7.82202424,151.166194 C3.46947879,151.133673 -0.0320666667,147.579866 0.000448484848,143.22648 C0.0318424242,138.874216 3.58608485,135.370873 7.9386303,135.403394 C12.2900545,135.435916 15.7927212,138.989723 15.7602061,143.343109 Z" id="Stroke-5" stroke="#FFFFFF" stroke-width="4" opacity="0.6" stroke-linecap="round"></path>
                    <path d="M400.741506,31.2772936 C400.708991,35.6306793 397.154748,39.1329007 392.803324,39.1003793 C388.450779,39.0678579 384.949233,35.5140507 384.981748,31.160665 C385.013142,26.8084007 388.567385,23.3050579 392.91993,23.3375793 C397.271355,23.3701007 400.774021,26.9239079 400.741506,31.2772936 Z" id="Stroke-7" stroke="#FFFFFF" stroke-width="4" opacity="0.6" stroke-linecap="round"></path>
                    <g id="Group-13" opacity="0.6" transform="translate(207.424242, 0.020186)" stroke="#FFFFFF" stroke-linecap="round" stroke-width="4">
                        <path d="M0.623393939,0.100794286 L17.7207576,17.4560229" id="Stroke-9"></path>
                        <path d="M17.8476788,0.228188571 L0.4958,17.3288529" id="Stroke-11"></path>
                    </g>
                    <g id="Group-18" opacity="0.6" transform="translate(93.060606, 255.827329)" stroke="#FFFFFF" stroke-linecap="round" stroke-width="4">
                        <path d="M1.08746364,0.236397143 L18.1848273,17.5916257" id="Stroke-14"></path>
                        <path d="M18.3117485,0.363791429 L0.959869697,17.4644557" id="Stroke-16"></path>
                    </g>
                    <g id="Group-23" opacity="0.6" transform="translate(498.939394, 76.398757)" stroke="#FFFFFF" stroke-linecap="round" stroke-width="4">
                        <path d="M0.7326,0.340802143 L17.8299636,17.6960307" id="Stroke-19"></path>
                        <path d="M17.9568848,0.468196429 L0.605006061,17.5688607" id="Stroke-21"></path>
                    </g>
                    <path d="M315.808455,194.704201 L230.118697,194.704201 L223.929606,173.446401 L322.044636,173.446401 L315.808455,194.704201 Z M246.958182,156.710201 C255.277576,156.710201 258.899091,161.882229 260.159333,167.160794 L233.734606,167.160794 C235.154061,161.165636 240.544848,156.710201 246.958182,156.710201 L246.958182,156.710201 Z M270.542879,137.044829 C280.065333,137.044829 287.891394,144.452986 288.537212,153.862894 C284.454879,157.284372 281.767333,161.965215 280.856909,167.156308 L266.544636,167.156308 C265.349424,159.763851 259.999,153.595994 252.874818,151.329586 C254.631758,143.145401 261.935333,137.044829 270.542879,137.044829 L270.542879,137.044829 Z M301.075727,138.085515 C305.182727,140.523501 307.708818,144.679515 308.128152,149.247094 C306.465394,148.845622 304.733121,148.625822 302.933576,148.625822 C299.891727,148.625822 297.010212,149.247094 294.347333,150.336001 C293.347212,145.341158 290.821121,140.902544 287.270242,137.505736 C291.649697,135.405301 296.797182,135.534265 301.075727,138.085515 L301.075727,138.085515 Z M318.607,167.073322 L287.318455,167.073322 C289.092212,160.035236 295.437152,154.887879 302.963848,154.887879 C310.483818,154.887879 316.832121,160.035236 318.607,167.073322 L318.607,167.073322 Z M328.702394,168.426886 C328.103667,167.628429 327.193242,167.184344 326.193121,167.184344 L325.014727,167.184344 C323.862121,160.639686 319.914333,155.111044 314.45403,151.851051 C314.89803,144.104222 311.080303,136.784658 304.289121,132.741908 C297.187364,128.504029 288.425091,128.858401 281.720242,133.565036 C278.371182,131.812244 274.572515,130.811929 270.537273,130.811929 C258.798182,130.811929 248.882182,139.246194 246.703667,150.472815 C236.941273,150.602901 228.865182,157.815929 227.378455,167.184344 L219.73403,167.184344 C218.758576,167.184344 217.830212,167.653101 217.225879,168.426886 C216.628273,169.227586 216.45,170.251451 216.716848,171.179994 L224.752576,198.722279 C225.155091,200.053415 226.372727,200.984201 227.745091,200.984201 L318.146182,200.984201 C319.542091,200.984201 320.76197,200.072479 321.140939,198.722279 L329.174424,171.179994 C329.477152,170.221172 329.282061,169.202915 328.702394,168.426886 L328.702394,168.426886 Z" id="Fill-24" fill="#FFFFFF"></path>
                    <g id="Group-29" transform="translate(392.424242, 112.284471)">
                        <path d="M0.437272727,0.904095714 L101.559394,0.904095714 C104.631515,0.904095714 107.120606,3.39366714 107.120606,6.46638143 L107.120606,104.905381 C107.120606,107.978096 104.631515,110.478881 101.559394,110.478881 L0.437272727,110.478881" id="Fill-26"></path>
                        <path d="M0.437272727,0.904095714 L101.559394,0.904095714 C104.631515,0.904095714 107.120606,3.39366714 107.120606,6.46638143 L107.120606,104.905381 C107.120606,107.978096 104.631515,110.478881 101.559394,110.478881 L0.437272727,110.478881" id="Stroke-28" stroke="#FFFFFF" stroke-width="6"></path>
                    </g>
                    <g id="Group-33" transform="translate(58.303030, 112.284471)">
                        <path d="M107.120494,0.904095714 L5.99837273,0.904095714 C2.92625152,0.904095714 0.437160606,3.39366714 0.437160606,6.46638143 L0.437160606,104.905381 C0.437160606,107.978096 2.92625152,110.478881 5.99837273,110.478881 L107.120494,110.478881" id="Fill-30"></path>
                        <path d="M107.120494,0.904095714 L5.99837273,0.904095714 C2.92625152,0.904095714 0.437160606,3.39366714 0.437160606,6.46638143 L0.437160606,104.905381 C0.437160606,107.978096 2.92625152,110.478881 5.99837273,110.478881 L107.120494,110.478881" id="Stroke-32" stroke="#FFFFFF" stroke-width="6"></path>
                    </g>
                    <g id="Group-43" transform="translate(90.818182, 135.834471)">
                        <g id="Group-36" transform="translate(2.242424, 0.000000)">
                            <mask id="mask-2" fill="white">
                                <use xlink:href="#path-1"></use>
                            </mask>
                            <g id="Clip-35"></g>
                            <path d="M7.35941212,18.09739 C8.0971697,14.9775757 9.54353333,12.5665043 11.698503,10.7329686 C15.0397152,7.93612571 20.1849576,6.52200429 26.9985636,6.52200429 C33.8132909,6.52200429 38.9574121,7.93612571 42.2997455,10.7329686 C44.4547152,12.53174 45.8999576,14.9775757 46.6377152,18.09739 L7.35941212,18.09739 Z M26.9985636,0.734311429 C11.0246545,0.734311429 0.960654545,7.90696857 0.960654545,23.8839614 L53.0375939,23.8839614 C53.0375939,7.90696857 42.9735939,0.734311429 26.9985636,0.734311429 L26.9985636,0.734311429 Z" id="Fill-34" fill="#FFFFFF" mask="url(#mask-2)"></path>
                        </g>
                        <g id="Group-39" transform="translate(2.242424, 45.978571)">
                            <mask id="mask-4" fill="white">
                                <use xlink:href="#path-3"></use>
                            </mask>
                            <g id="Clip-38"></g>
                            <path d="M46.9617455,5.99392357 C46.6377152,8.21210929 46.1275636,9.11485929 45.4189576,9.62623071 C42.6562909,11.5550879 34.1350788,11.7816164 26.9985636,11.7816164 C19.8956848,11.7816164 11.3755939,11.5259307 8.57929091,9.59707357 C7.87068485,9.11485929 7.32465455,8.21210929 7.03538182,5.99392357 L46.9617455,5.99392357 Z M26.9985636,17.5704307 C50.2065333,17.5704307 53.0375939,14.8061093 53.0375939,0.207352143 L0.960654545,0.207352143 C0.960654545,14.7096664 3.75695758,17.5704307 26.9985636,17.5704307 L26.9985636,17.5704307 Z" id="Fill-37" fill="#FFFFFF" mask="url(#mask-4)"></path>
                        </g>
                        <g id="Group-42" transform="translate(0.000000, 29.157143)">
                            <mask id="mask-6" fill="white">
                                <use xlink:href="#path-5"></use>
                            </mask>
                            <g id="Clip-41"></g>
                            <path d="M55.2799061,5.91172286 C54.0589061,5.91172286 53.5442697,5.42950857 52.2268455,3.94922286 C50.7804818,2.30857286 48.7566939,0.0567442857 44.8638455,0.0567442857 C40.9732394,0.0567442857 38.9819667,2.30857286 37.5008455,3.94922286 C36.1845424,5.42950857 35.6687848,5.91172286 34.4489061,5.91172286 C33.2279061,5.91172286 32.7121485,5.42950857 31.3969667,3.94922286 C29.9494818,2.30857286 27.9256939,0.0567442857 24.0328455,0.0567442857 C20.1422394,0.0567442857 18.1509667,2.30857286 16.6698455,3.94922286 C15.3535424,5.42950857 14.8377848,5.91172286 13.6190273,5.91172286 C12.3980273,5.91172286 11.8833909,5.42950857 10.5659667,3.94922286 C9.11848182,2.30857286 7.09469394,0.0567442857 3.20296667,0.0567442857 C1.5962697,0.0567442857 0.309118182,1.34526571 0.309118182,2.95115143 C0.309118182,4.55591571 1.5962697,5.84331571 3.20296667,5.84331571 C4.42284545,5.84331571 4.93860303,6.32665143 6.25490606,7.80693714 C7.70239091,9.44646571 9.72617879,11.6994157 13.6190273,11.6994157 C17.5096333,11.6994157 19.5009061,9.44646571 20.9820273,7.80693714 C22.2972091,6.32665143 22.8140879,5.84331571 24.0328455,5.84331571 C25.2538455,5.84331571 25.769603,6.32665143 27.0859061,7.80693714 C28.5322697,9.44646571 30.5571788,11.6994157 34.4489061,11.6994157 C38.3395121,11.6994157 40.3307848,9.44646571 41.8130273,7.80693714 C43.1282091,6.32665143 43.6439667,5.84331571 44.8638455,5.84331571 C46.0848455,5.84331571 46.5994818,6.32665143 47.9169061,7.80693714 C49.3632697,9.44646571 51.3881788,11.6994157 55.2799061,11.6994157 C56.8854818,11.6994157 58.1737545,10.4120157 58.1737545,8.80613 C58.1737545,7.19912286 56.8854818,5.91172286 55.2799061,5.91172286" id="Fill-40" fill="#FFFFFF" mask="url(#mask-6)"></path>
                        </g>
                    </g>
                    <g id="Group-53" transform="translate(417.090909, 135.834471)">
                        <g id="Group-46" transform="translate(2.242424, 0.000000)">
                            <mask id="mask-8" fill="white">
                                <use xlink:href="#path-7"></use>
                            </mask>
                            <g id="Clip-45"></g>
                            <path d="M7.23036061,18.09739 C7.96811818,14.9775757 9.41448182,12.5665043 11.5694515,10.7329686 C14.9106636,7.93612571 20.0559061,6.52200429 26.8695121,6.52200429 C33.6842394,6.52200429 38.8283606,7.93612571 42.1706939,10.7329686 C44.3256636,12.53174 45.7709061,14.9775757 46.5086636,18.09739 L7.23036061,18.09739 Z M26.8695121,0.734311429 C10.895603,0.734311429 0.83160303,7.90696857 0.83160303,23.8839614 L52.9085424,23.8839614 C52.9085424,7.90696857 42.8445424,0.734311429 26.8695121,0.734311429 L26.8695121,0.734311429 Z" id="Fill-44" fill="#FFFFFF" mask="url(#mask-8)"></path>
                        </g>
                        <g id="Group-49" transform="translate(2.242424, 45.978571)">
                            <mask id="mask-10" fill="white">
                                <use xlink:href="#path-9"></use>
                            </mask>
                            <g id="Clip-48"></g>
                            <path d="M46.8326939,5.99392357 C46.5086636,8.21210929 45.9985121,9.11485929 45.2899061,9.62623071 C42.5272394,11.5550879 34.0060273,11.7816164 26.8695121,11.7816164 C19.7666333,11.7816164 11.2465424,11.5259307 8.45023939,9.59707357 C7.74163333,9.11485929 7.19560303,8.21210929 6.9063303,5.99392357 L46.8326939,5.99392357 Z M26.8695121,17.5704307 C50.0774818,17.5704307 52.9085424,14.8061093 52.9085424,0.207352143 L0.83160303,0.207352143 C0.83160303,14.7096664 3.62790606,17.5704307 26.8695121,17.5704307 L26.8695121,17.5704307 Z" id="Fill-47" fill="#FFFFFF" mask="url(#mask-10)"></path>
                        </g>
                        <g id="Group-52" transform="translate(0.000000, 29.157143)">
                            <mask id="mask-12" fill="white">
                                <use xlink:href="#path-11"></use>
                            </mask>
                            <g id="Clip-51"></g>
                            <path d="M55.1508545,5.91172286 C53.9298545,5.91172286 53.4152182,5.42950857 52.0977939,3.94922286 C50.6514303,2.30857286 48.6276424,0.0567442857 44.7347939,0.0567442857 C40.8441879,0.0567442857 38.8529152,2.30857286 37.3717939,3.94922286 C36.0554909,5.42950857 35.5397333,5.91172286 34.3198545,5.91172286 C33.0988545,5.91172286 32.583097,5.42950857 31.2679152,3.94922286 C29.8204303,2.30857286 27.7966424,0.0567442857 23.9037939,0.0567442857 C20.0131879,0.0567442857 18.0219152,2.30857286 16.5407939,3.94922286 C15.2244909,5.42950857 14.7087333,5.91172286 13.4888545,5.91172286 C12.2689758,5.91172286 11.7543394,5.42950857 10.4369152,3.94922286 C8.9894303,2.30857286 6.96564242,0.0567442857 3.07391515,0.0567442857 C1.46721818,0.0567442857 0.180066667,1.34526571 0.180066667,2.95115143 C0.180066667,4.55591571 1.46721818,5.84331571 3.07391515,5.84331571 C4.29379394,5.84331571 4.80955152,6.32665143 6.12585455,7.80693714 C7.57333939,9.44646571 9.59712727,11.6994157 13.4888545,11.6994157 C17.3805818,11.6994157 19.3718545,9.44646571 20.8529758,7.80693714 C22.1681576,6.32665143 22.6850364,5.84331571 23.9037939,5.84331571 C25.1247939,5.84331571 25.6405515,6.32665143 26.9568545,7.80693714 C28.4032182,9.44646571 30.4281273,11.6994157 34.3198545,11.6994157 C38.2104606,11.6994157 40.2017333,9.44646571 41.6839758,7.80693714 C42.9991576,6.32665143 43.5149152,5.84331571 44.7347939,5.84331571 C45.9557939,5.84331571 46.4704303,6.32665143 47.7878545,7.80693714 C49.2342182,9.44646571 51.2591273,11.6994157 55.1508545,11.6994157 C56.7564303,11.6994157 58.044703,10.4120157 58.044703,8.80613 C58.044703,7.19912286 56.7564303,5.91172286 55.1508545,5.91172286" id="Fill-50" fill="#FFFFFF" mask="url(#mask-12)"></path>
                        </g>
                    </g>
                    <g id="Group-57" transform="translate(230.969697, 189.663043)">
                        <path d="M102.441115,122.235714 L102.441115,48.9873643 C102.442236,44.1652214 98.4955697,40.1022857 93.6754788,40.1942429 C89.0022667,40.2828357 85.2417212,44.0990571 85.2417212,48.7944786 L85.2417212,44.6519214 C85.2417212,39.9531357 81.5574182,35.9698214 76.8617818,35.8520714 C72.3511455,35.7399286 68.6051758,39.10085 68.1017515,43.4508714 L68.1017515,37.5196357 C68.1017515,32.6974929 64.1562061,28.6345571 59.3349939,28.7253929 C54.662903,28.8139857 50.9012364,32.6302071 50.9012364,37.3256286 L50.8418121,9.56466429 C50.8418121,4.74252143 46.8962667,0.679585714 42.0761758,0.770421429 C37.4029636,0.859014286 33.6424182,4.67635714 33.6424182,9.37065714 L33.6424182,73.2079786 L19.3346303,58.8974286 C15.1368121,54.6976786 8.32993333,54.6976786 4.13211515,58.8974286 L1.47147879,61.5574571 C0.422024242,62.6082357 0.422024242,64.3094429 1.47147879,65.3591 L33.6424182,97.53625 L33.6424182,122.235714" id="Fill-54" fill="#F0293B"></path>
                        <path d="M102.441115,122.235714 L102.441115,48.9873643 C102.442236,44.1652214 98.4955697,40.1022857 93.6754788,40.1942429 C89.0022667,40.2828357 85.2417212,44.0990571 85.2417212,48.7944786 L85.2417212,44.6519214 C85.2417212,39.9531357 81.5574182,35.9698214 76.8617818,35.8520714 C72.3511455,35.7399286 68.6051758,39.10085 68.1017515,43.4508714 L68.1017515,37.5196357 C68.1017515,32.6974929 64.1562061,28.6345571 59.3349939,28.7253929 C54.662903,28.8139857 50.9012364,32.6302071 50.9012364,37.3256286 L50.8418121,9.56466429 C50.8418121,4.74252143 46.8962667,0.679585714 42.0761758,0.770421429 C37.4029636,0.859014286 33.6424182,4.67635714 33.6424182,9.37065714 L33.6424182,73.2079786 L19.3346303,58.8974286 C15.1368121,54.6976786 8.32993333,54.6976786 4.13211515,58.8974286 L1.47147879,61.5574571 C0.422024242,62.6082357 0.422024242,64.3094429 1.47147879,65.3591 L33.6424182,97.53625 L33.6424182,122.235714" id="Stroke-56" stroke="#FFFFFF" stroke-width="6" stroke-linecap="round"></path>
                    </g>
                    <path d="M289.627815,98.6886079 C289.145694,100.763251 288.259936,102.770608 286.95933,104.654608 C285.995088,106.056394 284.784179,107.390894 283.4163,108.579608 C282.485694,105.686322 283.887209,102.479036 286.7463,101.245465 C287.710542,100.819322 289.078421,100.000679 289.627815,98.6886079" id="Fill-58" fill="#F0293B"></path>
                    <path d="M292.017791,114.477089 C291.148852,114.832581 290.329245,114.990703 289.497306,114.990703 C286.828821,114.990703 284.393548,113.338839 283.402397,110.878424 C283.34073,110.719181 283.280185,110.547603 283.218518,110.38836 C284.711973,109.090867 286.033882,107.634131 287.085579,106.104503 C288.505033,104.047803 289.472639,101.856531 289.998488,99.5923671 C290.1577,99.1886529 290.255245,98.7355957 290.255245,98.2331957 C290.182367,98.6862529 290.096033,99.13931 289.998488,99.5923671 C289.398639,101.024431 287.906306,101.91821 286.853488,102.383603 C283.733155,103.729317 282.2027,107.230417 283.218518,110.38836 C281.309094,112.041346 279.118245,113.436403 276.879185,114.39186 C276.070791,114.746231 275.201852,114.91781 274.297033,114.91781 C271.1397,114.91781 268.508215,112.763546 267.8837,109.678496 C267.259185,106.594567 268.850185,103.594746 271.738427,102.371267 C272.938124,101.856531 278.910821,98.9318457 276.891518,93.0925671 L275.973245,90.4123529 C272.191397,79.5546814 269.694458,72.3809029 275.8757,65.0119957 C277.160609,63.4823671 278.935488,62.6379314 280.856124,62.6379314 C283.427064,62.6379314 285.788336,64.1552243 286.890488,66.5180743 C287.954518,68.7822386 287.587882,71.4265671 285.935215,73.3969171 C285.335367,74.1067814 285.066276,74.8054314 285.4217,76.6658814 L287.453336,76.6658814 C287.942185,75.6251957 288.616033,74.5968457 289.497306,73.5684957 C290.830427,72.0512029 292.580639,71.2303171 294.47773,71.2303171 C297.096882,71.2303171 299.482821,72.7846171 300.584973,75.19681 C301.742064,77.7301171 300.729609,79.3001171 299.883094,81.5530671 C298.696852,84.71101 300.701579,87.75681 301.698336,90.6444886 L302.43273,92.8604314 C306.189912,103.863889 298.259579,111.820424 292.017791,114.477089" id="Fill-60" fill="#F0293B"></path>
                    <path d="M274.736324,106.228645 L274.736324,106.228645 C275.019991,106.228645 275.298052,106.171452 275.553688,106.062674 C280.442173,103.982424 288.706627,97.3289879 285.099688,86.8514807 L284.218415,84.272195 C280.756112,74.3329736 279.897264,71.3185736 282.645355,68.0529736 C284.433688,65.9177736 281.202355,63.2566236 279.414021,65.3918236 C275.030082,70.6109521 276.771324,75.6226164 280.252688,85.6235164 L281.135082,88.181495 C284.385476,97.6205593 274.337173,102.049081 273.897658,102.236359 C271.789779,103.125652 272.444567,106.249952 274.736324,106.228645" id="Fill-62" fill="#FFFFFF"></path>
                    <path d="M274.736324,106.228645 L274.736324,106.228645 C275.019991,106.228645 275.298052,106.171452 275.553688,106.062674 C280.442173,103.982424 288.706627,97.3289879 285.099688,86.8514807 L284.218415,84.272195 C280.756112,74.3329736 279.897264,71.3185736 282.645355,68.0529736 C284.433688,65.9177736 281.202355,63.2566236 279.414021,65.3918236 C275.030082,70.6109521 276.771324,75.6226164 280.252688,85.6235164 L281.135082,88.181495 C284.385476,97.6205593 274.337173,102.049081 273.897658,102.236359 C271.789779,103.125652 272.444567,106.249952 274.736324,106.228645 Z" id="Stroke-64" stroke="#FFFFFF" stroke-width="2"></path>
                    <path d="M287.435733,108.324707 L287.435733,108.324707 C286.985006,107.27505 287.467127,106.0583 288.525552,105.600757 C289.323855,105.246386 296.162127,102.044707 293.83337,95.2051143 L293.141582,93.1259857 C290.497764,85.4329857 288.944885,81.2119286 292.57537,76.9493786 C294.446673,74.8018429 297.698188,77.5885929 295.826885,79.7350071 C293.854673,82.0844 294.526279,84.3721143 297.12637,91.9193286 L297.819279,93.9984571 C300.713127,102.482064 294.085642,107.846979 290.182703,109.510057 C289.092885,109.946293 287.855067,109.41025 287.435733,108.324707" id="Fill-66" fill="#FFFFFF"></path>
                    <path d="M287.435733,108.324707 L287.435733,108.324707 C286.985006,107.27505 287.467127,106.0583 288.525552,105.600757 C289.323855,105.246386 296.162127,102.044707 293.83337,95.2051143 L293.141582,93.1259857 C290.497764,85.4329857 288.944885,81.2119286 292.57537,76.9493786 C294.446673,74.8018429 297.698188,77.5885929 295.826885,79.7350071 C293.854673,82.0844 294.526279,84.3721143 297.12637,91.9193286 L297.819279,93.9984571 C300.713127,102.482064 294.085642,107.846979 290.182703,109.510057 C289.092885,109.946293 287.855067,109.41025 287.435733,108.324707 Z" id="Stroke-68" stroke="#FFFFFF" stroke-width="2"></path>
                    <polygon id="Stroke-70" stroke="#FFFFFF" stroke-width="4" opacity="0.6" stroke-linecap="round" points="425.751152 277.188412 439.51403 289.474784 421.995091 295.252384"></polygon>
                    <polygon id="Stroke-72" stroke="#FFFFFF" stroke-width="4" opacity="0.6" stroke-linecap="round" points="120.9419 52.3379464 103.222264 47.2085321 116.523203 34.4242464"></polygon>
                </g>
            </g>
        </g>
    </g>
</svg>