<?xml version="1.0" encoding="UTF-8"?>
<svg width="400px" height="353px" viewBox="0 0 400 353" version="1.1" xmlns="http://www.w3.org/2000/svg" xmlns:xlink="http://www.w3.org/1999/xlink">
    <!-- Generator: Sketch 50.2 (55047) - http://www.bohemiancoding.com/sketch -->
    <title>illustration 1</title>
    <desc>Created with Sketch.</desc>
    <defs></defs>
    <g id="RTL" stroke="none" stroke-width="1" fill="none" fill-rule="evenodd">
        <g id="onboarding-1" transform="translate(-165.000000, -261.000000)">
            <g id="top">
                <g id="illustration-1" transform="translate(167.000000, 262.000000)">
                    <path d="M89.8566256,143.458483 C90.8091988,143.42831 91.7762598,143.413828 92.7276256,143.413828 C95.3462963,143.413828 97.9649671,143.503138 100.449626,143.696241 C112.515552,144.573655 121.90365,147.563138 117.245821,152.232621 C108.096772,161.37969 112.396028,198.517103 131.24587,184.520724 C150.081223,170.526759 159.245967,152.232621 154.396174,138.238655 C149.546382,124.243483 186.695528,119.394172 186.695528,143.072276 C186.695528,166.763655 177.545272,161.915552 172.695479,175.374862 C167.860174,189.370034 177.545272,189.370034 181.860223,193.667793 C186.695528,198.517103 200.159528,207.662966 186.695528,239.965552 C181.161187,253.381414 186.05565,264.743138 194.535845,274.142448 C199.267321,279.392448 205.114357,284.018483 210.88654,288.04831" id="Stroke-1" stroke="#FFFFFF" stroke-width="6" stroke-linecap="round"></path>
                    <path d="M311.845774,139.540897 C297.95197,144.240552 279.18664,146.527621 274.423774,144.154862 C266.981872,140.214345 266.981872,121.418138 253.430945,120.977621 C248.179116,120.537103 242.045945,143.714345 234.616116,147.213138 C227.185079,151.141586 223.243189,135.845379 215.81336,124.477621 C208.37025,113.108655 227.185079,101.740897 234.616116,101.740897 C242.058018,101.740897 242.058018,82.9326207 242.058018,78.9921034 C242.058018,75.5041724 240.709445,71.0652069 236.415018,63.5003793" id="Stroke-3" stroke="#FFFFFF" stroke-width="6" stroke-linecap="round"></path>
                    <path d="M288.787588,202.118845 C295.902307,209.231086 281.672868,212.996603 277.906039,223.874362 C274.13921,234.753328 259.908563,234.753328 256.141734,230.98781 C252.374905,227.222293 245.260185,223.874362 238.145466,220.108845 C231.029539,216.343328 238.145466,209.231086 245.260185,212.996603 C252.376112,216.762121 255.305063,202.118845 263.257661,202.118845 C267.443429,202.118845 281.672868,195.006603 288.787588,202.118845 Z" id="Stroke-5" stroke="#FFFFFF" stroke-width="6"></path>
                    <path d="M230.054389,251.431793 C233.821218,255.19731 237.169109,262.309552 233.821218,265.656276 C230.054389,269.421793 222.93967,269.421793 219.591779,265.656276 C214.150401,260.635586 226.706499,247.666276 230.054389,251.431793 Z" id="Stroke-7" stroke="#FFFFFF" stroke-width="6"></path>
                    <path d="M160.281362,69.3981207 C160.69185,69.3981207 161.114411,69.3257069 161.512826,69.1808793 C173.646362,64.6429483 186.781972,62.1688103 200.472948,62.1688103 C218.138411,62.1688103 234.851301,66.2831207 249.716996,73.5957069 C251.718728,74.5805345 254.121289,73.5389828 254.768411,71.4039828 C255.276691,69.7263966 254.519704,67.9051897 252.947777,67.1291552 C237.107777,59.3108793 219.292606,54.927431 200.472948,54.927431 C185.90063,54.927431 171.931972,57.5584655 159.025752,62.3739828 C156.985387,63.1343276 156.079899,65.4998448 157.069899,67.4188103 C157.697704,68.6619138 158.965387,69.3981207 160.281362,69.3981207 M304.614911,125.819328 L304.612496,125.821741 C303.237362,126.798121 302.700106,128.604845 303.365338,130.1545 C309.68685,144.894328 312.906765,161.240534 312.246362,178.405017 C309.988679,236.432603 262.951606,283.453293 204.903801,285.71019 C141.217826,288.172259 88.6270939,237.108466 88.6270939,173.975707 C88.6270939,150.163638 96.1124598,128.077431 108.849655,109.925707 C109.779289,108.622259 109.755143,106.872259 108.777216,105.605017 C108.052826,104.663638 106.978313,104.205017 105.915874,104.205017 C104.780996,104.205017 103.658191,104.711914 102.945874,105.737776 C89.3635573,125.072259 81.3831915,148.61881 81.3831915,173.975707 C81.3831915,241.199845 137.378557,295.570534 205.181484,292.9395 C266.996118,290.549845 317.087704,240.475707 319.478191,178.682603 C320.188094,160.4295 316.755691,143.033293 310.05146,127.347259 C309.143557,125.221914 306.498326,124.480879 304.614911,125.819328" id="Fill-9" fill="#FFFFFF"></path>
                    <path d="M290.7036,55.2122586 C279.78221,55.2472586 270.581246,64.7298448 270.617466,75.9213966 C270.651271,86.5276034 288.699454,111.109672 289.469722,112.152431 C289.801734,112.601397 290.330539,112.868121 290.889527,112.865707 C291.450929,112.8645 291.979734,112.595362 292.308124,112.142776 C293.067527,111.096397 310.957551,86.3996724 310.922539,75.7910517 C310.88632,64.6007069 301.628612,55.1772586 290.7036,55.2122586" id="Fill-11"></path>
                    <path d="M290.7036,55.2122586 C279.78221,55.2472586 270.581246,64.7298448 270.617466,75.9213966 C270.651271,86.5276034 288.699454,111.109672 289.469722,112.152431 C289.801734,112.601397 290.330539,112.868121 290.889527,112.865707 C291.450929,112.8645 291.979734,112.595362 292.308124,112.142776 C293.067527,111.096397 310.957551,86.3996724 310.922539,75.7910517 C310.88632,64.6007069 301.628612,55.1772586 290.7036,55.2122586 Z" id="Stroke-13" stroke="#FFFFFF" stroke-width="6"></path>
                    <path d="M126.641887,47.0358966 C112.337594,47.0817586 100.28857,59.5007241 100.335655,74.1572759 C100.381533,88.0474483 124.018387,120.242621 125.025289,121.607621 C125.459923,122.196586 126.152923,122.544172 126.885765,122.541759 C127.621021,122.539345 128.312813,122.186931 128.743826,121.595552 C129.738655,120.224517 153.166643,87.8808966 153.121972,73.9871034 C153.074887,59.3305517 140.949801,46.9900345 126.641887,47.0358966" id="Fill-15"></path>
                    <path d="M126.641887,47.0358966 C112.337594,47.0817586 100.28857,59.5007241 100.335655,74.1572759 C100.381533,88.0474483 124.018387,120.242621 125.025289,121.607621 C125.459923,122.196586 126.152923,122.544172 126.885765,122.541759 C127.621021,122.539345 128.312813,122.186931 128.743826,121.595552 C129.738655,120.224517 153.166643,87.8808966 153.121972,73.9871034 C153.074887,59.3305517 140.949801,46.9900345 126.641887,47.0358966 Z" id="Stroke-17"></path>
                    <path d="M126.687161,57.6172414 C117.707137,57.6462069 110.142088,65.4439655 110.171063,74.6453448 C110.198832,83.3663793 125.039173,103.579483 125.671807,104.436379 C125.945868,104.80569 126.380502,105.025345 126.84049,105.022931 C127.301685,105.021724 127.73632,104.800862 128.006759,104.429138 C128.630941,103.568621 143.340893,83.2613793 143.313124,74.537931 C143.282941,65.3365517 135.670807,57.5882759 126.687161,57.6172414" id="Fill-19"></path>
                    <path d="M126.687161,57.6172414 C117.707137,57.6462069 110.142088,65.4439655 110.171063,74.6453448 C110.198832,83.3663793 125.039173,103.579483 125.671807,104.436379 C125.945868,104.80569 126.380502,105.025345 126.84049,105.022931 C127.301685,105.021724 127.73632,104.800862 128.006759,104.429138 C128.630941,103.568621 143.340893,83.2613793 143.313124,74.537931 C143.282941,65.3365517 135.670807,57.5882759 126.687161,57.6172414 Z" id="Stroke-21" stroke="#FFFFFF" stroke-width="6"></path>
                    <path d="M328.487312,213.967552 C328.487312,240.883759 306.65902,262.704448 279.733434,262.704448 C252.807849,262.704448 230.979556,240.883759 230.979556,213.967552 C230.979556,187.051345 252.807849,165.230655 279.733434,165.230655 C306.65902,165.230655 328.487312,187.051345 328.487312,213.967552" id="Fill-23" fill="#ED0D41"></path>
                    <path d="M332.171923,263.05481 L311.494204,242.384293" id="Stroke-25" stroke="#FFFFFF" stroke-width="6" stroke-linecap="round"></path>
                    <path d="M311.116193,213.264172 C311.116193,230.321241 297.285168,244.146241 280.223363,244.146241 C263.161559,244.146241 249.329327,230.321241 249.329327,213.264172 C249.329327,196.20831 263.161559,182.382103 280.223363,182.382103 C297.285168,182.382103 311.116193,196.20831 311.116193,213.264172" id="Fill-27"></path>
                    <path d="M311.116193,213.264172 C311.116193,230.321241 297.285168,244.146241 280.223363,244.146241 C263.161559,244.146241 249.329327,230.321241 249.329327,213.264172 C249.329327,196.20831 263.161559,182.382103 280.223363,182.382103 C297.285168,182.382103 311.116193,196.20831 311.116193,213.264172 Z" id="Stroke-29" stroke="#FFFFFF" stroke-width="6"></path>
                    <path d="M298.90913,216.379052 C298.90913,204.345086 289.145557,194.584914 277.107399,194.584914" id="Stroke-31" stroke="#FFFFFF" stroke-width="6" stroke-linecap="round"></path>
                    <path d="M302.10007,314.022534 C302.10007,320.288741 297.018472,325.367362 290.751289,325.367362 C284.482899,325.367362 279.401301,320.288741 279.401301,314.022534 C279.401301,307.756328 284.482899,302.677707 290.751289,302.677707 C297.018472,302.677707 302.10007,307.756328 302.10007,314.022534 Z" id="Stroke-33" stroke="#FFFFFF" stroke-width="4" opacity="0.6" stroke-linecap="round"></path>
                    <g id="Group-39" opacity="0.6" transform="translate(45.878049, 268.491034)" stroke="#FFFFFF" stroke-linecap="round" stroke-width="4">
                        <path d="M18.8207451,0.376310345 L0.272732927,18.9178621" id="Stroke-35"></path>
                        <path d="M18.8207451,18.9173793 L0.272732927,0.375827586" id="Stroke-37"></path>
                    </g>
                    <g id="Group-44" opacity="0.6" transform="translate(347.707317, 0.560000)" stroke="#FFFFFF" stroke-linecap="round" stroke-width="4">
                        <path d="M0.830030488,0.647258621 L19.3780427,19.1888103" id="Stroke-40"></path>
                        <path d="M19.3775598,0.647258621 L0.829547561,19.1888103" id="Stroke-42"></path>
                    </g>
                    <path d="M16.9712561,165.230897 C16.9712561,169.916069 13.1718293,173.712966 8.48623171,173.712966 C3.79942683,173.712966 0,169.916069 0,165.230897 C0,160.545724 3.79942683,156.748828 8.48623171,156.748828 C13.1718293,156.748828 16.9712561,160.545724 16.9712561,165.230897 Z" id="Stroke-45" stroke="#FFFFFF" stroke-width="4" opacity="0.6" stroke-linecap="round"></path>
                    <path d="M257.323939,10.4777931 C257.323939,14.8914138 253.744244,18.4686552 249.330293,18.4686552 C244.915134,18.4686552 241.335439,14.8914138 241.335439,10.4777931 C241.335439,6.06417241 244.915134,2.48693103 249.330293,2.48693103 C253.744244,2.48693103 257.323939,6.06417241 257.323939,10.4777931 Z" id="Stroke-47" stroke="#FFFFFF" stroke-width="4" opacity="0.6" stroke-linecap="round"></path>
                    <g id="Group-53" opacity="0.6" transform="translate(376.475610, 243.146207)" stroke="#FFFFFF" stroke-linecap="round" stroke-width="4">
                        <path d="M0.149728049,0.302568966 L18.6977402,18.8441207" id="Stroke-49"></path>
                        <path d="M18.6972573,0.302568966 L0.149245122,18.8441207" id="Stroke-51"></path>
                    </g>
                    <polygon id="Stroke-54" stroke="#FFFFFF" stroke-width="4" opacity="0.6" stroke-linecap="round" points="55.4250293 46.282431 36.3445902 40.7620862 50.6669927 27.0034655"></polygon>
                    <polygon id="Stroke-56" stroke="#FFFFFF" stroke-width="4" opacity="0.6" stroke-linecap="round" points="386.165799 157.482379 367.08536 151.962034 381.407762 138.203414"></polygon>
                    <polygon id="Stroke-58" stroke="#FFFFFF" stroke-width="4" opacity="0.6" stroke-linecap="round" points="143.211227 349.085052 151.99808 331.276086 163.032959 347.787638"></polygon>
                </g>
            </g>
        </g>
    </g>
</svg>