<?xml version="1.0" encoding="UTF-8"?>
<svg width="436px" height="350px" viewBox="0 0 436 350" version="1.1" xmlns="http://www.w3.org/2000/svg" xmlns:xlink="http://www.w3.org/1999/xlink">
    <!-- Generator: Sketch 50.2 (55047) - http://www.bohemiancoding.com/sketch -->
    <title>illustration 4</title>
    <desc>Created with Sketch.</desc>
    <defs></defs>
    <g id="RTL" stroke="none" stroke-width="1" fill="none" fill-rule="evenodd">
        <g id="onboarding-4" transform="translate(-157.000000, -242.000000)">
            <g id="top">
                <g id="illustration-4" transform="translate(160.000000, 243.000000)">
                    <path d="M311.314783,261.615157 C310.873987,266.746188 312.451056,271.571555 315.811985,275.22974 C319.131556,278.852028 323.78222,280.856796 328.884563,280.856796 C339.201354,280.856796 348.331806,272.462442 349.236253,262.165571 C349.68249,257.034539 348.09998,252.203734 344.744492,248.568392 C341.420568,244.946103 336.768816,242.938072 331.671914,242.938072 C321.349682,242.923931 312.224672,251.299793 311.314783,261.615157 M331.671914,249.027433 C335.045904,249.027433 338.100997,250.321884 340.251644,252.667125 C342.416439,255.029771 343.448227,258.20716 343.161982,261.596665 C342.539427,268.841241 336.127758,274.734803 328.897624,274.734803 C325.523634,274.734803 322.487043,273.434912 320.322247,271.09511 C318.153098,268.713972 317.125664,265.536583 317.407556,262.147078 C318.031199,254.920994 324.44178,249.027433 331.671914,249.027433" id="Fill-1" fill="#FFFFFF"></path>
                    <path d="M48.3161884,137.769225 L78.4948955,137.769225 C80.1818904,137.769225 81.5499889,136.401893 81.5499889,134.715843 C81.5499889,133.029792 80.1818904,131.661372 78.4948955,131.661372 L48.3161884,131.661372 C46.6291934,131.661372 45.2654485,133.029792 45.2654485,134.715843 C45.2654485,136.401893 46.647696,137.769225 48.3161884,137.769225" id="Fill-3" fill="#FFFFFF"></path>
                    <path d="M90.9279394,155.610573 C90.9279394,153.924523 89.5641944,152.55719 87.8771995,152.55719 L16.9711692,152.55719 C15.2841742,152.55719 13.9160758,153.924523 13.9160758,155.610573 C13.9160758,157.296623 15.2841742,158.663955 16.9711692,158.663955 L87.8771995,158.663955 C89.5641944,158.663955 90.9279394,157.296623 90.9279394,155.610573" id="Fill-5" fill="#FFFFFF"></path>
                    <path d="M205.385649,214.191026 C205.385649,212.504976 204.021904,211.137643 202.334909,211.137643 L153.196556,211.137643 C151.509561,211.137643 150.141462,212.504976 150.141462,214.191026 C150.141462,215.877076 151.509561,217.244408 153.196556,217.244408 L202.334909,217.244408 C204.021904,217.244408 205.385649,215.877076 205.385649,214.191026" id="Fill-7" fill="#FFFFFF"></path>
                    <path d="M60.5951172,173.983733 L32.5311399,173.983733 C30.8441449,173.983733 29.4760465,175.351066 29.4760465,177.037116 C29.4760465,178.723166 30.8441449,180.087235 32.5311399,180.087235 L60.5951172,180.087235 C62.2821121,180.087235 63.6458571,178.723166 63.6458571,177.037116 C63.6458571,175.351066 62.2821121,173.983733 60.5951172,173.983733" id="Fill-9" fill="#FFFFFF"></path>
                    <path d="M29.6094823,291.52982 C44.8229116,291.52982 44.8229116,300.684529 60.0461364,300.684529 C75.2704495,300.684529 75.2704495,291.52982 90.4936742,291.52982 C105.716899,291.52982 105.716899,300.684529 120.940124,300.684529 C136.163348,300.684529 136.163348,291.52982 151.396369,291.52982 C166.619593,291.52982 166.619593,300.684529 181.852614,300.684529" id="Stroke-11" stroke="#FFFFFF" stroke-width="6" stroke-linecap="round"></path>
                    <path d="M182.756843,300.684855 C197.980068,300.684855 197.980068,291.530146 213.203292,291.530146 C228.426517,291.530146 228.426517,300.684855 243.649742,300.684855 C258.874055,300.684855 258.874055,291.530146 274.107075,291.530146 C289.3303,291.530146 289.3303,300.684855 304.56332,300.684855" id="Stroke-13" stroke="#FFFFFF" stroke-width="6" stroke-linecap="round"></path>
                    <path d="M304.379601,300.852698 C319.602826,300.852698 319.602826,291.69799 334.826051,291.69799 C350.049275,291.69799 350.049275,300.852698 365.2725,300.852698 C380.496813,300.852698 380.496813,291.69799 395.729833,291.69799 C410.953058,291.69799 410.953058,300.852698 426.186078,300.852698" id="Stroke-15" stroke="#FFFFFF" stroke-width="6" stroke-linecap="round"></path>
                    <path d="M323.780805,231.108635 C317.424643,231.108635 311.329694,237.308949 305.93131,242.769576 C303.406259,245.347601 299.18333,249.622554 297.703128,249.676943 L290.323886,249.676943 C290.05179,249.676943 289.605552,249.644309 289.398759,249.415877 C289.159315,249.165689 288.963406,248.545657 288.952522,247.479639 C290.781007,245.380234 292.468002,243.041519 294.242067,240.507005 C299.912547,232.479231 304.559946,225.822052 308.184264,220.644247 C308.271335,220.57898 308.380173,220.513714 308.467244,220.448447 C312.167749,217.337413 319.710249,213.704247 328.78737,213.704247 C343.905022,213.704247 352.808002,218.773275 358.500249,231.021613 C351.273381,231.054247 336.678153,231.108635 323.780805,231.108635 L323.780805,231.108635 Z M355.899012,258.912146 C354.527648,274.565218 340.672522,287.292178 325.021562,287.292178 C317.577017,287.292178 310.850805,284.420454 306.051032,279.199137 C301.240376,273.945187 298.943886,266.929043 299.6078,259.445156 C299.727522,258.041927 299.97785,256.638698 300.304365,255.257225 C303.395376,254.049795 306.529921,250.873494 310.284845,247.055407 C314.594845,242.671676 319.960578,237.221927 323.759037,237.221927 C331.704239,237.221927 340.258936,237.200171 347.366083,237.167538 C353.526335,242.475877 356.639113,250.351363 355.899012,258.912146 L355.899012,258.912146 Z M283.989492,243.911739 C283.81535,244.05315 283.67386,244.205438 283.53237,244.401237 C280.2128,247.849482 276.468759,249.698698 269.66636,249.698698 L113.28737,249.666065 C113.167648,249.361488 112.873785,248.43688 113.2003,246.283087 C114.615199,236.384341 126.946588,213.454059 153.927623,193.6892 L231.594694,193.6892 C215.878431,207.536566 213.059517,221.949576 215.856663,230.825814 C217.870173,237.189294 222.909391,241.137914 229.00434,241.137914 L263.331966,241.137914 C276.893229,241.137914 280.604618,235.883965 286.732219,227.192648 C290.617749,221.68851 292.043532,219.589106 294.122345,216.554215 C295.047471,215.205375 296.09232,213.660736 297.550754,211.572209 C303.057977,203.598824 304.527295,195.505783 302.04578,186.825344 C300.086689,179.95061 292.925123,156.726629 289.834113,146.773494 C292.250325,146.914905 294.122345,147.926535 294.122345,147.926535 C294.851562,148.339889 295.733153,148.437789 296.549441,148.176723 C298.149365,147.676347 306.138103,144.859012 306.660527,139.039419 C306.86732,136.548416 305.855123,134.470767 304.451108,132.860861 C304.897345,132.806472 305.398002,132.784717 305.996613,132.784717 C308.663153,132.784717 309.860376,133.056661 310.295729,133.208949 C310.339264,133.393871 310.371916,133.58967 310.404567,133.763714 C311.112017,136.689827 310.535173,145.359388 309.196461,149.15572 C307.933936,149.460297 304.810274,149.166598 303.395376,149.046943 C302.361411,148.959921 301.468936,148.872899 300.761487,148.872899 C300.707067,148.872899 300.674416,148.883776 300.619997,148.883776 C300.511158,148.883776 300.413204,148.905532 300.315249,148.927287 C300.217295,148.938165 300.108456,148.959921 299.999618,148.992554 C299.945199,149.014309 299.912547,149.014309 299.858128,149.014309 C299.803709,149.025187 299.771057,149.046943 299.727522,149.068698 C299.629567,149.101331 299.531613,149.133965 299.433658,149.188353 C299.335704,149.242742 299.248633,149.275375 299.18333,149.329764 C299.107143,149.384153 299.020072,149.438541 298.933002,149.49293 C298.867699,149.536441 298.769744,149.612585 298.704441,149.688729 C298.628254,149.753996 298.573835,149.808385 298.508532,149.895407 C298.432345,149.971551 298.377926,150.036817 298.334391,150.123839 C298.279971,150.199983 298.225552,150.287005 298.171133,150.374027 C298.116714,150.471927 298.062295,150.537193 298.029643,150.624215 C297.986108,150.711237 297.953456,150.809137 297.920805,150.896159 C297.888153,150.983181 297.844618,151.081081 297.833734,151.17898 C297.811966,151.266002 297.790199,151.353024 297.779315,151.440046 C297.757547,151.548824 297.757547,151.657601 297.746663,151.777256 C297.746663,151.831645 297.724896,151.864278 297.724896,151.918667 C297.724896,151.973055 297.746663,152.005689 297.746663,152.060077 C297.746663,152.168855 297.757547,152.277632 297.779315,152.38641 C297.790199,152.495187 297.811966,152.593087 297.833734,152.690987 C297.844618,152.745375 297.844618,152.767131 297.866386,152.821519 C299.411891,157.857914 301.577774,164.460704 303.656588,170.845939 C306.573456,179.754811 309.566512,188.968259 310.371916,192.198949 C312.178633,199.508792 311.024946,205.828761 306.714946,212.105218 C302.862067,217.685501 296.995679,226.07224 289.268153,237.004372 C287.352598,239.723808 285.720022,242.029889 283.989492,243.911739 L283.989492,243.911739 Z M145.296739,259.445156 C145.405578,258.183338 145.688557,256.954153 146.145679,255.768479 L170.928179,255.768479 C171.080552,256.801864 171.134971,257.83525 171.047901,258.890391 C170.405754,266.134968 164.016941,272.030704 156.790072,272.030704 C153.405199,272.030704 150.368608,270.736253 148.202724,268.386661 C146.03684,266.015313 145.013759,262.839012 145.296739,259.445156 L145.296739,259.445156 Z M186.307042,258.912146 C184.935679,274.565218 171.080552,287.292178 155.440477,287.292178 C147.995931,287.292178 141.258835,284.420454 136.469946,279.199137 C131.648406,273.945187 129.3628,266.929043 130.01583,259.445156 C130.124668,258.215971 130.342345,256.997664 130.603557,255.790234 L139.745982,255.790234 C139.484769,256.812742 139.28886,257.857005 139.20179,258.912146 C138.755552,264.046441 140.333709,268.865281 143.696815,272.531081 C147.016386,276.153369 151.674668,278.154874 156.768305,278.154874 C167.086184,278.154874 176.217724,269.757256 177.121083,259.445156 C177.229921,258.205093 177.208153,256.997664 177.088431,255.790234 L186.394113,255.790234 C186.415881,256.812742 186.415881,257.857005 186.307042,258.912146 L186.307042,258.912146 Z M160.795325,178.286316 C161.383052,176.643776 163.342143,175.153526 164.9203,175.153526 L214.528835,175.153526 C222.376083,178.79757 231.311714,181.691049 234.620401,182.419858 C236.165906,182.757068 238.005274,183.116034 239.931714,183.442366 L238.451512,187.586786 L157.475754,187.586786 L160.795325,178.286316 Z M233.020477,224.9192 C230.996083,229.335563 230.691335,232.936096 230.658684,235.057256 L228.993456,235.057256 C225.565047,235.057256 222.898507,232.849074 221.668633,228.998353 C218.93679,220.350548 224.084845,206.078949 241.65136,193.526034 C242.805047,193.145313 243.643103,192.079294 243.708406,190.79572 C243.784593,190.654309 243.871663,190.545532 243.926083,190.393244 L246.037547,184.475751 C248.627901,184.889106 251.1203,185.237193 253.090274,185.520015 C248.714971,193.710955 238.527699,212.953682 233.020477,224.9192 L233.020477,224.9192 Z M206.00679,155.007946 C208.346815,152.636598 226.47929,153.234874 236.895123,156.041331 C236.927774,156.041331 236.960426,156.041331 236.993078,156.063087 C237.014845,156.063087 237.047497,156.073965 237.091032,156.073965 C245.417168,157.760015 266.074694,168.354936 269.992876,172.390579 C276.359921,178.93898 274.781764,182.332836 271.45131,187.76083 C267.761689,193.797977 247.46333,224.168635 247.245653,224.494968 C246.657926,225.365187 246.570855,226.474717 246.995325,227.431958 C247.419795,228.400077 248.323153,229.06362 249.378886,229.215908 C252.078078,229.563996 258.162143,231.239168 259.838254,233.991237 C260.001512,234.252303 260.153886,234.611269 260.208305,235.057256 L236.797168,235.057256 C236.797168,233.371206 237.069264,230.738792 238.582118,227.453714 C245.59131,212.19224 260.39333,184.812961 260.545704,184.53014 C261.024593,183.638165 261.04636,182.583024 260.589239,181.691049 C260.121234,180.799074 259.250527,180.179043 258.260098,180.059388 C258.118608,180.037632 243.371007,178.112272 235.937345,176.447977 C226.675199,174.392084 208.335931,166.386065 206.833961,163.188008 C205.908835,160.979827 205.625855,158.184247 206.00679,155.007946 L206.00679,155.007946 Z M283.924189,148.350767 C286.949896,158.151613 294.209416,181.658416 296.157623,188.53315 C298.747977,197.594309 295.308684,204.055689 292.500653,208.123965 C291.042219,210.234247 289.99737,211.778886 289.072244,213.127726 C287.015199,216.129983 285.589416,218.229388 281.736537,223.690015 C276.501411,231.097758 274.194037,234.350203 266.303254,234.948479 C266.237951,233.512617 265.824365,232.120266 265.062497,230.84757 C262.874845,227.225281 258.314517,225.234654 254.788153,224.190391 C260.39333,215.803651 273.638961,195.897382 276.664668,190.980642 C280.702572,184.366974 283.565022,177.644529 274.368179,168.159137 C271.864896,165.570234 265.258406,161.599858 258.140376,158.010203 C266.608002,155.508322 278.776133,150.537193 283.924189,148.350767 L283.924189,148.350767 Z M365.912143,232.990485 C359.425376,215.412052 347.986461,207.590955 328.776487,207.590955 C323.584896,207.590955 318.839542,208.591708 314.790754,210.060203 C317.489946,204.0013 317.968835,197.626943 316.270956,190.730454 C315.411133,187.303965 312.505148,178.384215 309.425022,168.96409 C307.901285,164.297538 306.35578,159.500454 305.027951,155.334278 C305.78982,155.388667 306.551689,155.4213 307.313557,155.4213 C310.491638,155.4213 313.462926,154.779513 314.616613,152.060077 C316.521285,147.632836 317.446411,136.940015 316.336259,132.338729 L316.28184,132.099419 C315.454668,127.617789 311.558254,126.693181 305.985729,126.693181 C302.481133,126.693181 300.391436,127.389356 297.648709,129.44525 L275.184466,133.872491 L262.298002,136.396128 C262.298002,136.407005 262.287118,136.407005 262.287118,136.407005 L259.587926,136.929137 L258.118608,137.222836 C256.464264,137.549168 255.375881,139.159074 255.71328,140.812491 C256.061562,142.465908 257.650603,143.542805 259.304946,143.205595 L298.236436,135.558541 C299.215982,136.178573 300.6853,137.353369 300.587345,138.539043 C300.511158,139.42014 298.279971,141.008291 295.787572,141.998165 C293.480199,141.051802 288.538936,139.615939 283.499719,141.87851 C276.370805,145.054811 256.159517,153.039074 250.97881,153.39804 C249.215628,153.506817 247.583052,153.017319 246.440249,152.027444 C245.362749,151.070203 244.753254,149.666974 244.6553,147.850391 C244.644416,147.676347 244.6553,147.46967 244.709719,147.23036 L239.387522,143.771237 C238.799795,145.544309 238.495047,147.056316 238.56035,148.198479 C238.593002,148.883776 238.70184,149.558197 238.832446,150.221739 C238.680072,150.178228 238.538583,150.145595 238.397093,150.123839 C233.793229,148.905532 218.610274,146.392773 208.836588,147.893902 L208.793052,147.90478 L200.76078,149.982429 C199.25881,156.160987 199.530906,161.545469 201.185249,165.515845 C201.675022,166.668886 202.698103,167.865438 204.123886,169.029356 L196.461663,169.029356 L187.906966,169.051112 L162.427901,169.051112 C159.402194,169.051112 156.713886,170.98735 155.756108,173.859074 L155.320754,175.153526 L155.538431,175.153526 C155.36429,175.512491 155.190148,175.871457 155.048658,176.2413 L153.416083,180.831708 L150.978103,187.695563 C150.891032,187.923996 150.858381,188.174184 150.814845,188.402617 C119.273482,211.300266 104.046992,240.963871 107.420982,251.395626 C108.313456,254.158573 110.501108,255.790234 113.28737,255.790234 L124.356234,255.790234 C124.182093,256.834497 124.029719,257.878761 123.942648,258.912146 C123.148128,268.125595 125.98881,276.806034 131.974921,283.321802 C137.917497,289.815814 146.265401,293.405469 155.440477,293.405469 C174.171562,293.405469 190.747648,278.176629 192.401992,259.445156 C192.499946,258.215971 192.521714,256.997664 192.499946,255.790234 L269.644593,255.790234 C275.935451,255.790234 280.332522,254.387005 283.837118,252.059168 C284.120098,252.613933 284.457497,253.103432 284.871083,253.549419 C286.198911,255.007037 288.114466,255.790234 290.302118,255.790234 L293.93732,255.790234 C293.752295,256.834497 293.599921,257.878761 293.51285,258.912146 C292.71833,268.125595 295.559012,276.806034 301.545123,283.321802 C307.487699,289.815814 315.824719,293.405469 325.010679,293.405469 C343.741764,293.405469 360.31785,278.176629 361.972194,259.445156 C362.701411,251.13456 360.437572,243.324341 355.703103,237.145783 C360.187244,237.134905 363.049694,237.11315 363.049694,237.11315 C364.051007,237.11315 364.976133,236.612773 365.542093,235.796943 C366.12982,234.959356 366.27131,233.936849 365.912143,232.990485 L365.912143,232.990485 Z" id="Fill-17" fill="#FFFFFF"></path>
                    <path d="M201.726829,132.150109 C202.719435,111.45194 211.770435,91.7305922 225.799703,79.0776016 L219.612241,76.4930498 C205.59821,90.2686235 196.616867,110.598037 195.616642,131.842269 C194.892867,147.056968 197.893541,158.994203 202.465842,167.209075 L206.382935,161.463451 C203.142816,154.24063 201.157604,144.241808 201.726829,132.150109" id="Fill-19" fill="#FFFFFF"></path>
                    <path d="M263.179593,59.7950618 C261.198734,59.7950618 259.185224,60.7849364 257.204365,61.7639332 C256.159517,62.2751871 254.418103,63.1236511 253.819492,63.1236511 C251.555653,63.1236511 248.758507,62.5797639 247.289189,62.2751871 C247.354492,62.1337765 247.408911,61.9923658 247.46333,61.8509552 C250.086335,50.8100461 257.596184,45.0448423 267.489593,46.4263157 C276.033406,47.6337451 277.023835,56.3468172 277.154441,58.0655006 C277.219744,59.066253 277.655098,59.9473502 278.308128,60.8610806 C273.083886,60.3607044 266.303254,59.7950618 263.179593,59.7950618 M283.72828,59.8059395 C283.227623,59.2511746 282.433103,58.3700774 282.106588,57.8914567 C281.529744,50.897068 277.295931,42.4233063 267.239264,41.0091997 C254.951411,39.2687608 245.16684,45.8824285 241.13982,58.3700774 C241.13982,58.3700774 247.223886,62.7864411 248.584365,69.5959082 C249.912194,69.7808298 251.327093,69.9222404 252.676689,69.9222404 C254.690199,69.9222404 256.769012,68.9106103 258.74987,67.9316135 C259.772951,67.442115 261.459946,66.6045288 262.03679,66.5827734 C263.76732,66.5827734 266.760376,66.7785727 270.003759,67.0505163 C268.153507,71.9128674 264.550956,76.0246542 261.492598,76.4053752 C258.651916,76.7425853 257.226133,75.992021 255.822118,75.2849677 C255.00583,74.8607357 254.167774,74.4365038 253.144694,74.2733376 C252.70934,74.1971934 251.686259,74.0557828 248.551714,75.1218016 C248.551714,75.1218016 249.455072,77.6563157 248.769391,81.5287922 C250.358431,80.9087608 251.675376,80.4627734 252.328406,80.3431182 C252.524315,80.4301401 252.807295,80.5715508 253.035855,80.7020837 C254.72285,81.5723031 257.530881,83.0190429 262.221815,82.4534003 C268.773886,81.6702028 274.11785,74.4800147 276.27285,67.5835257 C280.180148,67.953369 283.30381,68.2688235 283.369113,68.2688235 L283.869769,68.2688235 C283.935072,68.2688235 284.033027,68.2579458 284.09833,68.2579458 C284.228936,68.2361903 284.348658,68.2253125 284.468381,68.1818016 C284.544567,68.1709238 284.620754,68.1491683 284.686057,68.1274129 C284.794896,68.0947796 284.914618,68.0403909 285.023456,67.9860022 C285.099643,67.953369 285.164946,67.9207357 285.230249,67.8772248 C285.328204,67.8337138 285.426158,67.7575696 285.524113,67.6814254 C285.589416,67.6379144 285.643835,67.5835257 285.720022,67.529137 C285.785325,67.4529928 285.872396,67.3877263 285.948583,67.2898266 C286.013886,67.2245602 286.068305,67.148416 286.122724,67.0831495 C286.198911,67.0070053 286.25333,66.9199834 286.307749,66.8329614 C286.351285,66.7459395 286.405704,66.6589176 286.449239,66.5718956 C286.503658,66.4848737 286.514542,66.386974 286.547194,66.299952 C286.590729,66.1911746 286.623381,66.0932749 286.656032,65.9844975 C286.6778,65.9301088 286.699567,65.8974755 286.710451,65.8430868 C286.710451,65.7886981 286.710451,65.7560649 286.732219,65.7016762 C286.743103,65.6472875 286.76487,65.5928987 286.76487,65.5167545 L286.76487,65.3209552 C286.895477,63.3738392 285.426158,61.7095445 283.72828,59.8059395" id="Fill-21" fill="#FFFFFF"></path>
                    <path d="M218.735983,82.0438533 C224.520743,75.5792107 244.45667,62.3877718 249.626493,86.5907498 C254.796316,110.793728 257.808963,138.262204 257.808963,138.262204" id="Stroke-23" stroke="#FFFFFF" stroke-width="6" stroke-linecap="round"></path>
                    <path d="M241.140908,148.349135 C241.140908,148.349135 231.9876,129.259784 231.262737,101.431255" id="Stroke-25" stroke="#FFFFFF" stroke-width="6" stroke-linecap="round"></path>
                    <path d="M246.434807,54.6722975 C246.434807,54.6722975 241.65136,59.7326235 241.140908,72.5857646" id="Stroke-27" stroke="#FFFFFF" stroke-width="6" stroke-linecap="round"></path>
                    <path d="M241.140908,64.9530699 C241.140908,64.9530699 248.249143,68.7602799 253.691062,66.2225025" id="Stroke-29" stroke="#FFFFFF" stroke-width="6" stroke-linecap="round"></path>
                    <path d="M236.201714,124.890195 C236.201714,124.890195 249.34286,124.856474 253.089077,117.347568" id="Stroke-31" stroke="#FFFFFF" stroke-width="6" stroke-linecap="round"></path>
                    <path d="M122.894426,118.996525 L186.185034,119.835199 C187.991752,119.85913 189.409916,121.390716 189.295635,123.193158 L186.528964,166.686726 C186.428832,168.270525 185.166307,169.534519 183.580532,169.63677 L123.056595,170.360139 C121.235729,170.477619 119.693489,169.033055 119.693489,167.208857 L119.693489,122.153246 C119.693489,120.393227 121.133421,118.973682 122.894426,118.996525 Z" id="Stroke-33" stroke="#FFFFFF" stroke-width="6" stroke-linecap="round"></path>
                    <path d="M119.693271,136.357076 L188.284309,136.357076" id="Stroke-35" stroke="#FFFFFF" stroke-width="6" stroke-linecap="round"></path>
                    <path d="M29.2146167,72.4099803 C29.1830535,76.6327201 25.7328768,80.0298392 21.5088591,79.9982937 C17.283753,79.9667483 13.8847303,76.5195915 13.9162934,72.2968517 C13.9467682,68.0751997 17.3969449,64.6769928 21.622051,64.7085382 C25.8460687,64.7400837 29.2461798,68.1872404 29.2146167,72.4099803 Z" id="Stroke-37" stroke="#FFFFFF" stroke-width="4" opacity="0.6" stroke-linecap="round"></path>
                    <path d="M134.992139,335.6469 C134.960576,339.869639 131.510399,343.266759 127.286381,343.235213 C123.061275,343.203668 119.662252,339.756511 119.693815,335.533771 C119.72429,331.312119 123.174467,327.913912 127.399573,327.945458 C131.623591,327.977003 135.023702,331.42416 134.992139,335.6469 Z" id="Stroke-39" stroke="#FFFFFF" stroke-width="4" opacity="0.6" stroke-linecap="round"></path>
                    <path d="M430.659009,252.694537 C430.627446,256.917277 427.177269,260.314396 422.953252,260.282851 C418.728146,260.251305 415.329123,256.804149 415.360686,252.581409 C415.391161,248.359757 418.841338,244.96155 423.066444,244.993095 C427.290461,245.024641 430.690572,248.471797 430.659009,252.694537 Z" id="Stroke-41" stroke="#FFFFFF" stroke-width="4" opacity="0.6" stroke-linecap="round"></path>
                    <g id="Group-47" opacity="0.6" transform="translate(292.775253, 335.570755)" stroke="#FFFFFF" stroke-linecap="round" stroke-width="4">
                        <path d="M1.00359874,0.0195799373 L11.7078538,10.8777429" id="Stroke-43"></path>
                        <path d="M11.7876323,0.0993137931 L0.923384848,10.797574" id="Stroke-45"></path>
                    </g>
                    <g id="Group-52" opacity="0.6" transform="translate(153.462121, 0.536273)" stroke="#FFFFFF" stroke-linecap="round" stroke-width="4">
                        <path d="M0.650418182,0.551284013 L17.2471833,17.385679" id="Stroke-48"></path>
                        <path d="M17.3702795,0.674855172 L0.526451263,17.2623254" id="Stroke-50"></path>
                    </g>
                    <g id="Group-57" opacity="0.6" transform="translate(398.348485, 144.122480)" stroke="#FFFFFF" stroke-linecap="round" stroke-width="4">
                        <path d="M1.06400404,0.0172956113 L17.6607692,16.8516906" id="Stroke-53"></path>
                        <path d="M17.7839742,0.140757994 L0.94014596,16.7282282" id="Stroke-55"></path>
                    </g>
                    <polygon id="Stroke-58" stroke="#FFFFFF" stroke-width="4" opacity="0.6" stroke-linecap="round" points="18.1629495 244.992878 0.962131313 240.017398 13.8736288 227.616771"></polygon>
                    <polygon id="Stroke-60" stroke="#FFFFFF" stroke-width="4" opacity="0.6" stroke-linecap="round" points="357.440816 66.7856433 373.124428 58.1476276 372.767438 76.0415147"></polygon>
                </g>
            </g>
        </g>
    </g>
</svg>