<svg xmlns="http://www.w3.org/2000/svg" viewBox="0 0 161.28 136.4"><defs><style>.cls-1{fill:#f7982c;}.cls-2{fill:#f1662a;}</style></defs><title>Asset 1</title><g id="Layer_2" data-name="Layer 2"><g id="Layer_1-2" data-name="Layer 1"><path class="cls-1" d="M7.15,79.57a2.37,2.37,0,0,0-1,.24.8.8,0,0,0-.51.77,1.16,1.16,0,0,0,.76,1.11,12.34,12.34,0,0,0,2.53.66,6.12,6.12,0,0,1,3.24,1.43,3.3,3.3,0,0,1,1,2.37,3.94,3.94,0,0,1-.46,1.91,4.21,4.21,0,0,1-1.27,1.42,6.09,6.09,0,0,1-1.92.9A8.8,8.8,0,0,1,7,90.7a9.7,9.7,0,0,1-2.39-.27,7.46,7.46,0,0,1-1.78-.66A4.07,4.07,0,0,1,1.74,89a1.18,1.18,0,0,1-.4-.78,1.24,1.24,0,0,1,.5-1,1.63,1.63,0,0,1,1-.41,2,2,0,0,1,1,.21l.88.43a9.08,9.08,0,0,0,1,.43,4.79,4.79,0,0,0,1.49.2,2,2,0,0,0,1.35-.43,1.21,1.21,0,0,0,.5-.89A1,1,0,0,0,8.86,86a1.88,1.88,0,0,0-.71-.44A7.8,7.8,0,0,0,7,85.21l-1.63-.38a8.38,8.38,0,0,1-1.49-.48,4.64,4.64,0,0,1-1.21-.73,3.18,3.18,0,0,1-.81-1,3.12,3.12,0,0,1-.3-1.41A3.7,3.7,0,0,1,2,79.37,4.1,4.1,0,0,1,3.24,78,6.1,6.1,0,0,1,5,77.18a7.34,7.34,0,0,1,2-.29,10.46,10.46,0,0,1,2,.18,9.07,9.07,0,0,1,1.65.46,3.61,3.61,0,0,1,1.11.64,1,1,0,0,1,.41.75,1,1,0,0,1-.15.53,1.63,1.63,0,0,1-.39.44,2.2,2.2,0,0,1-.51.32,1.39,1.39,0,0,1-.54.12,2.63,2.63,0,0,1-.76-.11L9.1,80a6.08,6.08,0,0,0-.85-.26A4.46,4.46,0,0,0,7.15,79.57Z"/><path class="cls-1" d="M22.57,77.1a4.17,4.17,0,0,1,2.84.92,3.93,3.93,0,0,1,1.07,3.12V89A1.23,1.23,0,0,1,26,90.1a1.81,1.81,0,0,1-1.13.35h-.56a1.55,1.55,0,0,1-1-.35A1.31,1.31,0,0,1,22.88,89V83.57c0-2.33-.74-3.49-2.21-3.49s-2.26,1.21-2.26,3.64V89a1.23,1.23,0,0,1-.47,1.07,1.83,1.83,0,0,1-1.13.35h-.56a1.46,1.46,0,0,1-1.06-.38,1.65,1.65,0,0,1-.38-1.19v-10q0-1.47,1.8-1.47a4.91,4.91,0,0,1,1.38.18,4.5,4.5,0,0,0,1.14.17,2.66,2.66,0,0,0,.79-.1c.22-.06.46-.14.7-.23a6.7,6.7,0,0,1,.81-.22A5.18,5.18,0,0,1,22.57,77.1Z"/><path class="cls-1" d="M39.2,90.09a2,2,0,0,1-1.08.25,3.14,3.14,0,0,1-.72-.07l-.56-.15L36.35,90a1.61,1.61,0,0,0-.49-.07A2.94,2.94,0,0,0,35,90l-.82.28a8.18,8.18,0,0,1-.94.28,4.55,4.55,0,0,1-1.15.13,4.56,4.56,0,0,1-3.31-1.09,3.81,3.81,0,0,1,.32-5.68A9.16,9.16,0,0,1,33.7,82.3a3.42,3.42,0,0,0,1.74-.56,1.18,1.18,0,0,0,.47-.85,1.52,1.52,0,0,0-.53-1.22,1.88,1.88,0,0,0-1.27-.45,2.09,2.09,0,0,0-1.14.26,8.85,8.85,0,0,0-.76.57,4.87,4.87,0,0,1-.81.57,2.44,2.44,0,0,1-1.25.27,3.12,3.12,0,0,1-.54,0,1.73,1.73,0,0,1-.47-.15,1,1,0,0,1-.35-.31.84.84,0,0,1-.13-.51,2.05,2.05,0,0,1,.23-.82,2.56,2.56,0,0,1,.83-.94,5.36,5.36,0,0,1,1.59-.76A8.64,8.64,0,0,1,33.85,77a14.76,14.76,0,0,1,2.42.19,4.69,4.69,0,0,1,1.81.69,3.19,3.19,0,0,1,1.13,1.35,5.22,5.22,0,0,1,.4,2.22v7.59A1.1,1.1,0,0,1,39.2,90.09ZM31.44,86.5a1.5,1.5,0,0,0,.5,1.14,1.86,1.86,0,0,0,1.35.48,2.36,2.36,0,0,0,1-.22,3.32,3.32,0,0,0,.86-.55,3,3,0,0,0,.6-.8,2.12,2.12,0,0,0,.23-1,1.33,1.33,0,0,0-.29-.86,1.22,1.22,0,0,0-1-.35,3.71,3.71,0,0,0-1,.14,4.46,4.46,0,0,0-1.05.4,3.17,3.17,0,0,0-.86.66A1.32,1.32,0,0,0,31.44,86.5Z"/><path class="cls-1" d="M50.82,77.22a1.09,1.09,0,0,1,.69.18.81.81,0,0,1,.31.43,1.05,1.05,0,0,1,0,.53,1.51,1.51,0,0,1-.2.48l-2,3.19a2.59,2.59,0,0,0-.43.92,2.24,2.24,0,0,0,0,.76,2.11,2.11,0,0,0,.17.62c.08.18.17.36.25.53l2.32,3.64a2,2,0,0,1,.37,1,.78.78,0,0,1-.24.58,1.27,1.27,0,0,1-.61.27,4.41,4.41,0,0,1-.7.06,3.67,3.67,0,0,1-1.52-.25,2.12,2.12,0,0,1-.9-.86l-.57-1a1.9,1.9,0,0,0-1.11-1c-.41-.1-.79.19-1.15.84L45,89a3.33,3.33,0,0,1-1,1.1,2.79,2.79,0,0,1-1.59.37,3.07,3.07,0,0,1-.82-.1A1.16,1.16,0,0,1,41,90a.83.83,0,0,1-.21-.58,1.67,1.67,0,0,1,.33-.86l2.42-3.84a2.52,2.52,0,0,0,.35-.86,1.87,1.87,0,0,0,0-.75,2.54,2.54,0,0,0-.2-.59c-.09-.17-.16-.32-.23-.43l-2-3.19a1.06,1.06,0,0,1-.14-1.2,1.2,1.2,0,0,1,1.07-.47h.82a3.89,3.89,0,0,1,.9.14A1.55,1.55,0,0,1,45,78l.51.81c.4.61.78.88,1.15.81a1.62,1.62,0,0,0,1-.91,5,5,0,0,1,.85-1.11,2,2,0,0,1,1.36-.41Z"/><path class="cls-1" d="M57.53,73.89a1.31,1.31,0,0,1-.6,1.28,3,3,0,0,1-1.46.33,2.19,2.19,0,0,1-1.56-.43A1.42,1.42,0,0,1,53.47,74a1.34,1.34,0,0,1,.59-1.28,2.73,2.73,0,0,1,1.41-.34,2.32,2.32,0,0,1,1.6.43A1.41,1.41,0,0,1,57.53,73.89Zm0,5.3v9.46c0,1.21-.69,1.82-2.06,1.82-.87,0-1.43-.18-1.68-.56a3,3,0,0,1-.37-1.66V78.79a2,2,0,0,1,.42-1.33A1.4,1.4,0,0,1,55,77h.93C57,77,57.58,77.71,57.58,79.19Z"/><path class="cls-1" d="M65.47,80a1.4,1.4,0,0,0-.45.6,2.36,2.36,0,0,0-.16.92v7.13A1.8,1.8,0,0,1,64.41,90a2.06,2.06,0,0,1-1.46.44A2.42,2.42,0,0,1,61.42,90,1.73,1.73,0,0,1,61,88.65V81.77a2.36,2.36,0,0,0-.31-1.35,3.28,3.28,0,0,0-.67-.71l-.67-.48a.79.79,0,0,1-.31-.69,1.15,1.15,0,0,1,.13-.55,1.76,1.76,0,0,1,.34-.39,3.83,3.83,0,0,1,.47-.35,5,5,0,0,0,.56-.43,1,1,0,0,0,.32-.62c.06-.3.19-.8.4-1.51a3.59,3.59,0,0,1,.28-.67,2.67,2.67,0,0,1,.59-.74,3.35,3.35,0,0,1,1-.61,3.61,3.61,0,0,1,1.44-.25h1a2.08,2.08,0,0,1,1.29.39,1.14,1.14,0,0,1,.51.92v.42a1.59,1.59,0,0,1-.06.43A1.31,1.31,0,0,1,67,75a1.56,1.56,0,0,1-.49.37,6,6,0,0,0-.85.57.67.67,0,0,0-.23.49.74.74,0,0,0,.17.5,2.53,2.53,0,0,0,.76.46,1.51,1.51,0,0,1,.63.51,1.09,1.09,0,0,1,.19.61.83.83,0,0,1-.21.58,2.37,2.37,0,0,1-.48.4,5.33,5.33,0,0,1-.57.31A4.44,4.44,0,0,0,65.47,80Z"/><path class="cls-2" d="M85.42,90.26s.86,10.82-36.14,12.69h-.22c-1.14,0-11,.16-13.39,6,0,0,12.61-3.56,17.61.14a1.84,1.84,0,0,1,.07,3c-5.32,4.21-19.39,2-29.92-4.38l-.46-.31C21.12,106,8.45,97.07,0,102c0,0,12.7,1.26,15.37,6.18A3.28,3.28,0,0,1,12,112.87c-2.27-.25-5.83-1.34-10.69-4.78,0,0,.6,5.67,9,8.31a12.11,12.11,0,0,0,4.64.45c4.07-.35,13.07-.48,12.28,5.5,0,0-1.16,6.85-16.82-1.43a14.92,14.92,0,0,0,13.18,7.77,13.24,13.24,0,0,0,2.89-.29c3.79-.81,20.75-6.27,20.62-1.06-.14,5.85-16.24,2.78-16.24,2.78s1,8.92,30.89,5.5,46.69-32.81,46.69-32.81Z"/><path class="cls-1" d="M129.67,38.8h0s-19.54,45.83-29.83,42C85,75.34,77.16,50.3,43.77,51.7h0C48.6,52,74.89,67.43,83,87.36c1.2,3,1.48,6.13-.69,8.47-3.14,3.4-10.23,7.93-26.15,9.72h0s22.57,6,14.9,12.31c-1.65,1.35-2.68,1.44-6,1.81s-14.78-1-14.78-1h0s5.45,9.62,24.76,8a36.59,36.59,0,0,0,20.41-8.29C107.31,108.54,127,79.4,129.67,38.8Z"/><path class="cls-2" d="M81.7,42c-5,28,30.59,32.85,29.71,8-.76-18.83-41.09-18.3-41.09-18.3C83.15,32.63,81.7,42,81.7,42Zm12.79,9.16s9.66,4.37,13.17-4.15C111.18,51.47,105.15,71.09,94.49,51.13Z"/><path class="cls-2" d="M153,27.36a4.28,4.28,0,0,1,.57,3.25c-.76,2.92-11.72,2.17-24.55-1.25s-22.09-8.16-21.57-11.12c.16-.88,1.39-1.6,2-1.92-6.57-1.32-10.1.33-11.08,1.76C96,21.46,110.41,29,127.78,33.57s32.06,5.12,33.4,1.26C162,32.61,158.37,29.8,153,27.36Z"/><path class="cls-2" d="M110.83,18.87a1,1,0,0,0,.42,1.17,92,92,0,0,0,38.52,10.08c.52,0,.93-.21,1.06-1.22.38-2.88,1-12.23-13.06-19,0,0,.76-3.62-2.6-4A3.09,3.09,0,0,0,131.7,7.9S115.89,5.93,110.83,18.87Z"/><path class="cls-1" d="M88.1,1.45A6.34,6.34,0,0,0,93.29,8c2.57.43,4.23-.49,6.78-.46s7,3,7,3-2.71-5-5.67-6C95.36,2.43,91.14,7,88.1,1.45Z"/><path class="cls-1" d="M104.75,2a35.8,35.8,0,0,1,4.19.58c3,.95,4.5,3.09,5,6.13a5.77,5.77,0,0,0-3.42-2.91c-1.58-.53-3.26-.68-4.82-1.24-2.44-.87-4.62-2.08-5.15-4.54C101.48,1.51,103,1.64,104.75,2Z"/></g></g></svg>