<?xml version="1.0" standalone="no"?>
<!DOCTYPE svg PUBLIC "-//W3C//DTD SVG 1.1//EN" "http://www.w3.org/Graphics/SVG/1.1/DTD/svg11.dtd" >
<svg>
<metadata>
Created by FontForge 20090914 at Fri Dec  5 13:05:07 2014
 By www-data
Copyright (c) 2012 by [29 Arabic Letters] - Pascal Zoghbi. All rights reserved.
</metadata>
<defs>
<font id="29LTBukra-Regular" horiz-adv-x="0" >
  <font-face 
    font-family="29LT Bukra Regular"
    font-weight="400"
    font-stretch="normal"
    units-per-em="1000"
    panose-1="0 11 9 3 2 2 4 2 2 4"
    ascent="825"
    descent="-175"
    x-height="543"
    cap-height="824"
    bbox="-160 -343 1490 1044"
    underline-thickness="50"
    underline-position="-50"
    unicode-range="U+001D-U+FEFC"
  />
<missing-glyph horiz-adv-x="500" 
 />
    <glyph glyph-name="uniFEF5" unicode="&#xfedf;&#xfe82;" horiz-adv-x="699" arabic-form="isolated" 
d="M127 812h251v-71h-251v71zM30 58h285c28.667 0 55.667 3.5 81 10.5s47.333 17.5 66 31.5c18 13.333 31.667 30 41 50s14 47 14 81v667h150v-71h-79v-606c0 -30 -6.16699 -61 -18.5 -93s-31.5 -57.667 -57.5 -77c-29.333 -22.667 -63.333 -39 -102 -49
s-79.667 -15 -123 -15h-249zM217 697h71v-610h-71v610z" />
    <glyph glyph-name="uniFEF6" unicode="&#xfee0;&#xfe82;" horiz-adv-x="736" arabic-form="final" 
d="M769 -13c-43.333 0 -77.168 2.99609 -101.501 8.99609s-45.5 14.333 -63.5 25s-32.5 22.834 -43.5 36.501s-17.833 23.167 -20.5 28.5c-12 -18.667 -17.5 -27.667 -16.5 -27s-2.83301 -2 -11.5 -8c-29.333 -22.667 -63.333 -39 -102 -49s-79.667 -15 -123 -15h-249l-8 71
h285c28.667 0 55.667 3.5 81 10.5s47.333 17.5 66 31.5c18 13.333 31.667 30 41 50s14 47 14 81v667h150v-71h-79v-606c0 -23.333 -3.33301 -46 -10 -68c6 -13.333 13.833 -26.166 23.5 -38.499s21.334 -22.666 35.001 -30.999s30.167 -14.666 49.5 -18.999s47 -6.5 83 -6.5
v-71zM216.998 696.996h71v-610h-71v610zM126.998 811.996h251v-71h-251v71z" />
    <glyph glyph-name="uniFEF7" unicode="&#xfedf;&#xfe84;" horiz-adv-x="699" arabic-form="isolated" 
d="M30 58h285c28.667 0 55.667 3.5 81 10.5s47.333 17.5 66 31.5c18 13.333 31.667 30 41 50s14 47 14 81v667h150v-71h-79v-606c0 -30 -6.16699 -61 -18.5 -93s-31.5 -57.667 -57.5 -77c-29.333 -22.667 -63.333 -39 -102 -49s-79.667 -15 -123 -15h-249zM217 697h71v-610
h-71v610zM149 784c0 42 9.83203 74.667 29.499 98s49.5 35 89.5 35h49v-71h-42c-21.333 0 -35.666 -3.83301 -42.999 -11.5s-11 -15.167 -11 -22.5h128v-71h-200v43z" />
    <glyph glyph-name="uniFEF8" unicode="&#xfee0;&#xfe84;" horiz-adv-x="736" arabic-form="final" 
d="M769 -13c-43.333 0 -77.168 2.99609 -101.501 8.99609s-45.5 14.333 -63.5 25s-32.5 22.834 -43.5 36.501s-17.833 23.167 -20.5 28.5c-12 -18.667 -17.5 -27.667 -16.5 -27s-2.83301 -2 -11.5 -8c-29.333 -22.667 -63.333 -39 -102 -49s-79.667 -15 -123 -15h-249l-8 71
h285c28.667 0 55.667 3.5 81 10.5s47.333 17.5 66 31.5c18 13.333 31.667 30 41 50s14 47 14 81v667h150v-71h-79v-606c0 -23.333 -3.33301 -46 -10 -68c6 -13.333 13.833 -26.166 23.5 -38.499s21.334 -22.666 35.001 -30.999s30.167 -14.666 49.5 -18.999s47 -6.5 83 -6.5
v-71zM216.998 696.996h71v-610h-71v610zM150.998 783.996c0 42 9.83203 74.667 29.499 98s49.5 35 89.5 35h49v-71h-42c-21.333 0 -35.666 -3.83301 -42.999 -11.5s-11 -15.167 -11 -22.5h128v-71h-200v43z" />
    <glyph glyph-name="uniFEF9" unicode="&#xfedf;&#xfe88;" horiz-adv-x="699" arabic-form="isolated" 
d="M30 58h285c28.667 0 55.667 3.5 81 10.5s47.333 17.5 66 31.5c18 13.333 31.667 30 41 50s14 47 14 81v667h150v-71h-79v-606c0 -30 -6.16699 -61 -18.5 -93s-31.5 -57.667 -57.5 -77c-29.333 -22.667 -63.333 -39 -102 -49s-79.667 -15 -123 -15h-249zM217 697h71v-610
h-71v610zM264 -288c-40 0 -69.832 11.667 -89.499 35s-29.5 56 -29.5 98v43h200v-71h-128c0 -7.33301 3.66699 -14.833 11 -22.5s21.666 -11.5 42.999 -11.5h42v-71h-49z" />
    <glyph glyph-name="uniFEFA" unicode="&#xfee0;&#xfe88;" horiz-adv-x="736" arabic-form="final" 
d="M769 -13c-43.333 0 -77.168 2.99902 -101.501 8.99902s-45.5 14.333 -63.5 25s-32.5 22.834 -43.5 36.501s-17.833 23.167 -20.5 28.5c-12 -18.667 -17.5 -27.667 -16.5 -27s-2.83301 -2 -11.5 -8c-29.333 -22.667 -63.333 -39 -102 -49s-79.667 -15 -123 -15h-249l-8 71
h285c28.667 0 55.667 3.5 81 10.5s47.333 17.5 66 31.5c18 13.333 31.667 30 41 50s14 47 14 81v667h150v-71h-79v-606c0 -12 -0.833008 -24.333 -2.5 -37s-4.16699 -23.334 -7.5 -32.001c6 -13.333 13.833 -26 23.5 -38s21.334 -22.167 35.001 -30.5
s30.167 -14.666 49.5 -18.999s47 -6.5 83 -6.5v-71zM216.998 696.999h71v-610h-71v610zM271.998 -288.001c-40 0 -69.832 11.667 -89.499 35s-29.5 56 -29.5 98v43h200v-71h-128c0 -7.33301 3.66699 -14.833 11 -22.5s21.666 -11.5 42.999 -11.5h42v-71h-49z" />
    <glyph glyph-name="uniFEFB" unicode="&#xfedf;&#xfe8e;" horiz-adv-x="699" arabic-form="isolated" 
d="M30 58h285c28.667 0 55.667 3.5 81 10.5s47.333 17.5 66 31.5c18 13.333 31.667 30 41 50s14 47 14 81v667h150v-71h-79v-606c0 -30 -6.16699 -61 -18.5 -93s-31.5 -57.667 -57.5 -77c-29.333 -22.667 -63.333 -39 -102 -49s-79.667 -15 -123 -15h-249zM217 697h71v-610
h-71v610z" />
    <glyph glyph-name="uniFEFC" unicode="&#xfee0;&#xfe8e;" horiz-adv-x="736" arabic-form="final" 
d="M769 -13c-43.333 0 -77.168 2.99902 -101.501 8.99902s-45.5 14.333 -63.5 25s-32.5 22.834 -43.5 36.501s-17.833 23.167 -20.5 28.5c-12 -18.667 -17.5 -27.667 -16.5 -27s-2.83301 -2 -11.5 -8c-29.333 -22.667 -63.333 -39 -102 -49s-79.667 -15 -123 -15h-249l-8 71
h285c28.667 0 55.667 3.5 81 10.5s47.333 17.5 66 31.5c18 13.333 31.667 30 41 50s14 47 14 81v667h150v-71h-79v-606c0 -12 -0.833008 -24.333 -2.5 -37s-4.16699 -23.334 -7.5 -32.001c6 -13.333 13.833 -26 23.5 -38s21.334 -22.167 35.001 -30.5
s30.167 -14.666 49.5 -18.999s47 -6.5 83 -6.5v-71zM216.998 696.999h71v-610h-71v610z" />
    <glyph glyph-name="uni06440671" unicode="&#xfedf;&#xfb51;" horiz-adv-x="699" 
d="M30 58h285c28.667 0 55.667 3.5 81 10.5s47.333 17.5 66 31.5c18 13.333 31.667 30 41 50s14 47 14 81v667h150v-71h-79v-606c0 -30 -6.16699 -61 -18.5 -93s-31.5 -57.667 -57.5 -77c-29.333 -22.667 -63.333 -39 -102 -49s-79.667 -15 -123 -15h-249zM217 697h71v-610
h-71v610zM127 807l55.001 0.000976562c0 20 8.66699 39.167 26 57.5s39.666 27.5 66.999 27.5c34 0 59.667 -9.83301 77 -29.5s26 -43.834 26 -72.501v-49h-251v66zM275.001 831.001c-9.33301 0 -17 -3 -23 -9s-9 -11 -9 -15h63c0 2 -2.66699 6.5 -8 13.5s-13 10.5 -23 10.5
z" />
    <glyph glyph-name="uni06440671.fina" unicode="&#xfee0;&#xfb51;" horiz-adv-x="736" 
d="M769 -13c-43.333 0 -77.168 2.99609 -101.501 8.99609s-45.5 14.333 -63.5 25s-32.5 22.834 -43.5 36.501s-17.833 23.167 -20.5 28.5c-12 -18.667 -17.5 -27.667 -16.5 -27s-2.83301 -2 -11.5 -8c-29.333 -22.667 -63.333 -39 -102 -49s-79.667 -15 -123 -15h-249l-8 71
h285c28.667 0 55.667 3.5 81 10.5s47.333 17.5 66 31.5c18 13.333 31.667 30 41 50s14 47 14 81v667h150v-71h-79v-606c0 -23.333 -3.33301 -46 -10 -68c6 -13.333 13.833 -26.166 23.5 -38.499s21.334 -22.666 35.001 -30.999s30.167 -14.666 49.5 -18.999s47 -6.5 83 -6.5
v-71zM216.998 696.996h71v-610h-71v610zM126.998 806.996l55.001 0.000976562c0 20 8.66699 39.167 26 57.5s39.666 27.5 66.999 27.5c34 0 59.667 -9.83301 77 -29.5s26 -43.834 26 -72.501v-49h-251v66zM274.999 830.997c-9.33301 0 -17 -3 -23 -9s-9 -11 -9 -15h63
c0 2 -2.66699 6.5 -8 13.5s-13 10.5 -23 10.5z" />
    <glyph glyph-name="uni0621" unicode="&#x621;" horiz-adv-x="543" arabic-form="isolated" 
d="M117 218c0 82 18.5 145.333 55.5 190s89.833 67 158.5 67h106v-71h-120c-38 0 -69 -15.167 -93 -45.5s-36 -71.833 -36 -124.5v-176h293v-71h-364v231z" />
    <glyph glyph-name="uni0622" unicode="&#x622;" horiz-adv-x="265" arabic-form="isolated" 
d="M28 812h251v-71h-251v71zM115 703h71v-716h-71v716z" />
    <glyph glyph-name="uni0623" unicode="&#x623;" horiz-adv-x="265" arabic-form="isolated" 
d="M52 785c0 42 9.83203 74.667 29.499 98s49.5 35 89.5 35h49v-71h-42c-21.333 0 -35.666 -3.83301 -42.999 -11.5s-11 -15.167 -11 -22.5h128v-71h-200v43zM117.999 703h71v-716h-71v716z" />
    <glyph glyph-name="uni0624" unicode="&#x624;" horiz-adv-x="575" arabic-form="isolated" 
d="M300 -233c-32.667 0 -61.8311 4.66602 -87.498 13.999s-55.5 24 -89.5 44l33 63c31.333 -17.333 57.666 -30 78.999 -38s44.333 -12 69 -12c43.333 0 77.166 10 101.499 30s36.5 48 36.5 84v35h-47c-43.333 0 -85.333 4.83301 -126 14.5s-77.167 25.5 -109.5 47.5
s-58.333 50.833 -78 86.5s-29.5 78.834 -29.5 129.501c0 40.667 8 78.167 24 112.5s39 63.833 69 88.5s66 43.667 108 57s89.333 20 142 20h118v-591c0 -57.333 -19.5 -102.5 -58.5 -135.5s-90.5 -49.5 -154.5 -49.5zM123.003 264.999c0 -34.667 6.33301 -64.833 19 -90.5
s30.167 -47 52.5 -64s48.333 -30 78 -39s61.167 -13.5 94.5 -13.5h75v414h-75c-30 0 -59.667 -5 -89 -15s-55.5 -24 -78.5 -42s-41.5 -39.5 -55.5 -64.5s-21 -53.5 -21 -85.5zM304.003 725c0 42 9.83203 74.667 29.499 98s49.5 35 89.5 35h69v-71h-62
c-21.333 0 -35.666 -3.83301 -42.999 -11.5s-11 -19.5 -11 -35.5v-27h148v-71h-220v83z" />
    <glyph glyph-name="uni0625" unicode="&#x625;" horiz-adv-x="275" arabic-form="isolated" 
d="M132 824h71v-837h-71v837zM184 -233c-40 0 -69.832 11.667 -89.499 35s-29.5 56 -29.5 98v43h200v-71h-128c0 -7.33301 3.66699 -14.833 11 -22.5s21.666 -11.5 42.999 -11.5h42v-71h-49z" />
    <glyph glyph-name="uni0626" unicode="&#x626;" horiz-adv-x="1044" arabic-form="isolated" 
d="M410 -138c-28 0 -52.6641 1.16992 -73.9971 3.50293s-40.833 6.16602 -58.5 11.499s-33.834 12 -48.501 20s-29.334 17.667 -44.001 29c-26 19.333 -45.167 45 -57.5 77s-18.5 63 -18.5 93v267h71v-257c0 -34 4.66699 -61 14 -81s23 -36.667 41 -50
c18.667 -14 40.667 -24.5 66 -31.5s52.333 -10.5 81 -10.5h204v408c0 34 5.66699 63.167 17 87.5s28.333 46.833 51 67.5c19.333 16.667 41.5 28.667 66.5 36s50.167 11 75.5 11h186v-556h-71v485h-103c-24 0 -44.333 -2.33301 -61 -7s-31.834 -12.334 -45.501 -23.001
s-24.5 -24.834 -32.5 -42.501s-12 -35.167 -12 -52.5v-485h-247zM42.0029 532.003c0 42 9.83203 74.667 29.499 98s49.5 35 89.5 35h69v-71h-62c-21.333 0 -35.666 -3.83301 -42.999 -11.5s-11 -19.5 -11 -35.5v-27h148v-71h-220v83z" />
    <glyph glyph-name="uni0627" unicode="&#x627;" horiz-adv-x="270" arabic-form="isolated" 
d="M117 824h71v-837h-71v837z" />
    <glyph glyph-name="uni0628" unicode="&#x628;" horiz-adv-x="797" arabic-form="isolated" 
d="M353 -13c-28 0 -52.665 1.16797 -73.998 3.50098s-40.833 6.16602 -58.5 11.499s-33.834 12 -48.501 20s-29.334 17.667 -44.001 29c-26 19.333 -45.167 45 -57.5 77s-18.5 63 -18.5 93v223h71v-213c0 -34 4.66699 -61 14 -81s23 -36.667 41 -50
c18.667 -14 40.667 -24.5 66 -31.5s52.333 -10.5 81 -10.5h339v485h71v-556h-382zM439.002 -219.999c-14.667 0 -27.334 5.33301 -38.001 16s-16 23.334 -16 38.001s5.33301 27.334 16 38.001s23.334 16 38.001 16s27.334 -5.33301 38.001 -16s16 -23.334 16 -38.001
s-5.33301 -27.334 -16 -38.001s-23.334 -16 -38.001 -16z" />
    <glyph glyph-name="uni0629" unicode="&#x629;" horiz-adv-x="584" arabic-form="isolated" 
d="M390 -13c-43.333 0 -85.332 5.16699 -125.999 15.5s-76.667 26.833 -108 49.5s-56.5 51.667 -75.5 87s-28.5 77.333 -28.5 126c0 39.333 7.83301 76 23.5 110s38.5 63.5 68.5 88.5s65.667 44.5 107 58.5s87.666 21 138.999 21h47v50h71v-606h-118zM437.001 58
l0.00195312 414.003h-75c-30 0 -59.5 -5.16699 -88.5 -15.5s-54.667 -24.333 -77 -42s-40.166 -39.334 -53.499 -65.001s-20 -53.834 -20 -84.501c0 -32.667 6.16699 -61.834 18.5 -87.501s29.166 -47.167 50.499 -64.5s46.666 -30.833 75.999 -40.5
s60.666 -14.5 93.999 -14.5h75zM289.003 685.003c-14.667 0 -27.334 5.33301 -38.001 16s-16 23.334 -16 38.001s5.33301 27.334 16 38.001s23.334 16 38.001 16s27.334 -5.33301 38.001 -16s16 -23.334 16 -38.001s-5.33301 -27.334 -16 -38.001s-23.334 -16 -38.001 -16z
M468.003 685.003c-14.667 0 -27.334 5.33301 -38.001 16s-16 23.334 -16 38.001s5.33301 27.334 16 38.001s23.334 16 38.001 16s27.334 -5.33301 38.001 -16s16 -23.334 16 -38.001s-5.33301 -27.334 -16 -38.001s-23.334 -16 -38.001 -16z" />
    <glyph glyph-name="uni062A" unicode="&#x62a;" horiz-adv-x="797" arabic-form="isolated" 
d="M353 -13c-28 0 -52.665 1.16797 -73.998 3.50098s-40.833 6.16602 -58.5 11.499s-33.834 12 -48.501 20s-29.334 17.667 -44.001 29c-26 19.333 -45.167 45 -57.5 77s-18.5 63 -18.5 93v223h71v-213c0 -34 4.66699 -61 14 -81s23 -36.667 41 -50
c18.667 -14 40.667 -24.5 66 -31.5s52.333 -10.5 81 -10.5h339v485h71v-556h-382zM309.002 546.001c-14.667 0 -27.334 5.33301 -38.001 16s-16 23.334 -16 38.001s5.33301 27.334 16 38.001s23.334 16 38.001 16s27.334 -5.33301 38.001 -16s16 -23.334 16 -38.001
s-5.33301 -27.334 -16 -38.001s-23.334 -16 -38.001 -16zM488.002 546.001c-14.667 0 -27.334 5.33301 -38.001 16s-16 23.334 -16 38.001s5.33301 27.334 16 38.001s23.334 16 38.001 16s27.334 -5.33301 38.001 -16s16 -23.334 16 -38.001s-5.33301 -27.334 -16 -38.001
s-23.334 -16 -38.001 -16z" />
    <glyph glyph-name="uni062B" unicode="&#x62b;" horiz-adv-x="797" arabic-form="isolated" 
d="M353 -13c-28 0 -52.665 1.16797 -73.998 3.50098s-40.833 6.16602 -58.5 11.499s-33.834 12 -48.501 20s-29.334 17.667 -44.001 29c-26 19.333 -45.167 45 -57.5 77s-18.5 63 -18.5 93v223h71v-213c0 -34 4.66699 -61 14 -81s23 -36.667 41 -50
c18.667 -14 40.667 -24.5 66 -31.5s52.333 -10.5 81 -10.5h339v485h71v-556h-382zM309.002 548.001c-14.667 0 -27.334 5.33301 -38.001 16s-16 23.334 -16 38.001s5.33301 27.334 16 38.001s23.334 16 38.001 16s27.334 -5.33301 38.001 -16s16 -23.334 16 -38.001
s-5.33301 -27.334 -16 -38.001s-23.334 -16 -38.001 -16zM398.002 682.001c-14.667 0 -27.334 5.33301 -38.001 16s-16 23.334 -16 38.001s5.33301 27.334 16 38.001s23.334 16 38.001 16s27.334 -5.33301 38.001 -16s16 -23.334 16 -38.001s-5.33301 -27.334 -16 -38.001
s-23.334 -16 -38.001 -16zM488.002 548.001c-14.667 0 -27.334 5.33301 -38.001 16s-16 23.334 -16 38.001s5.33301 27.334 16 38.001s23.334 16 38.001 16s27.334 -5.33301 38.001 -16s16 -23.334 16 -38.001s-5.33301 -27.334 -16 -38.001s-23.334 -16 -38.001 -16z" />
    <glyph glyph-name="uni062C" unicode="&#x62c;" horiz-adv-x="553" arabic-form="isolated" 
d="M94 -238c-14 23.333 -25.001 42.8359 -33.001 58.5029s-15 32.167 -21 49.5s-10.5 35.666 -13.5 54.999s-4.5 41 -4.5 65c0 7.33301 0.5 16.833 1.5 28.5s2.83301 24.834 5.5 39.501h389c6 20.667 11 48.667 15 84s6 82.333 6 141c0 28.667 -4.33301 55 -13 79
s-25 46.333 -49 67c-16 12.667 -35.333 23 -58 31s-49.334 12 -80.001 12c-25.333 0 -52.166 -4.5 -80.499 -13.5s-57.833 -25.167 -88.5 -48.5l-27 68c22.667 14 41.5 24.667 56.5 32s30.5 13.5 46.5 18.5s32.833 8.66699 50.5 11s37.5 3.5 59.5 3.5
c30.667 0 60.5 -5.33301 89.5 -16s54.167 -25 75.5 -43c29.333 -24 51.666 -53.833 66.999 -89.5s23 -77.834 23 -126.501c0 -26.667 -1 -53.167 -3 -79.5s-4.66699 -51.333 -8 -75s-7.16602 -45.5 -11.499 -65.5s-10.166 -40.333 -17.499 -61h-378v-7
c0 -30.667 4.16699 -59.334 12.5 -86.001s22.833 -59.334 43.5 -98.001zM281.999 -219.997c-14.667 0 -27.334 5.33301 -38.001 16s-16 23.334 -16 38.001s5.33301 27.334 16 38.001s23.334 16 38.001 16s27.334 -5.33301 38.001 -16s16 -23.334 16 -38.001
s-5.33301 -27.334 -16 -38.001s-23.334 -16 -38.001 -16z" />
    <glyph glyph-name="uni062D" unicode="&#x62d;" horiz-adv-x="553" arabic-form="isolated" 
d="M94 -238c-14 23.333 -25.001 42.8359 -33.001 58.5029s-15 32.167 -21 49.5s-10.5 35.666 -13.5 54.999s-4.5 41 -4.5 65c0 7.33301 0.5 16.833 1.5 28.5s2.83301 24.834 5.5 39.501h389c6 20.667 11 48.667 15 84s6 82.333 6 141c0 28.667 -4.33301 55 -13 79
s-25 46.333 -49 67c-16 12.667 -35.333 23 -58 31s-49.334 12 -80.001 12c-25.333 0 -52.166 -4.5 -80.499 -13.5s-57.833 -25.167 -88.5 -48.5l-27 68c22.667 14 41.5 24.667 56.5 32s30.5 13.5 46.5 18.5s32.833 8.66699 50.5 11s37.5 3.5 59.5 3.5
c30.667 0 60.5 -5.33301 89.5 -16s54.167 -25 75.5 -43c29.333 -24 51.666 -53.833 66.999 -89.5s23 -77.834 23 -126.501c0 -26.667 -1 -53.167 -3 -79.5s-4.66699 -51.333 -8 -75s-7.16602 -45.5 -11.499 -65.5s-10.166 -40.333 -17.499 -61h-378v-7
c0 -30.667 4.16699 -59.334 12.5 -86.001s22.833 -59.334 43.5 -98.001z" />
    <glyph glyph-name="uni062E" unicode="&#x62e;" horiz-adv-x="553" arabic-form="isolated" 
d="M94 -238c-14 23.333 -25.001 42.8359 -33.001 58.5029s-15 32.167 -21 49.5s-10.5 35.666 -13.5 54.999s-4.5 41 -4.5 65c0 7.33301 0.5 16.833 1.5 28.5s2.83301 24.834 5.5 39.501h389c6 20.667 11 48.667 15 84s6 82.333 6 141c0 28.667 -4.33301 55 -13 79
s-25 46.333 -49 67c-16 12.667 -35.333 23 -58 31s-49.334 12 -80.001 12c-25.333 0 -52.166 -4.5 -80.499 -13.5s-57.833 -25.167 -88.5 -48.5l-27 68c22.667 14 41.5 24.667 56.5 32s30.5 13.5 46.5 18.5s32.833 8.66699 50.5 11s37.5 3.5 59.5 3.5
c30.667 0 60.5 -5.33301 89.5 -16s54.167 -25 75.5 -43c29.333 -24 51.666 -53.833 66.999 -89.5s23 -77.834 23 -126.501c0 -26.667 -1 -53.167 -3 -79.5s-4.66699 -51.333 -8 -75s-7.16602 -45.5 -11.499 -65.5s-10.166 -40.333 -17.499 -61h-378v-7
c0 -30.667 4.16699 -59.334 12.5 -86.001s22.833 -59.334 43.5 -98.001zM251.999 634.003c-14.667 0 -27.334 5.33301 -38.001 16s-16 23.334 -16 38.001s5.33301 27.334 16 38.001s23.334 16 38.001 16s27.334 -5.33301 38.001 -16s16 -23.334 16 -38.001
s-5.33301 -27.334 -16 -38.001s-23.334 -16 -38.001 -16z" />
    <glyph glyph-name="uni062F" unicode="&#x62f;" horiz-adv-x="533" arabic-form="isolated" 
d="M22 58l388.002 -0.000976562v263c0 24 -2.33301 44.333 -7 61s-12.334 31.834 -23.001 45.501s-24.834 24.5 -42.501 32.5s-35.167 12 -52.5 12h-86v71h80c34 0 63.167 -5.66699 87.5 -17s46.833 -28.333 67.5 -51c16.667 -19.333 28.667 -41.5 36 -66.5
s11 -50.167 11 -75.5v-346h-459v71z" />
    <glyph glyph-name="uni0630" unicode="&#x630;" horiz-adv-x="533" arabic-form="isolated" 
d="M22 58l388.002 -0.000976562v263c0 24 -2.33301 44.333 -7 61s-12.334 31.834 -23.001 45.501s-24.834 24.5 -42.501 32.5s-35.167 12 -52.5 12h-86v71h80c34 0 63.167 -5.66699 87.5 -17s46.833 -28.333 67.5 -51c16.667 -19.333 28.667 -41.5 36 -66.5
s11 -50.167 11 -75.5v-346h-459v71zM263.002 633.999c-14.667 0 -27.334 5.33301 -38.001 16s-16 23.334 -16 38.001s5.33301 27.334 16 38.001s23.334 16 38.001 16s27.334 -5.33301 38.001 -16s16 -23.334 16 -38.001s-5.33301 -27.334 -16 -38.001
s-23.334 -16 -38.001 -16z" />
    <glyph glyph-name="uni0631" unicode="&#x631;" horiz-adv-x="290" arabic-form="isolated" 
d="M85 -234c-18.667 0 -41.001 5.66699 -67.001 17l26 66c19.333 -8 34.333 -12 45 -12c16 0 28.333 3.16699 37 9.5s15.334 14.833 20.001 25.5s7.66699 23.167 9 37.5s2 28.166 2 41.499v592h71v-592c0 -24 -1.83301 -47.167 -5.5 -69.5s-10.667 -42.166 -21 -59.499
s-25 -31 -44 -41s-43.167 -15 -72.5 -15z" />
    <glyph glyph-name="uni0632" unicode="&#x632;" horiz-adv-x="290" arabic-form="isolated" 
d="M85 -234c-18.667 0 -41.001 5.66699 -67.001 17l26 66c19.333 -8 34.333 -12 45 -12c16 0 28.333 3.16699 37 9.5s15.334 14.833 20.001 25.5s7.66699 23.167 9 37.5s2 28.166 2 41.499v592h71v-592c0 -24 -1.83301 -47.167 -5.5 -69.5s-10.667 -42.166 -21 -59.499
s-25 -31 -44 -41s-43.167 -15 -72.5 -15zM191.999 646c-14.667 0 -27.334 5.33301 -38.001 16s-16 23.334 -16 38.001s5.33301 27.334 16 38.001s23.334 16 38.001 16s27.334 -5.33301 38.001 -16s16 -23.334 16 -38.001s-5.33301 -27.334 -16 -38.001
s-23.334 -16 -38.001 -16z" />
    <glyph glyph-name="uni0633" unicode="&#x633;" horiz-adv-x="1356" arabic-form="isolated" 
d="M1081 -23c-46.667 0 -88.666 10.001 -125.999 30.001s-61 40.667 -71 62c-7.33301 -16 -26.166 -33.667 -56.499 -53s-65.833 -29 -106.5 -29h-176v-125h-182c-28 0 -52.667 1.16699 -74 3.5s-40.833 6.16602 -58.5 11.499s-33.834 12 -48.501 20
s-29.334 17.667 -44.001 29c-26 19.333 -45.167 45 -57.5 77s-18.5 63 -18.5 93v379h71v-369c0 -34 4.66699 -61 14 -81s23 -36.667 41 -50c18.667 -14 40.667 -24.5 66 -31.5s52.333 -10.5 81 -10.5h139v610h71v-485h176c36 0 65.333 10.833 88 32.5s34 53.5 34 95.5v307
h71v-292c0 -20 3.83301 -39.667 11.5 -59s18.667 -36 33 -50s31.833 -25.333 52.5 -34s44 -13 70 -13c52 0 90.333 14.333 115 43s37 66.334 37 113.001v412h71v-402c0 -80.667 -20.167 -139.834 -60.5 -177.501s-94.5 -56.5 -162.5 -56.5z" />
    <glyph glyph-name="uni0634" unicode="&#x634;" horiz-adv-x="1356" arabic-form="isolated" 
d="M1081 -23c-46.667 0 -88.6641 10.001 -125.997 30.001s-61 40.667 -71 62c-7.33301 -16 -26.166 -33.667 -56.499 -53s-65.833 -29 -106.5 -29h-176v-125h-182c-28 0 -52.667 1.16699 -74 3.5s-40.833 6.16602 -58.5 11.499s-33.834 12 -48.501 20
s-29.334 17.667 -44.001 29c-26 19.333 -45.167 45 -57.5 77s-18.5 63 -18.5 93v379h71v-369c0 -34 4.66699 -61 14 -81s23 -36.667 41 -50c18.667 -14 40.667 -24.5 66 -31.5s52.333 -10.5 81 -10.5h139v610h71v-485h176c36 0 65.333 10.833 88 32.5s34 53.5 34 95.5v307
h71v-299c0.666992 -19.333 5 -38 13 -56s19.167 -34 33.5 -48s31.666 -25 51.999 -33s43.166 -12 68.499 -12c52 0 90.333 14.333 115 43s37 66.334 37 113.001v412h71v-402c0 -80.667 -20.167 -139.834 -60.5 -177.501s-94.5 -56.5 -162.5 -56.5zM789.003 646.001
c-14.667 0 -27.334 5.33301 -38.001 16s-16 23.334 -16 38.001s5.33301 27.334 16 38.001s23.334 16 38.001 16s27.334 -5.33301 38.001 -16s16 -23.334 16 -38.001s-5.33301 -27.334 -16 -38.001s-23.334 -16 -38.001 -16zM878.003 780.001
c-14.667 0 -27.334 5.33301 -38.001 16s-16 23.334 -16 38.001s5.33301 27.334 16 38.001s23.334 16 38.001 16s27.334 -5.33301 38.001 -16s16 -23.334 16 -38.001s-5.33301 -27.334 -16 -38.001s-23.334 -16 -38.001 -16zM968.003 646.001
c-14.667 0 -27.334 5.33301 -38.001 16s-16 23.334 -16 38.001s5.33301 27.334 16 38.001s23.334 16 38.001 16s27.334 -5.33301 38.001 -16s16 -23.334 16 -38.001s-5.33301 -27.334 -16 -38.001s-23.334 -16 -38.001 -16z" />
    <glyph glyph-name="uni0635" unicode="&#x635;" horiz-adv-x="1177" arabic-form="isolated" 
d="M545 -13l0.00195312 -124.999h-182c-28 0 -52.667 1.16699 -74 3.5s-40.833 6.16602 -58.5 11.499s-33.834 12 -48.501 20s-29.334 17.667 -44.001 29c-26 19.333 -45.167 45 -57.5 77s-18.5 63 -18.5 93v379h71v-369c0 -34 4.66699 -61 14 -81s23 -36.667 41 -50
c18.667 -14 40.667 -24.5 66 -31.5s52.333 -10.5 81 -10.5h139v610h71v-68h378c34 0 63.167 -5.66699 87.5 -17s46.833 -28.333 67.5 -51c16.667 -19.333 28.667 -41.5 36 -66.5s11 -50.167 11 -75.5v-278h-580zM545.002 404.001l0.00195312 -346.001h509v195
c0 24 -2.33301 44.333 -7 61s-12.334 31.834 -23.001 45.501s-24.834 24.5 -42.501 32.5s-35.167 12 -52.5 12h-384z" />
    <glyph glyph-name="uni0636" unicode="&#x636;" horiz-adv-x="1177" arabic-form="isolated" 
d="M545 -13l0.00195312 -124.999h-182c-28 0 -52.667 1.16699 -74 3.5s-40.833 6.16602 -58.5 11.499s-33.834 12 -48.501 20s-29.334 17.667 -44.001 29c-26 19.333 -45.167 45 -57.5 77s-18.5 63 -18.5 93v379h71v-369c0 -34 4.66699 -61 14 -81s23 -36.667 41 -50
c18.667 -14 40.667 -24.5 66 -31.5s52.333 -10.5 81 -10.5h139v610h71v-68h378c34 0 63.167 -5.66699 87.5 -17s46.833 -28.333 67.5 -51c16.667 -19.333 28.667 -41.5 36 -66.5s11 -50.167 11 -75.5v-278h-580zM545.002 404.001l0.00195312 -346.001h509v195
c0 24 -2.33301 44.333 -7 61s-12.334 31.834 -23.001 45.501s-24.834 24.5 -42.501 32.5s-35.167 12 -52.5 12h-384zM777.004 587c-14.667 0 -27.334 5.33301 -38.001 16s-16 23.334 -16 38.001s5.33301 27.334 16 38.001s23.334 16 38.001 16s27.334 -5.33301 38.001 -16
s16 -23.334 16 -38.001s-5.33301 -27.334 -16 -38.001s-23.334 -16 -38.001 -16z" />
    <glyph glyph-name="uni0637" unicode="&#x637;" horiz-adv-x="872" arabic-form="isolated" 
d="M22 58h156v766h71v-349h369c34 0 63.167 -5.66699 87.5 -17s46.833 -28.333 67.5 -51c16.667 -19.333 28.667 -41.5 36 -66.5s11 -50.167 11 -75.5v-278h-798v71zM249 404l0.00195312 -346.001h500v195c0 24 -2.33301 44.333 -7 61s-12.334 31.834 -23.001 45.501
s-24.834 24.5 -42.501 32.5s-35.167 12 -52.5 12h-375z" />
    <glyph glyph-name="uni0638" unicode="&#x638;" horiz-adv-x="872" arabic-form="isolated" 
d="M22 58h156v766h71v-349h369c34 0 63.167 -5.66699 87.5 -17s46.833 -28.333 67.5 -51c16.667 -19.333 28.667 -41.5 36 -66.5s11 -50.167 11 -75.5v-278h-798v71zM249 404l0.00195312 -346.001h500v195c0 24 -2.33301 44.333 -7 61s-12.334 31.834 -23.001 45.501
s-24.834 24.5 -42.501 32.5s-35.167 12 -52.5 12h-375zM485.002 586.999c-14.667 0 -27.334 5.33301 -38.001 16s-16 23.334 -16 38.001s5.33301 27.334 16 38.001s23.334 16 38.001 16s27.334 -5.33301 38.001 -16s16 -23.334 16 -38.001s-5.33301 -27.334 -16 -38.001
s-23.334 -16 -38.001 -16z" />
    <glyph glyph-name="uni0639" unicode="&#x639;" horiz-adv-x="630" arabic-form="isolated" 
d="M114 -238c-14 23.333 -25.002 42.8369 -33.002 58.5039s-15 32.167 -21 49.5s-10.5 35.666 -13.5 54.999s-4.5 41 -4.5 65c0 7.33301 0.5 16.833 1.5 28.5s2.83301 24.834 5.5 39.501h89l-16 29c-8.66699 17.333 -16.5 35.666 -23.5 54.999s-12.667 39.666 -17 60.999
s-6.5 43 -6.5 65c0 48.667 9.5 90.834 28.5 126.501s42.833 65.5 71.5 89.5c21.333 18 46.5 32.333 75.5 43s58.833 16 89.5 16c21.333 0 40.833 -1.16699 58.5 -3.5s34.334 -6 50.001 -11s31 -11.167 46 -18.5s33.833 -18 56.5 -32l-25 -68
c-30.667 23.333 -60.167 39.5 -88.5 48.5s-55.166 13.5 -80.499 13.5c-30.667 0 -57.334 -4 -80.001 -12s-42 -18.333 -58 -31c-48 -40.667 -72 -89.334 -72 -146.001c0 -28.667 2.16699 -54.167 6.5 -76.5s9.83301 -42.5 16.5 -60.5s14.334 -34.333 23.001 -49l23 -39h362
v-71h-465v-7c0 -30.667 4.16699 -59.334 12.5 -86.001s22.833 -59.334 43.5 -98.001z" />
    <glyph glyph-name="uni063A" unicode="&#x63a;" horiz-adv-x="630" arabic-form="isolated" 
d="M114 -238c-14 23.333 -25.002 42.8369 -33.002 58.5039s-15 32.167 -21 49.5s-10.5 35.666 -13.5 54.999s-4.5 41 -4.5 65c0 7.33301 0.5 16.833 1.5 28.5s2.83301 24.834 5.5 39.501h89l-16 29c-8.66699 17.333 -16.5 35.666 -23.5 54.999s-12.667 39.666 -17 60.999
s-6.5 43 -6.5 65c0 48.667 9.5 90.834 28.5 126.501s42.833 65.5 71.5 89.5c21.333 18 46.5 32.333 75.5 43s58.833 16 89.5 16c21.333 0 40.833 -1.16699 58.5 -3.5s34.334 -6 50.001 -11s31 -11.167 46 -18.5s33.833 -18 56.5 -32l-25 -68
c-30.667 23.333 -60.167 39.5 -88.5 48.5s-55.166 13.5 -80.499 13.5c-30.667 0 -57.334 -4 -80.001 -12s-42 -18.333 -58 -31c-48 -40.667 -72 -89.334 -72 -146.001c0 -28.667 2.16699 -54.167 6.5 -76.5s9.83301 -42.5 16.5 -60.5s14.334 -34.333 23.001 -49l23 -39h362
v-71h-465v-7c0 -30.667 4.16699 -59.334 12.5 -86.001s22.833 -59.334 43.5 -98.001zM334.998 646.004c-14.667 0 -27.334 5.33301 -38.001 16s-16 23.334 -16 38.001s5.33301 27.334 16 38.001s23.334 16 38.001 16s27.334 -5.33301 38.001 -16s16 -23.334 16 -38.001
s-5.33301 -27.334 -16 -38.001s-23.334 -16 -38.001 -16z" />
    <glyph glyph-name="uni0641" unicode="&#x641;" horiz-adv-x="992" arabic-form="isolated" 
d="M353 -13c-28 0 -52.6641 1.16797 -73.9971 3.50098s-40.833 6.16602 -58.5 11.499s-33.834 12 -48.501 20s-29.334 17.667 -44.001 29c-26 19.333 -45.167 45 -57.5 77s-18.5 63 -18.5 93v223h71v-213c0 -34 4.66699 -61 14 -81s23 -36.667 41 -50
c18.667 -14 40.667 -24.5 66 -31.5s52.333 -10.5 81 -10.5h236c-12 8.66699 -30.333 32 -55 70s-37 84 -37 138c0 39.333 7.16699 76 21.5 110s35.666 63.5 63.999 88.5s63.333 44.333 105 58s89.167 20.5 142.5 20.5h138v-556h-587zM540.003 266.001
c0 -46.667 13.666 -87.6689 40.999 -123.002s61 -63.666 101 -84.999h187v414h-95c-32.667 0 -63 -4.83301 -91 -14.5s-52.667 -23.667 -74 -42s-38.166 -40.166 -50.499 -65.499s-18.5 -53.333 -18.5 -84zM772.002 645.999c-14.667 0 -27.334 5.33301 -38.001 16
s-16 23.334 -16 38.001s5.33301 27.334 16 38.001s23.334 16 38.001 16s27.334 -5.33301 38.001 -16s16 -23.334 16 -38.001s-5.33301 -27.334 -16 -38.001s-23.334 -16 -38.001 -16z" />
    <glyph glyph-name="uni0642" unicode="&#x642;" horiz-adv-x="807" arabic-form="isolated" 
d="M353 -233c-28 0 -52.665 1.16602 -73.998 3.49902s-40.833 6.16602 -58.5 11.499s-33.834 12 -48.501 20s-29.334 17.667 -44.001 29c-26 19.333 -45.167 45 -57.5 77s-18.5 63 -18.5 93v267h71v-257c0 -34 4.66699 -61 14 -81s23 -36.667 41 -50
c18.667 -14 40.667 -24.5 66 -31.5s52.333 -10.5 81 -10.5h349v149h-47c-45.333 0 -88.333 4.83301 -129 14.5s-77 25.334 -109 47.001s-57.5 50.334 -76.5 86.001s-28.5 79.167 -28.5 130.5c0 39.333 7.83301 76 23.5 110s38.5 63.5 68.5 88.5s66.167 44.5 108.5 58.5
s89.833 21 142.5 21h118v-776h-392zM355.002 264.999c0 -34.667 6.16602 -64.998 18.499 -90.998s29.5 -47.5 51.5 -64.5s48 -29.833 78 -38.5s62 -13 96 -13h75v414h-75c-32 0 -62.833 -5.16699 -92.5 -15.5s-55.667 -24.333 -78 -42s-40.166 -39.334 -53.499 -65.001
s-20 -53.834 -20 -84.501zM675.001 646.001c-14.667 0 -27.334 5.33301 -38.001 16s-16 23.334 -16 38.001s5.33301 27.334 16 38.001s23.334 16 38.001 16s27.334 -5.33301 38.001 -16s16 -23.334 16 -38.001s-5.33301 -27.334 -16 -38.001s-23.334 -16 -38.001 -16z
M496.001 646.001c-14.667 0 -27.334 5.33301 -38.001 16s-16 23.334 -16 38.001s5.33301 27.334 16 38.001s23.334 16 38.001 16s27.334 -5.33301 38.001 -16s16 -23.334 16 -38.001s-5.33301 -27.334 -16 -38.001s-23.334 -16 -38.001 -16z" />
    <glyph glyph-name="uni0643" unicode="&#x643;" horiz-adv-x="817" arabic-form="isolated" 
d="M353 -13c-28 0 -52.665 1.16797 -73.998 3.50098s-40.833 6.16602 -58.5 11.499s-33.834 12 -48.501 20s-29.334 17.667 -44.001 29c-26 19.333 -45.167 45 -57.5 77s-18.5 63 -18.5 93v223h71v-213c0 -34 4.66699 -61 14 -81s23 -36.667 41 -50
c18.667 -14 40.667 -24.5 66 -31.5s52.333 -10.5 81 -10.5h339v766h71v-837h-382zM300.002 382.001c0 42 9.83203 74.667 29.499 98s49.5 35 89.5 35h69v-71h-62c-21.333 0 -35.666 -3.83301 -42.999 -11.5s-11 -19.5 -11 -35.5v-27h148v-71h-220v83z" />
    <glyph glyph-name="uni0644" unicode="&#x644;" horiz-adv-x="666" arabic-form="isolated" 
d="M353 -138c-28 0 -52.665 1.16797 -73.998 3.50098s-40.833 6.16602 -58.5 11.499s-33.834 12 -48.501 20s-29.334 17.667 -44.001 29c-26 19.333 -45.167 45 -57.5 77s-18.5 63 -18.5 93v379h71v-369c0 -34 4.66699 -61 14 -81s23 -36.667 41 -50
c18.667 -14 40.667 -24.5 66 -31.5s52.333 -10.5 81 -10.5h139v891h170v-71h-99v-891h-182z" />
    <glyph glyph-name="uni0645" unicode="&#x645;" horiz-adv-x="880" arabic-form="isolated" 
d="M549 -119c-40 0 -76.8281 7.00488 -110.495 21.0049s-63.334 33.333 -89.001 58s-46.334 53.667 -62.001 87s-24.5 64.666 -26.5 93.999c-22.667 -0.666992 -44.834 -5.83398 -66.501 -15.501s-38.834 -22.834 -51.501 -39.501c-14 -18.667 -24.5 -40.667 -31.5 -66
s-10.5 -52.333 -10.5 -81v-172h-71v144c0 55.333 5.16699 100.666 15.5 135.999s26.5 65.666 48.5 90.999s48.167 43.833 78.5 55.5s59.833 17.834 88.5 18.501c2 30 10.833 61.833 26.5 95.5s36.5 62.834 62.5 87.501s55.833 44.167 89.5 58.5s70.167 21.5 109.5 21.5
c43.333 0 83.166 -7.66699 119.499 -23s67.833 -36.333 94.5 -63s47.5 -58 62.5 -94s22.5 -75.333 22.5 -118c0 -43.333 -7.66699 -82.833 -23 -118.5s-36.5 -66.834 -63.5 -93.501s-58.5 -47.334 -94.5 -62.001s-75.333 -22 -118 -22zM549.005 -47.9951
c32.667 0 62.998 5.66699 90.998 17s52 26.833 72 46.5s35.833 43.334 47.5 71.001s17.5 57.834 17.5 90.501s-5.66699 63 -17 91s-27.166 52 -47.499 72s-44.5 35.667 -72.5 47s-58.333 17 -91 17c-32 0 -61.333 -6 -88 -18s-49.667 -28.333 -69 -49
s-34.5 -44.834 -45.5 -72.501s-16.5 -56.834 -16.5 -87.501c0 -30 5.5 -58.833 16.5 -86.5s26.333 -51.667 46 -72s42.834 -36.5 69.501 -48.5s55.667 -18 87 -18z" />
    <glyph glyph-name="uni0646" unicode="&#x646;" horiz-adv-x="597" arabic-form="isolated" 
d="M353 -138c-28 0 -52.665 1.16797 -73.998 3.50098s-40.833 6.16602 -58.5 11.499s-33.834 12 -48.501 20s-29.334 17.667 -44.001 29c-26 19.333 -45.167 45 -57.5 77s-18.5 63 -18.5 93v379h71v-369c0 -34 4.66699 -61 14 -81s23 -36.667 41 -50
c18.667 -14 40.667 -24.5 66 -31.5s52.333 -10.5 81 -10.5h139v542h71v-613h-182zM300.002 587.001c-14.667 0 -27.334 5.33301 -38.001 16s-16 23.334 -16 38.001s5.33301 27.334 16 38.001s23.334 16 38.001 16s27.334 -5.33301 38.001 -16s16 -23.334 16 -38.001
s-5.33301 -27.334 -16 -38.001s-23.334 -16 -38.001 -16z" />
    <glyph glyph-name="uni0648" unicode="&#x648;" horiz-adv-x="575" arabic-form="isolated" 
d="M300 -233c-32.667 0 -61.8311 4.66602 -87.498 13.999s-55.5 24 -89.5 44l33 63c31.333 -17.333 57.666 -30 78.999 -38s44.333 -12 69 -12c43.333 0 77.166 10 101.499 30s36.5 48 36.5 84v35h-47c-43.333 0 -85.333 4.83301 -126 14.5s-77.167 25.5 -109.5 47.5
s-58.333 50.833 -78 86.5s-29.5 78.834 -29.5 129.501c0 40.667 8 78.167 24 112.5s39 63.833 69 88.5s66 43.667 108 57s89.333 20 142 20h118v-591c0 -57.333 -19.5 -102.5 -58.5 -135.5s-90.5 -49.5 -154.5 -49.5zM123.003 264.999c0 -34.667 6.33301 -64.833 19 -90.5
s30.167 -47 52.5 -64s48.333 -30 78 -39s61.167 -13.5 94.5 -13.5h75v414h-75c-30 0 -59.667 -5 -89 -15s-55.5 -24 -78.5 -42s-41.5 -39.5 -55.5 -64.5s-21 -53.5 -21 -85.5z" />
    <glyph glyph-name="uni0649" unicode="&#x649;" horiz-adv-x="987" arabic-form="isolated" 
d="M353 -138c-28 0 -52.6641 1.16992 -73.9971 3.50293s-40.833 6.16602 -58.5 11.499s-33.834 12 -48.501 20s-29.334 17.667 -44.001 29c-26 19.333 -45.167 45 -57.5 77s-18.5 63 -18.5 93v267h71v-257c0 -34 4.66699 -61 14 -81s23 -36.667 41 -50
c18.667 -14 40.667 -24.5 66 -31.5s52.333 -10.5 81 -10.5h204v408c0 34 5.66699 63.167 17 87.5s28.333 46.833 51 67.5c19.333 16.667 41.5 28.667 66.5 36s50.167 11 75.5 11h186v-556h-71v485h-103c-24 0 -44.333 -2.33301 -61 -7s-31.834 -12.334 -45.501 -23.001
s-24.5 -24.834 -32.5 -42.501s-12 -35.167 -12 -52.5v-485h-247z" />
    <glyph glyph-name="uni064A" unicode="&#x64a;" horiz-adv-x="910" arabic-form="isolated" 
d="M236 -138c-25.333 0 -48.167 1.16895 -68.5 3.50195s-39.166 6 -56.499 11s-34 10.833 -50 17.5s-35.667 16.667 -59 30l35 61c34.667 -20 64.667 -33.667 90 -41s52.333 -11 81 -11h244v408c0 34 5.66699 63.167 17 87.5s28.333 46.833 51 67.5
c19.333 16.667 41.5 28.667 66.5 36s50.167 11 75.5 11h186v-556h-71v485h-103c-24 0 -44.333 -2.33301 -61 -7s-31.834 -12.334 -45.501 -23.001s-24.5 -24.834 -32.5 -42.501s-12 -35.167 -12 -52.5v-485h-287zM277.999 32.002c-14.667 0 -27.334 5.33301 -38.001 16
s-16 23.334 -16 38.001s5.33301 27.334 16 38.001s23.334 16 38.001 16s27.334 -5.33301 38.001 -16s16 -23.334 16 -38.001s-5.33301 -27.334 -16 -38.001s-23.334 -16 -38.001 -16zM277.999 209.002c-14.667 0 -27.334 5.33301 -38.001 16s-16 23.334 -16 38.001
s5.33301 27.334 16 38.001s23.334 16 38.001 16s27.334 -5.33301 38.001 -16s16 -23.334 16 -38.001s-5.33301 -27.334 -16 -38.001s-23.334 -16 -38.001 -16z" />
    <glyph glyph-name="uni066E.init" unicode="&#x66e;" horiz-adv-x="246" 
d="M-13 58h126v485h71v-556h-197v71z" />
    <glyph glyph-name="uni066E.medi" unicode="&#x66e;" horiz-adv-x="285" 
d="M-13 58h126v485h71v-485h134v-71h-331v71z" />
    <glyph glyph-name="uni066E.fina" unicode="&#x66e;" horiz-adv-x="836" 
d="M353 -13c-28 0 -52.665 1.16797 -73.998 3.50098s-40.833 6.16602 -58.5 11.499s-33.834 12 -48.501 20s-29.334 17.667 -44.001 29c-26 19.333 -45.167 45 -57.5 77s-18.5 63 -18.5 93v223h71v-213c0 -34 4.66699 -61 14 -81s23 -36.667 41 -50
c18.667 -14 40.667 -24.5 66 -31.5s52.333 -10.5 81 -10.5h339v485h71v-485h134v-71h-516z" />
    <glyph glyph-name="uni066F.init" unicode="&#x66f;" horiz-adv-x="627" 
d="M-13 58l210 0.00195312c-15.333 10 -27 19 -35 27s-18 21.667 -30 41s-21.333 40.5 -28 63.5s-10 48.5 -10 76.5c0 40.667 7.5 78.167 22.5 112.5s37 63.666 66 87.999s64 43.166 105 56.499s87.833 20 140.5 20h137v-556h-578v71zM165 266.002
c0 -24.667 3.83105 -47.5 11.498 -68.5s17.834 -40.167 30.501 -57.5s27.834 -33 45.501 -47s35.834 -25.667 54.501 -35h187v414h-94c-30 0 -59.333 -4.66699 -88 -14s-53.834 -22.666 -75.501 -39.999s-39 -38.833 -52 -64.5s-19.5 -54.834 -19.5 -87.501z" />
    <glyph glyph-name="uni066F.medi" unicode="&#x66f;" horiz-adv-x="666" 
d="M-13 58l210 0.00195312c-15.333 10 -27 19 -35 27s-18 21.667 -30 41s-21.333 40.5 -28 63.5s-10 48.5 -10 76.5c0 40.667 7.5 78.167 22.5 112.5s37 63.666 66 87.999s64 43.166 105 56.499s87.833 20 140.5 20h137v-485h134v-71h-712v71zM165 266.002
c0 -24.667 3.83105 -47.5 11.498 -68.5s17.834 -40.167 30.501 -57.5s27.834 -33 45.501 -47s35.834 -25.667 54.501 -35h187v414h-94c-30 0 -59.333 -4.66699 -88 -14s-53.834 -22.666 -75.501 -39.999s-39 -38.833 -52 -64.5s-19.5 -54.834 -19.5 -87.501z" />
    <glyph glyph-name="uni066F.fina" unicode="&#x66f;" horiz-adv-x="867" 
d="M353 -233c-28 0 -52.665 1.16602 -73.998 3.49902s-40.833 6.16602 -58.5 11.499s-33.834 12 -48.501 20s-29.334 17.667 -44.001 29c-26 19.333 -45.167 45 -57.5 77s-18.5 63 -18.5 93v267h71v-257c0 -34 4.66699 -61 14 -81s23 -36.667 41 -50
c18.667 -14 40.667 -24.5 66 -31.5s52.333 -10.5 81 -10.5h349v149h-47c-45.333 0 -88.333 4.83301 -129 14.5s-77 25.334 -109 47.001s-57.5 50.334 -76.5 86.001s-28.5 79.167 -28.5 130.5c0 39.333 7.83301 76 23.5 110s38.5 63.5 68.5 88.5s66.167 44.5 108.5 58.5
s89.833 21 142.5 21h118v-485h155v-71h-155v-220h-392zM355.002 264.999c0 -34.667 6.16602 -64.998 18.499 -90.998s29.5 -47.5 51.5 -64.5s48 -29.833 78 -38.5s62 -13 96 -13h75v414h-75c-32 0 -62.833 -5.16699 -92.5 -15.5s-55.667 -24.333 -78 -42
s-40.166 -39.334 -53.499 -65.001s-20 -53.834 -20 -84.501z" />
    <glyph glyph-name="uni0671" unicode="&#x671;" horiz-adv-x="265" arabic-form="isolated" 
d="M119 703h71v-716h-71v716zM32 807l55.001 0.000976562c0 20 8.66699 39.167 26 57.5s39.666 27.5 66.999 27.5c34 0 59.667 -9.83301 77 -29.5s26 -43.834 26 -72.501v-49h-251v66zM180.001 831.001c-9.33301 0 -17 -3 -23 -9s-9 -11 -9 -15h63c0 2 -2.66699 6.5 -8 13.5
s-13 10.5 -23 10.5z" />
    <glyph glyph-name="uni0679" unicode="&#x679;" horiz-adv-x="797" arabic-form="isolated" 
d="M353 -13c-28 0 -52.665 1.16797 -73.998 3.50098s-40.833 6.16602 -58.5 11.499s-33.834 12 -48.501 20s-29.334 17.667 -44.001 29c-26 19.333 -45.167 45 -57.5 77s-18.5 63 -18.5 93v223h71v-213c0 -34 4.66699 -61 14 -81s23 -36.667 41 -50
c18.667 -14 40.667 -24.5 66 -31.5s52.333 -10.5 81 -10.5h339v485h71v-556h-382zM268.002 607.001l46 0.000976562v142h70v-57h35c30.667 0 55 -9.83301 73 -29.5s27 -43.834 27 -72.501v-49h-251v66zM384.002 631.002l-0.000976562 -24h68c0 2 -2.66699 6.5 -8 13.5
s-13.666 10.5 -24.999 10.5h-35z" />
    <glyph glyph-name="uni067E" unicode="&#x67e;" horiz-adv-x="797" arabic-form="isolated" 
d="M353 -13c-28 0 -52.665 1.16797 -73.998 3.50098s-40.833 6.16602 -58.5 11.499s-33.834 12 -48.501 20s-29.334 17.667 -44.001 29c-26 19.333 -45.167 45 -57.5 77s-18.5 63 -18.5 93v223h71v-213c0 -34 4.66699 -61 14 -81s23 -36.667 41 -50
c18.667 -14 40.667 -24.5 66 -31.5s52.333 -10.5 81 -10.5h339v485h71v-556h-382zM366.002 -219.999c-14.667 0 -27.334 5.33301 -38.001 16s-16 23.334 -16 38.001s5.33301 27.334 16 38.001s23.334 16 38.001 16s27.334 -5.33301 38.001 -16s16 -23.334 16 -38.001
s-5.33301 -27.334 -16 -38.001s-23.334 -16 -38.001 -16zM455.002 -342.999c-14.667 0 -27.334 5.33301 -38.001 16s-16 23.334 -16 38.001s5.33301 27.334 16 38.001s23.334 16 38.001 16s27.334 -5.33301 38.001 -16s16 -23.334 16 -38.001s-5.33301 -27.334 -16 -38.001
s-23.334 -16 -38.001 -16zM545.002 -219.999c-14.667 0 -27.334 5.33301 -38.001 16s-16 23.334 -16 38.001s5.33301 27.334 16 38.001s23.334 16 38.001 16s27.334 -5.33301 38.001 -16s16 -23.334 16 -38.001s-5.33301 -27.334 -16 -38.001s-23.334 -16 -38.001 -16z" />
    <glyph glyph-name="uni0686" unicode="&#x686;" horiz-adv-x="553" arabic-form="isolated" 
d="M94 -238c-14 23.333 -25.001 42.8359 -33.001 58.5029s-15 32.167 -21 49.5s-10.5 35.666 -13.5 54.999s-4.5 41 -4.5 65c0 7.33301 0.5 16.833 1.5 28.5s2.83301 24.834 5.5 39.501h389c6 20.667 11 48.667 15 84s6 82.333 6 141c0 28.667 -4.33301 55 -13 79
s-25 46.333 -49 67c-16 12.667 -35.333 23 -58 31s-49.334 12 -80.001 12c-25.333 0 -52.166 -4.5 -80.499 -13.5s-57.833 -25.167 -88.5 -48.5l-27 68c22.667 14 41.5 24.667 56.5 32s30.5 13.5 46.5 18.5s32.833 8.66699 50.5 11s37.5 3.5 59.5 3.5
c30.667 0 60.5 -5.33301 89.5 -16s54.167 -25 75.5 -43c29.333 -24 51.666 -53.833 66.999 -89.5s23 -77.834 23 -126.501c0 -26.667 -1 -53.167 -3 -79.5s-4.66699 -51.333 -8 -75s-7.16602 -45.5 -11.499 -65.5s-10.166 -40.333 -17.499 -61h-378v-7
c0 -30.667 4.16699 -59.334 12.5 -86.001s22.833 -59.334 43.5 -98.001zM213.999 -176.997c-14.667 0 -27.334 5.33301 -38.001 16s-16 23.334 -16 38.001s5.33301 27.334 16 38.001s23.334 16 38.001 16s27.334 -5.33301 38.001 -16s16 -23.334 16 -38.001
s-5.33301 -27.334 -16 -38.001s-23.334 -16 -38.001 -16zM302.999 -299.997c-14.667 0 -27.334 5.33301 -38.001 16s-16 23.334 -16 38.001s5.33301 27.334 16 38.001s23.334 16 38.001 16s27.334 -5.33301 38.001 -16s16 -23.334 16 -38.001s-5.33301 -27.334 -16 -38.001
s-23.334 -16 -38.001 -16zM392.999 -176.997c-14.667 0 -27.334 5.33301 -38.001 16s-16 23.334 -16 38.001s5.33301 27.334 16 38.001s23.334 16 38.001 16s27.334 -5.33301 38.001 -16s16 -23.334 16 -38.001s-5.33301 -27.334 -16 -38.001s-23.334 -16 -38.001 -16z" />
    <glyph glyph-name="uni0688" unicode="&#x688;" horiz-adv-x="533" arabic-form="isolated" 
d="M22 58l388.002 -0.000976562v263c0 24 -2.33301 44.333 -7 61s-12.334 31.834 -23.001 45.501s-24.834 24.5 -42.501 32.5s-35.167 12 -52.5 12h-86v71h80c34 0 63.167 -5.66699 87.5 -17s46.833 -28.333 67.5 -51c16.667 -19.333 28.667 -41.5 36 -66.5
s11 -50.167 11 -75.5v-346h-459v71zM141.002 707.999l46 0.000976562v142h70v-57h35c30.667 0 55 -9.83301 73 -29.5s27 -43.834 27 -72.501v-49h-251v66zM257.002 732l-0.000976562 -24h68c0 2 -2.66699 6.5 -8 13.5s-13.666 10.5 -24.999 10.5h-35z" />
    <glyph glyph-name="uni0691" unicode="&#x691;" horiz-adv-x="290" arabic-form="isolated" 
d="M85 -234c-18.667 0 -41.001 5.66699 -67.001 17l26 66c19.333 -8 34.333 -12 45 -12c16 0 28.333 3.16699 37 9.5s15.334 14.833 20.001 25.5s7.66699 23.167 9 37.5s2 28.166 2 41.499v592h71v-592c0 -24 -1.83301 -47.167 -5.5 -69.5s-10.667 -42.166 -21 -59.499
s-25 -31 -44 -41s-43.167 -15 -72.5 -15zM65.999 708l46 0.000976562v142h70v-57h35c30.667 0 55 -9.83301 73 -29.5s27 -43.834 27 -72.501v-49h-251v66zM181.999 732.001l-0.000976562 -24h68c0 2 -2.66699 6.5 -8 13.5s-13.666 10.5 -24.999 10.5h-35z" />
    <glyph glyph-name="uni0698" unicode="&#x698;" horiz-adv-x="290" arabic-form="isolated" 
d="M85 -234c-18.667 0 -41.001 5.66699 -67.001 17l26 66c19.333 -8 34.333 -12 45 -12c16 0 28.333 3.16699 37 9.5s15.334 14.833 20.001 25.5s7.66699 23.167 9 37.5s2 28.166 2 41.499v592h71v-592c0 -24 -1.83301 -47.167 -5.5 -69.5s-10.667 -42.166 -21 -59.499
s-25 -31 -44 -41s-43.167 -15 -72.5 -15zM102.999 646c-14.667 0 -27.334 5.33301 -38.001 16s-16 23.334 -16 38.001s5.33301 27.334 16 38.001s23.334 16 38.001 16s27.334 -5.33301 38.001 -16s16 -23.334 16 -38.001s-5.33301 -27.334 -16 -38.001
s-23.334 -16 -38.001 -16zM191.999 780c-14.667 0 -27.334 5.33301 -38.001 16s-16 23.334 -16 38.001s5.33301 27.334 16 38.001s23.334 16 38.001 16s27.334 -5.33301 38.001 -16s16 -23.334 16 -38.001s-5.33301 -27.334 -16 -38.001s-23.334 -16 -38.001 -16z
M281.999 646c-14.667 0 -27.334 5.33301 -38.001 16s-16 23.334 -16 38.001s5.33301 27.334 16 38.001s23.334 16 38.001 16s27.334 -5.33301 38.001 -16s16 -23.334 16 -38.001s-5.33301 -27.334 -16 -38.001s-23.334 -16 -38.001 -16z" />
    <glyph glyph-name="uni06A1.init" unicode="&#x6a1;" horiz-adv-x="627" 
d="M-13 58l210 0.00195312c-15.333 10 -27 19 -35 27s-18 21.667 -30 41s-21.333 40.5 -28 63.5s-10 48.5 -10 76.5c0 40.667 7.5 78.167 22.5 112.5s37 63.666 66 87.999s64 43.166 105 56.499s87.833 20 140.5 20h137v-556h-578v71zM165 266.002
c0 -24.667 3.83105 -47.5 11.498 -68.5s17.834 -40.167 30.501 -57.5s27.834 -33 45.501 -47s35.834 -25.667 54.501 -35h187v414h-94c-30 0 -59.333 -4.66699 -88 -14s-53.834 -22.666 -75.501 -39.999s-39 -38.833 -52 -64.5s-19.5 -54.834 -19.5 -87.501z" />
    <glyph glyph-name="uni06A1.medi" unicode="&#x6a1;" horiz-adv-x="666" 
d="M-13 58l210 0.00195312c-15.333 10 -27 19 -35 27s-18 21.667 -30 41s-21.333 40.5 -28 63.5s-10 48.5 -10 76.5c0 40.667 7.5 78.167 22.5 112.5s37 63.666 66 87.999s64 43.166 105 56.499s87.833 20 140.5 20h137v-485h134v-71h-712v71zM165 266.002
c0 -24.667 3.83105 -47.5 11.498 -68.5s17.834 -40.167 30.501 -57.5s27.834 -33 45.501 -47s35.834 -25.667 54.501 -35h187v414h-94c-30 0 -59.333 -4.66699 -88 -14s-53.834 -22.666 -75.501 -39.999s-39 -38.833 -52 -64.5s-19.5 -54.834 -19.5 -87.501z" />
    <glyph glyph-name="uni06A1.fina" unicode="&#x6a1;" horiz-adv-x="1112" 
d="M424 -13c-28 0 -52.6641 1.16797 -73.9971 3.50098s-40.833 6.16602 -58.5 11.499s-33.834 12 -48.501 20s-29.334 17.667 -44.001 29c-26 19.333 -45.167 45 -57.5 77s-18.5 63 -18.5 93v223h71v-213c0 -34 4.66699 -61 14 -81s23 -36.667 41 -50
c18.667 -14 40.667 -24.5 66 -31.5s52.333 -10.5 81 -10.5h236c-12 8.66699 -30.333 32 -55 70s-37 84 -37 138c0 39.333 7.16699 76 21.5 110s35.666 63.5 63.999 88.5s63.333 44.333 105 58s89.167 20.5 142.5 20.5h138v-485h134v-71h-721zM611.003 266.001
c0 -46.667 13.666 -87.6689 40.999 -123.002s61 -63.666 101 -84.999h187v414h-95c-32.667 0 -63 -4.83301 -91 -14.5s-52.667 -23.667 -74 -42s-38.166 -40.166 -50.499 -65.499s-18.5 -53.333 -18.5 -84z" />
    <glyph glyph-name="uni06A4" unicode="&#x6a4;" horiz-adv-x="1002" arabic-form="isolated" 
d="M353 -13c-28 0 -52.6641 1.16797 -73.9971 3.50098s-40.833 6.16602 -58.5 11.499s-33.834 12 -48.501 20s-29.334 17.667 -44.001 29c-26 19.333 -45.167 45 -57.5 77s-18.5 63 -18.5 93v223h71v-213c0 -34 4.66699 -61 14 -81s23 -36.667 41 -50
c18.667 -14 40.667 -24.5 66 -31.5s52.333 -10.5 81 -10.5h236c-12 8.66699 -30.333 32 -55 70s-37 84 -37 138c0 39.333 7.16699 76 21.5 110s35.666 63.5 63.999 88.5s63.333 44.333 105 58s89.167 20.5 142.5 20.5h138v-556h-587zM540.003 266.001
c0 -46.667 13.666 -87.6689 40.999 -123.002s61 -63.666 101 -84.999h187v414h-95c-32.667 0 -63 -4.83301 -91 -14.5s-52.667 -23.667 -74 -42s-38.166 -40.166 -50.499 -65.499s-18.5 -53.333 -18.5 -84zM773.002 779.999c-14.667 0 -27.334 5.33301 -38.001 16
s-16 23.334 -16 38.001s5.33301 27.334 16 38.001s23.334 16 38.001 16s27.334 -5.33301 38.001 -16s16 -23.334 16 -38.001s-5.33301 -27.334 -16 -38.001s-23.334 -16 -38.001 -16zM684.002 645.999c-14.667 0 -27.334 5.33301 -38.001 16s-16 23.334 -16 38.001
s5.33301 27.334 16 38.001s23.334 16 38.001 16s27.334 -5.33301 38.001 -16s16 -23.334 16 -38.001s-5.33301 -27.334 -16 -38.001s-23.334 -16 -38.001 -16zM863.002 645.999c-14.667 0 -27.334 5.33301 -38.001 16s-16 23.334 -16 38.001s5.33301 27.334 16 38.001
s23.334 16 38.001 16s27.334 -5.33301 38.001 -16s16 -23.334 16 -38.001s-5.33301 -27.334 -16 -38.001s-23.334 -16 -38.001 -16z" />
    <glyph glyph-name="uni06A9" unicode="&#x6a9;" horiz-adv-x="965" arabic-form="isolated" 
d="M353 -13c-28 0 -52.6641 1.16699 -73.9971 3.5s-40.833 6.16602 -58.5 11.499s-33.834 12 -48.501 20s-29.334 17.667 -44.001 29c-26 19.333 -45.167 45 -57.5 77s-18.5 63 -18.5 93v223h71v-213c0 -34 4.66699 -61 14 -81s23 -36.667 41 -50
c18.667 -14 40.667 -24.5 66 -31.5s52.333 -10.5 81 -10.5h517v203c0 24 -2.33301 44.333 -7 61s-12.334 31.834 -23.001 45.501s-24.834 24.5 -42.501 32.5s-35.167 12 -52.5 12h-313c-11.333 10.667 -19.166 19.667 -23.499 27s-8.5 18 -12.5 32l178 354h79l-170 -342h256
c34 0 63.167 -5.66699 87.5 -17s46.833 -28.333 67.5 -51c16.667 -19.333 28.667 -41.5 36 -66.5s11 -50.167 11 -75.5v-286h-560z" />
    <glyph glyph-name="uni06AF" unicode="&#x6af;" horiz-adv-x="965" arabic-form="isolated" 
d="M305 457h-74l185 368h74zM353 -13c-28 0 -52.6641 1.16699 -73.9971 3.5s-40.833 6.16602 -58.5 11.499s-33.834 12 -48.501 20s-29.334 17.667 -44.001 29c-26 19.333 -45.167 45 -57.5 77s-18.5 63 -18.5 93v223h71v-213c0 -34 4.66699 -61 14 -81s23 -36.667 41 -50
c18.667 -14 40.667 -24.5 66 -31.5s52.333 -10.5 81 -10.5h517v203c0 24 -2.33301 44.333 -7 61s-12.334 31.834 -23.001 45.501s-24.834 24.5 -42.501 32.5s-35.167 12 -52.5 12h-313c-11.333 10.667 -19.166 19.667 -23.499 27s-8.5 18 -12.5 32l178 354h79l-170 -342h256
c34 0 63.167 -5.66699 87.5 -17s46.833 -28.333 67.5 -51c16.667 -19.333 28.667 -41.5 36 -66.5s11 -50.167 11 -75.5v-286h-560z" />
    <glyph glyph-name="uni06BA" unicode="&#x6ba;" horiz-adv-x="597" arabic-form="isolated" 
d="M353 -138c-28 0 -52.665 1.16797 -73.998 3.50098s-40.833 6.16602 -58.5 11.499s-33.834 12 -48.501 20s-29.334 17.667 -44.001 29c-26 19.333 -45.167 45 -57.5 77s-18.5 63 -18.5 93v379h71v-369c0 -34 4.66699 -61 14 -81s23 -36.667 41 -50
c18.667 -14 40.667 -24.5 66 -31.5s52.333 -10.5 81 -10.5h139v542h71v-613h-182z" />
    <glyph glyph-name="uni06BE" unicode="&#x6be;" horiz-adv-x="851" arabic-form="isolated" 
d="M52 58l145.003 0.00292969c-1.33301 3.33301 -4 17.166 -8 41.499s-6 48.5 -6 72.5c0 38 4.66699 72.833 14 104.5s23.333 58.834 42 81.501s41.167 40.334 67.5 53.001s56.5 19 90.5 19s64 -6.33301 90 -19s48.167 -30.334 66.5 -53.001s32 -49.834 41 -81.501
s13.5 -66.5 13.5 -104.5c0 -24 -1.66699 -48 -5 -72s-5.66602 -38 -6.99902 -42h126c4 18.667 7.66699 41.667 11 69s5 53 5 77c0 43.333 -2.83301 81.666 -8.5 114.999s-16.5 66.666 -32.5 99.999c-22.667 48 -58 85.5 -106 112.5s-107.667 40.5 -179 40.5
c-40 0 -77.833 -6.5 -113.5 -19.5s-71.5 -29.167 -107.5 -48.5l-30 65c49.333 25.333 94.666 44.166 135.999 56.499s87.666 18.5 138.999 18.5c37.333 0 72.666 -5 105.999 -15s63.666 -23.333 90.999 -40s51.5 -36 72.5 -58s37.833 -45.333 50.5 -70
c19.333 -37.333 33 -76.666 41 -117.999s12 -83.333 12 -126c0 -38.667 -2.83301 -76.5 -8.5 -113.5s-13.167 -75.833 -22.5 -116.5h-726v71zM254.003 172.003c0 -24.667 1.66895 -48.167 5.00195 -70.5s5.66602 -36.833 6.99902 -43.5h259
c1.33301 6.66699 3.66602 21 6.99902 43s5 45.667 5 71c0 26.667 -3 51.5 -9 74.5s-15 42.833 -27 59.5s-26.5 29.667 -43.5 39s-37.167 14 -60.5 14c-24 0 -44.833 -4.5 -62.5 -13.5s-32.5 -21.833 -44.5 -38.5s-21 -36.5 -27 -59.5s-9 -48.167 -9 -75.5z" />
    <glyph glyph-name="uni06C0" unicode="&#x6c0;" horiz-adv-x="584" arabic-form="isolated" 
d="M390 -13c-43.333 0 -85.332 5.16699 -125.999 15.5s-76.667 26.833 -108 49.5s-56.5 51.667 -75.5 87s-28.5 77.333 -28.5 126c0 39.333 7.83301 76 23.5 110s38.5 63.5 68.5 88.5s65.667 44.5 107 58.5s87.666 21 138.999 21h47v50h71v-606h-118zM437.001 58
l0.00195312 414.003h-75c-30 0 -59.5 -5.16699 -88.5 -15.5s-54.667 -24.333 -77 -42s-40.166 -39.334 -53.499 -65.001s-20 -53.834 -20 -84.501c0 -32.667 6.16699 -61.834 18.5 -87.501s29.166 -47.167 50.499 -64.5s46.666 -30.833 75.999 -40.5
s60.666 -14.5 93.999 -14.5h75zM288.003 725.003c0 42 9.83203 74.667 29.499 98s49.5 35 89.5 35h69v-71h-62c-21.333 0 -35.666 -3.83301 -42.999 -11.5s-11 -19.5 -11 -35.5v-27h148v-71h-220v83z" />
    <glyph glyph-name="uni06C1" unicode="&#x6c1;" horiz-adv-x="584" arabic-form="isolated" 
d="M390 -13c-43.333 0 -85.332 5.16699 -125.999 15.5s-76.667 26.833 -108 49.5s-56.5 51.667 -75.5 87s-28.5 77.333 -28.5 126c0 39.333 7.83301 76 23.5 110s38.5 63.5 68.5 88.5s65.667 44.5 107 58.5s87.666 21 138.999 21h47v50h71v-606h-118zM437.001 58
l0.00195312 414.003h-75c-30 0 -59.5 -5.16699 -88.5 -15.5s-54.667 -24.333 -77 -42s-40.166 -39.334 -53.499 -65.001s-20 -53.834 -20 -84.501c0 -32.667 6.16699 -61.834 18.5 -87.501s29.166 -47.167 50.499 -64.5s46.666 -30.833 75.999 -40.5
s60.666 -14.5 93.999 -14.5h75z" />
    <glyph glyph-name="uni06CC" unicode="&#x6cc;" horiz-adv-x="1044" arabic-form="isolated" 
d="M410 -138c-28 0 -52.6641 1.16992 -73.9971 3.50293s-40.833 6.16602 -58.5 11.499s-33.834 12 -48.501 20s-29.334 17.667 -44.001 29c-26 19.333 -45.167 45 -57.5 77s-18.5 63 -18.5 93v267h71v-257c0 -34 4.66699 -61 14 -81s23 -36.667 41 -50
c18.667 -14 40.667 -24.5 66 -31.5s52.333 -10.5 81 -10.5h204v408c0 34 5.66699 63.167 17 87.5s28.333 46.833 51 67.5c19.333 16.667 41.5 28.667 66.5 36s50.167 11 75.5 11h186v-556h-71v485h-103c-24 0 -44.333 -2.33301 -61 -7s-31.834 -12.334 -45.501 -23.001
s-24.5 -24.834 -32.5 -42.501s-12 -35.167 -12 -52.5v-485h-247z" />
    <glyph glyph-name="uni06D2" unicode="&#x6d2;" horiz-adv-x="909" arabic-form="isolated" 
d="M32 -13l0.000976562 189.002c0 25.333 3.66699 50.5 11 75.5s19.333 47.167 36 66.5c20.667 22.667 43.167 39.667 67.5 51s53.5 17 87.5 17h45c12.667 0 21.167 1.66699 25.5 5s6.5 10.666 6.5 21.999v62h71v-75c0 -26 -9.16699 -46.667 -27.5 -62
s-43.166 -23 -74.499 -23h-52c-17.333 0 -34.833 -4 -52.5 -12s-31.834 -18.833 -42.501 -32.5s-18.334 -28.834 -23.001 -45.501s-7 -37 -7 -61v-106h645v-71h-716z" />
    <glyph glyph-name="uni06D3" unicode="&#x6d3;" horiz-adv-x="909" arabic-form="isolated" 
d="M32 -13l0.000976562 189.002c0 25.333 3.66699 50.5 11 75.5s19.333 47.167 36 66.5c20.667 22.667 43.167 39.667 67.5 51s53.5 17 87.5 17h45c12.667 0 21.167 1.66699 25.5 5s6.5 10.666 6.5 21.999v62h71v-75c0 -26 -9.16699 -46.667 -27.5 -62
s-43.166 -23 -74.499 -23h-52c-17.333 0 -34.833 -4 -52.5 -12s-31.834 -18.833 -42.501 -32.5s-18.334 -28.834 -23.001 -45.501s-7 -37 -7 -61v-106h645v-71h-716zM84.001 600.002c0 42 9.83203 74.667 29.499 98s49.5 35 89.5 35h69v-71h-62
c-21.333 0 -35.666 -3.83301 -42.999 -11.5s-11 -19.5 -11 -35.5v-27h148v-71h-220v83z" />
    <glyph glyph-name="uni06D5.fina" unicode="&#x6d5;" horiz-adv-x="609" 
d="M642 58l0.000976562 -71h-252c-43.333 0 -85.333 5.16699 -126 15.5s-76.667 26.833 -108 49.5s-56.5 51.667 -75.5 87s-28.5 77.333 -28.5 126c0 39.333 7.83301 76 23.5 110s38.5 63.5 68.5 88.5s65.667 44.5 107 58.5s87.666 21 138.999 21h47v50h71v-535h134z
M437.001 58l0.00195312 414.003h-75c-30 0 -59.5 -5.16699 -88.5 -15.5s-54.667 -24.333 -77 -42s-40.166 -39.334 -53.499 -65.001s-20 -53.834 -20 -84.501c0 -32.667 6.16699 -61.834 18.5 -87.501s29.166 -47.167 50.499 -64.5s46.666 -30.833 75.999 -40.5
s60.666 -14.5 93.999 -14.5h75z" />
    <glyph glyph-name="uniFB51" unicode="&#x671;" horiz-adv-x="315" arabic-form="final" 
d="M121 703h71v-645h156v-71h-227v716zM32 807l55.001 0.000976562c0 20 8.66699 39.167 26 57.5s39.666 27.5 66.999 27.5c34 0 59.667 -9.83301 77 -29.5s26 -43.834 26 -72.501v-49h-251v66zM180.001 831.001c-9.33301 0 -17 -3 -23 -9s-9 -11 -9 -15h63
c0 2 -2.66699 6.5 -8 13.5s-13 10.5 -23 10.5z" />
    <glyph glyph-name="uniFB57" unicode="&#x67e;" horiz-adv-x="836" arabic-form="final" 
d="M353 -13c-28 0 -52.665 1.16797 -73.998 3.50098s-40.833 6.16602 -58.5 11.499s-33.834 12 -48.501 20s-29.334 17.667 -44.001 29c-26 19.333 -45.167 45 -57.5 77s-18.5 63 -18.5 93v223h71v-213c0 -34 4.66699 -61 14 -81s23 -36.667 41 -50
c18.667 -14 40.667 -24.5 66 -31.5s52.333 -10.5 81 -10.5h339v485h71v-485h134v-71h-516zM538.002 -219.999c-14.667 0 -27.334 5.33301 -38.001 16s-16 23.334 -16 38.001s5.33301 27.334 16 38.001s23.334 16 38.001 16s27.334 -5.33301 38.001 -16
s16 -23.334 16 -38.001s-5.33301 -27.334 -16 -38.001s-23.334 -16 -38.001 -16zM448.002 -342.999c-14.667 0 -27.334 5.33301 -38.001 16s-16 23.334 -16 38.001s5.33301 27.334 16 38.001s23.334 16 38.001 16s27.334 -5.33301 38.001 -16s16 -23.334 16 -38.001
s-5.33301 -27.334 -16 -38.001s-23.334 -16 -38.001 -16zM359.002 -219.999c-14.667 0 -27.334 5.33301 -38.001 16s-16 23.334 -16 38.001s5.33301 27.334 16 38.001s23.334 16 38.001 16s27.334 -5.33301 38.001 -16s16 -23.334 16 -38.001s-5.33301 -27.334 -16 -38.001
s-23.334 -16 -38.001 -16z" />
    <glyph glyph-name="uniFB58" unicode="&#x67e;" horiz-adv-x="346" arabic-form="initial" 
d="M-13 58h226v485h71v-556h-297v71zM65 -220c-14.667 0 -27.334 5.33301 -38.001 16s-16 23.334 -16 38.001s5.33301 27.334 16 38.001s23.334 16 38.001 16s27.334 -5.33301 38.001 -16s16 -23.334 16 -38.001s-5.33301 -27.334 -16 -38.001s-23.334 -16 -38.001 -16z
M154 -343c-14.667 0 -27.334 5.33301 -38.001 16s-16 23.334 -16 38.001s5.33301 27.334 16 38.001s23.334 16 38.001 16s27.334 -5.33301 38.001 -16s16 -23.334 16 -38.001s-5.33301 -27.334 -16 -38.001s-23.334 -16 -38.001 -16zM244 -220
c-14.667 0 -27.334 5.33301 -38.001 16s-16 23.334 -16 38.001s5.33301 27.334 16 38.001s23.334 16 38.001 16s27.334 -5.33301 38.001 -16s16 -23.334 16 -38.001s-5.33301 -27.334 -16 -38.001s-23.334 -16 -38.001 -16z" />
    <glyph glyph-name="uniFB59" unicode="&#x67e;" horiz-adv-x="465" arabic-form="medial" 
d="M-13 58h226v485h71v-485h214v-71h-511v71zM248 -343c-14.667 0 -27.334 5.33301 -38.001 16s-16 23.334 -16 38.001s5.33301 27.334 16 38.001s23.334 16 38.001 16s27.334 -5.33301 38.001 -16s16 -23.334 16 -38.001s-5.33301 -27.334 -16 -38.001
s-23.334 -16 -38.001 -16zM159 -220c-14.667 0 -27.334 5.33301 -38.001 16s-16 23.334 -16 38.001s5.33301 27.334 16 38.001s23.334 16 38.001 16s27.334 -5.33301 38.001 -16s16 -23.334 16 -38.001s-5.33301 -27.334 -16 -38.001s-23.334 -16 -38.001 -16zM338 -220
c-14.667 0 -27.334 5.33301 -38.001 16s-16 23.334 -16 38.001s5.33301 27.334 16 38.001s23.334 16 38.001 16s27.334 -5.33301 38.001 -16s16 -23.334 16 -38.001s-5.33301 -27.334 -16 -38.001s-23.334 -16 -38.001 -16z" />
    <glyph glyph-name="uniFB67" unicode="&#x679;" horiz-adv-x="836" arabic-form="final" 
d="M353 -13c-28 0 -52.665 1.16797 -73.998 3.50098s-40.833 6.16602 -58.5 11.499s-33.834 12 -48.501 20s-29.334 17.667 -44.001 29c-26 19.333 -45.167 45 -57.5 77s-18.5 63 -18.5 93v223h71v-213c0 -34 4.66699 -61 14 -81s23 -36.667 41 -50
c18.667 -14 40.667 -24.5 66 -31.5s52.333 -10.5 81 -10.5h339v485h71v-485h134v-71h-516zM268.002 607.001l46 0.000976562v142h70v-57h35c30.667 0 55 -9.83301 73 -29.5s27 -43.834 27 -72.501v-49h-251v66zM384.002 631.002l-0.000976562 -24h68
c0 2 -2.66699 6.5 -8 13.5s-13.666 10.5 -24.999 10.5h-35z" />
    <glyph glyph-name="uniFB68" unicode="&#x679;" horiz-adv-x="389" arabic-form="initial" 
d="M-13 58h226v485h71v-556h-297v71zM121 708l46 0.000976562v142h70v-57h35c30.667 0 55 -9.83301 73 -29.5s27 -43.834 27 -72.501v-49h-251v66zM237 732.001l-0.000976562 -24h68c0 2 -2.66699 6.5 -8 13.5s-13.666 10.5 -24.999 10.5h-35z" />
    <glyph glyph-name="uniFB69" unicode="&#x679;" horiz-adv-x="465" arabic-form="medial" 
d="M-13 58h226v485h71v-485h214v-71h-511v71zM121 708l46 0.000976562v142h70v-57h35c30.667 0 55 -9.83301 73 -29.5s27 -43.834 27 -72.501v-49h-251v66zM237 732.001l-0.000976562 -24h68c0 2 -2.66699 6.5 -8 13.5s-13.666 10.5 -24.999 10.5h-35z" />
    <glyph glyph-name="uniFB6B" unicode="&#x6a4;" horiz-adv-x="1041" arabic-form="final" 
d="M353 -13c-28 0 -52.6641 1.16797 -73.9971 3.50098s-40.833 6.16602 -58.5 11.499s-33.834 12 -48.501 20s-29.334 17.667 -44.001 29c-26 19.333 -45.167 45 -57.5 77s-18.5 63 -18.5 93v223h71v-213c0 -34 4.66699 -61 14 -81s23 -36.667 41 -50
c18.667 -14 40.667 -24.5 66 -31.5s52.333 -10.5 81 -10.5h236c-12 8.66699 -30.333 32 -55 70s-37 84 -37 138c0 39.333 7.16699 76 21.5 110s35.666 63.5 63.999 88.5s63.333 44.333 105 58s89.167 20.5 142.5 20.5h138v-485h134v-71h-721zM540.003 266.001
c0 -46.667 13.666 -87.6689 40.999 -123.002s61 -63.666 101 -84.999h187v414h-95c-32.667 0 -63 -4.83301 -91 -14.5s-52.667 -23.667 -74 -42s-38.166 -40.166 -50.499 -65.499s-18.5 -53.333 -18.5 -84zM774.002 779.999c-14.667 0 -27.334 5.33301 -38.001 16
s-16 23.334 -16 38.001s5.33301 27.334 16 38.001s23.334 16 38.001 16s27.334 -5.33301 38.001 -16s16 -23.334 16 -38.001s-5.33301 -27.334 -16 -38.001s-23.334 -16 -38.001 -16zM685.002 645.999c-14.667 0 -27.334 5.33301 -38.001 16s-16 23.334 -16 38.001
s5.33301 27.334 16 38.001s23.334 16 38.001 16s27.334 -5.33301 38.001 -16s16 -23.334 16 -38.001s-5.33301 -27.334 -16 -38.001s-23.334 -16 -38.001 -16zM864.002 645.999c-14.667 0 -27.334 5.33301 -38.001 16s-16 23.334 -16 38.001s5.33301 27.334 16 38.001
s23.334 16 38.001 16s27.334 -5.33301 38.001 -16s16 -23.334 16 -38.001s-5.33301 -27.334 -16 -38.001s-23.334 -16 -38.001 -16z" />
    <glyph glyph-name="uniFB6C" unicode="&#x6a4;" horiz-adv-x="627" arabic-form="initial" 
d="M-13 58l210 0.00195312c-15.333 10 -27 19 -35 27s-18 21.667 -30 41s-21.333 40.5 -28 63.5s-10 48.5 -10 76.5c0 40.667 7.5 78.167 22.5 112.5s37 63.666 66 87.999s64 43.166 105 56.499s87.833 20 140.5 20h137v-556h-578v71zM165 266.002
c0 -24.667 3.83105 -47.5 11.498 -68.5s17.834 -40.167 30.501 -57.5s27.834 -33 45.501 -47s35.834 -25.667 54.501 -35h187v414h-94c-30 0 -59.333 -4.66699 -88 -14s-53.834 -22.666 -75.501 -39.999s-39 -38.833 -52 -64.5s-19.5 -54.834 -19.5 -87.501z
M409.998 780.002c-14.667 0 -27.334 5.33301 -38.001 16s-16 23.334 -16 38.001s5.33301 27.334 16 38.001s23.334 16 38.001 16s27.334 -5.33301 38.001 -16s16 -23.334 16 -38.001s-5.33301 -27.334 -16 -38.001s-23.334 -16 -38.001 -16zM320.998 646.002
c-14.667 0 -27.334 5.33301 -38.001 16s-16 23.334 -16 38.001s5.33301 27.334 16 38.001s23.334 16 38.001 16s27.334 -5.33301 38.001 -16s16 -23.334 16 -38.001s-5.33301 -27.334 -16 -38.001s-23.334 -16 -38.001 -16zM499.998 646.002
c-14.667 0 -27.334 5.33301 -38.001 16s-16 23.334 -16 38.001s5.33301 27.334 16 38.001s23.334 16 38.001 16s27.334 -5.33301 38.001 -16s16 -23.334 16 -38.001s-5.33301 -27.334 -16 -38.001s-23.334 -16 -38.001 -16z" />
    <glyph glyph-name="uniFB6D" unicode="&#x6a4;" horiz-adv-x="666" arabic-form="medial" 
d="M-13 58l210 0.00195312c-15.333 10 -27 19 -35 27s-18 21.667 -30 41s-21.333 40.5 -28 63.5s-10 48.5 -10 76.5c0 40.667 7.5 78.167 22.5 112.5s37 63.666 66 87.999s64 43.166 105 56.499s87.833 20 140.5 20h137v-485h134v-71h-712v71zM165 266.002
c0 -24.667 3.83105 -47.5 11.498 -68.5s17.834 -40.167 30.501 -57.5s27.834 -33 45.501 -47s35.834 -25.667 54.501 -35h187v414h-94c-30 0 -59.333 -4.66699 -88 -14s-53.834 -22.666 -75.501 -39.999s-39 -38.833 -52 -64.5s-19.5 -54.834 -19.5 -87.501z
M498.998 646.002c-14.667 0 -27.334 5.33301 -38.001 16s-16 23.334 -16 38.001s5.33301 27.334 16 38.001s23.334 16 38.001 16s27.334 -5.33301 38.001 -16s16 -23.334 16 -38.001s-5.33301 -27.334 -16 -38.001s-23.334 -16 -38.001 -16zM319.998 646.002
c-14.667 0 -27.334 5.33301 -38.001 16s-16 23.334 -16 38.001s5.33301 27.334 16 38.001s23.334 16 38.001 16s27.334 -5.33301 38.001 -16s16 -23.334 16 -38.001s-5.33301 -27.334 -16 -38.001s-23.334 -16 -38.001 -16zM408.998 780.002
c-14.667 0 -27.334 5.33301 -38.001 16s-16 23.334 -16 38.001s5.33301 27.334 16 38.001s23.334 16 38.001 16s27.334 -5.33301 38.001 -16s16 -23.334 16 -38.001s-5.33301 -27.334 -16 -38.001s-23.334 -16 -38.001 -16z" />
    <glyph glyph-name="uniFB7B" unicode="&#x686;" horiz-adv-x="588" arabic-form="final" 
d="M94 -238c-14 23.333 -24.998 42.835 -32.998 58.502s-15 32.167 -21 49.5s-10.5 35.666 -13.5 54.999s-4.5 41 -4.5 65c0 7.33301 0.5 16.833 1.5 28.5s2.83301 24.834 5.5 39.501h389c6 20.667 11 48.667 15 84s6 82.333 6 141c0 28.667 -4.33301 55 -13 79
s-25 46.333 -49 67c-16 12.667 -35.333 23 -58 31s-49.334 12 -80.001 12c-25.333 0 -52.166 -4.5 -80.499 -13.5s-57.833 -25.167 -88.5 -48.5l-27 68c22.667 14 41.5 24.667 56.5 32s30.5 13.5 46.5 18.5s32.833 8.66699 50.5 11s37.5 3.5 59.5 3.5
c30.667 0 60.5 -5.33301 89.5 -16s54.167 -25 75.5 -43c29.333 -24 51.666 -53.833 66.999 -89.5s23 -77.834 23 -126.501c0 -42 -2.33301 -82.667 -7 -122s-9.33398 -68.666 -14.001 -87.999h131v-71h-528v-7c0 -30.667 4.16699 -59.334 12.5 -86.001
s22.833 -59.334 43.5 -98.001zM393.002 -176.998c-14.667 0 -27.334 5.33301 -38.001 16s-16 23.334 -16 38.001s5.33301 27.334 16 38.001s23.334 16 38.001 16s27.334 -5.33301 38.001 -16s16 -23.334 16 -38.001s-5.33301 -27.334 -16 -38.001s-23.334 -16 -38.001 -16z
M303.002 -299.998c-14.667 0 -27.334 5.33301 -38.001 16s-16 23.334 -16 38.001s5.33301 27.334 16 38.001s23.334 16 38.001 16s27.334 -5.33301 38.001 -16s16 -23.334 16 -38.001s-5.33301 -27.334 -16 -38.001s-23.334 -16 -38.001 -16zM214.002 -176.998
c-14.667 0 -27.334 5.33301 -38.001 16s-16 23.334 -16 38.001s5.33301 27.334 16 38.001s23.334 16 38.001 16s27.334 -5.33301 38.001 -16s16 -23.334 16 -38.001s-5.33301 -27.334 -16 -38.001s-23.334 -16 -38.001 -16z" />
    <glyph glyph-name="uniFB7C" unicode="&#x686;" horiz-adv-x="582" arabic-form="initial" 
d="M-13 58l459.999 0.000976562c6 20.667 11 48.667 15 84s6 82.333 6 141c0 28.667 -4.33301 55 -13 79s-25 46.333 -49 67c-16 12.667 -35.333 23 -58 31s-49.334 12 -80.001 12c-25.333 0 -52.166 -4.5 -80.499 -13.5s-57.833 -25.167 -88.5 -48.5l-27 68
c22.667 14 41.5 24.667 56.5 32s30.5 13.5 46.5 18.5s32.833 8.66699 50.5 11s37.5 3.5 59.5 3.5c30.667 0 60.5 -5.33301 89.5 -16s54.167 -25 75.5 -43c29.333 -24 51.666 -53.833 66.999 -89.5s23 -77.834 23 -126.501c0 -26.667 -1 -53.167 -3 -79.5
s-4.66699 -51.333 -8 -75s-7.16602 -45.5 -11.499 -65.5s-10.166 -40.333 -17.499 -61h-513v71zM178.999 -176.999c-14.667 0 -27.334 5.33301 -38.001 16s-16 23.334 -16 38.001s5.33301 27.334 16 38.001s23.334 16 38.001 16s27.334 -5.33301 38.001 -16
s16 -23.334 16 -38.001s-5.33301 -27.334 -16 -38.001s-23.334 -16 -38.001 -16zM267.999 -299.999c-14.667 0 -27.334 5.33301 -38.001 16s-16 23.334 -16 38.001s5.33301 27.334 16 38.001s23.334 16 38.001 16s27.334 -5.33301 38.001 -16s16 -23.334 16 -38.001
s-5.33301 -27.334 -16 -38.001s-23.334 -16 -38.001 -16zM357.999 -176.999c-14.667 0 -27.334 5.33301 -38.001 16s-16 23.334 -16 38.001s5.33301 27.334 16 38.001s23.334 16 38.001 16s27.334 -5.33301 38.001 -16s16 -23.334 16 -38.001s-5.33301 -27.334 -16 -38.001
s-23.334 -16 -38.001 -16z" />
    <glyph glyph-name="uniFB7D" unicode="&#x686;" horiz-adv-x="617" arabic-form="medial" 
d="M-13 58h460.002c6 20.667 11 48.667 15 84s6 82.333 6 141c0 28.667 -4.33301 55 -13 79s-25 46.333 -49 67c-16 12.667 -35.333 23 -58 31s-49.334 12 -80.001 12c-25.333 0 -52.166 -4.5 -80.499 -13.5s-57.833 -25.167 -88.5 -48.5l-27 68
c22.667 14 41.5 24.667 56.5 32s30.5 13.5 46.5 18.5s32.833 8.66699 50.5 11s37.5 3.5 59.5 3.5c30.667 0 60.5 -5.33301 89.5 -16s54.167 -25 75.5 -43c29.333 -24 51.666 -53.833 66.999 -89.5s23 -77.834 23 -126.501c0 -42 -2.33301 -82.667 -7 -122
s-9.33398 -68.666 -14.001 -87.999h131v-71h-663v71zM358.002 -177c-14.667 0 -27.334 5.33301 -38.001 16s-16 23.334 -16 38.001s5.33301 27.334 16 38.001s23.334 16 38.001 16s27.334 -5.33301 38.001 -16s16 -23.334 16 -38.001s-5.33301 -27.334 -16 -38.001
s-23.334 -16 -38.001 -16zM268.002 -300c-14.667 0 -27.334 5.33301 -38.001 16s-16 23.334 -16 38.001s5.33301 27.334 16 38.001s23.334 16 38.001 16s27.334 -5.33301 38.001 -16s16 -23.334 16 -38.001s-5.33301 -27.334 -16 -38.001s-23.334 -16 -38.001 -16z
M179.002 -177c-14.667 0 -27.334 5.33301 -38.001 16s-16 23.334 -16 38.001s5.33301 27.334 16 38.001s23.334 16 38.001 16s27.334 -5.33301 38.001 -16s16 -23.334 16 -38.001s-5.33301 -27.334 -16 -38.001s-23.334 -16 -38.001 -16z" />
    <glyph glyph-name="uniFB89" unicode="&#x688;" horiz-adv-x="582" arabic-form="final" 
d="M22 58l388.002 -0.000976562v263c0 24 -2.33301 44.333 -7 61s-12.334 31.834 -23.001 45.501s-24.834 24.5 -42.501 32.5s-35.167 12 -52.5 12h-86v71h80c34 0 63.167 -5.66699 87.5 -17s46.833 -28.333 67.5 -51c16.667 -19.333 28.667 -41.5 36 -66.5
s11 -50.167 11 -75.5v-275h134v-71h-593v71zM141.002 707.999l46 0.000976562v142h70v-57h35c30.667 0 55 -9.83301 73 -29.5s27 -43.834 27 -72.501v-49h-251v66zM257.002 732l-0.000976562 -24h68c0 2 -2.66699 6.5 -8 13.5s-13.666 10.5 -24.999 10.5h-35z" />
    <glyph glyph-name="uniFB8B" unicode="&#x698;" horiz-adv-x="350" arabic-form="final" 
d="M85 -234c-18.667 0 -41.001 5.66699 -67.001 17l26 66c19.333 -8 34.333 -12 45 -12c16 0 28.333 3.16699 37 9.5s15.334 14.833 20.001 25.5s7.66699 23.167 9 37.5s2 28.166 2 41.499v592h71v-485h155v-71h-155v-36c0 -24 -1.83301 -47.167 -5.5 -69.5
s-10.667 -42.166 -21 -59.499s-25 -31 -44 -41s-43.167 -15 -72.5 -15zM281.999 646c-14.667 0 -27.334 5.33301 -38.001 16s-16 23.334 -16 38.001s5.33301 27.334 16 38.001s23.334 16 38.001 16s27.334 -5.33301 38.001 -16s16 -23.334 16 -38.001
s-5.33301 -27.334 -16 -38.001s-23.334 -16 -38.001 -16zM191.999 780c-14.667 0 -27.334 5.33301 -38.001 16s-16 23.334 -16 38.001s5.33301 27.334 16 38.001s23.334 16 38.001 16s27.334 -5.33301 38.001 -16s16 -23.334 16 -38.001s-5.33301 -27.334 -16 -38.001
s-23.334 -16 -38.001 -16zM102.999 646c-14.667 0 -27.334 5.33301 -38.001 16s-16 23.334 -16 38.001s5.33301 27.334 16 38.001s23.334 16 38.001 16s27.334 -5.33301 38.001 -16s16 -23.334 16 -38.001s-5.33301 -27.334 -16 -38.001s-23.334 -16 -38.001 -16z" />
    <glyph glyph-name="uniFB8D" unicode="&#x691;" horiz-adv-x="350" arabic-form="final" 
d="M85 -234c-18.667 0 -41.001 5.66699 -67.001 17l26 66c19.333 -8 34.333 -12 45 -12c16 0 28.333 3.16699 37 9.5s15.334 14.833 20.001 25.5s7.66699 23.167 9 37.5s2 28.166 2 41.499v592h71v-485h155v-71h-155v-36c0 -24 -1.83301 -47.167 -5.5 -69.5
s-10.667 -42.166 -21 -59.499s-25 -31 -44 -41s-43.167 -15 -72.5 -15zM65.999 708l46 0.000976562v142h70v-57h35c30.667 0 55 -9.83301 73 -29.5s27 -43.834 27 -72.501v-49h-251v66zM181.999 732.001l-0.000976562 -24h68c0 2 -2.66699 6.5 -8 13.5
s-13.666 10.5 -24.999 10.5h-35z" />
    <glyph glyph-name="uniFB8F" unicode="&#x6a9;" horiz-adv-x="1014" arabic-form="final" 
d="M353 -13c-28 0 -52.6641 1.16699 -73.9971 3.5s-40.833 6.16602 -58.5 11.499s-33.834 12 -48.501 20s-29.334 17.667 -44.001 29c-26 19.333 -45.167 45 -57.5 77s-18.5 63 -18.5 93v223h71v-213c0 -34 4.66699 -61 14 -81s23 -36.667 41 -50
c18.667 -14 40.667 -24.5 66 -31.5s52.333 -10.5 81 -10.5h517v203c0 24 -2.33301 44.333 -7 61s-12.334 31.834 -23.001 45.501s-24.834 24.5 -42.501 32.5s-35.167 12 -52.5 12h-313c-11.333 10.667 -19.166 19.667 -23.499 27s-8.5 18 -12.5 32l178 354h79l-170 -342h256
c34 0 63.167 -5.66699 87.5 -17s46.833 -28.333 67.5 -51c16.667 -19.333 28.667 -41.5 36 -66.5s11 -50.167 11 -75.5v-215h134v-71h-694z" />
    <glyph glyph-name="uniFB90" unicode="&#x6a9;" horiz-adv-x="761" arabic-form="initial" 
d="M-13 58l651.001 -0.000976562v203c0 24 -2.33301 44.333 -7 61s-12.334 31.834 -23.001 45.501s-24.834 24.5 -42.501 32.5s-35.167 12 -52.5 12h-423c-11.333 10.667 -19.166 19.667 -23.499 27s-8.5 18 -12.5 32l178 354h79l-170 -342h366
c34 0 63.167 -5.66699 87.5 -17s46.833 -28.333 67.5 -51c16.667 -19.333 28.667 -41.5 36 -66.5s11 -50.167 11 -75.5v-286h-722v71z" />
    <glyph glyph-name="uniFB91" unicode="&#x6a9;" horiz-adv-x="810" arabic-form="medial" 
d="M-13 58l651.001 -0.000976562v203c0 24 -2.33301 44.333 -7 61s-12.334 31.834 -23.001 45.501s-24.834 24.5 -42.501 32.5s-35.167 12 -52.5 12h-423c-11.333 10.667 -19.166 19.667 -23.499 27s-8.5 18 -12.5 32l178 354h79l-170 -342h366
c34 0 63.167 -5.66699 87.5 -17s46.833 -28.333 67.5 -51c16.667 -19.333 28.667 -41.5 36 -66.5s11 -50.167 11 -75.5v-215h134v-71h-856v71z" />
    <glyph glyph-name="uniFB93" unicode="&#x6af;" horiz-adv-x="1014" arabic-form="final" 
d="M353 -13c-28 0 -52.6641 1.16699 -73.9971 3.5s-40.833 6.16602 -58.5 11.499s-33.834 12 -48.501 20s-29.334 17.667 -44.001 29c-26 19.333 -45.167 45 -57.5 77s-18.5 63 -18.5 93v223h71v-213c0 -34 4.66699 -61 14 -81s23 -36.667 41 -50
c18.667 -14 40.667 -24.5 66 -31.5s52.333 -10.5 81 -10.5h517v203c0 24 -2.33301 44.333 -7 61s-12.334 31.834 -23.001 45.501s-24.834 24.5 -42.501 32.5s-35.167 12 -52.5 12h-313c-11.333 10.667 -19.166 19.667 -23.499 27s-8.5 18 -12.5 32l178 354h79l-170 -342h256
c34 0 63.167 -5.66699 87.5 -17s46.833 -28.333 67.5 -51c16.667 -19.333 28.667 -41.5 36 -66.5s11 -50.167 11 -75.5v-215h134v-71h-694zM305.003 457h-74l185 368h74z" />
    <glyph glyph-name="uniFB94" unicode="&#x6af;" horiz-adv-x="823" arabic-form="initial" 
d="M53 457h-74l185 368h74zM-13 58l713.001 -0.000976562v203c0 24 -2.33301 44.333 -7 61s-12.334 31.834 -23.001 45.501s-24.834 24.5 -42.501 32.5s-35.167 12 -52.5 12h-423c-11.333 10.667 -19.166 19.667 -23.499 27s-8.5 18 -12.5 32l178 354h79l-170 -342h366
c34 0 63.167 -5.66699 87.5 -17s46.833 -28.333 67.5 -51c16.667 -19.333 28.667 -41.5 36 -66.5s11 -50.167 11 -75.5v-286h-784v71z" />
    <glyph glyph-name="uniFB95" unicode="&#x6af;" horiz-adv-x="872" arabic-form="medial" 
d="M-13 58l713.001 -0.000976562v203c0 24 -2.33301 44.333 -7 61s-12.334 31.834 -23.001 45.501s-24.834 24.5 -42.501 32.5s-35.167 12 -52.5 12h-423c-11.333 10.667 -19.166 19.667 -23.499 27s-8.5 18 -12.5 32l178 354h79l-170 -342h366
c34 0 63.167 -5.66699 87.5 -17s46.833 -28.333 67.5 -51c16.667 -19.333 28.667 -41.5 36 -66.5s11 -50.167 11 -75.5v-215h134v-71h-918v71zM53.001 456.999h-74l185 368h74z" />
    <glyph glyph-name="uniFB9F" unicode="&#x6ba;" horiz-adv-x="636" arabic-form="final" 
d="M353 -138c-28 0 -52.665 1.16797 -73.998 3.50098s-40.833 6.16602 -58.5 11.499s-33.834 12 -48.501 20s-29.334 17.667 -44.001 29c-26 19.333 -45.167 45 -57.5 77s-18.5 63 -18.5 93v379h71v-369c0 -34 4.66699 -61 14 -81s23 -36.667 41 -50
c18.667 -14 40.667 -24.5 66 -31.5s52.333 -10.5 81 -10.5h139v542h71v-417h134v-71h-134v-125h-182z" />
    <glyph glyph-name="uniFBA5" unicode="&#x6c0;" horiz-adv-x="609" arabic-form="final" 
d="M390 -13c-43.333 0 -85.332 5.16699 -125.999 15.5s-76.667 26.833 -108 49.5s-56.5 51.667 -75.5 87s-28.5 77.333 -28.5 126c0 39.333 7.83301 76 23.5 110s38.5 63.5 68.5 88.5s65.667 44.5 107 58.5s87.666 21 138.999 21h47v50h71v-535h134v-71h-252zM437.001 58
l0.00195312 414.003h-75c-30 0 -59.5 -5.16699 -88.5 -15.5s-54.667 -24.333 -77 -42s-40.166 -39.334 -53.499 -65.001s-20 -53.834 -20 -84.501c0 -32.667 6.16699 -61.834 18.5 -87.501s29.166 -47.167 50.499 -64.5s46.666 -30.833 75.999 -40.5
s60.666 -14.5 93.999 -14.5h75zM288.003 725.003c0 42 9.83203 74.667 29.499 98s49.5 35 89.5 35h69v-71h-62c-21.333 0 -35.666 -3.83301 -42.999 -11.5s-11 -19.5 -11 -35.5v-27h148v-71h-220v83z" />
    <glyph glyph-name="uniFBA7" unicode="&#x6c1;" horiz-adv-x="533" arabic-form="final" 
d="M377 -13l0.000976562 485.002h-103c-24 0 -44.333 -2.33301 -61 -7s-31.834 -12.334 -45.501 -23.001s-24.5 -24.834 -32.5 -42.501s-12 -35.167 -12 -52.5v-186h-71v180c0 34 5.66699 63.167 17 87.5s28.333 46.833 51 67.5c19.333 16.667 41.5 28.667 66.5 36
s50.167 11 75.5 11h186v-485h118v-71h-189z" />
    <glyph glyph-name="uniFBA8" unicode="&#x6c1;" horiz-adv-x="246" arabic-form="initial" 
d="M50 -228l57 199l71 -22l-74 -197zM-13 58h126v485h71v-556h-197v71z" />
    <glyph glyph-name="uniFBA9" unicode="&#x6c1;" horiz-adv-x="595" arabic-form="medial" 
d="M277 -233c-25.333 0 -50.5 3.66895 -75.5 11.002s-47.167 19.333 -66.5 36c-22.667 20.667 -39.667 43.167 -51 67.5s-17 53.5 -17 87.5v18h-80v71h80v255h71v-350c0 -17.333 4 -34.833 12 -52.5s18.833 -31.834 32.5 -42.501s28.667 -18.334 45 -23.001s36.5 -7 60.5 -7
h68v220h272v-71h-201v-220h-150zM455 -227.998l57 199l71 -22l-74 -197z" />
    <glyph glyph-name="uniFBAB" unicode="&#x6be;" horiz-adv-x="889" arabic-form="final" 
d="M52 58l145.003 0.00292969c-1.33301 3.33301 -4 17.166 -8 41.499s-6 48.5 -6 72.5c0 38 4.66699 72.833 14 104.5s23.333 58.834 42 81.501s41.167 40.334 67.5 53.001s56.5 19 90.5 19s64 -6.33301 90 -19s48.167 -30.334 66.5 -53.001s32 -49.834 41 -81.501
s13.5 -66.5 13.5 -104.5c0 -24 -1.66699 -48 -5 -72s-5.66602 -38 -6.99902 -42h126c4 18.667 7.66699 41.667 11 69s5 53 5 77c0 43.333 -2.83301 81.666 -8.5 114.999s-16.5 66.666 -32.5 99.999c-22.667 48 -58 85.5 -106 112.5s-107.667 40.5 -179 40.5
c-40 0 -77.833 -6.5 -113.5 -19.5s-71.5 -29.167 -107.5 -48.5l-30 65c49.333 25.333 94.666 44.166 135.999 56.499s87.666 18.5 138.999 18.5c37.333 0 72.666 -5 105.999 -15s63.666 -23.333 90.999 -40s51.5 -36 72.5 -58s37.833 -45.333 50.5 -70
c19.333 -37.333 33 -76.666 41 -117.999s12 -83.333 12 -126c0 -30.667 -1.83301 -60.5 -5.5 -89.5s-7.16699 -52.167 -10.5 -69.5h129v-71h-870v71zM254.003 172.003c0 -24.667 1.66895 -48.167 5.00195 -70.5s5.66602 -36.833 6.99902 -43.5h259
c1.33301 6.66699 3.66602 21 6.99902 43s5 45.667 5 71c0 26.667 -3 51.5 -9 74.5s-15 42.833 -27 59.5s-26.5 29.667 -43.5 39s-37.167 14 -60.5 14c-24 0 -44.833 -4.5 -62.5 -13.5s-32.5 -21.833 -44.5 -38.5s-21 -36.5 -27 -59.5s-9 -48.167 -9 -75.5z" />
    <glyph glyph-name="uniFBAC" unicode="&#x6be;" horiz-adv-x="766" arabic-form="initial" 
d="M-33 58l145.003 0.00292969c-1.33301 3.33301 -4 17.166 -8 41.499s-6 48.5 -6 72.5c0 38 4.66699 72.833 14 104.5s23.333 58.834 42 81.501s41.167 40.334 67.5 53.001s56.5 19 90.5 19s64 -6.33301 90 -19s48.167 -30.334 66.5 -53.001s32 -49.834 41 -81.501
s13.5 -66.5 13.5 -104.5c0 -24 -1.66699 -48 -5 -72s-5.66602 -38 -6.99902 -42h126c4 18.667 7.66699 41.667 11 69s5 53 5 77c0 43.333 -2.83301 81.666 -8.5 114.999s-16.5 66.666 -32.5 99.999c-22.667 48 -58 85.5 -106 112.5s-107.667 40.5 -179 40.5
c-40 0 -77.833 -6.5 -113.5 -19.5s-71.5 -29.167 -107.5 -48.5l-30 65c49.333 25.333 94.666 44.166 135.999 56.499s87.666 18.5 138.999 18.5c37.333 0 72.666 -5 105.999 -15s63.666 -23.333 90.999 -40s51.5 -36 72.5 -58s37.833 -45.333 50.5 -70
c19.333 -37.333 33 -76.666 41 -117.999s12 -83.333 12 -126c0 -38.667 -2.83301 -76.5 -8.5 -113.5s-13.167 -75.833 -22.5 -116.5h-726v71zM169.003 172.003c0 -24.667 1.66895 -48.167 5.00195 -70.5s5.66602 -36.833 6.99902 -43.5h259
c1.33301 6.66699 3.66602 21 6.99902 43s5 45.667 5 71c0 26.667 -3 51.5 -9 74.5s-15 42.833 -27 59.5s-26.5 29.667 -43.5 39s-37.167 14 -60.5 14c-24 0 -44.833 -4.5 -62.5 -13.5s-32.5 -21.833 -44.5 -38.5s-21 -36.5 -27 -59.5s-9 -48.167 -9 -75.5z" />
    <glyph glyph-name="uniFBAD" unicode="&#x6be;" horiz-adv-x="804" arabic-form="medial" 
d="M-33 58l145.003 0.00292969c-1.33301 3.33301 -4 17.166 -8 41.499s-6 48.5 -6 72.5c0 38 4.66699 72.833 14 104.5s23.333 58.834 42 81.501s41.167 40.334 67.5 53.001s56.5 19 90.5 19s64 -6.33301 90 -19s48.167 -30.334 66.5 -53.001s32 -49.834 41 -81.501
s13.5 -66.5 13.5 -104.5c0 -24 -1.66699 -48 -5 -72s-5.66602 -38 -6.99902 -42h126c4 18.667 7.66699 41.667 11 69s5 53 5 77c0 43.333 -2.83301 81.666 -8.5 114.999s-16.5 66.666 -32.5 99.999c-22.667 48 -58 85.5 -106 112.5s-107.667 40.5 -179 40.5
c-40 0 -77.833 -6.5 -113.5 -19.5s-71.5 -29.167 -107.5 -48.5l-30 65c49.333 25.333 94.666 44.166 135.999 56.499s87.666 18.5 138.999 18.5c37.333 0 72.666 -5 105.999 -15s63.666 -23.333 90.999 -40s51.5 -36 72.5 -58s37.833 -45.333 50.5 -70
c19.333 -37.333 33 -76.666 41 -117.999s12 -83.333 12 -126c0 -30.667 -1.83301 -60.5 -5.5 -89.5s-7.16699 -52.167 -10.5 -69.5h129v-71h-870v71zM169.003 172.003c0 -24.667 1.66895 -48.167 5.00195 -70.5s5.66602 -36.833 6.99902 -43.5h259
c1.33301 6.66699 3.66602 21 6.99902 43s5 45.667 5 71c0 26.667 -3 51.5 -9 74.5s-15 42.833 -27 59.5s-26.5 29.667 -43.5 39s-37.167 14 -60.5 14c-24 0 -44.833 -4.5 -62.5 -13.5s-32.5 -21.833 -44.5 -38.5s-21 -36.5 -27 -59.5s-9 -48.167 -9 -75.5z" />
    <glyph glyph-name="uniFBAF" unicode="&#x6d2;" horiz-adv-x="655" arabic-form="final" 
d="M688 -13l-585.002 0.000976562v2c0 -24 2.33301 -44.333 7 -61s12.334 -31.834 23.001 -45.501s24.834 -24.5 42.501 -32.5s35.167 -12 52.5 -12h314v-71h-308c-34 0 -63.167 5.66699 -87.5 17s-46.833 28.333 -67.5 51c-16.667 19.333 -28.667 41.5 -36 66.5
s-11 50.167 -11 75.5v81h656v-71z" />
    <glyph glyph-name="uniFBB1" unicode="&#x6d3;" horiz-adv-x="655" arabic-form="final" 
d="M688 -13l-585.002 0.000976562v2c0 -24 2.33301 -44.333 7 -61s12.334 -31.834 23.001 -45.501s24.834 -24.5 42.501 -32.5s35.167 -12 52.5 -12h314v-71h-308c-34 0 -63.167 5.66699 -87.5 17s-46.833 28.333 -67.5 51c-16.667 19.333 -28.667 41.5 -36 66.5
s-11 50.167 -11 75.5v81h656v-71zM21.998 220.001c0 42 9.83203 74.667 29.499 98s49.5 35 89.5 35h69v-71h-62c-21.333 0 -35.666 -3.83301 -42.999 -11.5s-11 -19.5 -11 -35.5v-27h148v-71h-220v83z" />
    <glyph glyph-name="uniFBE8" unicode="&#x649;" horiz-adv-x="246" arabic-form="initial" 
d="M-13 58h126v485h71v-556h-197v71z" />
    <glyph glyph-name="uniFBE9" unicode="&#x649;" horiz-adv-x="285" arabic-form="medial" 
d="M-13 58h126v485h71v-485h134v-71h-331v71z" />
    <glyph glyph-name="uniFBFD" unicode="&#x6cc;" horiz-adv-x="1083" arabic-form="final" 
d="M911 472l-102.997 0.00292969c-24 0 -44.333 -2.33301 -61 -7s-31.834 -12.334 -45.501 -23.001s-24.5 -24.834 -32.5 -42.501s-12 -35.167 -12 -52.5v-485h-247c-28 0 -52.667 1.16699 -74 3.5s-40.833 6.16602 -58.5 11.499s-33.834 12 -48.501 20
s-29.334 17.667 -44.001 29c-26 19.333 -45.167 45 -57.5 77s-18.5 63 -18.5 93v267h71v-257c0 -34 4.66699 -61 14 -81s23 -36.667 41 -50c18.667 -14 40.667 -24.5 66 -31.5s52.333 -10.5 81 -10.5h204v408c0 34 5.66699 63.167 17 87.5s28.333 46.833 51 67.5
c19.333 16.667 41.5 28.667 66.5 36s50.167 11 75.5 11h186v-485h134v-71h-205v485z" />
    <glyph glyph-name="uniFBFE" unicode="&#x6cc;" horiz-adv-x="355" arabic-form="initial" 
d="M-13 58h226v485h71v-556h-297v71zM60 -220c-14.667 0 -27.334 5.33301 -38.001 16s-16 23.334 -16 38.001s5.33301 27.334 16 38.001s23.334 16 38.001 16s27.334 -5.33301 38.001 -16s16 -23.334 16 -38.001s-5.33301 -27.334 -16 -38.001s-23.334 -16 -38.001 -16z
M239 -220c-14.667 0 -27.334 5.33301 -38.001 16s-16 23.334 -16 38.001s5.33301 27.334 16 38.001s23.334 16 38.001 16s27.334 -5.33301 38.001 -16s16 -23.334 16 -38.001s-5.33301 -27.334 -16 -38.001s-23.334 -16 -38.001 -16z" />
    <glyph glyph-name="uniFBFF" unicode="&#x6cc;" horiz-adv-x="465" arabic-form="medial" 
d="M-13 58h226v485h71v-485h214v-71h-511v71zM329 -220c-14.667 0 -27.334 5.33301 -38.001 16s-16 23.334 -16 38.001s5.33301 27.334 16 38.001s23.334 16 38.001 16s27.334 -5.33301 38.001 -16s16 -23.334 16 -38.001s-5.33301 -27.334 -16 -38.001
s-23.334 -16 -38.001 -16zM150 -220c-14.667 0 -27.334 5.33301 -38.001 16s-16 23.334 -16 38.001s5.33301 27.334 16 38.001s23.334 16 38.001 16s27.334 -5.33301 38.001 -16s16 -23.334 16 -38.001s-5.33301 -27.334 -16 -38.001s-23.334 -16 -38.001 -16z" />
    <glyph glyph-name="uniFC5E" unicode="&#xfc5e;" arabic-form="isolated" 
d="M-45 219c-1.33301 4.66699 -2 12.998 -2 24.998c0 26.667 7.5 49 22.5 67s37.5 27 67.5 27c22.667 0 41 -8.16699 55 -24.5s21 -36.166 21 -59.499c0 -9.33301 -0.333008 -17.666 -1 -24.999s-3 -21 -7 -41l-227 -33l-44 115l54 20l28 -76zM-41 -13.002
c-16.667 0 -32.667 4.99805 -48 14.998s-25.333 27.667 -30 53l-11 61l56 11l12 -58c2.66699 -11.333 6 -18.5 10 -21.5s8.66699 -4.5 14 -4.5c8 0 14.667 3.33301 20 10s8 16 8 28c0 12.667 -2.33301 31.334 -7 56.001l57 9l12 -59c1.33301 -6.66699 4 -12 8 -16
s9 -6 15 -6c8.66699 0 15.167 1.83301 19.5 5.5s6.5 10.167 6.5 19.5c0 18.667 -5 42 -15 70l59 14c2.66699 -17.333 5 -29.666 7 -36.999c1.33301 -7.33301 2.5 -14.666 3.5 -21.999s1.5 -14 1.5 -20c0 -27.333 -7.66699 -48.5 -23 -63.5s-36.333 -22.5 -63 -22.5
c-14 0 -24.5 3 -31.5 9s-11.167 10.667 -12.5 14c-2 -8.66699 -8.33301 -18.334 -19 -29.001s-27 -16 -49 -16zM8 251.996c0 -11.333 0.666992 -19.333 2 -24l61 9c-8 -40.667 -11 -50 -9 -28s3 35 3 39c0 9.33301 -2.16699 17.5 -6.5 24.5s-11.833 10.5 -22.5 10.5
c-8 0 -14.667 -2.66699 -20 -8s-8 -13 -8 -23z" />
    <glyph glyph-name="uniFC5F" unicode="&#xfc5f;" arabic-form="isolated" 
d="M-58 141c-16.667 0 -32.667 4.99805 -48 14.998s-25.333 27.667 -30 53l-11 61l56 11l12 -58c2.66699 -11.333 6 -18.5 10 -21.5s8.66699 -4.5 14 -4.5c8 0 14.667 3.33301 20 10s8 16 8 28c0 12.667 -2.33301 31.334 -7 56.001l57 9l12 -59
c1.33301 -6.66699 4 -12 8 -16s9 -6 15 -6c8.66699 0 15.167 1.83301 19.5 5.5s6.5 10.167 6.5 19.5c0 18.667 -5 42 -15 70l59 14c2.66699 -17.333 5 -29.666 7 -36.999c1.33301 -7.33301 2.5 -14.666 3.5 -21.999s1.5 -14 1.5 -20c0 -27.333 -7.66699 -48.5 -23 -63.5
s-36.333 -22.5 -63 -22.5c-14 0 -24.5 3 -31.5 9s-11.167 10.667 -12.5 14c-2 -8.66699 -8.33301 -18.334 -19 -29.001s-27 -16 -49 -16zM-102 38.998l250 36v-54l-250 -36v54zM-103 105.998l250 36v-54l-250 -36v54z" />
    <glyph glyph-name="uniFC60" unicode="&#xfc60;" arabic-form="isolated" 
d="M-54 -13c-16.667 0 -32.667 4.99805 -48 14.998s-25.333 27.667 -30 53l-11 61l56 11l12 -58c2.66699 -11.333 6 -18.5 10 -21.5s8.66699 -4.5 14 -4.5c8 0 14.667 3.33301 20 10s8 16 8 28c0 12.667 -2.33301 31.334 -7 56.001l57 9l12 -59
c1.33301 -6.66699 4 -12 8 -16s9 -6 15 -6c8.66699 0 15.167 1.83301 19.5 5.5s6.5 10.167 6.5 19.5c0 18.667 -5 42 -15 70l59 14c2.66699 -17.333 5 -29.666 7 -36.999c1.33301 -7.33301 2.5 -14.666 3.5 -21.999s1.5 -14 1.5 -20c0 -27.333 -7.66699 -48.5 -23 -63.5
s-36.333 -22.5 -63 -22.5c-14 0 -24.5 3 -31.5 9s-11.167 10.667 -12.5 14c-2 -8.66699 -8.33301 -18.334 -19 -29.001s-27 -16 -49 -16zM-140 236.998l250 36v-56l-250 -36v56z" />
    <glyph glyph-name="uniFC61" unicode="&#xfc61;" arabic-form="isolated" 
d="M-135 214l81 11.9971c-1.33301 4.66699 -2 13.334 -2 26.001c0 26.667 7.5 49 22.5 67s37.5 27 67.5 27c22.667 0 41 -8.16699 55 -24.5s21 -36.166 21 -59.499c0 -9.33301 -0.333008 -17.666 -1 -24.999s-3 -21 -7 -41l-231 -33zM-54 -13.0029
c-16.667 0 -32.667 4.99805 -48 14.998s-25.333 27.667 -30 53l-11 61l56 11l12 -58c2.66699 -11.333 6 -18.5 10 -21.5s8.66699 -4.5 14 -4.5c8 0 14.667 3.33301 20 10s8 16 8 28c0 12.667 -2.33301 31.334 -7 56.001l57 9l12 -59c1.33301 -6.66699 4 -12 8 -16
s9 -6 15 -6c8.66699 0 15.167 1.83301 19.5 5.5s6.5 10.167 6.5 19.5c0 18.667 -5 42 -15 70l59 14c2.66699 -17.333 5 -29.666 7 -36.999c1.33301 -7.33301 2.5 -14.666 3.5 -21.999s1.5 -14 1.5 -20c0 -27.333 -7.66699 -48.5 -23 -63.5s-36.333 -22.5 -63 -22.5
c-14 0 -24.5 3 -31.5 9s-11.167 10.667 -12.5 14c-2 -8.66699 -8.33301 -18.334 -19 -29.001s-27 -16 -49 -16zM-1 257.995c0 -11.333 0.666992 -18.668 2 -22.001l61 9c-8 -40.667 -11 -50 -9 -28s3 35 3 39c0 9.33301 -2.16699 17.5 -6.5 24.5s-11.833 10.5 -22.5 10.5
c-8 0 -14.667 -2.66699 -20 -8s-8 -13.666 -8 -24.999z" />
    <glyph glyph-name="uniFC62" unicode="&#xfc62;" arabic-form="isolated" 
d="M-57 78c-16.667 0 -32.667 4.99805 -48 14.998s-25.333 27.667 -30 53l-11 61l56 11l12 -58c2.66699 -11.333 6 -18.5 10 -21.5s8.66699 -4.5 14 -4.5c8 0 14.667 3.33301 20 10s8 16 8 28c0 12.667 -2.33301 31.334 -7 56.001l57 9l12 -59c1.33301 -6.66699 4 -12 8 -16
s9 -6 15 -6c8.66699 0 15.167 1.83301 19.5 5.5s6.5 10.167 6.5 19.5c0 18.667 -5 42 -15 70l59 14c2.66699 -17.333 5 -29.666 7 -36.999c1.33301 -7.33301 2.5 -14.666 3.5 -21.999s1.5 -14 1.5 -20c0 -27.333 -7.66699 -48.5 -23 -63.5s-36.333 -22.5 -63 -22.5
c-14 0 -24.5 3 -31.5 9s-11.167 10.667 -12.5 14c-2 -8.66699 -8.33301 -18.334 -19 -29.001s-27 -16 -49 -16zM-103 40.998l250 36v-56l-250 -36v56z" />
    <glyph glyph-name="uniFC63" unicode="&#xfc63;" arabic-form="isolated" 
d="M-54 -13c-16.667 0 -32.667 4.99805 -48 14.998s-25.333 27.667 -30 53l-11 61l56 11l12 -58c2.66699 -11.333 6 -18.5 10 -21.5s8.66699 -4.5 14 -4.5c8 0 14.667 3.33301 20 10s8 16 8 28c0 12.667 -2.33301 31.334 -7 56.001l57 9l12 -59
c1.33301 -6.66699 4 -12 8 -16s9 -6 15 -6c8.66699 0 15.167 1.83301 19.5 5.5s6.5 10.167 6.5 19.5c0 18.667 -5 42 -15 70l59 14c2.66699 -17.333 5 -29.666 7 -36.999c1.33301 -7.33301 2.5 -14.666 3.5 -21.999s1.5 -14 1.5 -20c0 -27.333 -7.66699 -48.5 -23 -63.5
s-36.333 -22.5 -63 -22.5c-14 0 -24.5 3 -31.5 9s-11.167 10.667 -12.5 14c-2 -8.66699 -8.33301 -18.334 -19 -29.001s-27 -16 -49 -16zM-41 396.998h62v-210l-62 -9v219z" />
    <glyph glyph-name="uniFE70" unicode="&#xfe70;" arabic-form="isolated" 
d="M-29 776l250 36v-54l-250 -36v54zM-30 843l250 36v-54l-250 -36v54z" />
    <glyph glyph-name="uniFE72" unicode="&#xfe72;" arabic-form="isolated" 
d="M81 773c-1.33301 4.66699 -2 12.998 -2 24.998c0 26.667 7.5 49 22.5 67s37.5 27 67.5 27c22.667 0 41 -8.16699 55 -24.5s21 -36.166 21 -59.499c0 -9.33301 -0.333008 -17.666 -1 -24.999s-3 -21 -7 -41l-227 -33l-44 115l54 20l28 -76zM134 805.998
c0 -11.333 0.666992 -19.333 2 -24l61 9c-8 -40.667 -11 -50 -9 -28s3 35 3 39c0 9.33301 -2.16699 17.5 -6.5 24.5s-11.833 10.5 -22.5 10.5c-8 0 -14.667 -2.66699 -20 -8s-8 -13 -8 -23z" />
    <glyph glyph-name="uniFE74" unicode="&#xfe74;" arabic-form="isolated" 
d="M-29 -170l250 36v-54l-250 -36v54zM-30 -103l250 36v-54l-250 -36v54z" />
    <glyph glyph-name="uniFE76" unicode="&#xfe76;" arabic-form="isolated" 
d="M-24 746l250 36v-56l-250 -36v56z" />
    <glyph glyph-name="uniFE78" unicode="&#xfe78;" arabic-form="isolated" 
d="M-30 760l81 11.9971c-1.33301 4.66699 -2 13.334 -2 26.001c0 26.667 7.5 49 22.5 67s37.5 27 67.5 27c22.667 0 41 -8.16699 55 -24.5s21 -36.166 21 -59.499c0 -9.33301 -0.333008 -17.666 -1 -24.999s-3 -21 -7 -41l-231 -33zM104 803.997
c0 -11.333 0.666992 -18.668 2 -22.001l61 9c-8 -40.667 -11 -50 -9 -28s3 35 3 39c0 9.33301 -2.16699 17.5 -6.5 24.5s-11.833 10.5 -22.5 10.5c-8 0 -14.667 -2.66699 -20 -8s-8 -13.666 -8 -24.999z" />
    <glyph glyph-name="uniFE7A" unicode="&#xfe7a;" arabic-form="isolated" 
d="M-24 -175l250 36v-56l-250 -36v56z" />
    <glyph glyph-name="uniFE7C" unicode="&#xfe7c;" arabic-form="isolated" 
d="M43 695c-16.667 0 -32.667 4.99805 -48 14.998s-25.333 27.667 -30 53l-11 61l56 11l12 -58c2.66699 -11.333 6 -18.5 10 -21.5s8.66699 -4.5 14 -4.5c8 0 14.667 3.33301 20 10s8 16 8 28c0 12.667 -2.33301 31.334 -7 56.001l57 9l12 -59c1.33301 -6.66699 4 -12 8 -16
s9 -6 15 -6c8.66699 0 15.167 1.83301 19.5 5.5s6.5 10.167 6.5 19.5c0 18.667 -5 42 -15 70l59 14c2.66699 -17.333 5 -29.666 7 -36.999c1.33301 -7.33301 2.5 -14.666 3.5 -21.999s1.5 -14 1.5 -20c0 -27.333 -7.66699 -48.5 -23 -63.5s-36.333 -22.5 -63 -22.5
c-14 0 -24.5 3 -31.5 9s-11.167 10.667 -12.5 14c-2 -8.66699 -8.33301 -18.334 -19 -29.001s-27 -16 -49 -16z" />
    <glyph glyph-name="uniFE7E" unicode="&#xfe7e;" arabic-form="isolated" 
d="M65 699c-24.667 0 -44.667 7.49902 -60 22.499s-23 37.833 -23 68.5c0 28.667 8.33301 51.334 25 68.001s38 25 64 25c27.333 0 48.333 -8.5 63 -25.5s22 -39.667 22 -68s-8.66699 -50.5 -26 -66.5s-39 -24 -65 -24zM68 749.999c8 0 15.667 2.33301 23 7
s11 15.334 11 32.001c0 15.333 -3.5 26.166 -10.5 32.499s-14.833 9.5 -23.5 9.5c-6.66699 0 -13.5 -2.66699 -20.5 -8s-10.5 -16 -10.5 -32c0 -18 3 -29.333 9 -34s13.333 -7 22 -7z" />
    <glyph glyph-name="uniFE82" unicode="&#x622;" horiz-adv-x="307" arabic-form="final" 
d="M113 703h71v-645h156v-71h-227v716zM22 813h251v-71h-251v71z" />
    <glyph glyph-name="uniFE84" unicode="&#x623;" horiz-adv-x="306" arabic-form="final" 
d="M112 703h71v-645h156v-71h-227v716zM47 784c0 42 9.83203 74.667 29.499 98s49.5 35 89.5 35h49v-71h-42c-21.333 0 -35.666 -3.83301 -42.999 -11.5s-11 -15.167 -11 -22.5h128v-71h-200v43z" />
    <glyph glyph-name="uniFE86" unicode="&#x624;" horiz-adv-x="635" arabic-form="final" 
d="M300 -233c-32.667 0 -61.8311 4.66602 -87.498 13.999s-55.5 24 -89.5 44l33 63c31.333 -17.333 57.666 -30 78.999 -38s44.333 -12 69 -12c43.333 0 77.166 10 101.499 30s36.5 48 36.5 84v35h-47c-43.333 0 -85.333 4.83301 -126 14.5s-77.167 25.5 -109.5 47.5
s-58.333 50.833 -78 86.5s-29.5 78.834 -29.5 129.501c0 40.667 8 78.167 24 112.5s39 63.833 69 88.5s66 43.667 108 57s89.333 20 142 20h118v-485h155v-71h-155v-35c0 -57.333 -19.5 -102.5 -58.5 -135.5s-90.5 -49.5 -154.5 -49.5zM123.003 264.999
c0 -34.667 6.33301 -64.833 19 -90.5s30.167 -47 52.5 -64s48.333 -30 78 -39s61.167 -13.5 94.5 -13.5h75v414h-75c-30 0 -59.667 -5 -89 -15s-55.5 -24 -78.5 -42s-41.5 -39.5 -55.5 -64.5s-21 -53.5 -21 -85.5zM304.003 725c0 42 9.83203 74.667 29.499 98
s49.5 35 89.5 35h69v-71h-62c-21.333 0 -35.666 -3.83301 -42.999 -11.5s-11 -19.5 -11 -35.5v-27h148v-71h-220v83z" />
    <glyph glyph-name="uniFE88" unicode="&#x625;" horiz-adv-x="306" arabic-form="final" 
d="M171 -234c-40 0 -69.832 11.667 -89.499 35s-29.5 56 -29.5 98v43h200v-71h-128c0 -7.33301 3.66699 -14.833 11 -22.5s21.666 -11.5 42.999 -11.5h42v-71h-49zM112.001 824h71v-766h156v-71h-227v837z" />
    <glyph glyph-name="uniFE8A" unicode="&#x626;" horiz-adv-x="1083" arabic-form="final" 
d="M911 472l-102.997 0.00292969c-24 0 -44.333 -2.33301 -61 -7s-31.834 -12.334 -45.501 -23.001s-24.5 -24.834 -32.5 -42.501s-12 -35.167 -12 -52.5v-485h-247c-28 0 -52.667 1.16699 -74 3.5s-40.833 6.16602 -58.5 11.499s-33.834 12 -48.501 20
s-29.334 17.667 -44.001 29c-26 19.333 -45.167 45 -57.5 77s-18.5 63 -18.5 93v267h71v-257c0 -34 4.66699 -61 14 -81s23 -36.667 41 -50c18.667 -14 40.667 -24.5 66 -31.5s52.333 -10.5 81 -10.5h204v408c0 34 5.66699 63.167 17 87.5s28.333 46.833 51 67.5
c19.333 16.667 41.5 28.667 66.5 36s50.167 11 75.5 11h186v-485h134v-71h-205v485zM42.0029 532.003c0 42 9.83203 74.667 29.499 98s49.5 35 89.5 35h69v-71h-62c-21.333 0 -35.666 -3.83301 -42.999 -11.5s-11 -19.5 -11 -35.5v-27h148v-71h-220v83z" />
    <glyph glyph-name="uniFE8B" unicode="&#x626;" horiz-adv-x="266" arabic-form="initial" 
d="M-13 58h126v485h71v-556h-197v71zM44 725c0 42 9.83203 74.667 29.499 98s49.5 35 89.5 35h69v-71h-62c-21.333 0 -35.666 -3.83301 -42.999 -11.5s-11 -19.5 -11 -35.5v-27h148v-71h-220v83z" />
    <glyph glyph-name="uniFE8C" unicode="&#x626;" horiz-adv-x="285" arabic-form="medial" 
d="M-13 58h126v485h71v-485h134v-71h-331v71zM41 725c0 42 9.83203 74.667 29.499 98s49.5 35 89.5 35h69v-71h-62c-21.333 0 -35.666 -3.83301 -42.999 -11.5s-11 -19.5 -11 -35.5v-27h148v-71h-220v83z" />
    <glyph glyph-name="uniFE8E" unicode="&#x627;" horiz-adv-x="311" arabic-form="final" 
d="M117 824h71v-766h156v-71h-227v837z" />
    <glyph glyph-name="uniFE90" unicode="&#x628;" horiz-adv-x="836" arabic-form="final" 
d="M353 -13c-28 0 -52.665 1.16797 -73.998 3.50098s-40.833 6.16602 -58.5 11.499s-33.834 12 -48.501 20s-29.334 17.667 -44.001 29c-26 19.333 -45.167 45 -57.5 77s-18.5 63 -18.5 93v223h71v-213c0 -34 4.66699 -61 14 -81s23 -36.667 41 -50
c18.667 -14 40.667 -24.5 66 -31.5s52.333 -10.5 81 -10.5h339v485h71v-485h134v-71h-516zM446.002 -219.999c-14.667 0 -27.334 5.33301 -38.001 16s-16 23.334 -16 38.001s5.33301 27.334 16 38.001s23.334 16 38.001 16s27.334 -5.33301 38.001 -16
s16 -23.334 16 -38.001s-5.33301 -27.334 -16 -38.001s-23.334 -16 -38.001 -16z" />
    <glyph glyph-name="uniFE91" unicode="&#x628;" horiz-adv-x="244" arabic-form="initial" 
d="M-13 58h126v485h71v-556h-197v71zM148 -220c-14.667 0 -27.334 5.33301 -38.001 16s-16 23.334 -16 38.001s5.33301 27.334 16 38.001s23.334 16 38.001 16s27.334 -5.33301 38.001 -16s16 -23.334 16 -38.001s-5.33301 -27.334 -16 -38.001s-23.334 -16 -38.001 -16z
" />
    <glyph glyph-name="uniFE92" unicode="&#x628;" horiz-adv-x="285" arabic-form="medial" 
d="M-13 58h126v485h71v-485h134v-71h-331v71zM149 -220c-14.667 0 -27.334 5.33301 -38.001 16s-16 23.334 -16 38.001s5.33301 27.334 16 38.001s23.334 16 38.001 16s27.334 -5.33301 38.001 -16s16 -23.334 16 -38.001s-5.33301 -27.334 -16 -38.001
s-23.334 -16 -38.001 -16z" />
    <glyph glyph-name="uniFE94" unicode="&#x629;" horiz-adv-x="609" arabic-form="final" 
d="M390 -13c-43.333 0 -85.332 5.16699 -125.999 15.5s-76.667 26.833 -108 49.5s-56.5 51.667 -75.5 87s-28.5 77.333 -28.5 126c0 39.333 7.83301 76 23.5 110s38.5 63.5 68.5 88.5s65.667 44.5 107 58.5s87.666 21 138.999 21h47v50h71v-535h134v-71h-252zM437.001 58
l0.00195312 414.003h-75c-30 0 -59.5 -5.16699 -88.5 -15.5s-54.667 -24.333 -77 -42s-40.166 -39.334 -53.499 -65.001s-20 -53.834 -20 -84.501c0 -32.667 6.16699 -61.834 18.5 -87.501s29.166 -47.167 50.499 -64.5s46.666 -30.833 75.999 -40.5
s60.666 -14.5 93.999 -14.5h75zM289.003 685.003c-14.667 0 -27.334 5.33301 -38.001 16s-16 23.334 -16 38.001s5.33301 27.334 16 38.001s23.334 16 38.001 16s27.334 -5.33301 38.001 -16s16 -23.334 16 -38.001s-5.33301 -27.334 -16 -38.001s-23.334 -16 -38.001 -16z
M468.003 685.003c-14.667 0 -27.334 5.33301 -38.001 16s-16 23.334 -16 38.001s5.33301 27.334 16 38.001s23.334 16 38.001 16s27.334 -5.33301 38.001 -16s16 -23.334 16 -38.001s-5.33301 -27.334 -16 -38.001s-23.334 -16 -38.001 -16z" />
    <glyph glyph-name="uniFE96" unicode="&#x62a;" horiz-adv-x="836" arabic-form="final" 
d="M353 -13c-28 0 -52.665 1.16797 -73.998 3.50098s-40.833 6.16602 -58.5 11.499s-33.834 12 -48.501 20s-29.334 17.667 -44.001 29c-26 19.333 -45.167 45 -57.5 77s-18.5 63 -18.5 93v223h71v-213c0 -34 4.66699 -61 14 -81s23 -36.667 41 -50
c18.667 -14 40.667 -24.5 66 -31.5s52.333 -10.5 81 -10.5h339v485h71v-485h134v-71h-516zM495.002 546.001c-14.667 0 -27.334 5.33301 -38.001 16s-16 23.334 -16 38.001s5.33301 27.334 16 38.001s23.334 16 38.001 16s27.334 -5.33301 38.001 -16s16 -23.334 16 -38.001
s-5.33301 -27.334 -16 -38.001s-23.334 -16 -38.001 -16zM316.002 546.001c-14.667 0 -27.334 5.33301 -38.001 16s-16 23.334 -16 38.001s5.33301 27.334 16 38.001s23.334 16 38.001 16s27.334 -5.33301 38.001 -16s16 -23.334 16 -38.001s-5.33301 -27.334 -16 -38.001
s-23.334 -16 -38.001 -16z" />
    <glyph glyph-name="uniFE97" unicode="&#x62a;" horiz-adv-x="402" arabic-form="initial" 
d="M-13 58h226v485h71v-556h-297v71zM152 646c-14.667 0 -27.334 5.33301 -38.001 16s-16 23.334 -16 38.001s5.33301 27.334 16 38.001s23.334 16 38.001 16s27.334 -5.33301 38.001 -16s16 -23.334 16 -38.001s-5.33301 -27.334 -16 -38.001s-23.334 -16 -38.001 -16z
M331 646c-14.667 0 -27.334 5.33301 -38.001 16s-16 23.334 -16 38.001s5.33301 27.334 16 38.001s23.334 16 38.001 16s27.334 -5.33301 38.001 -16s16 -23.334 16 -38.001s-5.33301 -27.334 -16 -38.001s-23.334 -16 -38.001 -16z" />
    <glyph glyph-name="uniFE98" unicode="&#x62a;" horiz-adv-x="465" arabic-form="medial" 
d="M-13 58h226v485h71v-485h214v-71h-511v71zM330 646c-14.667 0 -27.334 5.33301 -38.001 16s-16 23.334 -16 38.001s5.33301 27.334 16 38.001s23.334 16 38.001 16s27.334 -5.33301 38.001 -16s16 -23.334 16 -38.001s-5.33301 -27.334 -16 -38.001
s-23.334 -16 -38.001 -16zM151 646c-14.667 0 -27.334 5.33301 -38.001 16s-16 23.334 -16 38.001s5.33301 27.334 16 38.001s23.334 16 38.001 16s27.334 -5.33301 38.001 -16s16 -23.334 16 -38.001s-5.33301 -27.334 -16 -38.001s-23.334 -16 -38.001 -16z" />
    <glyph glyph-name="uniFE9A" unicode="&#x62b;" horiz-adv-x="836" arabic-form="final" 
d="M353 -13c-28 0 -52.665 1.16797 -73.998 3.50098s-40.833 6.16602 -58.5 11.499s-33.834 12 -48.501 20s-29.334 17.667 -44.001 29c-26 19.333 -45.167 45 -57.5 77s-18.5 63 -18.5 93v223h71v-213c0 -34 4.66699 -61 14 -81s23 -36.667 41 -50
c18.667 -14 40.667 -24.5 66 -31.5s52.333 -10.5 81 -10.5h339v485h71v-485h134v-71h-516zM497.002 546.001c-14.667 0 -27.334 5.33301 -38.001 16s-16 23.334 -16 38.001s5.33301 27.334 16 38.001s23.334 16 38.001 16s27.334 -5.33301 38.001 -16s16 -23.334 16 -38.001
s-5.33301 -27.334 -16 -38.001s-23.334 -16 -38.001 -16zM407.002 680.001c-14.667 0 -27.334 5.33301 -38.001 16s-16 23.334 -16 38.001s5.33301 27.334 16 38.001s23.334 16 38.001 16s27.334 -5.33301 38.001 -16s16 -23.334 16 -38.001s-5.33301 -27.334 -16 -38.001
s-23.334 -16 -38.001 -16zM318.002 546.001c-14.667 0 -27.334 5.33301 -38.001 16s-16 23.334 -16 38.001s5.33301 27.334 16 38.001s23.334 16 38.001 16s27.334 -5.33301 38.001 -16s16 -23.334 16 -38.001s-5.33301 -27.334 -16 -38.001s-23.334 -16 -38.001 -16z" />
    <glyph glyph-name="uniFE9B" unicode="&#x62b;" horiz-adv-x="397" arabic-form="initial" 
d="M-13 58h226v485h71v-556h-297v71zM147 646c-14.667 0 -27.334 5.33301 -38.001 16s-16 23.334 -16 38.001s5.33301 27.334 16 38.001s23.334 16 38.001 16s27.334 -5.33301 38.001 -16s16 -23.334 16 -38.001s-5.33301 -27.334 -16 -38.001s-23.334 -16 -38.001 -16z
M236 780c-14.667 0 -27.334 5.33301 -38.001 16s-16 23.334 -16 38.001s5.33301 27.334 16 38.001s23.334 16 38.001 16s27.334 -5.33301 38.001 -16s16 -23.334 16 -38.001s-5.33301 -27.334 -16 -38.001s-23.334 -16 -38.001 -16zM326 646
c-14.667 0 -27.334 5.33301 -38.001 16s-16 23.334 -16 38.001s5.33301 27.334 16 38.001s23.334 16 38.001 16s27.334 -5.33301 38.001 -16s16 -23.334 16 -38.001s-5.33301 -27.334 -16 -38.001s-23.334 -16 -38.001 -16z" />
    <glyph glyph-name="uniFE9C" unicode="&#x62b;" horiz-adv-x="465" arabic-form="medial" 
d="M-13 58h226v485h71v-485h214v-71h-511v71zM237 780c-14.667 0 -27.334 5.33301 -38.001 16s-16 23.334 -16 38.001s5.33301 27.334 16 38.001s23.334 16 38.001 16s27.334 -5.33301 38.001 -16s16 -23.334 16 -38.001s-5.33301 -27.334 -16 -38.001
s-23.334 -16 -38.001 -16zM148 646c-14.667 0 -27.334 5.33301 -38.001 16s-16 23.334 -16 38.001s5.33301 27.334 16 38.001s23.334 16 38.001 16s27.334 -5.33301 38.001 -16s16 -23.334 16 -38.001s-5.33301 -27.334 -16 -38.001s-23.334 -16 -38.001 -16zM327 646
c-14.667 0 -27.334 5.33301 -38.001 16s-16 23.334 -16 38.001s5.33301 27.334 16 38.001s23.334 16 38.001 16s27.334 -5.33301 38.001 -16s16 -23.334 16 -38.001s-5.33301 -27.334 -16 -38.001s-23.334 -16 -38.001 -16z" />
    <glyph glyph-name="uniFE9E" unicode="&#x62c;" horiz-adv-x="588" arabic-form="final" 
d="M93 -20c0 -30.667 4.16895 -59.332 12.502 -85.999s22.833 -59.334 43.5 -98.001l-55 -34c-14 23.333 -25 42.833 -33 58.5s-15 32.167 -21 49.5s-10.5 35.666 -13.5 54.999s-4.5 41 -4.5 65c0 7.33301 0.5 16.833 1.5 28.5s2.83301 24.834 5.5 39.501h389
c6 20.667 11 48.667 15 84s6 82.333 6 141c0 28.667 -4.33301 55 -13 79s-25 46.333 -49 67c-16 12.667 -35.333 23 -58 31s-49.334 12 -80.001 12c-25.333 0 -52.166 -4.5 -80.499 -13.5s-57.833 -25.167 -88.5 -48.5l-27 68c22.667 14 41.5 24.667 56.5 32
s30.5 13.5 46.5 18.5s32.833 8.66699 50.5 11s37.5 3.5 59.5 3.5c30.667 0 60.5 -5.33301 89.5 -16s54.167 -25 75.5 -43c29.333 -24 51.666 -53.833 66.999 -89.5s23 -77.834 23 -126.501c0 -42 -2.33301 -82.667 -7 -122s-9.33398 -68.666 -14.001 -87.999h131v-71h-528
v-7zM282.002 -219.998c-14.667 0 -27.334 5.33301 -38.001 16s-16 23.334 -16 38.001s5.33301 27.334 16 38.001s23.334 16 38.001 16s27.334 -5.33301 38.001 -16s16 -23.334 16 -38.001s-5.33301 -27.334 -16 -38.001s-23.334 -16 -38.001 -16z" />
    <glyph glyph-name="uniFE9F" unicode="&#x62c;" horiz-adv-x="582" arabic-form="initial" 
d="M-13 58l459.999 0.000976562c6 20.667 11 48.667 15 84s6 82.333 6 141c0 28.667 -4.33301 55 -13 79s-25 46.333 -49 67c-16 12.667 -35.333 23 -58 31s-49.334 12 -80.001 12c-25.333 0 -52.166 -4.5 -80.499 -13.5s-57.833 -25.167 -88.5 -48.5l-27 68
c22.667 14 41.5 24.667 56.5 32s30.5 13.5 46.5 18.5s32.833 8.66699 50.5 11s37.5 3.5 59.5 3.5c30.667 0 60.5 -5.33301 89.5 -16s54.167 -25 75.5 -43c29.333 -24 51.666 -53.833 66.999 -89.5s23 -77.834 23 -126.501c0 -26.667 -1 -53.167 -3 -79.5
s-4.66699 -51.333 -8 -75s-7.16602 -45.5 -11.499 -65.5s-10.166 -40.333 -17.499 -61h-513v71zM273.999 -219.999c-14.667 0 -27.334 5.33301 -38.001 16s-16 23.334 -16 38.001s5.33301 27.334 16 38.001s23.334 16 38.001 16s27.334 -5.33301 38.001 -16
s16 -23.334 16 -38.001s-5.33301 -27.334 -16 -38.001s-23.334 -16 -38.001 -16z" />
    <glyph glyph-name="uniFEA0" unicode="&#x62c;" horiz-adv-x="617" arabic-form="medial" 
d="M-13 58h460.002c6 20.667 11 48.667 15 84s6 82.333 6 141c0 28.667 -4.33301 55 -13 79s-25 46.333 -49 67c-16 12.667 -35.333 23 -58 31s-49.334 12 -80.001 12c-25.333 0 -52.166 -4.5 -80.499 -13.5s-57.833 -25.167 -88.5 -48.5l-27 68
c22.667 14 41.5 24.667 56.5 32s30.5 13.5 46.5 18.5s32.833 8.66699 50.5 11s37.5 3.5 59.5 3.5c30.667 0 60.5 -5.33301 89.5 -16s54.167 -25 75.5 -43c29.333 -24 51.666 -53.833 66.999 -89.5s23 -77.834 23 -126.501c0 -42 -2.33301 -82.667 -7 -122
s-9.33398 -68.666 -14.001 -87.999h131v-71h-663v71zM274.002 -220c-14.667 0 -27.334 5.33301 -38.001 16s-16 23.334 -16 38.001s5.33301 27.334 16 38.001s23.334 16 38.001 16s27.334 -5.33301 38.001 -16s16 -23.334 16 -38.001s-5.33301 -27.334 -16 -38.001
s-23.334 -16 -38.001 -16z" />
    <glyph glyph-name="uniFEA2" unicode="&#x62d;" horiz-adv-x="588" arabic-form="final" 
d="M94 -238c-14 23.333 -24.998 42.835 -32.998 58.502s-15 32.167 -21 49.5s-10.5 35.666 -13.5 54.999s-4.5 41 -4.5 65c0 7.33301 0.5 16.833 1.5 28.5s2.83301 24.834 5.5 39.501h389c6 20.667 11 48.667 15 84s6 82.333 6 141c0 28.667 -4.33301 55 -13 79
s-25 46.333 -49 67c-16 12.667 -35.333 23 -58 31s-49.334 12 -80.001 12c-25.333 0 -52.166 -4.5 -80.499 -13.5s-57.833 -25.167 -88.5 -48.5l-27 68c22.667 14 41.5 24.667 56.5 32s30.5 13.5 46.5 18.5s32.833 8.66699 50.5 11s37.5 3.5 59.5 3.5
c30.667 0 60.5 -5.33301 89.5 -16s54.167 -25 75.5 -43c29.333 -24 51.666 -53.833 66.999 -89.5s23 -77.834 23 -126.501c0 -42 -2.33301 -82.667 -7 -122s-9.33398 -68.666 -14.001 -87.999h131v-71h-528v-7c0 -30.667 4.16699 -59.334 12.5 -86.001
s22.833 -59.334 43.5 -98.001z" />
    <glyph glyph-name="uniFEA3" unicode="&#x62d;" horiz-adv-x="582" arabic-form="initial" 
d="M-13 58l459.999 0.000976562c6 20.667 11 48.667 15 84s6 82.333 6 141c0 28.667 -4.33301 55 -13 79s-25 46.333 -49 67c-16 12.667 -35.333 23 -58 31s-49.334 12 -80.001 12c-25.333 0 -52.166 -4.5 -80.499 -13.5s-57.833 -25.167 -88.5 -48.5l-27 68
c22.667 14 41.5 24.667 56.5 32s30.5 13.5 46.5 18.5s32.833 8.66699 50.5 11s37.5 3.5 59.5 3.5c30.667 0 60.5 -5.33301 89.5 -16s54.167 -25 75.5 -43c29.333 -24 51.666 -53.833 66.999 -89.5s23 -77.834 23 -126.501c0 -26.667 -1 -53.167 -3 -79.5
s-4.66699 -51.333 -8 -75s-7.16602 -45.5 -11.499 -65.5s-10.166 -40.333 -17.499 -61h-513v71z" />
    <glyph glyph-name="uniFEA4" unicode="&#x62d;" horiz-adv-x="617" arabic-form="medial" 
d="M-13 58h460.002c6 20.667 11 48.667 15 84s6 82.333 6 141c0 28.667 -4.33301 55 -13 79s-25 46.333 -49 67c-16 12.667 -35.333 23 -58 31s-49.334 12 -80.001 12c-25.333 0 -52.166 -4.5 -80.499 -13.5s-57.833 -25.167 -88.5 -48.5l-27 68
c22.667 14 41.5 24.667 56.5 32s30.5 13.5 46.5 18.5s32.833 8.66699 50.5 11s37.5 3.5 59.5 3.5c30.667 0 60.5 -5.33301 89.5 -16s54.167 -25 75.5 -43c29.333 -24 51.666 -53.833 66.999 -89.5s23 -77.834 23 -126.501c0 -42 -2.33301 -82.667 -7 -122
s-9.33398 -68.666 -14.001 -87.999h131v-71h-663v71z" />
    <glyph glyph-name="uniFEA6" unicode="&#x62e;" horiz-adv-x="588" arabic-form="final" 
d="M93 -20c0 -30.667 4.16895 -59.332 12.502 -85.999s22.833 -59.334 43.5 -98.001l-55 -34c-14 23.333 -25 42.833 -33 58.5s-15 32.167 -21 49.5s-10.5 35.666 -13.5 54.999s-4.5 41 -4.5 65c0 7.33301 0.5 16.833 1.5 28.5s2.83301 24.834 5.5 39.501h389
c6 20.667 11 48.667 15 84s6 82.333 6 141c0 28.667 -4.33301 55 -13 79s-25 46.333 -49 67c-16 12.667 -35.333 23 -58 31s-49.334 12 -80.001 12c-25.333 0 -52.166 -4.5 -80.499 -13.5s-57.833 -25.167 -88.5 -48.5l-27 68c22.667 14 41.5 24.667 56.5 32
s30.5 13.5 46.5 18.5s32.833 8.66699 50.5 11s37.5 3.5 59.5 3.5c30.667 0 60.5 -5.33301 89.5 -16s54.167 -25 75.5 -43c29.333 -24 51.666 -53.833 66.999 -89.5s23 -77.834 23 -126.501c0 -42 -2.33301 -82.667 -7 -122s-9.33398 -68.666 -14.001 -87.999h131v-71h-528
v-7zM252.002 634.002c-14.667 0 -27.334 5.33301 -38.001 16s-16 23.334 -16 38.001s5.33301 27.334 16 38.001s23.334 16 38.001 16s27.334 -5.33301 38.001 -16s16 -23.334 16 -38.001s-5.33301 -27.334 -16 -38.001s-23.334 -16 -38.001 -16z" />
    <glyph glyph-name="uniFEA7" unicode="&#x62e;" horiz-adv-x="582" arabic-form="initial" 
d="M-13 58l459.999 0.000976562c6 20.667 11 48.667 15 84s6 82.333 6 141c0 28.667 -4.33301 55 -13 79s-25 46.333 -49 67c-16 12.667 -35.333 23 -58 31s-49.334 12 -80.001 12c-25.333 0 -52.166 -4.5 -80.499 -13.5s-57.833 -25.167 -88.5 -48.5l-27 68
c22.667 14 41.5 24.667 56.5 32s30.5 13.5 46.5 18.5s32.833 8.66699 50.5 11s37.5 3.5 59.5 3.5c30.667 0 60.5 -5.33301 89.5 -16s54.167 -25 75.5 -43c29.333 -24 51.666 -53.833 66.999 -89.5s23 -77.834 23 -126.501c0 -26.667 -1 -53.167 -3 -79.5
s-4.66699 -51.333 -8 -75s-7.16602 -45.5 -11.499 -65.5s-10.166 -40.333 -17.499 -61h-513v71zM271.999 646.001c-14.667 0 -27.334 5.33301 -38.001 16s-16 23.334 -16 38.001s5.33301 27.334 16 38.001s23.334 16 38.001 16s27.334 -5.33301 38.001 -16
s16 -23.334 16 -38.001s-5.33301 -27.334 -16 -38.001s-23.334 -16 -38.001 -16z" />
    <glyph glyph-name="uniFEA8" unicode="&#x62e;" horiz-adv-x="617" arabic-form="medial" 
d="M-13 58h460.002c6 20.667 11 48.667 15 84s6 82.333 6 141c0 28.667 -4.33301 55 -13 79s-25 46.333 -49 67c-16 12.667 -35.333 23 -58 31s-49.334 12 -80.001 12c-25.333 0 -52.166 -4.5 -80.499 -13.5s-57.833 -25.167 -88.5 -48.5l-27 68
c22.667 14 41.5 24.667 56.5 32s30.5 13.5 46.5 18.5s32.833 8.66699 50.5 11s37.5 3.5 59.5 3.5c30.667 0 60.5 -5.33301 89.5 -16s54.167 -25 75.5 -43c29.333 -24 51.666 -53.833 66.999 -89.5s23 -77.834 23 -126.501c0 -42 -2.33301 -82.667 -7 -122
s-9.33398 -68.666 -14.001 -87.999h131v-71h-663v71zM272.002 646c-14.667 0 -27.334 5.33301 -38.001 16s-16 23.334 -16 38.001s5.33301 27.334 16 38.001s23.334 16 38.001 16s27.334 -5.33301 38.001 -16s16 -23.334 16 -38.001s-5.33301 -27.334 -16 -38.001
s-23.334 -16 -38.001 -16z" />
    <glyph glyph-name="uniFEAA" unicode="&#x62f;" horiz-adv-x="582" arabic-form="final" 
d="M22 58l388.002 -0.000976562v263c0 24 -2.33301 44.333 -7 61s-12.334 31.834 -23.001 45.501s-24.834 24.5 -42.501 32.5s-35.167 12 -52.5 12h-86v71h80c34 0 63.167 -5.66699 87.5 -17s46.833 -28.333 67.5 -51c16.667 -19.333 28.667 -41.5 36 -66.5
s11 -50.167 11 -75.5v-275h134v-71h-593v71z" />
    <glyph glyph-name="uniFEAC" unicode="&#x630;" horiz-adv-x="582" arabic-form="final" 
d="M22 58l388.002 -0.000976562v263c0 24 -2.33301 44.333 -7 61s-12.334 31.834 -23.001 45.501s-24.834 24.5 -42.501 32.5s-35.167 12 -52.5 12h-86v71h80c34 0 63.167 -5.66699 87.5 -17s46.833 -28.333 67.5 -51c16.667 -19.333 28.667 -41.5 36 -66.5
s11 -50.167 11 -75.5v-275h134v-71h-593v71zM263.002 633.999c-14.667 0 -27.334 5.33301 -38.001 16s-16 23.334 -16 38.001s5.33301 27.334 16 38.001s23.334 16 38.001 16s27.334 -5.33301 38.001 -16s16 -23.334 16 -38.001s-5.33301 -27.334 -16 -38.001
s-23.334 -16 -38.001 -16z" />
    <glyph glyph-name="uniFEAE" unicode="&#x631;" horiz-adv-x="350" arabic-form="final" 
d="M85 -234c-18.667 0 -41.001 5.66699 -67.001 17l26 66c19.333 -8 34.333 -12 45 -12c16 0 28.333 3.16699 37 9.5s15.334 14.833 20.001 25.5s7.66699 23.167 9 37.5s2 28.166 2 41.499v592h71v-485h155v-71h-155v-36c0 -24 -1.83301 -47.167 -5.5 -69.5
s-10.667 -42.166 -21 -59.499s-25 -31 -44 -41s-43.167 -15 -72.5 -15z" />
    <glyph glyph-name="uniFEB0" unicode="&#x632;" horiz-adv-x="350" arabic-form="final" 
d="M85 -234c-18.667 0 -41.001 5.66699 -67.001 17l26 66c19.333 -8 34.333 -12 45 -12c16 0 28.333 3.16699 37 9.5s15.334 14.833 20.001 25.5s7.66699 23.167 9 37.5s2 28.166 2 41.499v592h71v-485h155v-71h-155v-36c0 -24 -1.83301 -47.167 -5.5 -69.5
s-10.667 -42.166 -21 -59.499s-25 -31 -44 -41s-43.167 -15 -72.5 -15zM192.999 646c-14.667 0 -27.334 5.33301 -38.001 16s-16 23.334 -16 38.001s5.33301 27.334 16 38.001s23.334 16 38.001 16s27.334 -5.33301 38.001 -16s16 -23.334 16 -38.001
s-5.33301 -27.334 -16 -38.001s-23.334 -16 -38.001 -16z" />
    <glyph glyph-name="uniFEB2" unicode="&#x633;" horiz-adv-x="1457" arabic-form="final" 
d="M363 -138c-28 0 -52.665 1.16895 -73.998 3.50195s-40.833 6.16602 -58.5 11.499s-33.834 12 -48.501 20s-29.334 17.667 -44.001 29c-26 19.333 -45.167 45 -57.5 77s-18.5 63 -18.5 93v379h71v-369c0 -34 4.66699 -61 14 -81s23 -36.667 41 -50
c18.667 -14 40.667 -24.5 66 -31.5s52.333 -10.5 81 -10.5h139v610h71v-485h176c36 0 65.333 10.833 88 32.5s34 53.5 34 95.5v307h71v-299c0.666992 -19.333 5 -38 13 -56s19.167 -34 33.5 -48s31.666 -25 51.999 -33s43.166 -12 68.499 -12c52 0 90.333 14.333 115 43
s37 66.334 37 113.001v412h71v-402c0 -12 -0.5 -23.167 -1.5 -33.5s-2.16699 -18.833 -3.5 -25.5c12.667 -29.333 32.334 -52.333 59.001 -69s70.667 -25 132 -25v-71c-41.333 0 -73.833 2.83301 -97.5 8.5s-44 13.167 -61 22.5s-31.167 20.166 -42.5 32.499
s-17 18.166 -17 17.499c-10 -24 -32.333 -45.167 -67 -63.5s-76 -27.5 -124 -27.5c-46.667 0 -88.667 10 -126 30s-61 40.667 -71 62c-7.33301 -16 -26.166 -33.667 -56.499 -53s-65.833 -29 -106.5 -29h-176v-125h-182z" />
    <glyph glyph-name="uniFEB3" unicode="&#x633;" horiz-adv-x="1095" arabic-form="initial" 
d="M-13 58h225.999v435h71v-435h176c36 0 65.333 10.833 88 32.5s34 53.5 34 95.5v307h71v-292c0 -20 3.83301 -39.667 11.5 -59s18.667 -36 33 -50s31.833 -25.333 52.5 -34s44 -13 70 -13c52 0 90.333 14.333 115 43s37 66.334 37 113.001v412h71v-402
c0 -80.667 -20.167 -139.834 -60.5 -177.501s-94.5 -56.5 -162.5 -56.5c-46.667 0 -88.667 10 -126 30s-61 40.667 -71 62c-7.33301 -16 -26.166 -33.667 -56.499 -53s-65.833 -29 -106.5 -29h-473v71z" />
    <glyph glyph-name="uniFEB4" unicode="&#x633;" horiz-adv-x="1197" arabic-form="medial" 
d="M-13 58l225.997 -0.00292969v435h71v-435h176c36 0 65.333 10.833 88 32.5s34 53.5 34 95.5v307h71v-292c0 -20 3.83301 -39.667 11.5 -59s18.667 -36 33 -50s31.833 -25.333 52.5 -34s44 -13 70 -13c52 0 90.333 14.333 115 43s37 66.334 37 113.001v412h71v-402
c0 -12 -0.5 -22.833 -1.5 -32.5s-2.16699 -17.834 -3.5 -24.501c6.66699 -14 14.834 -27.167 24.501 -39.5s21.334 -22.666 35.001 -30.999s30.167 -14.666 49.5 -18.999s47 -6.5 83 -6.5v-71c-41.333 0 -73.833 2.83301 -97.5 8.5s-44.167 13.334 -61.5 23.001
s-31.833 20.667 -43.5 33s-17.167 17.833 -16.5 16.5c-10 -23.333 -32.333 -44.333 -67 -63s-76 -28 -124 -28c-46.667 0 -88.667 10 -126 30s-61 40.667 -71 62c-7.33301 -16 -26.166 -33.667 -56.499 -53s-65.833 -29 -106.5 -29h-473v71z" />
    <glyph glyph-name="uniFEB6" unicode="&#x634;" horiz-adv-x="1457" arabic-form="final" 
d="M363 -138c-28 0 -52.665 1.16895 -73.998 3.50195s-40.833 6.16602 -58.5 11.499s-33.834 12 -48.501 20s-29.334 17.667 -44.001 29c-26 19.333 -45.167 45 -57.5 77s-18.5 63 -18.5 93v379h71v-369c0 -34 4.66699 -61 14 -81s23 -36.667 41 -50
c18.667 -14 40.667 -24.5 66 -31.5s52.333 -10.5 81 -10.5h139v610h71v-485h176c36 0 65.333 10.833 88 32.5s34 53.5 34 95.5v307h71v-299c0.666992 -19.333 5 -38 13 -56s19.167 -34 33.5 -48s31.666 -25 51.999 -33s43.166 -12 68.499 -12c52 0 90.333 14.333 115 43
s37 66.334 37 113.001v412h71v-402c0 -12 -0.5 -23.167 -1.5 -33.5s-2.16699 -18.833 -3.5 -25.5c12.667 -29.333 32.334 -52.333 59.001 -69s70.667 -25 132 -25v-71c-41.333 0 -73.833 2.83301 -97.5 8.5s-44 13.167 -61 22.5s-31.167 20.166 -42.5 32.499
s-17 18.166 -17 17.499c-10 -24 -32.333 -45.167 -67 -63.5s-76 -27.5 -124 -27.5c-46.667 0 -88.667 10 -126 30s-61 40.667 -71 62c-7.33301 -16 -26.166 -33.667 -56.499 -53s-65.833 -29 -106.5 -29h-176v-125h-182zM968.002 646.002
c-14.667 0 -27.334 5.33301 -38.001 16s-16 23.334 -16 38.001s5.33301 27.334 16 38.001s23.334 16 38.001 16s27.334 -5.33301 38.001 -16s16 -23.334 16 -38.001s-5.33301 -27.334 -16 -38.001s-23.334 -16 -38.001 -16zM789.002 646.002
c-14.667 0 -27.334 5.33301 -38.001 16s-16 23.334 -16 38.001s5.33301 27.334 16 38.001s23.334 16 38.001 16s27.334 -5.33301 38.001 -16s16 -23.334 16 -38.001s-5.33301 -27.334 -16 -38.001s-23.334 -16 -38.001 -16zM878.002 780.002
c-14.667 0 -27.334 5.33301 -38.001 16s-16 23.334 -16 38.001s5.33301 27.334 16 38.001s23.334 16 38.001 16s27.334 -5.33301 38.001 -16s16 -23.334 16 -38.001s-5.33301 -27.334 -16 -38.001s-23.334 -16 -38.001 -16z" />
    <glyph glyph-name="uniFEB7" unicode="&#x634;" horiz-adv-x="1095" arabic-form="initial" 
d="M-13 58h225.999v435h71v-435h176c36 0 65.333 10.833 88 32.5s34 53.5 34 95.5v307h71v-292c0 -20 3.83301 -39.667 11.5 -59s18.667 -36 33 -50s31.833 -25.333 52.5 -34s44 -13 70 -13c52 0 90.333 14.333 115 43s37 66.334 37 113.001v412h71v-402
c0 -80.667 -20.167 -139.834 -60.5 -177.501s-94.5 -56.5 -162.5 -56.5c-46.667 0 -88.667 10 -126 30s-61 40.667 -71 62c-7.33301 -16 -26.166 -33.667 -56.499 -53s-65.833 -29 -106.5 -29h-473v71zM525.999 646c-14.667 0 -27.334 5.33301 -38.001 16
s-16 23.334 -16 38.001s5.33301 27.334 16 38.001s23.334 16 38.001 16s27.334 -5.33301 38.001 -16s16 -23.334 16 -38.001s-5.33301 -27.334 -16 -38.001s-23.334 -16 -38.001 -16zM614.999 780c-14.667 0 -27.334 5.33301 -38.001 16s-16 23.334 -16 38.001
s5.33301 27.334 16 38.001s23.334 16 38.001 16s27.334 -5.33301 38.001 -16s16 -23.334 16 -38.001s-5.33301 -27.334 -16 -38.001s-23.334 -16 -38.001 -16zM704.999 646c-14.667 0 -27.334 5.33301 -38.001 16s-16 23.334 -16 38.001s5.33301 27.334 16 38.001
s23.334 16 38.001 16s27.334 -5.33301 38.001 -16s16 -23.334 16 -38.001s-5.33301 -27.334 -16 -38.001s-23.334 -16 -38.001 -16z" />
    <glyph glyph-name="uniFEB8" unicode="&#x634;" horiz-adv-x="1197" arabic-form="medial" 
d="M-13 58l225.999 -0.00292969v435h71v-435h176c36 0 65.333 10.833 88 32.5s34 53.5 34 95.5v307h71v-299c0.666992 -19.333 5 -38 13 -56s19.167 -34 33.5 -48s31.666 -25 51.999 -33s43.166 -12 68.499 -12c52 0 90.333 14.333 115 43s37 66.334 37 113.001v412h71v-402
c0 -12 -0.5 -23 -1.5 -33s-2.16699 -18.333 -3.5 -25c6.66699 -14 14.834 -27 24.501 -39s21.334 -22.167 35.001 -30.5s30.167 -14.666 49.5 -18.999s47 -6.5 83 -6.5v-71c-41.333 0 -73.833 2.83301 -97.5 8.5s-44.167 13.334 -61.5 23.001s-31.833 20.667 -43.5 33
s-17.167 17.833 -16.5 16.5c-10 -23.333 -32.333 -44.333 -67 -63s-76 -28 -124 -28c-46.667 0 -88.667 10 -126 30s-61 40.667 -71 62c-7.33301 -16 -26.166 -33.667 -56.499 -53s-65.833 -29 -106.5 -29h-473v71zM703.999 645.997c-14.667 0 -27.334 5.33301 -38.001 16
s-16 23.334 -16 38.001s5.33301 27.334 16 38.001s23.334 16 38.001 16s27.334 -5.33301 38.001 -16s16 -23.334 16 -38.001s-5.33301 -27.334 -16 -38.001s-23.334 -16 -38.001 -16zM524.999 645.997c-14.667 0 -27.334 5.33301 -38.001 16s-16 23.334 -16 38.001
s5.33301 27.334 16 38.001s23.334 16 38.001 16s27.334 -5.33301 38.001 -16s16 -23.334 16 -38.001s-5.33301 -27.334 -16 -38.001s-23.334 -16 -38.001 -16zM613.999 779.997c-14.667 0 -27.334 5.33301 -38.001 16s-16 23.334 -16 38.001s5.33301 27.334 16 38.001
s23.334 16 38.001 16s27.334 -5.33301 38.001 -16s16 -23.334 16 -38.001s-5.33301 -27.334 -16 -38.001s-23.334 -16 -38.001 -16z" />
    <glyph glyph-name="uniFEBA" unicode="&#x635;" horiz-adv-x="1226" arabic-form="final" 
d="M363 -138c-28 0 -52.665 1.16797 -73.998 3.50098s-40.833 6.16602 -58.5 11.499s-33.834 12 -48.501 20s-29.334 17.667 -44.001 29c-26 19.333 -45.167 45 -57.5 77s-18.5 63 -18.5 93v379h71v-369c0 -34 4.66699 -61 14 -81s23 -36.667 41 -50
c18.667 -14 40.667 -24.5 66 -31.5s52.333 -10.5 81 -10.5h139v610h71v-68h378c34 0 63.167 -5.66699 87.5 -17s46.833 -28.333 67.5 -51c16.667 -19.333 28.667 -41.5 36 -66.5s11 -50.167 11 -75.5v-207h134v-71h-714v-125h-182zM545.002 404.001l0.00195312 -346.001h509
v195c0 24 -2.33301 44.333 -7 61s-12.334 31.834 -23.001 45.501s-24.834 24.5 -42.501 32.5s-35.167 12 -52.5 12h-384z" />
    <glyph glyph-name="uniFEBB" unicode="&#x635;" horiz-adv-x="837" arabic-form="initial" 
d="M-13 58h156v485h71v-68h369c34 0 63.167 -5.66699 87.5 -17s46.833 -28.333 67.5 -51c16.667 -19.333 28.667 -41.5 36 -66.5s11 -50.167 11 -75.5v-278h-798v71zM214 404l0.00195312 -346.001h500v195c0 24 -2.33301 44.333 -7 61s-12.334 31.834 -23.001 45.501
s-24.834 24.5 -42.501 32.5s-35.167 12 -52.5 12h-375z" />
    <glyph glyph-name="uniFEBC" unicode="&#x635;" horiz-adv-x="886" arabic-form="medial" 
d="M-13 58h156v485h71v-68h369c34 0 63.167 -5.66699 87.5 -17s46.833 -28.333 67.5 -51c16.667 -19.333 28.667 -41.5 36 -66.5s11 -50.167 11 -75.5v-207h134v-71h-932v71zM214 404l0.00195312 -346.001h500v195c0 24 -2.33301 44.333 -7 61
s-12.334 31.834 -23.001 45.501s-24.834 24.5 -42.501 32.5s-35.167 12 -52.5 12h-375z" />
    <glyph glyph-name="uniFEBE" unicode="&#x636;" horiz-adv-x="1226" arabic-form="final" 
d="M545 -138l-181.998 0.000976562c-28 0 -52.667 1.16699 -74 3.5s-40.833 6.16602 -58.5 11.499s-33.834 12 -48.501 20s-29.334 17.667 -44.001 29c-26 19.333 -45.167 45 -57.5 77s-18.5 63 -18.5 93v379h71v-369c0 -34 4.66699 -61 14 -81s23 -36.667 41 -50
c18.667 -14 40.667 -24.5 66 -31.5s52.333 -10.5 81 -10.5h139v610h71v-68h378c34 0 63.167 -5.66699 87.5 -17s46.833 -28.333 67.5 -51c16.667 -19.333 28.667 -41.5 36 -66.5s11 -50.167 11 -75.5v-207h134v-71h-714v-125zM545.002 404.001l0.00195312 -346.001h509v195
c0 24 -2.33301 44.333 -7 61s-12.334 31.834 -23.001 45.501s-24.834 24.5 -42.501 32.5s-35.167 12 -52.5 12h-384zM777.004 587c-14.667 0 -27.334 5.33301 -38.001 16s-16 23.334 -16 38.001s5.33301 27.334 16 38.001s23.334 16 38.001 16s27.334 -5.33301 38.001 -16
s16 -23.334 16 -38.001s-5.33301 -27.334 -16 -38.001s-23.334 -16 -38.001 -16z" />
    <glyph glyph-name="uniFEBF" unicode="&#x636;" horiz-adv-x="837" arabic-form="initial" 
d="M-13 58h156v485h71v-68h369c34 0 63.167 -5.66699 87.5 -17s46.833 -28.333 67.5 -51c16.667 -19.333 28.667 -41.5 36 -66.5s11 -50.167 11 -75.5v-278h-798v71zM214 404l0.00195312 -346.001h500v195c0 24 -2.33301 44.333 -7 61s-12.334 31.834 -23.001 45.501
s-24.834 24.5 -42.501 32.5s-35.167 12 -52.5 12h-375zM450.002 586.999c-14.667 0 -27.334 5.33301 -38.001 16s-16 23.334 -16 38.001s5.33301 27.334 16 38.001s23.334 16 38.001 16s27.334 -5.33301 38.001 -16s16 -23.334 16 -38.001s-5.33301 -27.334 -16 -38.001
s-23.334 -16 -38.001 -16z" />
    <glyph glyph-name="uniFEC0" unicode="&#x636;" horiz-adv-x="886" arabic-form="medial" 
d="M-13 58h156v485h71v-68h369c34 0 63.167 -5.66699 87.5 -17s46.833 -28.333 67.5 -51c16.667 -19.333 28.667 -41.5 36 -66.5s11 -50.167 11 -75.5v-207h134v-71h-932v71zM214 404l0.00195312 -346.001h500v195c0 24 -2.33301 44.333 -7 61
s-12.334 31.834 -23.001 45.501s-24.834 24.5 -42.501 32.5s-35.167 12 -52.5 12h-375zM450.002 586.999c-14.667 0 -27.334 5.33301 -38.001 16s-16 23.334 -16 38.001s5.33301 27.334 16 38.001s23.334 16 38.001 16s27.334 -5.33301 38.001 -16s16 -23.334 16 -38.001
s-5.33301 -27.334 -16 -38.001s-23.334 -16 -38.001 -16z" />
    <glyph glyph-name="uniFEC2" unicode="&#x637;" horiz-adv-x="921" arabic-form="final" 
d="M22 58h156v766h71v-349h369c34 0 63.167 -5.66699 87.5 -17s46.833 -28.333 67.5 -51c16.667 -19.333 28.667 -41.5 36 -66.5s11 -50.167 11 -75.5v-207h134v-71h-932v71zM249 404l0.00195312 -346.001h500v195c0 24 -2.33301 44.333 -7 61
s-12.334 31.834 -23.001 45.501s-24.834 24.5 -42.501 32.5s-35.167 12 -52.5 12h-375z" />
    <glyph glyph-name="uniFEC3" unicode="&#x637;" horiz-adv-x="837" arabic-form="initial" 
d="M-13 58h156v766h71v-349h369c34 0 63.167 -5.66699 87.5 -17s46.833 -28.333 67.5 -51c16.667 -19.333 28.667 -41.5 36 -66.5s11 -50.167 11 -75.5v-278h-798v71zM214 404l0.00195312 -346.001h500v195c0 24 -2.33301 44.333 -7 61s-12.334 31.834 -23.001 45.501
s-24.834 24.5 -42.501 32.5s-35.167 12 -52.5 12h-375z" />
    <glyph glyph-name="uniFEC4" unicode="&#x637;" horiz-adv-x="886" arabic-form="medial" 
d="M-13 58h156v766h71v-349h369c34 0 63.167 -5.66699 87.5 -17s46.833 -28.333 67.5 -51c16.667 -19.333 28.667 -41.5 36 -66.5s11 -50.167 11 -75.5v-207h134v-71h-932v71zM214 404l0.00195312 -346.001h500v195c0 24 -2.33301 44.333 -7 61
s-12.334 31.834 -23.001 45.501s-24.834 24.5 -42.501 32.5s-35.167 12 -52.5 12h-375z" />
    <glyph glyph-name="uniFEC6" unicode="&#x638;" horiz-adv-x="921" arabic-form="final" 
d="M22 58h156v766h71v-349h369c34 0 63.167 -5.66699 87.5 -17s46.833 -28.333 67.5 -51c16.667 -19.333 28.667 -41.5 36 -66.5s11 -50.167 11 -75.5v-207h134v-71h-932v71zM249 404l0.00195312 -346.001h500v195c0 24 -2.33301 44.333 -7 61
s-12.334 31.834 -23.001 45.501s-24.834 24.5 -42.501 32.5s-35.167 12 -52.5 12h-375zM485.002 586.999c-14.667 0 -27.334 5.33301 -38.001 16s-16 23.334 -16 38.001s5.33301 27.334 16 38.001s23.334 16 38.001 16s27.334 -5.33301 38.001 -16s16 -23.334 16 -38.001
s-5.33301 -27.334 -16 -38.001s-23.334 -16 -38.001 -16z" />
    <glyph glyph-name="uniFEC7" unicode="&#x638;" horiz-adv-x="837" arabic-form="initial" 
d="M-13 58h156v766h71v-349h369c34 0 63.167 -5.66699 87.5 -17s46.833 -28.333 67.5 -51c16.667 -19.333 28.667 -41.5 36 -66.5s11 -50.167 11 -75.5v-278h-798v71zM214 404l0.00195312 -346.001h500v195c0 24 -2.33301 44.333 -7 61s-12.334 31.834 -23.001 45.501
s-24.834 24.5 -42.501 32.5s-35.167 12 -52.5 12h-375zM450.002 586.999c-14.667 0 -27.334 5.33301 -38.001 16s-16 23.334 -16 38.001s5.33301 27.334 16 38.001s23.334 16 38.001 16s27.334 -5.33301 38.001 -16s16 -23.334 16 -38.001s-5.33301 -27.334 -16 -38.001
s-23.334 -16 -38.001 -16z" />
    <glyph glyph-name="uniFEC8" unicode="&#x638;" horiz-adv-x="886" arabic-form="medial" 
d="M-13 58h156v766h71v-349h369c34 0 63.167 -5.66699 87.5 -17s46.833 -28.333 67.5 -51c16.667 -19.333 28.667 -41.5 36 -66.5s11 -50.167 11 -75.5v-207h134v-71h-932v71zM214 404l0.00195312 -346.001h500v195c0 24 -2.33301 44.333 -7 61
s-12.334 31.834 -23.001 45.501s-24.834 24.5 -42.501 32.5s-35.167 12 -52.5 12h-375zM450.002 586.999c-14.667 0 -27.334 5.33301 -38.001 16s-16 23.334 -16 38.001s5.33301 27.334 16 38.001s23.334 16 38.001 16s27.334 -5.33301 38.001 -16s16 -23.334 16 -38.001
s-5.33301 -27.334 -16 -38.001s-23.334 -16 -38.001 -16z" />
    <glyph glyph-name="uniFECA" unicode="&#x639;" horiz-adv-x="719" arabic-form="final" 
d="M114 -238c-14 23.333 -24.999 42.835 -32.999 58.502s-15 32.167 -21 49.5s-10.5 35.666 -13.5 54.999s-4.5 41 -4.5 65c0 7.33301 0.5 16.833 1.5 28.5s2.83301 24.834 5.5 39.501h169l-140 356c46.667 40.667 95.667 72.334 147 95.001s102 34 152 34
c49.333 0 99.666 -11.333 150.999 -34s101 -54.334 149 -95.001l-147 -356h222v-71h-639v-7c0 -30.667 4.16699 -59.334 12.5 -86.001s22.833 -59.334 43.5 -98.001zM377.001 472.002c-38 0 -75.8301 -7.33008 -113.497 -21.9971s-71.167 -34.334 -100.5 -59.001l136 -333
h155l137 333c-8 7.33301 -20.833 16.166 -38.5 26.499s-36.334 19.666 -56.001 27.999s-39.834 14.833 -60.501 19.5s-40.334 7 -59.001 7z" />
    <glyph glyph-name="uniFECB" unicode="&#x639;" horiz-adv-x="619" arabic-form="initial" 
d="M-13 58l139.999 0.000976562l-16 29c-8.66699 17.333 -16.5 35.666 -23.5 54.999s-12.667 39.666 -17 60.999s-6.5 43 -6.5 65c0 48.667 9.5 90.834 28.5 126.501s42.833 65.5 71.5 89.5c21.333 18 46.5 32.333 75.5 43s58.833 16 89.5 16
c21.333 0 40.833 -1.16699 58.5 -3.5s34.334 -6 50.001 -11s31 -11.167 46 -18.5s33.833 -18 56.5 -32l-25 -68c-30.667 23.333 -60.167 39.5 -88.5 48.5s-55.166 13.5 -80.499 13.5c-30.667 0 -57.334 -4 -80.001 -12s-42 -18.333 -58 -31
c-48 -40.667 -72 -89.334 -72 -146.001c0 -28.667 2.16699 -54.167 6.5 -76.5s9.83301 -42.666 16.5 -60.999s14 -34.5 22 -48.5l23 -39h363v-71h-580v71z" />
    <glyph glyph-name="uniFECC" unicode="&#x639;" horiz-adv-x="685" arabic-form="medial" 
d="M-13 58h197.001l-140 356c46.667 40.667 95.667 72.334 147 95.001s102 34 152 34c49.333 0 99.666 -11.333 150.999 -34s101 -54.334 149 -95.001l-147 -356h222v-71h-731v71zM343.001 472c-38 0 -75.8301 -7.33008 -113.497 -21.9971s-71.167 -34.334 -100.5 -59.001
l136 -333h155l137 333c-8 7.33301 -20.833 16.166 -38.5 26.499s-36.334 19.666 -56.001 27.999s-39.834 14.833 -60.501 19.5s-40.334 7 -59.001 7z" />
    <glyph glyph-name="uniFECE" unicode="&#x63a;" horiz-adv-x="719" arabic-form="final" 
d="M114 -238c-14 23.333 -24.999 42.835 -32.999 58.502s-15 32.167 -21 49.5s-10.5 35.666 -13.5 54.999s-4.5 41 -4.5 65c0 7.33301 0.5 16.833 1.5 28.5s2.83301 24.834 5.5 39.501h169l-140 356c46.667 40.667 95.667 72.334 147 95.001s102 34 152 34
c49.333 0 99.666 -11.333 150.999 -34s101 -54.334 149 -95.001l-147 -356h222v-71h-639v-7c0 -30.667 4.16699 -59.334 12.5 -86.001s22.833 -59.334 43.5 -98.001zM377.001 472.002c-38 0 -75.8301 -7.33008 -113.497 -21.9971s-71.167 -34.334 -100.5 -59.001l136 -333
h155l137 333c-8 7.33301 -20.833 16.166 -38.5 26.499s-36.334 19.666 -56.001 27.999s-39.834 14.833 -60.501 19.5s-40.334 7 -59.001 7zM376.004 646.005c-14.667 0 -27.334 5.33301 -38.001 16s-16 23.334 -16 38.001s5.33301 27.334 16 38.001s23.334 16 38.001 16
s27.334 -5.33301 38.001 -16s16 -23.334 16 -38.001s-5.33301 -27.334 -16 -38.001s-23.334 -16 -38.001 -16z" />
    <glyph glyph-name="uniFECF" unicode="&#x63a;" horiz-adv-x="619" arabic-form="initial" 
d="M-13 58l139.999 0.000976562l-16 29c-8.66699 17.333 -16.5 35.666 -23.5 54.999s-12.667 39.666 -17 60.999s-6.5 43 -6.5 65c0 48.667 9.5 90.834 28.5 126.501s42.833 65.5 71.5 89.5c21.333 18 46.5 32.333 75.5 43s58.833 16 89.5 16
c21.333 0 40.833 -1.16699 58.5 -3.5s34.334 -6 50.001 -11s31 -11.167 46 -18.5s33.833 -18 56.5 -32l-25 -68c-30.667 23.333 -60.167 39.5 -88.5 48.5s-55.166 13.5 -80.499 13.5c-30.667 0 -57.334 -4 -80.001 -12s-42 -18.333 -58 -31
c-48 -40.667 -72 -89.334 -72 -146.001c0 -28.667 2.16699 -54.167 6.5 -76.5s9.83301 -42.666 16.5 -60.999s14 -34.5 22 -48.5l23 -39h363v-71h-580v71zM320.999 646.001c-14.667 0 -27.334 5.33301 -38.001 16s-16 23.334 -16 38.001s5.33301 27.334 16 38.001
s23.334 16 38.001 16s27.334 -5.33301 38.001 -16s16 -23.334 16 -38.001s-5.33301 -27.334 -16 -38.001s-23.334 -16 -38.001 -16z" />
    <glyph glyph-name="uniFED0" unicode="&#x63a;" horiz-adv-x="685" arabic-form="medial" 
d="M-13 58h197.001l-140 356c46.667 40.667 95.667 72.334 147 95.001s102 34 152 34c49.333 0 99.666 -11.333 150.999 -34s101 -54.334 149 -95.001l-147 -356h222v-71h-731v71zM343.001 472c-38 0 -75.8301 -7.33008 -113.497 -21.9971s-71.167 -34.334 -100.5 -59.001
l136 -333h155l137 333c-8 7.33301 -20.833 16.166 -38.5 26.499s-36.334 19.666 -56.001 27.999s-39.834 14.833 -60.501 19.5s-40.334 7 -59.001 7zM340.004 646.003c-14.667 0 -27.334 5.33301 -38.001 16s-16 23.334 -16 38.001s5.33301 27.334 16 38.001
s23.334 16 38.001 16s27.334 -5.33301 38.001 -16s16 -23.334 16 -38.001s-5.33301 -27.334 -16 -38.001s-23.334 -16 -38.001 -16z" />
    <glyph glyph-name="uniFED2" unicode="&#x641;" horiz-adv-x="1041" arabic-form="final" 
d="M353 -13c-28 0 -52.6641 1.16797 -73.9971 3.50098s-40.833 6.16602 -58.5 11.499s-33.834 12 -48.501 20s-29.334 17.667 -44.001 29c-26 19.333 -45.167 45 -57.5 77s-18.5 63 -18.5 93v223h71v-213c0 -34 4.66699 -61 14 -81s23 -36.667 41 -50
c18.667 -14 40.667 -24.5 66 -31.5s52.333 -10.5 81 -10.5h236c-12 8.66699 -30.333 32 -55 70s-37 84 -37 138c0 39.333 7.16699 76 21.5 110s35.666 63.5 63.999 88.5s63.333 44.333 105 58s89.167 20.5 142.5 20.5h138v-485h134v-71h-721zM540.003 266.001
c0 -46.667 13.666 -87.6689 40.999 -123.002s61 -63.666 101 -84.999h187v414h-95c-32.667 0 -63 -4.83301 -91 -14.5s-52.667 -23.667 -74 -42s-38.166 -40.166 -50.499 -65.499s-18.5 -53.333 -18.5 -84zM772.002 645.999c-14.667 0 -27.334 5.33301 -38.001 16
s-16 23.334 -16 38.001s5.33301 27.334 16 38.001s23.334 16 38.001 16s27.334 -5.33301 38.001 -16s16 -23.334 16 -38.001s-5.33301 -27.334 -16 -38.001s-23.334 -16 -38.001 -16z" />
    <glyph glyph-name="uniFED3" unicode="&#x641;" horiz-adv-x="627" arabic-form="initial" 
d="M-13 58l210 0.00195312c-15.333 10 -27 19 -35 27s-18 21.667 -30 41s-21.333 40.5 -28 63.5s-10 48.5 -10 76.5c0 40.667 7.5 78.167 22.5 112.5s37 63.666 66 87.999s64 43.166 105 56.499s87.833 20 140.5 20h137v-556h-578v71zM165 266.002
c0 -24.667 3.83105 -47.5 11.498 -68.5s17.834 -40.167 30.501 -57.5s27.834 -33 45.501 -47s35.834 -25.667 54.501 -35h187v414h-94c-30 0 -59.333 -4.66699 -88 -14s-53.834 -22.666 -75.501 -39.999s-39 -38.833 -52 -64.5s-19.5 -54.834 -19.5 -87.501z
M407.998 646.002c-14.667 0 -27.334 5.33301 -38.001 16s-16 23.334 -16 38.001s5.33301 27.334 16 38.001s23.334 16 38.001 16s27.334 -5.33301 38.001 -16s16 -23.334 16 -38.001s-5.33301 -27.334 -16 -38.001s-23.334 -16 -38.001 -16z" />
    <glyph glyph-name="uniFED4" unicode="&#x641;" horiz-adv-x="667" arabic-form="medial" 
d="M-13 58l210 0.00195312c-15.333 10 -27 19 -35 27s-18 21.667 -30 41s-21.333 40.5 -28 63.5s-10 48.5 -10 76.5c0 40.667 7.5 78.167 22.5 112.5s37 63.666 66 87.999s64 43.166 105 56.499s87.833 20 140.5 20h137v-440l-15 -45h150v-71h-713v71zM165 266.002
c0 -24.667 3.83105 -47.5 11.498 -68.5s17.834 -40.167 30.501 -57.5s27.834 -33 45.501 -47s35.834 -25.667 54.501 -35h187v414h-94c-30 0 -59.333 -4.66699 -88 -14s-53.834 -22.666 -75.501 -39.999s-39 -38.833 -52 -64.5s-19.5 -54.834 -19.5 -87.501z
M406.998 646.002c-14.667 0 -27.334 5.33301 -38.001 16s-16 23.334 -16 38.001s5.33301 27.334 16 38.001s23.334 16 38.001 16s27.334 -5.33301 38.001 -16s16 -23.334 16 -38.001s-5.33301 -27.334 -16 -38.001s-23.334 -16 -38.001 -16z" />
    <glyph glyph-name="uniFED6" unicode="&#x642;" horiz-adv-x="867" arabic-form="final" 
d="M353 -233c-28 0 -52.665 1.16602 -73.998 3.49902s-40.833 6.16602 -58.5 11.499s-33.834 12 -48.501 20s-29.334 17.667 -44.001 29c-26 19.333 -45.167 45 -57.5 77s-18.5 63 -18.5 93v267h71v-257c0 -34 4.66699 -61 14 -81s23 -36.667 41 -50
c18.667 -14 40.667 -24.5 66 -31.5s52.333 -10.5 81 -10.5h349v149h-47c-45.333 0 -88.333 4.83301 -129 14.5s-77 25.334 -109 47.001s-57.5 50.334 -76.5 86.001s-28.5 79.167 -28.5 130.5c0 39.333 7.83301 76 23.5 110s38.5 63.5 68.5 88.5s66.167 44.5 108.5 58.5
s89.833 21 142.5 21h118v-485h155v-71h-155v-220h-392zM355.002 264.999c0 -34.667 6.16602 -64.998 18.499 -90.998s29.5 -47.5 51.5 -64.5s48 -29.833 78 -38.5s62 -13 96 -13h75v414h-75c-32 0 -62.833 -5.16699 -92.5 -15.5s-55.667 -24.333 -78 -42
s-40.166 -39.334 -53.499 -65.001s-20 -53.834 -20 -84.501zM678.001 646.001c-14.667 0 -27.334 5.33301 -38.001 16s-16 23.334 -16 38.001s5.33301 27.334 16 38.001s23.334 16 38.001 16s27.334 -5.33301 38.001 -16s16 -23.334 16 -38.001
s-5.33301 -27.334 -16 -38.001s-23.334 -16 -38.001 -16zM499.001 646.001c-14.667 0 -27.334 5.33301 -38.001 16s-16 23.334 -16 38.001s5.33301 27.334 16 38.001s23.334 16 38.001 16s27.334 -5.33301 38.001 -16s16 -23.334 16 -38.001s-5.33301 -27.334 -16 -38.001
s-23.334 -16 -38.001 -16z" />
    <glyph glyph-name="uniFED7" unicode="&#x642;" horiz-adv-x="627" arabic-form="initial" 
d="M-13 58l210 0.00195312c-15.333 10 -27 19 -35 27s-18 21.667 -30 41s-21.333 40.5 -28 63.5s-10 48.5 -10 76.5c0 40.667 7.5 78.167 22.5 112.5s37 63.666 66 87.999s64 43.166 105 56.499s87.833 20 140.5 20h137v-556h-578v71zM165 266.002
c0 -24.667 3.83105 -47.5 11.498 -68.5s17.834 -40.167 30.501 -57.5s27.834 -33 45.501 -47s35.834 -25.667 54.501 -35h187v414h-94c-30 0 -59.333 -4.66699 -88 -14s-53.834 -22.666 -75.501 -39.999s-39 -38.833 -52 -64.5s-19.5 -54.834 -19.5 -87.501z
M319.998 646.002c-14.667 0 -27.334 5.33301 -38.001 16s-16 23.334 -16 38.001s5.33301 27.334 16 38.001s23.334 16 38.001 16s27.334 -5.33301 38.001 -16s16 -23.334 16 -38.001s-5.33301 -27.334 -16 -38.001s-23.334 -16 -38.001 -16zM498.998 646.002
c-14.667 0 -27.334 5.33301 -38.001 16s-16 23.334 -16 38.001s5.33301 27.334 16 38.001s23.334 16 38.001 16s27.334 -5.33301 38.001 -16s16 -23.334 16 -38.001s-5.33301 -27.334 -16 -38.001s-23.334 -16 -38.001 -16z" />
    <glyph glyph-name="uniFED8" unicode="&#x642;" horiz-adv-x="666" arabic-form="medial" 
d="M-13 58l210 0.00195312c-15.333 10 -27 19 -35 27s-18 21.667 -30 41s-21.333 40.5 -28 63.5s-10 48.5 -10 76.5c0 40.667 7.5 78.167 22.5 112.5s37 63.666 66 87.999s64 43.166 105 56.499s87.833 20 140.5 20h137v-485h134v-71h-712v71zM165 266.002
c0 -24.667 3.83105 -47.5 11.498 -68.5s17.834 -40.167 30.501 -57.5s27.834 -33 45.501 -47s35.834 -25.667 54.501 -35h187v414h-94c-30 0 -59.333 -4.66699 -88 -14s-53.834 -22.666 -75.501 -39.999s-39 -38.833 -52 -64.5s-19.5 -54.834 -19.5 -87.501z
M319.998 646.002c-14.667 0 -27.334 5.33301 -38.001 16s-16 23.334 -16 38.001s5.33301 27.334 16 38.001s23.334 16 38.001 16s27.334 -5.33301 38.001 -16s16 -23.334 16 -38.001s-5.33301 -27.334 -16 -38.001s-23.334 -16 -38.001 -16zM498.998 646.002
c-14.667 0 -27.334 5.33301 -38.001 16s-16 23.334 -16 38.001s5.33301 27.334 16 38.001s23.334 16 38.001 16s27.334 -5.33301 38.001 -16s16 -23.334 16 -38.001s-5.33301 -27.334 -16 -38.001s-23.334 -16 -38.001 -16z" />
    <glyph glyph-name="uniFEDA" unicode="&#x643;" horiz-adv-x="836" arabic-form="final" 
d="M353 -13c-28 0 -52.665 1.16797 -73.998 3.50098s-40.833 6.16602 -58.5 11.499s-33.834 12 -48.501 20s-29.334 17.667 -44.001 29c-26 19.333 -45.167 45 -57.5 77s-18.5 63 -18.5 93v223h71v-213c0 -34 4.66699 -61 14 -81s23 -36.667 41 -50
c18.667 -14 40.667 -24.5 66 -31.5s52.333 -10.5 81 -10.5h339v766h71v-766h134v-71h-516zM300.002 382.001c0 42 9.83203 74.667 29.499 98s49.5 35 89.5 35h69v-71h-62c-21.333 0 -35.666 -3.83301 -42.999 -11.5s-11 -19.5 -11 -35.5v-27h148v-71h-220v83z" />
    <glyph glyph-name="uniFEDB" unicode="&#x643;" horiz-adv-x="761" arabic-form="initial" 
d="M-13 58l651.001 -0.000976562v203c0 24 -2.33301 44.333 -7 61s-12.334 31.834 -23.001 45.501s-24.834 24.5 -42.501 32.5s-35.167 12 -52.5 12h-423c-11.333 10.667 -19.166 19.667 -23.499 27s-8.5 18 -12.5 32l178 354h79l-170 -342h366
c34 0 63.167 -5.66699 87.5 -17s46.833 -28.333 67.5 -51c16.667 -19.333 28.667 -41.5 36 -66.5s11 -50.167 11 -75.5v-286h-722v71z" />
    <glyph glyph-name="uniFEDC" unicode="&#x643;" horiz-adv-x="810" arabic-form="medial" 
d="M-13 58l651.001 -0.000976562v203c0 24 -2.33301 44.333 -7 61s-12.334 31.834 -23.001 45.501s-24.834 24.5 -42.501 32.5s-35.167 12 -52.5 12h-423c-11.333 10.667 -19.166 19.667 -23.499 27s-8.5 18 -12.5 32l178 354h79l-170 -342h366
c34 0 63.167 -5.66699 87.5 -17s46.833 -28.333 67.5 -51c16.667 -19.333 28.667 -41.5 36 -66.5s11 -50.167 11 -75.5v-215h134v-71h-856v71z" />
    <glyph glyph-name="uniFEDE" unicode="&#x644;" horiz-adv-x="658" arabic-form="final" 
d="M353 -138c-28 0 -52.665 1.16797 -73.998 3.50098s-40.833 6.16602 -58.5 11.499s-33.834 12 -48.501 20s-29.334 17.667 -44.001 29c-26 19.333 -45.167 45 -57.5 77s-18.5 63 -18.5 93v379h71v-369c0 -34 4.66699 -61 14 -81s23 -36.667 41 -50
c18.667 -14 40.667 -24.5 66 -31.5s52.333 -10.5 81 -10.5h139v891h170v-71h-99v-695h156v-71h-156v-125h-182z" />
    <glyph glyph-name="uniFEDF" unicode="&#x644;" horiz-adv-x="325" arabic-form="initial" 
d="M-13 58h156v766h170v-71h-99v-766h-227v71z" />
    <glyph glyph-name="uniFEE0" unicode="&#x644;" horiz-adv-x="317" arabic-form="medial" 
d="M-13 58h136v766h71v-766h156v-71h-363v71z" />
    <glyph glyph-name="uniFEE2" unicode="&#x645;" horiz-adv-x="912" arabic-form="final" 
d="M551 -119c-40 0 -76.8271 7.00293 -110.494 21.0029s-63.334 33.333 -89.001 58s-46.334 53.667 -62.001 87s-24.5 64.666 -26.5 93.999c-22.667 -0.666992 -44.834 -5.83398 -66.501 -15.501s-38.834 -22.834 -51.501 -39.501c-14 -18.667 -24.5 -40.667 -31.5 -66
s-10.5 -52.333 -10.5 -81v-172h-71v144c0 55.333 5.16699 100.666 15.5 135.999s26.5 65.666 48.5 90.999s48.167 43.833 78.5 55.5s59.833 17.834 88.5 18.501c2 30 10.833 61.833 26.5 95.5s36.5 62.834 62.5 87.501s55.833 44.167 89.5 58.5s70.167 21.5 109.5 21.5
c43.333 0 83.166 -7.66699 119.499 -23s67.833 -36.333 94.5 -63s47.5 -58 62.5 -94s22.5 -75.333 22.5 -118c0 -50 -7.66699 -89.667 -23 -119h118v-71h-161c-24.667 -31.333 -57.334 -56.833 -98.001 -76.5s-85.667 -29.5 -135 -29.5zM551.006 -47.9971
c32.667 0 62.998 5.66699 90.998 17s52 26.833 72 46.5s35.833 43.334 47.5 71.001s17.5 57.834 17.5 90.501s-5.66699 63 -17 91s-27.166 52 -47.499 72s-44.5 35.667 -72.5 47s-58.333 17 -91 17c-32 0 -61.333 -6 -88 -18s-49.667 -28.333 -69 -49
s-34.5 -44.834 -45.5 -72.501s-16.5 -56.834 -16.5 -87.501c0 -30 5.5 -58.833 16.5 -86.5s26.333 -51.667 46 -72s42.834 -36.5 69.501 -48.5s55.667 -18 87 -18z" />
    <glyph glyph-name="uniFEE3" unicode="&#x645;" horiz-adv-x="679" arabic-form="initial" 
d="M-13 58l103.003 0.00195312c-21.333 34 -32 80.667 -32 140c0 40.667 7.5 79 22.5 115s35.333 67.667 61 95s56.167 48.833 91.5 64.5s73.666 23.5 114.999 23.5c43.333 0 83.166 -7.66699 119.499 -23s67.833 -36.333 94.5 -63s47.5 -58 62.5 -94
s22.5 -75.333 22.5 -118c0 -43.333 -7.66699 -82.833 -23 -118.5s-36.5 -66.834 -63.5 -93.501s-58.5 -47.334 -94.5 -62.001s-75.333 -22 -118 -22s-81.834 8 -117.501 24s-65.167 36.333 -88.5 61h-155v71zM348.003 -26.998c32.667 0 62.998 5.66699 90.998 17
s52 26.833 72 46.5s35.833 43.334 47.5 71.001s17.5 57.834 17.5 90.501s-5.66699 63 -17 91s-27.166 52 -47.499 72s-44.5 35.667 -72.5 47s-58.333 17 -91 17c-32 0 -61.333 -6 -88 -18s-49.667 -28.333 -69 -49s-34.5 -44.834 -45.5 -72.501s-16.5 -56.834 -16.5 -87.501
c0 -30 5.5 -58.833 16.5 -86.5s26.333 -51.667 46 -72s42.834 -36.5 69.501 -48.5s55.667 -18 87 -18z" />
    <glyph glyph-name="uniFEE4" unicode="&#x645;" horiz-adv-x="690" arabic-form="medial" 
d="M-13 58l103.003 0.000976562c-21.333 34 -32 80.667 -32 140c0 40.667 7.5 79 22.5 115s35.333 67.667 61 95s56.167 48.833 91.5 64.5s73.666 23.5 114.999 23.5c43.333 0 83.166 -7.66699 119.499 -23s67.833 -36.333 94.5 -63s47.5 -58 62.5 -94
s22.5 -75.333 22.5 -118c0 -30.667 -4 -59.334 -12 -86.001s-15 -44.667 -21 -54h109v-71h-161c-24.667 -25.333 -55.5 -45.833 -92.5 -61.5s-77.5 -23.5 -121.5 -23.5c-42.667 0 -81.834 8 -117.501 24s-65.167 36.333 -88.5 61h-155v71zM348.003 -26.999
c32.667 0 62.998 5.66699 90.998 17s52 26.833 72 46.5s35.833 43.334 47.5 71.001s17.5 57.834 17.5 90.501s-5.66699 63 -17 91s-27.166 52 -47.499 72s-44.5 35.667 -72.5 47s-58.333 17 -91 17c-32 0 -61.333 -6 -88 -18s-49.667 -28.333 -69 -49
s-34.5 -44.834 -45.5 -72.501s-16.5 -56.834 -16.5 -87.501c0 -30 5.5 -58.833 16.5 -86.5s26.333 -51.667 46 -72s42.834 -36.5 69.501 -48.5s55.667 -18 87 -18z" />
    <glyph glyph-name="uniFEE6" unicode="&#x646;" horiz-adv-x="636" arabic-form="final" 
d="M353 -138c-28 0 -52.665 1.16797 -73.998 3.50098s-40.833 6.16602 -58.5 11.499s-33.834 12 -48.501 20s-29.334 17.667 -44.001 29c-26 19.333 -45.167 45 -57.5 77s-18.5 63 -18.5 93v379h71v-369c0 -34 4.66699 -61 14 -81s23 -36.667 41 -50
c18.667 -14 40.667 -24.5 66 -31.5s52.333 -10.5 81 -10.5h139v542h71v-417h134v-71h-134v-125h-182zM300.002 587.001c-14.667 0 -27.334 5.33301 -38.001 16s-16 23.334 -16 38.001s5.33301 27.334 16 38.001s23.334 16 38.001 16s27.334 -5.33301 38.001 -16
s16 -23.334 16 -38.001s-5.33301 -27.334 -16 -38.001s-23.334 -16 -38.001 -16z" />
    <glyph glyph-name="uniFEE7" unicode="&#x646;" horiz-adv-x="262" arabic-form="initial" 
d="M-13 58h126v485h71v-556h-197v71zM146 646c-14.667 0 -27.334 5.33301 -38.001 16s-16 23.334 -16 38.001s5.33301 27.334 16 38.001s23.334 16 38.001 16s27.334 -5.33301 38.001 -16s16 -23.334 16 -38.001s-5.33301 -27.334 -16 -38.001s-23.334 -16 -38.001 -16z" />
    <glyph glyph-name="uniFEE8" unicode="&#x646;" horiz-adv-x="285" arabic-form="medial" 
d="M-13 58h126v485h71v-485h134v-71h-331v71zM145 646c-14.667 0 -27.334 5.33301 -38.001 16s-16 23.334 -16 38.001s5.33301 27.334 16 38.001s23.334 16 38.001 16s27.334 -5.33301 38.001 -16s16 -23.334 16 -38.001s-5.33301 -27.334 -16 -38.001
s-23.334 -16 -38.001 -16z" />
    <glyph glyph-name="uniFEE9" unicode="&#x647;" horiz-adv-x="570" arabic-form="isolated" 
d="M390 -13c-43.333 0 -85.332 5.16699 -125.999 15.5s-76.667 26.833 -108 49.5s-56.5 51.667 -75.5 87s-28.5 77.333 -28.5 126c0 39.333 7.83301 76 23.5 110s38.5 63.5 68.5 88.5s65.667 44.5 107 58.5s87.666 21 138.999 21h47v50h71v-606h-118zM437.001 58
l0.00195312 414.003h-75c-30 0 -59.5 -5.16699 -88.5 -15.5s-54.667 -24.333 -77 -42s-40.166 -39.334 -53.499 -65.001s-20 -53.834 -20 -84.501c0 -32.667 6.16699 -61.834 18.5 -87.501s29.166 -47.167 50.499 -64.5s46.666 -30.833 75.999 -40.5
s60.666 -14.5 93.999 -14.5h75z" />
    <glyph glyph-name="uniFEEA" unicode="&#x647;" horiz-adv-x="609" arabic-form="final" 
d="M642 58l0.000976562 -71h-252c-43.333 0 -85.333 5.16699 -126 15.5s-76.667 26.833 -108 49.5s-56.5 51.667 -75.5 87s-28.5 77.333 -28.5 126c0 39.333 7.83301 76 23.5 110s38.5 63.5 68.5 88.5s65.667 44.5 107 58.5s87.666 21 138.999 21h47v50h71v-535h134z
M437.001 58l0.00195312 414.003h-75c-30 0 -59.5 -5.16699 -88.5 -15.5s-54.667 -24.333 -77 -42s-40.166 -39.334 -53.499 -65.001s-20 -53.834 -20 -84.501c0 -32.667 6.16699 -61.834 18.5 -87.501s29.166 -47.167 50.499 -64.5s46.666 -30.833 75.999 -40.5
s60.666 -14.5 93.999 -14.5h75z" />
    <glyph glyph-name="uniFEEB" unicode="&#x647;" horiz-adv-x="766" arabic-form="initial" 
d="M-33 58l145.003 0.00292969c-1.33301 3.33301 -4 17.166 -8 41.499s-6 48.5 -6 72.5c0 38 4.66699 72.833 14 104.5s23.333 58.834 42 81.501s41.167 40.334 67.5 53.001s56.5 19 90.5 19s64 -6.33301 90 -19s48.167 -30.334 66.5 -53.001s32 -49.834 41 -81.501
s13.5 -66.5 13.5 -104.5c0 -24 -1.66699 -48 -5 -72s-5.66602 -38 -6.99902 -42h126c4 18.667 7.66699 41.667 11 69s5 53 5 77c0 43.333 -2.83301 81.666 -8.5 114.999s-16.5 66.666 -32.5 99.999c-22.667 48 -58 85.5 -106 112.5s-107.667 40.5 -179 40.5
c-40 0 -77.833 -6.5 -113.5 -19.5s-71.5 -29.167 -107.5 -48.5l-30 65c49.333 25.333 94.666 44.166 135.999 56.499s87.666 18.5 138.999 18.5c37.333 0 72.666 -5 105.999 -15s63.666 -23.333 90.999 -40s51.5 -36 72.5 -58s37.833 -45.333 50.5 -70
c19.333 -37.333 33 -76.666 41 -117.999s12 -83.333 12 -126c0 -38.667 -2.83301 -76.5 -8.5 -113.5s-13.167 -75.833 -22.5 -116.5h-726v71zM169.003 172.003c0 -24.667 1.66895 -48.167 5.00195 -70.5s5.66602 -36.833 6.99902 -43.5h259
c1.33301 6.66699 3.66602 21 6.99902 43s5 45.667 5 71c0 26.667 -3 51.5 -9 74.5s-15 42.833 -27 59.5s-26.5 29.667 -43.5 39s-37.167 14 -60.5 14c-24 0 -44.833 -4.5 -62.5 -13.5s-32.5 -21.833 -44.5 -38.5s-21 -36.5 -27 -59.5s-9 -48.167 -9 -75.5z" />
    <glyph glyph-name="uniFEEC" unicode="&#x647;" horiz-adv-x="804" arabic-form="medial" 
d="M-33 58l145.003 0.00292969c-1.33301 3.33301 -4 17.166 -8 41.499s-6 48.5 -6 72.5c0 38 4.66699 72.833 14 104.5s23.333 58.834 42 81.501s41.167 40.334 67.5 53.001s56.5 19 90.5 19s64 -6.33301 90 -19s48.167 -30.334 66.5 -53.001s32 -49.834 41 -81.501
s13.5 -66.5 13.5 -104.5c0 -24 -1.66699 -48 -5 -72s-5.66602 -38 -6.99902 -42h126c4 18.667 7.66699 41.667 11 69s5 53 5 77c0 43.333 -2.83301 81.666 -8.5 114.999s-16.5 66.666 -32.5 99.999c-22.667 48 -58 85.5 -106 112.5s-107.667 40.5 -179 40.5
c-40 0 -77.833 -6.5 -113.5 -19.5s-71.5 -29.167 -107.5 -48.5l-30 65c49.333 25.333 94.666 44.166 135.999 56.499s87.666 18.5 138.999 18.5c37.333 0 72.666 -5 105.999 -15s63.666 -23.333 90.999 -40s51.5 -36 72.5 -58s37.833 -45.333 50.5 -70
c19.333 -37.333 33 -76.666 41 -117.999s12 -83.333 12 -126c0 -30.667 -1.83301 -60.5 -5.5 -89.5s-7.16699 -52.167 -10.5 -69.5h129v-71h-870v71zM169.003 172.003c0 -24.667 1.66895 -48.167 5.00195 -70.5s5.66602 -36.833 6.99902 -43.5h259
c1.33301 6.66699 3.66602 21 6.99902 43s5 45.667 5 71c0 26.667 -3 51.5 -9 74.5s-15 42.833 -27 59.5s-26.5 29.667 -43.5 39s-37.167 14 -60.5 14c-24 0 -44.833 -4.5 -62.5 -13.5s-32.5 -21.833 -44.5 -38.5s-21 -36.5 -27 -59.5s-9 -48.167 -9 -75.5z" />
    <glyph glyph-name="uniFEEE" unicode="&#x648;" horiz-adv-x="635" arabic-form="final" 
d="M300 -233c-32.667 0 -61.8311 4.66602 -87.498 13.999s-55.5 24 -89.5 44l33 63c31.333 -17.333 57.666 -30 78.999 -38s44.333 -12 69 -12c43.333 0 77.166 10 101.499 30s36.5 48 36.5 84v35h-47c-43.333 0 -85.333 4.83301 -126 14.5s-77.167 25.5 -109.5 47.5
s-58.333 50.833 -78 86.5s-29.5 78.834 -29.5 129.501c0 40.667 8 78.167 24 112.5s39 63.833 69 88.5s66 43.667 108 57s89.333 20 142 20h118v-485h155v-71h-155v-35c0 -57.333 -19.5 -102.5 -58.5 -135.5s-90.5 -49.5 -154.5 -49.5zM123.003 264.999
c0 -34.667 6.33301 -64.833 19 -90.5s30.167 -47 52.5 -64s48.333 -30 78 -39s61.167 -13.5 94.5 -13.5h75v414h-75c-30 0 -59.667 -5 -89 -15s-55.5 -24 -78.5 -42s-41.5 -39.5 -55.5 -64.5s-21 -53.5 -21 -85.5z" />
    <glyph glyph-name="uniFEF0" unicode="&#x649;" horiz-adv-x="1026" arabic-form="final" 
d="M854 472l-102.997 0.00292969c-24 0 -44.333 -2.33301 -61 -7s-31.834 -12.334 -45.501 -23.001s-24.5 -24.834 -32.5 -42.501s-12 -35.167 -12 -52.5v-485h-247c-28 0 -52.667 1.16699 -74 3.5s-40.833 6.16602 -58.5 11.499s-33.834 12 -48.501 20
s-29.334 17.667 -44.001 29c-26 19.333 -45.167 45 -57.5 77s-18.5 63 -18.5 93v267h71v-257c0 -34 4.66699 -61 14 -81s23 -36.667 41 -50c18.667 -14 40.667 -24.5 66 -31.5s52.333 -10.5 81 -10.5h204v408c0 34 5.66699 63.167 17 87.5s28.333 46.833 51 67.5
c19.333 16.667 41.5 28.667 66.5 36s50.167 11 75.5 11h186v-485h134v-71h-205v485z" />
    <glyph glyph-name="uniFEF2" unicode="&#x64a;" horiz-adv-x="949" arabic-form="final" 
d="M777 472l-103.001 0.00195312c-24 0 -44.333 -2.33301 -61 -7s-31.834 -12.334 -45.501 -23.001s-24.5 -24.834 -32.5 -42.501s-12 -35.167 -12 -52.5v-485h-287c-25.333 0 -48.166 1.16699 -68.499 3.5s-39.166 6 -56.499 11s-34 10.833 -50 17.5s-35.667 16.667 -59 30
l35 61c34.667 -20 64.667 -33.667 90 -41s52.333 -11 81 -11h244v408c0 34 5.66699 63.167 17 87.5s28.333 46.833 51 67.5c19.333 16.667 41.5 28.667 66.5 36s50.167 11 75.5 11h186v-485h134v-71h-205v485zM277.999 209.002c-14.667 0 -27.334 5.33301 -38.001 16
s-16 23.334 -16 38.001s5.33301 27.334 16 38.001s23.334 16 38.001 16s27.334 -5.33301 38.001 -16s16 -23.334 16 -38.001s-5.33301 -27.334 -16 -38.001s-23.334 -16 -38.001 -16zM277.999 32.002c-14.667 0 -27.334 5.33301 -38.001 16s-16 23.334 -16 38.001
s5.33301 27.334 16 38.001s23.334 16 38.001 16s27.334 -5.33301 38.001 -16s16 -23.334 16 -38.001s-5.33301 -27.334 -16 -38.001s-23.334 -16 -38.001 -16z" />
    <glyph glyph-name="uniFEF3" unicode="&#x64a;" horiz-adv-x="355" arabic-form="initial" 
d="M-13 58h226v485h71v-556h-297v71zM60 -220c-14.667 0 -27.334 5.33301 -38.001 16s-16 23.334 -16 38.001s5.33301 27.334 16 38.001s23.334 16 38.001 16s27.334 -5.33301 38.001 -16s16 -23.334 16 -38.001s-5.33301 -27.334 -16 -38.001s-23.334 -16 -38.001 -16z
M239 -220c-14.667 0 -27.334 5.33301 -38.001 16s-16 23.334 -16 38.001s5.33301 27.334 16 38.001s23.334 16 38.001 16s27.334 -5.33301 38.001 -16s16 -23.334 16 -38.001s-5.33301 -27.334 -16 -38.001s-23.334 -16 -38.001 -16z" />
    <glyph glyph-name="uniFEF4" unicode="&#x64a;" horiz-adv-x="465" arabic-form="medial" 
d="M-13 58h226v485h71v-485h214v-71h-511v71zM329 -220c-14.667 0 -27.334 5.33301 -38.001 16s-16 23.334 -16 38.001s5.33301 27.334 16 38.001s23.334 16 38.001 16s27.334 -5.33301 38.001 -16s16 -23.334 16 -38.001s-5.33301 -27.334 -16 -38.001
s-23.334 -16 -38.001 -16zM150 -220c-14.667 0 -27.334 5.33301 -38.001 16s-16 23.334 -16 38.001s5.33301 27.334 16 38.001s23.334 16 38.001 16s27.334 -5.33301 38.001 -16s16 -23.334 16 -38.001s-5.33301 -27.334 -16 -38.001s-23.334 -16 -38.001 -16z" />
    <glyph glyph-name=".notdef" horiz-adv-x="500" 
 />
    <glyph glyph-name=".null" horiz-adv-x="500" 
 />
    <glyph glyph-name=".null" horiz-adv-x="500" 
 />
    <glyph glyph-name="space" unicode=" " horiz-adv-x="330" 
 />
    <glyph glyph-name="space" unicode="&#xa0;" horiz-adv-x="330" 
 />
    <glyph glyph-name="exclam" unicode="!" horiz-adv-x="264" 
d="M132 -23c-14.667 0 -27.334 5.33301 -38.001 16s-16 23.334 -16 38.001s5.33301 27.334 16 38.001s23.334 16 38.001 16s27.334 -5.33301 38.001 -16s16 -23.334 16 -38.001s-5.33301 -27.334 -16 -38.001s-23.334 -16 -38.001 -16zM96 824h71v-627h-71v627z" />
    <glyph glyph-name="quotedbl" unicode="&#x22;" horiz-adv-x="391" 
d="M66 824h79l-15 -298h-48zM246 824h79l-15 -298h-48z" />
    <glyph glyph-name="numbersign" unicode="#" horiz-adv-x="791" 
d="M249 591l33 233h70l-33 -233h205l33 233h69l-32 -233h172l-11 -69h-171l-29 -213h171l-11 -70h-170l-35 -252h-71l35 252h-205l-35 -252h-70l35 252h-175l13 70h172l30 213h-176l14 69h172zM279 309h205l30 213h-205z" />
    <glyph glyph-name="dollar" unicode="$" horiz-adv-x="693" 
d="M313 -23c-40.667 1.33301 -83.666 8.50195 -128.999 21.502s-89.333 32.5 -132 58.5l39 64c38 -23.333 76.833 -41.5 116.5 -54.5s81.5 -19.5 125.5 -19.5c68 0 121.167 13.833 159.5 41.5s57.5 67.5 57.5 119.5c0 24 -4.33301 45 -13 63s-21.334 34 -38.001 48
s-37.167 26.333 -61.5 37s-51.5 20.667 -81.5 30l-60 18c-73.333 22 -127.5 52.167 -162.5 90.5s-52.5 84.166 -52.5 137.499c0 34 7 63.667 21 89s32.5 46.166 55.5 62.499s49.167 28.666 78.5 36.999s55 12.833 77 13.5v115h71v-116
c36.667 -2.66699 74.834 -10.167 114.501 -22.5s79.5 -30.833 119.5 -55.5l-38 -63c-38 24 -76.833 42.167 -116.5 54.5s-81.834 18.5 -126.501 18.5c-24.667 0 -48.167 -2.66699 -70.5 -8s-41.333 -13.166 -57 -23.499s-28.167 -23.5 -37.5 -39.5s-14 -34.667 -14 -56
c0 -42 13.5 -75.5 40.5 -100.5s67.833 -46.167 122.5 -63.5l66 -20c28.667 -8.66699 57.167 -19.334 85.5 -32.001s53.833 -28.5 76.5 -47.5s41.167 -41.667 55.5 -68s21.5 -57.166 21.5 -92.499c0 -71.333 -22.333 -127 -67 -167s-103 -62.333 -175 -67v-113h-71v110z" />
    <glyph glyph-name="percent" unicode="%" horiz-adv-x="982" 
d="M157 -13l585 837h83l-585 -837h-83zM736 -23c-33.333 0 -62.333 6.33105 -87 18.998s-44.834 30.334 -60.501 53.001s-27.334 49.334 -35.001 80.001s-11.5 64.667 -11.5 102s3.83301 71.166 11.5 101.499s19.334 56.833 35.001 79.5s35.834 40.167 60.501 52.5
s53.667 18.5 87 18.5c32.667 0 61.334 -6.16699 86.001 -18.5s45 -29.666 61 -51.999s27.833 -48.833 35.5 -79.5s11.5 -64.667 11.5 -102s-3.83301 -71.5 -11.5 -102.5s-19.5 -57.667 -35.5 -80s-36.333 -39.833 -61 -52.5s-53.334 -19 -86.001 -19zM736 44.998
c37.333 0 67 14.833 89 44.5s33 76.834 33 141.501s-11 111.667 -33 141s-51.667 44 -89 44s-67 -14.667 -89 -44s-33 -76.333 -33 -141s11.167 -111.834 33.5 -141.501s51.833 -44.5 88.5 -44.5zM246 328.998c-33.333 0 -62.333 6.33105 -87 18.998
s-44.834 30.334 -60.501 53.001s-27.334 49.334 -35.001 80.001s-11.5 64.667 -11.5 102s3.83301 71.166 11.5 101.499s19.334 56.833 35.001 79.5s35.834 40.167 60.501 52.5s53.667 18.5 87 18.5c32.667 0 61.334 -6.16699 86.001 -18.5s45 -29.666 61 -51.999
s27.833 -48.833 35.5 -79.5s11.5 -64.667 11.5 -102s-3.83301 -71.5 -11.5 -102.5s-19.5 -57.667 -35.5 -80s-36.333 -39.833 -61 -52.5s-53.334 -19 -86.001 -19zM246 396.996c37.333 0 67 14.833 89 44.5s33 76.834 33 141.501s-11 111.667 -33 141s-51.667 44 -89 44
s-67 -14.667 -89 -44s-33 -76.333 -33 -141s11.167 -111.834 33.5 -141.501s51.833 -44.5 88.5 -44.5z" />
    <glyph glyph-name="ampersand" unicode="&#x26;" horiz-adv-x="839" 
d="M313 -23c-40.667 0 -78.3311 6.16211 -112.998 18.4951s-64.5 29.333 -89.5 51s-44.333 47.834 -58 78.501s-20.5 64.334 -20.5 101.001c0 64.667 21 117.334 63 158.001s96 70.667 162 90c-22.667 24.667 -44.5 53.334 -65.5 86.001s-31.5 67.667 -31.5 105
c0 26.667 5.66699 50.667 17 72s26.666 39.166 45.999 53.499s42.166 25.333 68.499 33s54.833 11.5 85.5 11.5c27.333 0 53.5 -3.33301 78.5 -10s47.333 -17 67 -31s35.334 -32.333 47.001 -55s17.5 -49 17.5 -79c0 -55.333 -19.833 -100.666 -59.5 -135.999
s-86.5 -61.666 -140.5 -78.999l218 -223c14.667 23.333 28.667 54 42 92s23.333 81 30 129h74c-8.66699 -60 -21.167 -112.667 -37.5 -158s-35.5 -84 -57.5 -116l179 -182h-99l-124 126c-31.333 -38 -72.833 -70.167 -124.5 -96.5s-109.834 -39.5 -174.501 -39.5z
M315.003 46.9951c54.667 0 103.167 11.167 145.5 33.5s76.5 49.5 102.5 81.5l-255 259c-62.667 -16.667 -111.667 -40.667 -147 -72s-53 -72 -53 -122c0 -28 5.33301 -53.167 16 -75.5s25 -41 43 -56s39.667 -26.833 65 -35.5s53 -13 83 -13zM236.003 666.995
c0 -15.333 3.16406 -30.667 9.49707 -46s14.333 -30.5 24 -45.5s20.834 -29.5 33.501 -43.5l33 -35c24.667 7.33301 48.667 16.333 72 27s42.833 22.5 58.5 35.5s27.5 27.667 35.5 44s12 34.833 12 55.5c0 17.333 -3.33301 32.5 -10 45.5s-16 24 -28 33
s-26.5 15.833 -43.5 20.5s-35.5 7 -55.5 7s-38.667 -2 -56 -6s-32.166 -10 -44.499 -18s-22.166 -18.167 -29.499 -30.5s-11 -26.833 -11 -43.5z" />
    <glyph glyph-name="quotesingle" unicode="'" horiz-adv-x="211" 
d="M66 824h79l-15 -298h-48z" />
    <glyph glyph-name="parenleft" unicode="(" horiz-adv-x="274" 
d="M62 296c0 53.333 4 105.335 12 156.002s18.833 98.334 32.5 143.001s28.667 86 45 124s34.833 73 55.5 105h74c-24.667 -44.667 -45.334 -85.5 -62.001 -122.5s-31.167 -76.833 -43.5 -119.5s-22.333 -87.834 -30 -135.501s-11.5 -97.834 -11.5 -150.501
s3.83301 -102.834 11.5 -150.501s17.667 -92.834 30 -135.501s26.833 -82.667 43.5 -120s37.334 -78.333 62.001 -123h-74c-20.667 32 -39.167 67 -55.5 105s-31.333 79.333 -45 124s-24.5 92.334 -32.5 143.001s-12 103 -12 157z" />
    <glyph glyph-name="parenright" unicode=")" horiz-adv-x="274" 
d="M212 295c0 -54 -4 -106.171 -12 -156.504s-18.833 -98 -32.5 -143s-28.834 -86.333 -45.501 -124s-35 -72.5 -55 -104.5h-74c24.667 44.667 45.334 85.5 62.001 122.5s31.167 76.833 43.5 119.5s22.333 87.834 30 135.501s11.5 97.834 11.5 150.501
s-3.83301 102.834 -11.5 150.501s-17.667 92.834 -30 135.501s-26.833 82.667 -43.5 120s-37.334 78.333 -62.001 123h74c20 -32 38.333 -66.833 55 -104.5s31.834 -79 45.501 -124s24.5 -93 32.5 -144s12 -103.167 12 -156.5z" />
    <glyph glyph-name="asterisk" unicode="*" horiz-adv-x="413" 
d="M238 685l143 47l18 -62l-140 -46l86 -118l-52 -38l-87 118l-85 -118l-53 37l85 118l-139 49l18 62l141 -49v139h65v-139z" />
    <glyph glyph-name="plus" unicode="+" horiz-adv-x="615" 
d="M272 233h-240v69h240v241h71v-241h240v-69h-240v-246h-71v246z" />
    <glyph glyph-name="comma" unicode="," horiz-adv-x="247" 
d="M111 87h79l-98 -266h-60z" />
    <glyph glyph-name="hyphen" unicode="-" horiz-adv-x="368" 
d="M32 302h304v-69h-304v69z" />
    <glyph glyph-name="period" unicode="." horiz-adv-x="242" 
d="M121 -23c-14.667 0 -27.334 5.33301 -38.001 16s-16 23.334 -16 38.001s5.33301 27.334 16 38.001s23.334 16 38.001 16s27.334 -5.33301 38.001 -16s16 -23.334 16 -38.001s-5.33301 -27.334 -16 -38.001s-23.334 -16 -38.001 -16z" />
    <glyph glyph-name="slash" unicode="/" horiz-adv-x="527" 
d="M505 824h74l-554 -987h-77z" />
    <glyph glyph-name="zero" unicode="0" horiz-adv-x="659" 
d="M330 49c59.333 0 106.5 22.668 141.5 68.001s52.5 116 52.5 212s-17.667 167.5 -53 214.5s-82.333 70.5 -141 70.5c-60 0 -107.167 -23.333 -141.5 -70s-51.5 -118.334 -51.5 -215.001c0 -96 17.167 -166.667 51.5 -212s81.5 -68 141.5 -68zM330 -20.999
c-45.333 0 -85.166 8.66699 -119.499 26s-62.5 41.333 -84.5 72s-38.333 67.5 -49 110.5s-16 90.167 -16 141.5s5.33301 98.333 16 141s27 79.834 49 111.501s50.167 56.334 84.5 74.001s74.166 26.5 119.499 26.5s84.833 -8.83301 118.5 -26.5s61.5 -42.334 83.5 -74.001
s38.333 -68.834 49 -111.501s16 -89.667 16 -141s-5.33301 -98.5 -16 -141.5s-27 -79.833 -49 -110.5s-49.833 -54.667 -83.5 -72s-73.167 -26 -118.5 -26z" />
    <glyph glyph-name="one" unicode="1" horiz-adv-x="347" 
d="M170 582l-147 -42v66l218 62v-681h-71v595z" />
    <glyph glyph-name="two" unicode="2" horiz-adv-x="570" 
d="M269 612c-35.333 0 -65.666 -4.99902 -90.999 -14.999s-53.666 -27.667 -84.999 -53l-41 61c36 27.333 71 47 105 59s71.667 18 113 18c30 0 58.167 -4 84.5 -12s49.5 -19.667 69.5 -35s36 -34.833 48 -58.5s18 -50.5 18 -80.5c0 -37.333 -8.5 -74.166 -25.5 -110.499
s-41.667 -73.333 -74 -111s-71.833 -76.334 -118.5 -116.001s-89.334 -73.834 -128.001 -102.501h365v-69h-482v64c65.333 48 122 92 170 132s88.167 77.833 120.5 113.5s56.666 69.5 72.999 101.5s24.5 63 24.5 93c0 21.333 -3.83301 39.333 -11.5 54s-18.167 27 -31.5 37
s-29 17.5 -47 22.5s-36.667 7.5 -56 7.5z" />
    <glyph glyph-name="three" unicode="3" horiz-adv-x="550" 
d="M234 -21c-41.333 0 -79.6689 5.99902 -115.002 17.999s-71 31.667 -107 59l41 61c31.333 -25.333 60.333 -43 87 -53s57.667 -15 93 -15c24.667 0 47.834 2.83301 69.501 8.5s40.5 14 56.5 25s28.5 24.333 37.5 40s13.5 34.167 13.5 55.5c0 24 -4.33301 44.167 -13 60.5
s-21 29.833 -37 40.5s-35.667 18.5 -59 23.5s-50 7.5 -80 7.5h-24v69h21c62.667 0 107.667 10.667 135 32s41 50.666 41 87.999c0 17.333 -3.66699 32.666 -11 45.999s-17.833 25 -31.5 35s-30 17.833 -49 23.5s-39.833 8.5 -62.5 8.5c-34.667 0 -64.667 -5 -90 -15
s-54 -27.667 -86 -53l-39 61c35.333 27.333 70 47 104 59s71.667 18 113 18c31.333 0 60.666 -4 87.999 -12s51.333 -19.667 72 -35s37.167 -34.166 49.5 -56.499s18.5 -47.166 18.5 -74.499c0 -22.667 -3.83301 -43.667 -11.5 -63s-17.667 -36.166 -30 -50.499
s-23.666 -24.5 -33.999 -30.5s-20.166 -10.333 -29.499 -13c12 -2 24 -6.16699 36 -12.5s24.833 -17 38.5 -32s24.667 -33 33 -54s12.5 -44.5 12.5 -70.5c0 -32 -6.83301 -60.667 -20.5 -86s-32 -46.333 -55 -63s-49.5 -29.167 -79.5 -37.5s-62 -12.5 -96 -12.5z" />
    <glyph glyph-name="four" unicode="4" horiz-adv-x="638" 
d="M395 165h-361v58l366 440h66v-430h130v-68h-130v-178h-71v178zM395 233v322l-266 -322h266z" />
    <glyph glyph-name="five" unicode="5" horiz-adv-x="597" 
d="M275 -21c-41.333 0 -80.334 6.00195 -117.001 18.002s-73.334 31.667 -110.001 59l41 61c30.667 -24.667 60.5 -42.167 89.5 -52.5s60.833 -15.5 95.5 -15.5c24 0 47.333 3.33301 70 10s42.5 16.5 59.5 29.5s30.667 28.833 41 47.5s15.5 40.667 15.5 66
c0 27.333 -4.5 51.166 -13.5 71.499s-21.167 37 -36.5 50s-34.166 22.833 -56.499 29.5s-46.5 10 -72.5 10c-26.667 0 -55.167 -3.5 -85.5 -10.5s-68.166 -20.167 -113.499 -39.5l44 350h381v-69h-323l-23 -180c35.333 12 77 18 125 18c33.333 0 65 -4.33301 95 -13
s56.5 -22.5 79.5 -41.5s41.167 -43 54.5 -72s20 -63.5 20 -103.5c0 -36 -7.33301 -68 -22 -96s-34.167 -51.333 -58.5 -70s-52 -32.834 -83 -42.501s-63.167 -14.5 -96.5 -14.5z" />
    <glyph glyph-name="six" unicode="6" horiz-adv-x="616" 
d="M307 -21c-34.667 0 -67.1631 6.33301 -97.4961 19s-56.833 29.834 -79.5 51.501s-40.667 47.5 -54 77.5s-20 62.667 -20 98c0 32 5.83301 62 17.5 90s31.167 61.333 58.5 100l179 248h87l-146 -203c6 3.33301 14 6 24 8s23 3 39 3c34 0 65.667 -6.33301 95 -19
s55.166 -30.167 77.499 -52.5s40 -48.333 53 -78s19.5 -61.834 19.5 -96.501c0 -32.667 -6.33301 -63.667 -19 -93s-30.334 -55.5 -53.001 -78.5s-49.334 -41.167 -80.001 -54.5s-64.334 -20 -101.001 -20zM308.004 49c25.333 0 48.6689 4.66699 70.002 14
s40 22.166 56 38.499s28.5 35.333 37.5 57s13.5 44.5 13.5 68.5c0 23.333 -4.5 45.833 -13.5 67.5s-21.333 40.334 -37 56.001s-34.334 28.167 -56.001 37.5s-45.167 14 -70.5 14s-48.833 -4.66699 -70.5 -14s-40.334 -21.833 -56.001 -37.5s-28 -34.334 -37 -56.001
s-13.5 -44.167 -13.5 -67.5c0 -24 4.33301 -46.833 13 -68.5s21 -40.667 37 -57s34.833 -29.166 56.5 -38.499s45.167 -14 70.5 -14z" />
    <glyph glyph-name="seven" unicode="7" horiz-adv-x="531" 
d="M418 594h-391v69h476v-59l-345 -617h-84z" />
    <glyph glyph-name="eight" unicode="8" horiz-adv-x="623" 
d="M311 682c32 0 61.9961 -4.16699 89.9961 -12.5s52.333 -20.333 73 -36s37 -34.667 49 -57s18 -46.5 18 -72.5c0 -40 -11.167 -74.833 -33.5 -104.5s-41.166 -46.834 -56.499 -51.501c16 -5.33301 27.333 -10.166 34 -14.499s16.834 -13.833 30.501 -28.5
s24.834 -32.334 33.501 -53.001s13 -45 13 -73c0 -32 -7 -60.667 -21 -86s-32.5 -46.5 -55.5 -63.5s-49.5 -29.667 -79.5 -38s-61.667 -12.5 -95 -12.5c-32.667 0 -64 4.16699 -94 12.5s-56.5 21 -79.5 38s-41.5 38.167 -55.5 63.5s-21 54 -21 86c0 28 4.33301 52.333 13 73
s19.667 38.334 33 53.001s23.333 24 30 28s21.334 10 44.001 18c-14.667 4.66699 -26.667 10.5 -36 17.5s-19.333 17.5 -30 31.5s-19 29.833 -25 47.5s-9 36.5 -9 56.5c0 26 6 50.167 18 72.5s28.5 41.333 49.5 57s45.333 27.667 73 36s57.5 12.5 89.5 12.5zM310.996 318
c-55.333 0 -98.333 -12 -129 -36s-46 -57.667 -46 -101c0 -21.333 4.33301 -40 13 -56s20.667 -29.667 36 -41s33.833 -20 55.5 -26s45.167 -9 70.5 -9s49 3 71 9s40.667 14.667 56 26s27.333 25 36 41s13 34.667 13 56c0 43.333 -15.5 77 -46.5 101s-74.167 36 -129.5 36z
M310.996 612c-22.667 0 -43.4971 -2.66699 -62.4971 -8s-35.333 -13 -49 -23s-24.334 -21.667 -32.001 -35s-11.5 -29 -11.5 -47c0 -15.333 3.16699 -30 9.5 -44s15.666 -26.167 27.999 -36.5s28.333 -18.833 48 -25.5s42.834 -10 69.501 -10s50 3.33301 70 10
s36.167 15.167 48.5 25.5s21.666 22.5 27.999 36.5s9.5 28.667 9.5 44c0 18 -3.83301 33.667 -11.5 47s-18.334 25 -32.001 35s-30.167 17.667 -49.5 23s-40.333 8 -63 8z" />
    <glyph glyph-name="nine" unicode="9" horiz-adv-x="616" 
d="M308 682c34.667 0 67.1641 -6.33301 97.4971 -19s57 -29.834 80 -51.501s41.167 -47.667 54.5 -78s20 -62.833 20 -97.5c0 -32 -6.16699 -61.833 -18.5 -89.5s-31.5 -60.834 -57.5 -99.501l-179 -260h-87l148 214c-8 -3.33301 -17 -6.16602 -27 -8.49902
s-23 -3.5 -39 -3.5c-34 0 -65.667 6.33301 -95 19s-55.166 30.167 -77.499 52.5s-39.833 48.5 -52.5 78.5s-19 62.333 -19 97c0 32.667 6.33301 63.667 19 93s30.334 55.333 53.001 78s49.334 40.834 80.001 54.501s64 20.5 100 20.5zM307.997 612
c-25.333 0 -48.834 -4.66699 -70.501 -14s-40.5 -22.166 -56.5 -38.499s-28.333 -35.333 -37 -57s-13 -44.5 -13 -68.5c0 -23.333 4.33301 -45.833 13 -67.5s20.834 -40.334 36.501 -56.001s34.5 -28.167 56.5 -37.5s45.667 -14 71 -14c24.667 0 48 4.66699 70 14
s40.833 21.833 56.5 37.5s28 34.334 37 56.001s13.5 44.167 13.5 67.5c0 24 -4.33301 46.833 -13 68.5s-21 40.667 -37 57s-34.833 29.166 -56.5 38.499s-45.167 14 -70.5 14z" />
    <glyph glyph-name="colon" unicode=":" horiz-adv-x="242" 
d="M121 -23c-14.667 0 -27.334 5.33301 -38.001 16s-16 23.334 -16 38.001s5.33301 27.334 16 38.001s23.334 16 38.001 16s27.334 -5.33301 38.001 -16s16 -23.334 16 -38.001s-5.33301 -27.334 -16 -38.001s-23.334 -16 -38.001 -16zM121 446
c-14.667 0 -27.334 5.33301 -38.001 16s-16 23.334 -16 38.001s5.33301 27.334 16 38.001s23.334 16 38.001 16s27.334 -5.33301 38.001 -16s16 -23.334 16 -38.001s-5.33301 -27.334 -16 -38.001s-23.334 -16 -38.001 -16z" />
    <glyph glyph-name="semicolon" unicode=";" horiz-adv-x="247" 
d="M111 87h79l-98 -266h-60zM145 446c-14.667 0 -27.334 5.33301 -38.001 16s-16 23.334 -16 38.001s5.33301 27.334 16 38.001s23.334 16 38.001 16s27.334 -5.33301 38.001 -16s16 -23.334 16 -38.001s-5.33301 -27.334 -16 -38.001s-23.334 -16 -38.001 -16z" />
    <glyph glyph-name="less" unicode="&#x3c;" horiz-adv-x="667" 
d="M635 556v-76l-506 -219l506 -216v-78l-603 265v59z" />
    <glyph glyph-name="equal" unicode="=" horiz-adv-x="595" 
d="M32 412h531v-69h-531v69zM32 192h531v-69h-531v69z" />
    <glyph glyph-name="greater" unicode="&#x3e;" horiz-adv-x="667" 
d="M635 291v-59l-603 -265v78l506 216l-506 219v76z" />
    <glyph glyph-name="question" unicode="?" horiz-adv-x="551" 
d="M216 -23c-16.667 0 -30.667 5.66699 -42 17s-17 25.333 -17 42s5.66699 30.667 17 42s25.333 17 42 17s30.667 -5.66699 42 -17s17 -25.333 17 -42s-5.66699 -30.667 -17 -42s-25.333 -17 -42 -17zM232 835c39.333 0 75.499 -6.33301 108.499 -19s61.333 -29.667 85 -51
s41.834 -46.666 54.501 -75.999s19 -61 19 -95c0 -40 -7.16699 -75.167 -21.5 -105.5s-33.333 -56 -57 -77s-50.834 -37.833 -81.501 -50.5s-58.334 -20.334 -83.001 -23.001v-188h-74v254h19c26.667 0 53.334 4.33301 80.001 13s50.5 21.167 71.5 37.5s38 36.333 51 60
s19.5 51.167 19.5 82.5c0 24.667 -5 47.334 -15 68.001s-23.5 38.5 -40.5 53.5s-37 26.5 -60 34.5s-48.167 12 -75.5 12c-34 0 -64.5 -4.33301 -91.5 -13s-58.5 -23.334 -94.5 -44.001l3 80c34.667 18 65.334 30.333 92.001 37s57 10 91 10z" />
    <glyph glyph-name="at" unicode="@" horiz-adv-x="980" 
d="M731 166c-21.333 0 -40.168 3.8291 -56.501 11.4961s-30.333 18.167 -42 31.5s-19.5 25.333 -23.5 36s-6 17.334 -6 20.001c-6.66699 -13.333 -27.167 -31.666 -61.5 -54.999s-74.833 -35 -121.5 -35c-23.333 0 -45.5 4 -66.5 12s-39 20.333 -54 37
s-26.833 37.334 -35.5 62.001s-13 53.667 -13 87c0 37.333 6.16699 73.166 18.5 107.499s29.333 64.333 51 90s47.5 46.334 77.5 62.001s63 23.5 99 23.5c22.667 0 42.834 -3.5 60.501 -10.5s32.667 -16 45 -27s20.333 -19.5 24 -25.5s5.16699 -8 4.5 -6l7 47h69l-44 -281
c-2.66699 -16.667 -3.33398 -32.5 -2.00098 -47.5s4.83301 -28 10.5 -39s13.334 -19.5 23.001 -25.5s21.834 -9 36.501 -9c16 0 31.5 4.66699 46.5 14s28.333 23.5 40 42.5s20.834 42.667 27.501 71s10 60.5 10 96.5c0 52 -8.66699 97.167 -26 135.5s-41 70.166 -71 95.499
s-66.167 44.5 -108.5 57.5s-88.5 19.5 -138.5 19.5c-58 0 -110.833 -9.83301 -158.5 -29.5s-88.334 -46.5 -122.001 -80.5s-59.667 -73.833 -78 -119.5s-27.5 -94.5 -27.5 -146.5c0 -51.333 8 -98.5 24 -141.5s39 -80 69 -111s66.5 -55.167 109.5 -72.5
s91.167 -26 144.5 -26c37.333 0 75.666 3.83301 114.999 11.5s80 19.834 122 36.501l26 -63c-45.333 -19.333 -90.5 -33.166 -135.5 -41.499s-87.5 -12.5 -127.5 -12.5c-64 0 -121.667 10.5 -173 31.5s-95.333 50.333 -132 88s-65 82.167 -85 133.5s-30 107.333 -30 168
c0 62 11.333 119.667 34 173s54.5 100.166 95.5 140.499s89.5 72 145.5 95s117.667 34.5 185 34.5c60 0 115.333 -8.16699 166 -24.5s94.667 -40.5 132 -72.5s66.333 -71.167 87 -117.5s31 -99.166 31 -158.499c0 -46.667 -5.33301 -88 -16 -124s-25 -66.5 -43 -91.5
s-39 -44.167 -63 -57.5s-49 -20 -75 -20zM494.998 586.996c-24 0 -46.168 -5.49805 -66.501 -16.498s-38.166 -26.167 -53.499 -45.5s-27.5 -42 -36.5 -68s-13.5 -53.667 -13.5 -83c0 -46.667 9.83301 -80.334 29.5 -101.001s45.167 -31 76.5 -31
c25.333 0 48.333 5.83301 69 17.5s38.5 27.667 53.5 48s26.833 43.666 35.5 69.999s13 53.833 13 82.5c0 84.667 -35.667 127 -107 127z" />
    <glyph glyph-name="A" unicode="A" horiz-adv-x="762" 
d="M751 -13h-80l-106 264h-368l-106 -264h-80l336 837h68zM226 324h310l-155 384z" />
    <glyph glyph-name="B" unicode="B" horiz-adv-x="757" 
d="M654 615c0 -19.333 -2.5 -38.499 -7.5 -57.499s-13 -37.333 -24 -55s-25.333 -33.667 -43 -48s-25.5 -21.166 -23.5 -20.499c5.33301 -1.33301 19.833 -9.66602 43.5 -24.999s43 -33.333 58 -54s25.833 -42.667 32.5 -66s10 -46.333 10 -69
c0 -41.333 -7.83301 -76.833 -23.5 -106.5s-36.667 -53.834 -63 -72.501s-56.833 -32.334 -91.5 -41.001s-71.667 -13 -111 -13h-294v837h248c50 0 93.167 -5.33301 129.5 -16s66.5 -25.5 90.5 -44.5s41.5 -41.333 52.5 -67s16.5 -52.834 16.5 -81.501zM624 218.001
c0 34 -6.16699 61.833 -18.5 83.5s-28.833 39 -49.5 52s-45 22 -73 27s-57.667 7.5 -89 7.5h-203v-330h217c74 0 128.5 14.667 163.5 44s52.5 68 52.5 116zM576 611.001c0 16.667 -4 33.5 -12 50.5s-20 32.167 -36 45.5s-37 24.333 -63 33s-56.667 13 -92 13h-182v-294h182
c68 0 118.833 13.167 152.5 39.5s50.5 63.833 50.5 112.5z" />
    <glyph glyph-name="C" unicode="C" horiz-adv-x="785" 
d="M470 765c-46.667 0 -90.834 -8 -132.501 -24s-78.334 -39.333 -110.001 -70s-56.834 -68.167 -75.501 -112.5s-28 -95.166 -28 -152.499s9.33301 -108.166 28 -152.499s43.834 -81.833 75.501 -112.5s68.334 -54 110.001 -70s85.834 -24 132.501 -24
c46 0 88.667 5.5 128 16.5s78 27.833 116 50.5l33 -63c-42.667 -26 -86.667 -44.833 -132 -56.5s-93.666 -17.5 -144.999 -17.5c-65.333 0 -124.166 11.167 -176.499 33.5s-96.666 52.833 -132.999 91.5s-64.333 84.167 -84 136.5s-29.5 108.166 -29.5 167.499
s9.83301 115.166 29.5 167.499s47.667 97.833 84 136.5s80.666 69.167 132.999 91.5s111.166 33.5 176.499 33.5c51.333 0 99.666 -5.83301 144.999 -17.5s89.333 -30.5 132 -56.5l-33 -63c-38 22.667 -76.667 39.5 -116 50.5s-82 16.5 -128 16.5z" />
    <glyph glyph-name="D" unicode="D" horiz-adv-x="823" 
d="M305 58c64 0 120.5 8.16797 169.5 24.501s90 39.666 123 69.999s58.167 66.833 75.5 109.5s26 90.667 26 144s-9.66699 101.333 -29 144s-46.333 79 -81 109s-76.167 53.167 -124.5 69.5s-101.5 24.5 -159.5 24.5h-114v-695h114zM117 824.001h189
c67.333 0 129.5 -8.83301 186.5 -26.5s106.667 -44.334 149 -80.001s75.333 -79.5 99 -131.5s35.5 -112 35.5 -180s-11.833 -128.167 -35.5 -180.5s-56.667 -96.166 -99 -131.499s-92 -62 -149 -80s-119.167 -27 -186.5 -27h-189v837z" />
    <glyph glyph-name="E" unicode="E" horiz-adv-x="667" 
d="M117 824h488v-71h-414v-294h375v-73h-375v-328h419v-71h-493v837z" />
    <glyph glyph-name="F" unicode="F" horiz-adv-x="614" 
d="M117 -13v837h480v-71h-406v-294h364v-73h-364v-399h-74z" />
    <glyph glyph-name="G" unicode="G" horiz-adv-x="877" 
d="M470 -23c-65.333 0 -124.165 11.167 -176.498 33.5s-96.666 52.833 -132.999 91.5s-64.333 84.167 -84 136.5s-29.5 108.166 -29.5 167.499s9.83301 115.166 29.5 167.499s47.667 97.833 84 136.5s80.666 69.167 132.999 91.5s111.166 33.5 176.499 33.5
c51.333 0 99.666 -5.83301 144.999 -17.5s89.333 -30.5 132 -56.5l-33 -63c-38 22.667 -76.667 39.5 -116 50.5s-82 16.5 -128 16.5c-46.667 0 -90.834 -8 -132.501 -24s-78.334 -39.333 -110.001 -70s-56.834 -68.167 -75.501 -112.5s-28 -95.166 -28 -152.499
s9.33301 -108.166 28 -152.499s43.834 -81.833 75.501 -112.5s68.334 -54 110.001 -70s85.834 -24 132.501 -24c38.667 0 77.667 4.5 117 13.5s72.333 19.833 99 32.5v228h-242v73h316v-343c-40 -24.667 -85.167 -43.167 -135.5 -55.5s-101.833 -18.5 -154.5 -18.5z" />
    <glyph glyph-name="H" unicode="H" horiz-adv-x="868" 
d="M117 -13v837h74v-365h486v365h74v-837h-74v399h-486v-399h-74z" />
    <glyph glyph-name="I" unicode="I" horiz-adv-x="308" 
d="M117 -13v837h74v-837h-74z" />
    <glyph glyph-name="J" unicode="J" horiz-adv-x="405" 
d="M-5 83c22.667 -12.667 43.498 -21.8311 62.498 -27.498s40.167 -8.5 63.5 -8.5c30.667 0 55.5 9.16699 74.5 27.5s28.5 49.166 28.5 92.499v657h74v-649c0 -36.667 -4.66699 -67.667 -14 -93s-22.166 -46 -38.499 -62s-35.166 -27.167 -56.499 -33.5s-44 -9.5 -68 -9.5
c-29.333 0 -56 3.16699 -80 9.5s-50 16.166 -78 29.499z" />
    <glyph glyph-name="K" unicode="K" horiz-adv-x="708" 
d="M117 -13v837h74v-386l381 386h100l-409 -418l448 -419h-106l-414 385v-385h-74z" />
    <glyph glyph-name="L" unicode="L" horiz-adv-x="623" 
d="M192 58h414v-71h-489v837h75v-766z" />
    <glyph glyph-name="M" unicode="M" horiz-adv-x="1050" 
d="M491 -13l-300 715v-715h-74v837h103l305 -735l305 735h103v-837h-74v715l-300 -715h-68z" />
    <glyph glyph-name="N" unicode="N" horiz-adv-x="863" 
d="M192 722v-735h-75v837h98l456 -735v735h75v-837h-98z" />
    <glyph glyph-name="O" unicode="O" horiz-adv-x="942" 
d="M47 406c0 62 10.833 119.167 32.5 171.5s51.5 97.666 89.5 135.999s82.833 68.166 134.5 89.499s107.5 32 167.5 32s115.833 -10.667 167.5 -32s96.5 -51.166 134.5 -89.499s67.833 -83.666 89.5 -135.999s32.5 -109.5 32.5 -171.5s-10.833 -119.167 -32.5 -171.5
s-51.5 -97.666 -89.5 -135.999s-82.833 -68.166 -134.5 -89.499s-107.5 -32 -167.5 -32s-115.833 10.667 -167.5 32s-96.5 51.166 -134.5 89.499s-67.833 83.666 -89.5 135.999s-32.5 109.5 -32.5 171.5zM124 406c0 -55.333 9.33301 -105.327 28 -149.994
s43.834 -82.334 75.501 -113.001s68.5 -54.334 110.5 -71.001s86.167 -25 132.5 -25s90.5 8.33301 132.5 25s78.833 40.5 110.5 71.5s57 68.667 76 113s28.5 94.166 28.5 149.499s-9.5 105.166 -28.5 149.499s-44.333 82 -76 113s-68.5 54.833 -110.5 71.5
s-86.167 25 -132.5 25s-90.5 -8.33301 -132.5 -25s-78.833 -40.334 -110.5 -71.001s-56.834 -68.334 -75.501 -113.001s-28 -94.667 -28 -150z" />
    <glyph glyph-name="P" unicode="P" horiz-adv-x="695" 
d="M191 336v-348.999h-74v837h269c50 0 93.5 -6.33301 130.5 -19s67.5 -29.834 91.5 -51.501s41.667 -47 53 -76s17 -59.5 17 -91.5c0 -32.667 -5.66699 -64 -17 -94s-29 -56.667 -53 -80s-54.5 -41.833 -91.5 -55.5s-80.5 -20.5 -130.5 -20.5h-195zM191 753.001v-346h182
c72 0 128 14.333 168 43s60 74 60 136c0 25.333 -4 48 -12 68s-20.833 37.333 -38.5 52s-41.167 26.167 -70.5 34.5s-65 12.5 -107 12.5h-182z" />
    <glyph glyph-name="Q" unicode="Q" horiz-adv-x="942" 
d="M47 406c0 62 10.833 119.171 32.5 171.504s51.5 97.666 89.5 135.999s82.833 68.166 134.5 89.499s107.5 32 167.5 32s115.833 -10.667 167.5 -32s96.5 -51.166 134.5 -89.499s67.833 -83.666 89.5 -135.999s32.5 -109.5 32.5 -171.5
c0 -70.667 -14 -134.834 -42 -192.501s-62 -102.834 -102 -135.501l146 -152l-51 -52l-155 161c-27.333 -16.667 -60 -30.5 -98 -41.5s-78.667 -16.5 -122 -16.5c-60 0 -115.833 10.667 -167.5 32s-96.5 51.166 -134.5 89.499s-67.833 83.666 -89.5 135.999
s-32.5 109.5 -32.5 171.5zM124 406.004c0 -55.333 9.33301 -105.329 28 -149.996s43.834 -82.334 75.501 -113.001s68.5 -54.334 110.5 -71.001s86.333 -25 133 -25c66 0 122 14 168 42l-100 104l55 48l106 -110c32.667 25.333 60.5 61.833 83.5 109.5
s34.5 102.834 34.5 165.501c0 55.333 -9.5 105.166 -28.5 149.499s-44.333 82 -76 113s-68.5 54.833 -110.5 71.5s-86.167 25 -132.5 25s-90.5 -8.33301 -132.5 -25s-78.833 -40.334 -110.5 -71.001s-56.834 -68.334 -75.501 -113.001s-28 -94.667 -28 -150z" />
    <glyph glyph-name="R" unicode="R" horiz-adv-x="749" 
d="M191 351v-364.002h-74v837h269c52 0 96.5 -6.16699 133.5 -18.5s67.167 -29 90.5 -50s40.333 -45.833 51 -74.5s16 -58.667 16 -90c0 -23.333 -2.83301 -47 -8.5 -71s-16.5 -46.667 -32.5 -68s-37.667 -40.166 -65 -56.499s-56.333 -27.166 -87 -32.499l239 -376h-87
l-233 364h-15h-25h-172zM191 752.998l-0.000976562 -331h181c36.667 0 69.334 3 98.001 9s52.5 15.833 71.5 29.5s33.5 31.167 43.5 52.5s15 47.666 15 78.999c0 24.667 -4 47 -12 67s-20.833 36.833 -38.5 50.5s-41.167 24.334 -70.5 32.001s-65 11.5 -107 11.5h-181z" />
    <glyph glyph-name="S" unicode="S" horiz-adv-x="693" 
d="M91 121c38 -23.333 76.835 -41.501 116.502 -54.501s81.5 -19.5 125.5 -19.5c68 0 121.167 13.833 159.5 41.5s57.5 67.5 57.5 119.5c0 24 -4.33301 45 -13 63s-21.334 34 -38.001 48s-37.167 26.333 -61.5 37s-51.5 20.667 -81.5 30l-60 18
c-73.333 22 -127.5 52.167 -162.5 90.5s-52.5 84.166 -52.5 137.499c0 35.333 7.5 65.833 22.5 91.5s34.833 46.834 59.5 63.501s52.167 28.834 82.5 36.501s61.5 11.5 93.5 11.5c51.333 0 99.833 -6.66699 145.5 -20s90.167 -33.333 133.5 -60l-38 -63
c-38 24 -76.833 42.167 -116.5 54.5s-81.834 18.5 -126.501 18.5c-24.667 0 -48.167 -2.66699 -70.5 -8s-41.333 -13.166 -57 -23.499s-28.167 -23.5 -37.5 -39.5s-14 -34.667 -14 -56c0 -42 13.5 -75.5 40.5 -100.5s67.833 -46.167 122.5 -63.5l66 -20
c28.667 -8.66699 57.167 -19.334 85.5 -32.001s53.833 -28.5 76.5 -47.5s41.167 -41.667 55.5 -68s21.5 -57.166 21.5 -92.499c0 -76.667 -25.667 -135.334 -77 -176.001s-123.333 -61 -216 -61c-50 0 -98.5 6.66699 -145.5 20s-92.167 33.333 -135.5 60z" />
    <glyph glyph-name="T" unicode="T" horiz-adv-x="702" 
d="M314 753h-297v71h668v-71h-297v-766h-74v766z" />
    <glyph glyph-name="U" unicode="U" horiz-adv-x="899" 
d="M450 -23c-64.667 0 -118.834 9 -162.501 27s-79 42.5 -106 73.5s-46.167 66.833 -57.5 107.5s-17 83.334 -17 128.001v511h73v-500c0 -92.667 21.333 -162 64 -208s111.334 -69 206.001 -69c94 0 162.333 22.833 205 68.5s64 115.167 64 208.5v500h73v-511
c0 -44.667 -5.66699 -87.334 -17 -128.001s-30.333 -76.5 -57 -107.5s-62 -55.5 -106 -73.5s-98 -27 -162 -27z" />
    <glyph glyph-name="V" unicode="V" horiz-adv-x="762" 
d="M21 824h80l280 -720l280 720h80l-326 -837h-68z" />
    <glyph glyph-name="W" unicode="W" horiz-adv-x="1046" 
d="M747 146l202 678h80l-253 -837h-62l-191 705l-191 -705h-62l-253 837h80l202 -678l183 678h82z" />
    <glyph glyph-name="X" unicode="X" horiz-adv-x="759" 
d="M422 423l323 -436h-91l-277 374l-273 -374h-90l318 435l-297 402h91l251 -341l249 341h90z" />
    <glyph glyph-name="Y" unicode="Y" horiz-adv-x="718" 
d="M616 824h85l-305 -497v-340h-74v340l-305 497h85l257 -416z" />
    <glyph glyph-name="Z" unicode="Z" horiz-adv-x="713" 
d="M87 824h567v-64l-520 -702h532v-71h-629v63l521 703h-471v71z" />
    <glyph glyph-name="bracketleft" unicode="[" horiz-adv-x="293" 
d="M97 824h189v-69h-118v-919h118v-69h-189v1057z" />
    <glyph glyph-name="backslash" unicode="\" horiz-adv-x="527" 
d="M502 -163l-554 987h74l557 -987h-77z" />
    <glyph glyph-name="bracketright" unicode="]" horiz-adv-x="293" 
d="M196 -233h-189v69h118v919h-118v69h189v-1057z" />
    <glyph glyph-name="asciicircum" unicode="^" horiz-adv-x="537" 
d="M549 358h-80l-201 372l-201 -372h-79l249 466h63z" />
    <glyph glyph-name="underscore" unicode="_" horiz-adv-x="590" 
d="M32 13h526v-69h-526v69z" />
    <glyph glyph-name="grave" unicode="`" horiz-adv-x="212" 
d="M-22 824h104l149 -170h-78z" />
    <glyph glyph-name="a" unicode="a" horiz-adv-x="602" 
d="M300 -23c-32 0 -62.8311 2.99902 -92.498 8.99902s-56 15.667 -79 29s-41.667 31.333 -56 54s-21.5 50.334 -21.5 83.001c0 66 25.667 113.333 77 142s119.333 43 204 43c16 0 34.833 -1 56.5 -3s40.167 -4 55.5 -6v6c0 54 -12.667 92.5 -38 115.5
s-64.333 34.5 -117 34.5c-14.667 0 -29.834 -1.33301 -45.501 -4s-31.334 -6 -47.001 -10s-30.5 -9 -44.5 -15s-33.667 -16 -59 -30l3 80c35.333 18 70 30.667 104 38s65.333 11 94 11c74 0 129.333 -16.833 166 -50.5s55 -87.167 55 -160.5v-325
c-34 -14 -69 -24.333 -105 -31s-72.667 -10 -110 -10zM444.002 255.999c-9.33301 2 -26.5 4.3291 -51.5 6.99609s-48.5 4 -70.5 4c-25.333 0 -49.833 -1.66699 -73.5 -5s-44.667 -9 -63 -17s-32.666 -19.167 -42.999 -33.5s-15.5 -33.5 -15.5 -57.5
c0 -21.333 4.33301 -38.666 13 -51.999s20.334 -24.166 35.001 -32.499s32.5 -14.166 53.5 -17.499s43.167 -5 66.5 -5c27.333 0 54.666 2.33301 81.999 7s49.666 10.334 66.999 17.001v185z" />
    <glyph glyph-name="b" unicode="b" horiz-adv-x="631" 
d="M168 61c16.667 -3.33301 35.166 -6.49805 55.499 -9.49805s39.5 -4.5 57.5 -4.5c82.667 0 143.667 19.167 183 57.5s59 91.166 59 158.499c0 34 -4.83301 64.5 -14.5 91.5s-24.5 50.167 -44.5 69.5s-45.167 34.166 -75.5 44.499s-66.166 15.5 -107.499 15.5
c-14.667 0 -32 -1 -52 -3s-40.333 -5.66699 -61 -11v-409zM167.999 543.002c43.333 7.33301 80.334 10.999 111.001 10.999c53.333 0 100.166 -7.66699 140.499 -23s73.833 -36.333 100.5 -63s46.5 -57.667 59.5 -93s19.5 -72.666 19.5 -111.999s-6.5 -76.5 -19.5 -111.5
s-32.833 -65.333 -59.5 -91s-60.167 -46 -100.5 -61s-87.166 -22.5 -140.499 -22.5c-25.333 0 -53.833 2.33301 -85.5 7s-63.834 11.667 -96.501 21v819h71v-281z" />
    <glyph glyph-name="c" unicode="c" horiz-adv-x="532" 
d="M32 265c0 42 7.33301 80.499 22 115.499s34.667 65.5 60 91.5s54.833 46.167 88.5 60.5s70.167 21.5 109.5 21.5c40.667 0 76.334 -4.16699 107.001 -12.5s62.334 -21.5 95.001 -39.5l-33 -65c-28.667 17.333 -55.5 29.5 -80.5 36.5s-54.5 10.5 -88.5 10.5
c-30 0 -57.5 -5.66699 -82.5 -17s-46.5 -26.666 -64.5 -45.999s-32 -42.333 -42 -69s-15 -55.667 -15 -87s5 -60.333 15 -87s24 -49.667 42 -69s39.5 -34.5 64.5 -45.5s52.5 -16.5 82.5 -16.5c34 0 63.5 3.5 88.5 10.5s51.833 19.167 80.5 36.5l33 -65
c-32.667 -18 -64.334 -31.167 -95.001 -39.5s-66.334 -12.5 -107.001 -12.5c-39.333 0 -75.833 7.16699 -109.5 21.5s-63.167 34.333 -88.5 60s-45.333 56 -60 91s-22 73.5 -22 115.5z" />
    <glyph glyph-name="d" unicode="d" horiz-adv-x="631" 
d="M108 263c0 -67.333 19.667 -120.168 59 -158.501s100.333 -57.5 183 -57.5c18 0 37.167 1.5 57.5 4.5s38.833 6.16699 55.5 9.5v409c-20.667 5.33301 -41 9 -61 11s-37.333 3 -52 3c-42 0 -78 -5.16699 -108 -15.5s-55 -25.166 -75 -44.499s-34.833 -42.5 -44.5 -69.5
s-14.5 -57.5 -14.5 -91.5zM463 823.998l71.001 0.000976562v-819c-32.667 -9.33301 -64.834 -16.333 -96.501 -21s-60.167 -7 -85.5 -7c-53.333 0 -100.166 7.5 -140.499 22.5s-73.833 35.333 -100.5 61s-46.5 56 -59.5 91s-19.5 72.167 -19.5 111.5
s6.5 76.666 19.5 111.999s32.833 66.333 59.5 93s60.167 47.667 100.5 63s87.166 23 140.499 23c30.667 0 67.667 -3.66699 111 -11v281z" />
    <glyph glyph-name="e" unicode="e" horiz-adv-x="614" 
d="M314 47c42 0 78.1641 4.66699 108.497 14s60.5 23 90.5 41l34 -65c-34.667 -20 -69.5 -35 -104.5 -45s-77.833 -15 -128.5 -15c-40.667 0 -78 7.33301 -112 22s-63.667 34.834 -89 60.501s-45.166 56 -59.499 91s-21.5 73.167 -21.5 114.5
c0 42.667 7.33301 81.5 22 116.5s34.834 65.333 60.501 91s55.5 45.667 89.5 60s70.667 21.5 110 21.5c40 0 76.333 -6.83301 109 -20.5s60.834 -33.334 84.501 -59.001s42.167 -56.667 55.5 -93s20.333 -81.166 21 -134.499h-476c0.666992 -22 6 -46.167 16 -72.5
s24.167 -48.833 42.5 -67.5s40 -33.334 65 -44.001s52.5 -16 82.5 -16zM313.997 484c-29.333 0 -55.8311 -4.66895 -79.498 -14.002s-43.834 -22.166 -60.501 -38.499s-30.334 -35.666 -41.001 -57.999s-17.334 -41.5 -20.001 -57.5h390
c-2 18.667 -8.16699 39.167 -18.5 61.5s-23.666 41.5 -39.999 57.5s-35.5 28.167 -57.5 36.5s-46.333 12.5 -73 12.5z" />
    <glyph glyph-name="f" unicode="f" horiz-adv-x="430" 
d="M17 543l117.999 -0.00195312v86c0 70 18.167 120 54.5 150s85.833 45 148.5 45h105v-69h-112c-24 0 -44 -2.33301 -60 -7s-28.667 -12.167 -38 -22.5s-16.166 -24.666 -20.499 -42.999s-6.5 -42.166 -6.5 -71.499v-68h230v-69h-230v-487h-71v487h-118v69z" />
    <glyph glyph-name="g" unicode="g" horiz-adv-x="631" 
d="M463 470c-16.667 3.33301 -35.167 6.49805 -55.5 9.49805s-39.5 4.5 -57.5 4.5c-82.667 0 -143.667 -19.167 -183 -57.5s-59 -91.166 -59 -158.499c0 -34 4.83301 -64.5 14.5 -91.5s24.5 -50.167 44.5 -69.5s45 -34.166 75 -44.499s66 -15.5 108 -15.5
c14.667 0 32 1 52 3s40.333 5.66699 61 11v409zM32 267.998c0 39.333 6.49805 76.502 19.498 111.502s32.833 65.333 59.5 91s60.167 46 100.5 61s87.166 22.5 140.499 22.5c25.333 0 53.833 -2.33301 85.5 -7s63.834 -11.667 96.501 -21v-554
c0 -73.333 -21.667 -126.833 -65 -160.5s-101.333 -50.5 -174 -50.5c-15.333 0 -31.166 0.833008 -47.499 2.5s-32.666 4.16699 -48.999 7.5s-32.333 7.5 -48 12.5s-31.834 11.5 -48.501 19.5l-13 88c27.333 -14.667 48.166 -25 62.499 -31s29.5 -11 45.5 -15
s31.833 -7.33301 47.5 -10s30.834 -4 45.501 -4c53.333 0 95.5 11.667 126.5 35s46.5 61.666 46.5 114.999v7c-43.333 -7.33301 -80.333 -11 -111 -11c-53.333 0 -100.166 7.66699 -140.499 23s-73.833 36.333 -100.5 63s-46.5 57.667 -59.5 93s-19.5 72.666 -19.5 111.999z
" />
    <glyph glyph-name="h" unicode="h" horiz-adv-x="647" 
d="M168 540c20 3.33301 44.835 6.49902 74.502 9.49902s57.5 4.5 83.5 4.5c34 0 65.5 -3.33301 94.5 -10s54 -19 75 -37s37 -42.167 48 -72.5s16.5 -68.5 16.5 -114.5v-333h-71v303c0 40.667 -3.83301 73.5 -11.5 98.5s-18.334 44.333 -32.001 58
s-30.834 23.334 -51.501 29.001s-44.667 8.5 -72 8.5c-48 0 -99.333 -5.33301 -154 -16v-481h-71v837h71v-284z" />
    <glyph glyph-name="i" unicode="i" horiz-adv-x="265" 
d="M97 543h71v-556h-71v556zM133 774c14.667 0 27.334 -5.33301 38.001 -16s16 -23.334 16 -38.001s-5.33301 -27.334 -16 -38.001s-23.334 -16 -38.001 -16s-27.334 5.33301 -38.001 16s-16 23.334 -16 38.001s5.33301 27.334 16 38.001s23.334 16 38.001 16z" />
    <glyph glyph-name="j" unicode="j" horiz-adv-x="269" 
d="M26 -240c-8 0 -15.833 0.330078 -23.5 0.99707s-18.167 2.33398 -31.5 5.00098l-15 72c18 -4.66699 32.167 -7.66699 42.5 -9s17.833 -2 22.5 -2c18.667 0 33.167 2.33301 43.5 7s18.166 12.334 23.499 23.001s9 25.5 11 44.5s3 42.167 3 69.5v572h71v-572
c0 -31.333 -2 -59.666 -6 -84.999s-11.5 -47.5 -22.5 -66.5s-26.167 -33.667 -45.5 -44s-43.666 -15.5 -72.999 -15.5zM134 773.997c14.667 0 27.334 -5.33301 38.001 -16s16 -23.334 16 -38.001s-5.33301 -27.334 -16 -38.001s-23.334 -16 -38.001 -16
s-27.334 5.33301 -38.001 16s-16 23.334 -16 38.001s5.33301 27.334 16 38.001s23.334 16 38.001 16z" />
    <glyph glyph-name="k" unicode="k" horiz-adv-x="535" 
d="M97 -13v837h71v-529l265 248h102l-298 -275l323 -281h-107l-285 248v-248h-71z" />
    <glyph glyph-name="l" unicode="l" horiz-adv-x="265" 
d="M97 -13v837h71v-837h-71z" />
    <glyph glyph-name="m" unicode="m" horiz-adv-x="965" 
d="M807 292c0 40.667 -3.33496 73.499 -10.002 98.499s-16.167 44.167 -28.5 57.5s-28.5 22.666 -48.5 27.999s-43.667 8 -71 8c-10.667 0 -22.667 -0.833008 -36 -2.5s-26.833 -4.16699 -40.5 -7.5s-27.5 -7.5 -41.5 -12.5s-23 -8.5 -27 -10.5
c4.66699 -10.667 9.5 -27.5 14.5 -50.5s7.5 -49.833 7.5 -80.5v-333h-71v305c0 40.667 -3.33301 73.334 -10 98.001s-16.5 43.834 -29.5 57.501s-29.5 23.167 -49.5 28.5s-44 8 -72 8c-24 0 -45.833 -1.66699 -65.5 -5s-39.834 -7.33301 -60.501 -12v-480h-71v538l114 21
c29.333 5.33301 58.666 8 87.999 8c34.667 0 65.834 -3.33301 93.501 -10s49.5 -17.667 65.5 -33c26 12 57.333 22.167 94 30.5s70.334 12.5 101.001 12.5c34.667 0 65.834 -3.33301 93.501 -10s51.334 -19.167 71.001 -37.5s34.667 -42.5 45 -72.5s15.5 -68 15.5 -114v-333
h-71v305z" />
    <glyph glyph-name="n" unicode="n" horiz-adv-x="647" 
d="M97 528c45.333 8.66699 86.6689 15.166 124.002 19.499s72.333 6.5 105 6.5c34 0 65.5 -3.33301 94.5 -10s54 -19 75 -37s37 -42.167 48 -72.5s16.5 -68.5 16.5 -114.5v-333h-71v303c0 40.667 -3.83301 73.5 -11.5 98.5s-18.334 44.333 -32.001 58
s-30.834 23.334 -51.501 29.001s-44.667 8.5 -72 8.5c-48 0 -99.333 -5.33301 -154 -16v-481h-71v541z" />
    <glyph glyph-name="o" unicode="o" horiz-adv-x="628" 
d="M314 -23c-40 0 -77.167 7.5 -111.5 22.5s-64.166 35.667 -89.499 62s-45.166 56.833 -59.499 91.5s-21.5 72 -21.5 112s7.16699 77.333 21.5 112s34.166 65.167 59.499 91.5s55.166 47.166 89.499 62.499s71.5 23 111.5 23s77.167 -7.66699 111.5 -23
s64.166 -36.166 89.499 -62.499s45.166 -56.833 59.499 -91.5s21.5 -72 21.5 -112s-7.16699 -77.333 -21.5 -112s-34.166 -65.167 -59.499 -91.5s-55.166 -47 -89.499 -62s-71.5 -22.5 -111.5 -22.5zM314 47c30.667 0 58.667 5.83301 84 17.5s47 27.334 65 47.001
s32 42.667 42 69s15 54.5 15 84.5s-5 58.333 -15 85s-24 49.834 -42 69.501s-39.667 35.334 -65 47.001s-53.333 17.5 -84 17.5s-58.667 -5.83301 -84 -17.5s-47 -27.334 -65 -47.001s-32 -42.834 -42 -69.501s-15 -55 -15 -85s5 -58.167 15 -84.5s24 -49.333 42 -69
s39.667 -35.334 65 -47.001s53.333 -17.5 84 -17.5z" />
    <glyph glyph-name="p" unicode="p" horiz-adv-x="631" 
d="M168 61c20.667 -5.33301 41.001 -8.99805 61.001 -10.998s37.333 -3 52 -3c41.333 0 77.166 5.16699 107.499 15.5s55.5 25.166 75.5 44.499s34.833 42.5 44.5 69.5s14.5 57.5 14.5 91.5c0 67.333 -19.667 120.166 -59 158.499s-100.333 57.5 -183 57.5
c-18 0 -37.167 -1.5 -57.5 -4.5s-38.833 -6.16699 -55.5 -9.5v-409zM168.001 -232.998l-71.001 -0.000976562v759c32.667 9.33301 64.834 16.333 96.501 21s60.167 7 85.5 7c53.333 0 100.166 -7.5 140.499 -22.5s73.833 -35.333 100.5 -61s46.5 -56 59.5 -91
s19.5 -72.167 19.5 -111.5s-6.5 -76.666 -19.5 -111.999s-32.833 -66.333 -59.5 -93s-60.167 -47.667 -100.5 -63s-87.166 -23 -140.499 -23c-30.667 0 -67.667 3.66699 -111 11v-221z" />
    <glyph glyph-name="q" unicode="q" horiz-adv-x="631" 
d="M108 268c0 -34 4.83301 -64.502 14.5 -91.502s24.5 -50.167 44.5 -69.5s45 -34.166 75 -44.499s66 -15.5 108 -15.5c14.667 0 32 1 52 3s40.333 5.66699 61 11v409c-16.667 3.33301 -35.167 6.5 -55.5 9.5s-39.5 4.5 -57.5 4.5c-82.667 0 -143.667 -19.167 -183 -57.5
s-59 -91.166 -59 -158.499zM463 -12.002c-43.333 -7.33301 -80.334 -10.999 -111.001 -10.999c-53.333 0 -100.166 7.66699 -140.499 23s-73.833 36.333 -100.5 63s-46.5 57.667 -59.5 93s-19.5 72.666 -19.5 111.999s6.5 76.5 19.5 111.5s32.833 65.333 59.5 91
s60.167 46 100.5 61s87.166 22.5 140.499 22.5c25.333 0 53.833 -2.33301 85.5 -7s63.834 -11.667 96.501 -21v-759h-71v221z" />
    <glyph glyph-name="r" unicode="r" horiz-adv-x="384" 
d="M377 474h-92c-20.667 0 -43 -1.83301 -67 -5.5s-40.667 -7.16699 -50 -10.5v-471h-71v528c28 7.33301 57 13.833 87 19.5s60.333 8.5 91 8.5h102v-69z" />
    <glyph glyph-name="s" unicode="s" horiz-adv-x="571" 
d="M268 47c22 0 42.834 1.50391 62.501 4.50391s36.667 7.66699 51 14s25.5 15.166 33.5 26.499s12 26 12 44c0 25.333 -10 45.666 -30 60.999s-53.333 28 -100 38l-42 9c-34 8 -63 16.833 -87 26.5s-43.667 21.167 -59 34.5s-26.333 28.666 -33 45.999
s-10 36.666 -10 57.999s5.33301 41 16 59s25.167 33.333 43.5 46s40 22.5 65 29.5s52.167 10.5 81.5 10.5c78.667 0 150.667 -17.667 216 -53l-32 -65c-32.667 18 -62.334 30.5 -89.001 37.5s-58.334 10.5 -95.001 10.5c-42.667 0 -75 -6.83301 -97 -20.5
s-33 -32.167 -33 -55.5c0 -24.667 9.33301 -43.334 28 -56.001s52.334 -24 101.001 -34l37 -8c35.333 -8 65.333 -17.167 90 -27.5s45 -22.5 61 -36.5s27.333 -30.333 34 -49s10 -39 10 -61c0 -26 -5.66699 -49 -17 -69s-27.5 -36.667 -48.5 -50s-45.833 -23.333 -74.5 -30
s-60.334 -10 -95.001 -10c-39.333 0 -76.166 4.33301 -110.499 13s-69.5 23 -105.5 43l34 68c32 -19.333 63.5 -33.166 94.5 -41.499s60.167 -12.5 87.5 -12.5z" />
    <glyph glyph-name="t" unicode="t" horiz-adv-x="490" 
d="M17 543l118 0.000976562v201h71v-201h230v-69h-230v-271c0 -29.333 2.16699 -53.333 6.5 -72s11.166 -33.334 20.499 -44.001s22 -18.5 38 -23.5s36 -7.5 60 -7.5h112v-69h-105c-29.333 0 -56.166 3.16699 -80.499 9.5s-45.833 16.833 -64.5 31.5s-33 34 -43 58
s-15 53.667 -15 89v299h-118v69z" />
    <glyph glyph-name="u" unicode="u" horiz-adv-x="632" 
d="M464 543l71.001 0.000976562v-530c-44.667 -12.667 -84.5 -21.834 -119.5 -27.501s-69.833 -8.5 -104.5 -8.5s-65.834 3.33301 -93.501 10s-51.334 19 -71.001 37s-34.5 42.167 -44.5 72.5s-15 68.5 -15 114.5v332h71v-302c0 -40.667 3.33301 -73.667 10 -99
s16.167 -44.666 28.5 -57.999s28.333 -22.833 48 -28.5s43.167 -8.5 70.5 -8.5c22.667 0 46.834 1.66699 72.501 5s51.167 8.66602 76.5 15.999v475z" />
    <glyph glyph-name="v" unicode="v" horiz-adv-x="558" 
d="M246 -13l-236 556h81l188 -451l188 451h81l-236 -556h-66z" />
    <glyph glyph-name="w" unicode="w" horiz-adv-x="864" 
d="M592 -13l-160 446l-160 -446h-66l-184 556h80l138 -444l157 444h70l157 -444l138 444h80l-184 -556h-66z" />
    <glyph glyph-name="x" unicode="x" horiz-adv-x="563" 
d="M326 272l224 -285h-86l-182 231l-182 -231h-87l225 286l-212 270h86l170 -216l170 216h87z" />
    <glyph glyph-name="y" unicode="y" horiz-adv-x="632" 
d="M464 -5c-19.333 -4.66699 -42.833 -8.83203 -70.5 -12.499s-55.167 -5.5 -82.5 -5.5c-34.667 0 -65.834 3.33301 -93.501 10s-51.334 19 -71.001 37s-34.5 42.167 -44.5 72.5s-15 68.5 -15 114.5v332h71v-302c0 -40.667 3.33301 -73.667 10 -99
s16.167 -44.666 28.5 -57.999s28.333 -22.833 48 -28.5s43.167 -8.5 70.5 -8.5c22.667 0 46.834 1.66699 72.501 5s51.167 8.66602 76.5 15.999v475h71v-571c0 -73.333 -21.667 -126.833 -65 -160.5s-101.333 -50.5 -174 -50.5c-15.333 0 -31.166 0.833008 -47.499 2.5
s-32.666 4.16699 -48.999 7.5s-32.333 7.5 -48 12.5s-31.834 11.5 -48.501 19.5l-13 88c27.333 -14.667 48.166 -25 62.499 -31s29.5 -11 45.5 -15s31.833 -7.33301 47.5 -10s30.834 -4 45.501 -4c53.333 0 95.5 11.667 126.5 35s46.5 61.666 46.5 114.999v14z" />
    <glyph glyph-name="z" unicode="z" horiz-adv-x="573" 
d="M70 543h436v-61l-358 -426h363v-69h-459v61l357 426h-339v69z" />
    <glyph glyph-name="braceleft" unicode="{" horiz-adv-x="314" 
d="M262 -233c-28.667 0 -52.5 2.50195 -71.5 7.50195s-34.167 13.833 -45.5 26.5s-19 28.5 -23 47.5s-6 41.833 -6 68.5v222c0 16.667 -1 32.5 -3 47.5s-5.16699 27.833 -9.5 38.5s-11 19 -20 25s-24.5 10 -46.5 12v68c22 2 37.5 6 46.5 12s15.667 14.333 20 25
s7.5 23.5 9.5 38.5s3 30.833 3 47.5v221c0 26.667 2 49.5 6 68.5s11.667 34.833 23 47.5s26.5 21.5 45.5 26.5s42.833 7.5 71.5 7.5h35v-69h-24c-21.333 0 -37.666 -1.16699 -48.999 -3.5s-19.5 -6.33301 -24.5 -12s-8.33301 -14.167 -10 -25.5s-2.5 -27 -2.5 -47v-215
c0 -26.667 -1.66699 -49.5 -5 -68.5s-8.66602 -35.333 -15.999 -49s-16.5 -24.334 -27.5 -32.001s-22.5 -13.167 -34.5 -16.5v20c12 -3.33301 23.5 -8.83301 34.5 -16.5s20.167 -18.334 27.5 -32.001s12.666 -30 15.999 -49s5 -41.833 5 -68.5v-216
c0 -20 0.833008 -35.667 2.5 -47s5 -19.833 10 -25.5s13.167 -9.66699 24.5 -12s27.666 -3.5 48.999 -3.5h24v-69h-35z" />
    <glyph glyph-name="bar" unicode="|" horiz-adv-x="265" 
d="M97 824h71v-1057h-71v1057z" />
    <glyph glyph-name="braceright" unicode="}" horiz-adv-x="314" 
d="M52 -233l-35 -0.00195312v69h24c21.333 0 37.666 1.16699 48.999 3.5s19.5 6.33301 24.5 12s8.33301 14.167 10 25.5s2.5 27 2.5 47v216c0 26.667 1.66699 49.5 5 68.5s8.66602 35.333 15.999 49s16.333 24.334 27 32.001s22.334 13.167 35.001 16.5v-20
c-12.667 3.33301 -24.334 8.83301 -35.001 16.5s-19.667 18.334 -27 32.001s-12.666 30 -15.999 49s-5 41.833 -5 68.5v215c0 20 -0.833008 35.667 -2.5 47s-5 19.833 -10 25.5s-13.167 9.66699 -24.5 12s-27.666 3.5 -48.999 3.5h-24v69h35c28.667 0 52.5 -2.5 71.5 -7.5
s34.167 -13.833 45.5 -26.5s19 -28.5 23 -47.5s6 -41.833 6 -68.5v-221c0 -16.667 1 -32.5 3 -47.5s5.16699 -27.833 9.5 -38.5s10.833 -19 19.5 -25s24.334 -10 47.001 -12v-68c-22.667 -2 -38.334 -6 -47.001 -12s-15.167 -14.333 -19.5 -25s-7.5 -23.5 -9.5 -38.5
s-3 -30.833 -3 -47.5v-222c0 -26.667 -2 -49.5 -6 -68.5s-11.667 -34.833 -23 -47.5s-26.5 -21.5 -45.5 -26.5s-42.833 -7.5 -71.5 -7.5z" />
    <glyph glyph-name="asciitilde" unicode="~" horiz-adv-x="635" 
d="M450 243c22 0 40.1641 6 54.4971 18s24.166 35 29.499 69h71c-7.33301 -57.333 -24.666 -97.5 -51.999 -120.5s-61.666 -34.5 -102.999 -34.5c-25.333 0 -49.5 4.66699 -72.5 14s-45.5 19.5 -67.5 30.5s-43.5 20.833 -64.5 29.5s-41.5 13 -61.5 13c-22 0 -40 -6 -54 -18
s-23.667 -35 -29 -69h-71c7.33301 56.667 24.5 96.667 51.5 120s61.167 35 102.5 35c27.333 0 53.333 -4.66699 78 -14s47.834 -19.5 69.501 -30.5s42.334 -20.833 62.001 -29.5s38.5 -13 56.5 -13z" />
    <glyph glyph-name="exclamdown" unicode="&#xa1;" horiz-adv-x="264" 
d="M132 609c14.667 0 27.334 -5.33301 38.001 -16s16 -23.334 16 -38.001s-5.33301 -27.334 -16 -38.001s-23.334 -16 -38.001 -16s-27.334 5.33301 -38.001 16s-16 23.334 -16 38.001s5.33301 27.334 16 38.001s23.334 16 38.001 16zM168 -232h-71v621h71v-621z" />
    <glyph glyph-name="cent" unicode="&#xa2;" horiz-adv-x="532" 
d="M278 -21c-28 2 -57.833 10.5029 -89.5 25.5029s-59 35.167 -82 60.5s-41.167 55.166 -54.5 89.499s-20 71.166 -20 110.499s6.66699 76 20 110s31.5 63.833 54.5 89.5s50.333 46.167 82 61.5s61.5 24 89.5 26v92h71v-92c26 -0.666992 52.5 -5 79.5 -13
s55.5 -20.333 85.5 -37l-33 -65c-26 15.333 -49.667 26.5 -71 33.5s-41.666 10.833 -60.999 11.5v-434c19.333 0.666992 39.666 4.66699 60.999 12s45 18.666 71 33.999l33 -65c-30 -16.667 -58.5 -29 -85.5 -37s-53.5 -12.333 -79.5 -13v-92h-71v92zM108 265.003
c0 -30 4.5 -57.668 13.5 -83.001s21.333 -47.666 37 -66.999s35 -34.833 58 -46.5s43.5 -18.5 61.5 -20.5v434c-18 -2 -38.5 -8.83301 -61.5 -20.5s-42.333 -27.167 -58 -46.5s-28 -41.833 -37 -67.5s-13.5 -53.167 -13.5 -82.5z" />
    <glyph glyph-name="sterling" unicode="&#xa3;" horiz-adv-x="721" 
d="M402 835c51.333 0 99.5029 -6.33398 144.503 -19.001s88.833 -32 131.5 -58l-33 -63c-38 22.667 -76.667 40 -116 52s-82 18 -128 18c-22.667 0 -46.334 -2 -71.001 -6s-46.834 -11.167 -66.501 -21.5s-35.834 -24.166 -48.501 -41.499s-19 -40 -19 -68
c0 -16 2.16699 -31.333 6.5 -46s10.166 -29.334 17.499 -44.001l23 -44l24 -38h259v-62h-225c4 -7.33301 9.66699 -21.5 17 -42.5s11 -43.167 11 -66.5c0 -25.333 -3.66699 -49.833 -11 -73.5s-17.166 -45.667 -29.499 -66s-26.5 -38.666 -42.5 -54.999
s-31 -28.833 -45 -37.5l-10 20c16.667 6 33.334 10.167 50.001 12.5s33 3.5 49 3.5c21.333 0 41.833 -2.16699 61.5 -6.5s39 -9.16602 58 -14.499s38.5 -10.166 58.5 -14.499s41.667 -6.5 65 -6.5c38.667 0 81.667 9 129 27l26 -65c-26.667 -10.667 -52.5 -18.667 -77.5 -24
s-50.5 -8 -76.5 -8c-22.667 0 -45 2.16699 -67 6.5s-43.5 9.16602 -64.5 14.499s-41.833 10.166 -62.5 14.499s-41.667 6.5 -63 6.5c-26 0 -53.333 -3 -82 -9s-60.334 -16.667 -95.001 -32l-27 57c23.333 12 45 25 65 39s38.667 31 56 51s31.833 42.833 43.5 68.5
s17.5 54.167 17.5 85.5c0 22.667 -3.5 44 -10.5 64s-14.5 37 -22.5 51h-143v62h106l-14 22c-9.33301 15.333 -17.5 30.833 -24.5 46.5s-12.833 31.834 -17.5 48.501s-7 34.667 -7 54c0 38 8.66699 70.333 26 97s39.333 48.167 66 64.5s56.5 28.166 89.5 35.499
s65.833 11 98.5 11z" />
    <glyph glyph-name="currency" unicode="&#xa4;" horiz-adv-x="620" 
d="M104 552l43 -43c22.667 16 47.167 29 73.5 39s56.166 15 89.499 15s63.166 -5 89.499 -15s50.833 -23 73.5 -39l43 43l54 -54l-41 -42c15.333 -23.333 27.333 -47.666 36 -72.999s13 -53 13 -83s-4.33301 -57.667 -13 -83s-20.667 -49.666 -36 -72.999l41 -42l-54 -54
l-43 43c-22.667 -16 -47.167 -29 -73.5 -39s-56.166 -15 -89.499 -15s-63.166 5 -89.499 15s-50.833 23 -73.5 39l-43 -43l-54 54l41 42c-15.333 23.333 -27.333 47.666 -36 72.999s-13 53 -13 83s4.33301 57.667 13 83s20.667 49.666 36 72.999l-41 42zM310 489
c-27.333 -0.666992 -52.999 -5.83398 -76.999 -15.501s-44.667 -23 -62 -40s-31 -36.833 -41 -59.5s-14.667 -47.334 -14 -74.001c0.666992 -25.333 6.16699 -49.333 16.5 -72s24.166 -42.667 41.499 -60s37.833 -31.166 61.5 -41.499s48.5 -15.5 74.5 -15.5
s50.833 5.16699 74.5 15.5s44.167 24.166 61.5 41.499s31.166 37.333 41.499 60s15.833 46.667 16.5 72c0.666992 26.667 -4 51.334 -14 74.001s-23.667 42.5 -41 59.5s-38.166 30.333 -62.499 40s-49.833 14.834 -76.5 15.501z" />
    <glyph glyph-name="yen" unicode="&#xa5;" horiz-adv-x="638" 
d="M53 362h208l-274 462h85l247 -416l247 416h85l-275 -462h208v-69h-228v-101h228v-69h-228v-136h-74v136h-229v69h229v101h-229v69z" />
    <glyph glyph-name="brokenbar" unicode="&#xa6;" horiz-adv-x="265" 
d="M97 824h71v-426h-71v426zM97 193h71v-426h-71v426z" />
    <glyph glyph-name="section" unicode="&#xa7;" horiz-adv-x="656" 
d="M102 682c0 26 6.3291 48.6689 18.9961 68.002s29.167 35.166 49.5 47.499s43.333 21.666 69 27.999s52.834 9.5 81.501 9.5c40.667 0 76.334 -4.16699 107.001 -12.5s62.334 -21.5 95.001 -39.5l-33 -65c-28.667 17.333 -55.5 29.5 -80.5 36.5s-54.5 10.5 -88.5 10.5
c-44 0 -79 -7.33301 -105 -22s-39 -34.667 -39 -60c0 -22.667 8.33301 -43.167 25 -61.5s45 -38.166 85 -59.499l169 -90c24.667 -12.667 47.334 -26 68.001 -40s38.834 -29.167 54.501 -45.5s28 -34.333 37 -54s13.5 -41.834 13.5 -66.501
c0 -24 -4.33301 -46.167 -13 -66.5s-20 -38.666 -34 -54.999s-30.167 -30.833 -48.5 -43.5s-31.166 -20.667 -38.499 -24c14 -11.333 27.833 -28.5 41.5 -51.5s20.5 -49.833 20.5 -80.5c0 -29.333 -6.33301 -55.333 -19 -78s-29.834 -41.834 -51.501 -57.501
s-46.667 -27.334 -75 -35.001s-58.5 -11.5 -90.5 -11.5c-40.667 0 -76.334 4.16699 -107.001 12.5s-62.334 21.5 -95.001 39.5l33 65c28.667 -17.333 55.5 -29.5 80.5 -36.5s54.5 -10.5 88.5 -10.5c22 0 42.833 2.16699 62.5 6.5s36.667 11 51 20s25.5 20.167 33.5 33.5
s12 29 12 47c0 12.667 -1.83301 24.667 -5.5 36s-10.334 22.833 -20.001 34.5s-23.5 24 -41.5 37s-41 27.167 -69 42.5l-140 75c-25.333 13.333 -48.666 27 -69.999 41s-40 29.5 -56 46.5s-28.5 35.333 -37.5 55s-13.5 42.167 -13.5 67.5c0 22.667 4.5 43.834 13.5 63.501
s21 37.5 36 53.5s32 30.167 51 42.5s31.5 19.5 37.5 21.5c-13.333 9.33301 -27.166 25 -41.499 47s-21.5 48.333 -21.5 79zM377.996 153.002l33.998 -18.0029l23 -14c32.667 15.333 60.5 34.333 83.5 57s34.5 49.667 34.5 81c0 32 -11 59.667 -33 83
s-56.667 47.666 -104 72.999l-164 86c-4.66699 2 -9 4.33301 -13 7s-6.33301 4 -7 4c-15.333 -5.33301 -31 -12.666 -47 -21.999s-30.167 -19.666 -42.5 -30.999s-22 -23.833 -29 -37.5s-10.5 -28.667 -10.5 -45s2.33301 -30.833 7 -43.5s12.334 -24.667 23.001 -36
s24.334 -22.666 41.001 -33.999s36.667 -22.666 60 -33.999z" />
    <glyph glyph-name="dieresis" unicode="&#xa8;" horiz-adv-x="372" 
d="M51 774c14.667 0 27.334 -5.33301 38.001 -16s16 -23.334 16 -38.001s-5.33301 -27.334 -16 -38.001s-23.334 -16 -38.001 -16s-27.334 5.33301 -38.001 16s-16 23.334 -16 38.001s5.33301 27.334 16 38.001s23.334 16 38.001 16zM321 774
c14.667 0 27.334 -5.33301 38.001 -16s16 -23.334 16 -38.001s-5.33301 -27.334 -16 -38.001s-23.334 -16 -38.001 -16s-27.334 5.33301 -38.001 16s-16 23.334 -16 38.001s5.33301 27.334 16 38.001s23.334 16 38.001 16z" />
    <glyph glyph-name="copyright" unicode="&#xa9;" horiz-adv-x="962" 
d="M52 403c0 64 11.167 122.5 33.5 175.5s53 98.667 92 137s84.333 68.166 136 89.499s107.5 32 167.5 32s115.833 -10.667 167.5 -32s97 -51.166 136 -89.499s69.667 -84 92 -137s33.5 -111.5 33.5 -175.5s-11.167 -122.5 -33.5 -175.5s-53 -98.167 -92 -135.5
s-84.333 -66.5 -136 -87.5s-107.5 -31.5 -167.5 -31.5s-115.833 10.5 -167.5 31.5s-97 50.167 -136 87.5s-69.667 82.5 -92 135.5s-33.5 111.5 -33.5 175.5zM126 403c0 -53.333 9 -102.166 27 -146.499s42.833 -82.333 74.5 -114s69.334 -56.334 113.001 -74.001
s90.5 -26.5 140.5 -26.5c50.667 0 97.667 8.83301 141 26.5s80.833 42.334 112.5 74.001s56.5 69.667 74.5 114s27 93.166 27 146.499c0 54 -9 103.333 -27 148s-42.833 82.834 -74.5 114.501s-69.167 56.334 -112.5 74.001s-90.333 26.5 -141 26.5
c-50 0 -96.833 -8.83301 -140.5 -26.5s-81.334 -42.334 -113.001 -74.001s-56.5 -69.834 -74.5 -114.501s-27 -94 -27 -148zM252 412c0 34.667 6 66.667 18 96s28.667 54.833 50 76.5s46 38.5 74 50.5s58.333 18 91 18c34.667 0 64.834 -3.5 90.501 -10.5
s52.834 -18.5 81.501 -34.5l-31 -61c-25.333 15.333 -48.333 25.833 -69 31.5s-44.667 8.5 -72 8.5c-24 0 -45.833 -4.5 -65.5 -13.5s-36.834 -21.333 -51.501 -37s-25.834 -34 -33.501 -55s-11.5 -44.167 -11.5 -69.5s3.83301 -48.5 11.5 -69.5s18.834 -39.333 33.501 -55
s31.834 -28 51.501 -37s41.5 -13.5 65.5 -13.5c27.333 0 51.333 3 72 9s43.667 17 69 33l31 -63c-28.667 -16 -55.834 -27.333 -81.501 -34s-55.834 -10 -90.501 -10c-32.667 0 -63 6 -91 18s-52.667 28.667 -74 50s-38 46.5 -50 75.5s-18 61.167 -18 96.5z" />
    <glyph glyph-name="ordfeminine" unicode="&#xaa;" horiz-adv-x="466" 
d="M323 614c-10.667 3.33301 -25.5 6.33203 -44.5 8.99902s-33.833 4 -44.5 4c-16 0 -31.167 -1.16699 -45.5 -3.5s-26.666 -6 -36.999 -11s-18.333 -11.667 -24 -20s-8.5 -18.833 -8.5 -31.5s2.5 -23 7.5 -31s12.167 -14.667 21.5 -20s20.833 -9.16602 34.5 -11.499
s28.834 -3.5 45.501 -3.5c13.333 0 29.166 1.5 47.499 4.5s34.166 6.5 47.499 10.5v104zM226 432.999c-22.667 0 -44.668 2.16602 -66.001 6.49902s-40.333 11.333 -57 21s-30.167 22.667 -40.5 39s-15.5 36.5 -15.5 60.5c0 44 16.667 76.667 50 98s75.333 32 126 32
c19.333 0 38.666 -1.5 57.999 -4.5s33.333 -5.5 42 -7.5v17c0 16 -2.66699 28.833 -8 38.5s-12.833 17.334 -22.5 23.001s-21.667 9.66699 -36 12s-30.166 3.5 -47.499 3.5s-34.833 -2.5 -52.5 -7.5s-41.834 -13.167 -72.501 -24.5l7 70c21.333 9.33301 43 16 65 20
s44 6 66 6c23.333 0 45.333 -2.5 66 -7.5s38.834 -13.167 54.501 -24.5s28.167 -26.5 37.5 -45.5s14 -41.5 14 -67.5v-224c-29.333 -10.667 -58.166 -19 -86.499 -25s-55.5 -9 -81.5 -9z" />
    <glyph glyph-name="guillemotleft" unicode="&#xab;" horiz-adv-x="516" 
d="M24 275l187 268h82l-184 -267l184 -269h-81zM234 275l187 268h80l-182 -267l181 -269h-78z" />
    <glyph glyph-name="logicalnot" unicode="&#xac;" horiz-adv-x="685" 
d="M517 373h-485v69h556v-333h-71v264z" />
    <glyph glyph-name="registered" unicode="&#xae;" horiz-adv-x="962" 
d="M52 403c0 64 11.167 122.5 33.5 175.5s53 98.667 92 137s84.333 68.166 136 89.499s107.5 32 167.5 32s115.833 -10.667 167.5 -32s97 -51.166 136 -89.499s69.667 -84 92 -137s33.5 -111.5 33.5 -175.5s-11.167 -122.5 -33.5 -175.5s-53 -98.167 -92 -135.5
s-84.333 -66.5 -136 -87.5s-107.5 -31.5 -167.5 -31.5s-115.833 10.5 -167.5 31.5s-97 50.167 -136 87.5s-69.667 82.5 -92 135.5s-33.5 111.5 -33.5 175.5zM126 403c0 -53.333 9 -102.166 27 -146.499s42.833 -82.333 74.5 -114s69.334 -56.334 113.001 -74.001
s90.5 -26.5 140.5 -26.5c50.667 0 97.667 8.83301 141 26.5s80.833 42.334 112.5 74.001s56.5 69.667 74.5 114s27 93.166 27 146.499c0 54 -9 103.333 -27 148s-42.833 82.834 -74.5 114.501s-69.167 56.334 -112.5 74.001s-90.333 26.5 -141 26.5
c-50 0 -96.833 -8.83301 -140.5 -26.5s-81.334 -42.334 -113.001 -74.001s-56.5 -69.834 -74.5 -114.501s-27 -94 -27 -148zM522 369c0.666992 0 -2.00195 -0.166016 -8.00195 -0.499023s-12 -0.5 -18 -0.5h-112v-188h-70v470h163c26.667 0 51.834 -1.66699 75.501 -5
s44.834 -10.166 63.501 -20.499s33.667 -24.833 45 -43.5s17 -42.334 17 -71.001c0 -30.667 -8.5 -57.334 -25.5 -80.001s-36.833 -37.667 -59.5 -45l103 -205h-80zM603.998 509.001c0 13.333 -2.66699 24.5 -8 33.5s-13 16.5 -23 22.5s-22.167 10.167 -36.5 12.5
s-30.5 3.5 -48.5 3.5h-104v-145h110c40.667 0 69.167 6.16699 85.5 18.5s24.5 30.5 24.5 54.5z" />
    <glyph glyph-name="macron" unicode="&#xaf;" horiz-adv-x="317" 
d="M-3 699v66h323v-66h-323z" />
    <glyph glyph-name="degree" unicode="&#xb0;" horiz-adv-x="409" 
d="M32 661c0 24.667 4.50098 47.334 13.501 68.001s21.167 39 36.5 55s33.5 28.5 54.5 37.5s43.5 13.5 67.5 13.5c24.667 0 47.5 -4.5 68.5 -13.5s39.333 -21.5 55 -37.5s27.834 -34.333 36.501 -55s13 -43.334 13 -68.001s-4.33301 -47.5 -13 -68.5
s-20.834 -39.333 -36.501 -55s-34 -28 -55 -37s-43.833 -13.5 -68.5 -13.5c-24 0 -46.333 4.5 -67 13.5s-38.834 21.333 -54.501 37s-28 34 -37 55s-13.5 43.833 -13.5 68.5zM105.001 661c0 -32 9 -58 27 -78s42 -30 72 -30s54.167 10 72.5 30s27.5 46 27.5 78
s-9.16699 58 -27.5 78s-42.5 30 -72.5 30s-54 -10 -72 -30s-27 -46 -27 -78z" />
    <glyph glyph-name="plusminus" unicode="&#xb1;" horiz-adv-x="615" 
d="M272 275h-240v69h240v199h71v-199h240v-69h-240v-205h-71v205zM32 56h551v-69h-551v69z" />
    <glyph glyph-name="uni00B2" unicode="&#xb2;" horiz-adv-x="326" 
d="M165 765c-17.333 0 -32 -2.33301 -44 -7s-27.667 -14.667 -47 -30l-26 37c22 16.667 41.667 28 59 34s36.666 9 57.999 9c30.667 0 57.334 -8.16699 80.001 -24.5s34 -40.833 34 -73.5c0 -38.667 -17.167 -76.5 -51.5 -113.5s-71.833 -70.167 -112.5 -99.5h174v-43h-252
v38c66.667 50 116 91.167 148 123.5s48 63.5 48 93.5c0 19.333 -6.66699 33.5 -20 42.5s-29.333 13.5 -48 13.5z" />
    <glyph glyph-name="uni00B3" unicode="&#xb3;" horiz-adv-x="318" 
d="M151 447c-21.333 0 -41 2.99902 -59 8.99902s-38 17.333 -60 34l26 37c18.667 -15.333 34.5 -25.333 47.5 -30s28.167 -7 45.5 -7c23.333 0 43.166 5.16699 59.499 15.5s24.5 25.166 24.5 44.499c0 22.667 -7.83301 38.667 -23.5 48s-37.834 14 -66.501 14h-18v43h16
c30.667 0 52.334 5 65.001 15s19 23.667 19 41c0 14.667 -6.66699 26.834 -20 36.501s-30.666 14.5 -51.999 14.5c-17.333 0 -32 -2.33301 -44 -7s-27.667 -14.667 -47 -30l-26 37c22 16.667 41.667 28 59 34s36.666 9 57.999 9c32 0 59.667 -8 83 -24s35 -39 35 -69
c0 -24.667 -6.5 -43.5 -19.5 -56.5s-20.5 -19.833 -22.5 -20.5c5.33301 -0.666992 15 -7.5 29 -20.5s21 -34.167 21 -63.5c0 -17.333 -3.66699 -32.666 -11 -45.999s-17 -24.333 -29 -33s-25.667 -15 -41 -19s-31.666 -6 -48.999 -6z" />
    <glyph glyph-name="acute" unicode="&#xb4;" horiz-adv-x="212" 
d="M59 654h-78l149 170h104z" />
    </font>
</defs>
</svg>
