<?xml version="1.0" standalone="no"?>
<!DOCTYPE svg PUBLIC "-//W3C//DTD SVG 1.1//EN" "http://www.w3.org/Graphics/SVG/1.1/DTD/svg11.dtd" >
<svg>
<metadata>
Created by FontForge 20090914 at Fri Dec  5 12:56:03 2014
 By www-data
Copyright (c) 2012 by [29 Arabic Letters] - Pascal Zoghbi. All rights reserved.
</metadata>
<defs>
<font id="29LTBukra-Bold" horiz-adv-x="0" >
  <font-face 
    font-family="29LT Bukra Bold"
    font-weight="700"
    font-stretch="normal"
    units-per-em="1000"
    panose-1="0 11 9 3 2 2 4 2 2 4"
    ascent="825"
    descent="-175"
    x-height="563"
    cap-height="811"
    bbox="-151 -341 1501 1046"
    underline-thickness="50"
    underline-position="-50"
    unicode-range="U+001D-U+FEFC"
  />
<missing-glyph horiz-adv-x="500" 
 />
    <glyph glyph-name="uniFEF5" unicode="&#xfedf;&#xfe82;" horiz-adv-x="746" arabic-form="isolated" 
d="M55 140l285.001 -0.000976562c22.667 0 43.667 2.83301 63 8.5s36 14.167 50 25.5c13.333 11.333 23.666 25.333 30.999 42s11 37.334 11 62.001v607h205v-140h-65v-462c0 -41.333 -6.16699 -81 -18.5 -119s-31.166 -68.667 -56.499 -92
c-28.667 -26 -63.834 -44.5 -105.501 -55.5s-89.5 -16.5 -143.5 -16.5h-239zM197.001 716.999h140v-527h-140v527zM107.001 833.999h273v-65h-273v65z" />
    <glyph glyph-name="uniFEF6" unicode="&#xfee0;&#xfe82;" horiz-adv-x="748" arabic-form="final" 
d="M55 140l285.003 0.00195312c22.667 0 43.667 2.83301 63 8.5s36 14.167 50 25.5c13.333 11.333 23.666 25.333 30.999 42s11 37.334 11 62.001v607h205v-140h-65v-462c0 -30.667 -3.66699 -61.334 -11 -92.001c30 -34 78 -51 144 -51v-140c-30.667 0 -56.5 3 -77.5 9
s-38.667 13.667 -53 23s-25.833 19.666 -34.5 30.999s-15.334 22.666 -20.001 33.999c-8 -10 -15.667 -18.333 -23 -25c-28.667 -26 -63.834 -44.5 -105.501 -55.5s-89.5 -16.5 -143.5 -16.5h-239zM197.003 717.002h140v-527h-140v527zM109.003 834.002h273v-65h-273v65z
" />
    <glyph glyph-name="uniFEF7" unicode="&#xfedf;&#xfe84;" horiz-adv-x="746" arabic-form="isolated" 
d="M55 140l285.001 -0.000976562c22.667 0 43.667 2.83301 63 8.5s36 14.167 50 25.5c13.333 11.333 23.666 25.333 30.999 42s11 37.334 11 62.001v607h205v-140h-65v-462c0 -41.333 -6.16699 -81 -18.5 -119s-31.166 -68.667 -56.499 -92
c-28.667 -26 -63.834 -44.5 -105.501 -55.5s-89.5 -16.5 -143.5 -16.5h-239zM197.001 716.999h140v-527h-140v527zM139.001 814.999c0 45.333 11.168 77.333 33.501 96s53.166 28 92.499 28h50v-45h-42c-20 0 -34 -4.33301 -42 -13s-12 -21 -12 -37h128v-75h-208v46z" />
    <glyph glyph-name="uniFEF8" unicode="&#xfee0;&#xfe84;" horiz-adv-x="748" arabic-form="final" 
d="M55 140l285.003 0.00195312c22.667 0 43.667 2.83301 63 8.5s36 14.167 50 25.5c13.333 11.333 23.666 25.333 30.999 42s11 37.334 11 62.001v607h205v-140h-65v-462c0 -30.667 -3.66699 -61.334 -11 -92.001c30 -34 78 -51 144 -51v-140c-30.667 0 -56.5 3 -77.5 9
s-38.667 13.667 -53 23s-25.833 19.666 -34.5 30.999s-15.334 22.666 -20.001 33.999c-8 -10 -15.667 -18.333 -23 -25c-28.667 -26 -63.834 -44.5 -105.501 -55.5s-89.5 -16.5 -143.5 -16.5h-239zM197.003 717.002h140v-527h-140v527zM139.003 815.002
c0 45.333 11.168 77.333 33.501 96s53.166 28 92.499 28h50v-45h-42c-20 0 -34 -4.33301 -42 -13s-12 -21 -12 -37h128v-75h-208v46z" />
    <glyph glyph-name="uniFEF9" unicode="&#xfedf;&#xfe88;" horiz-adv-x="746" arabic-form="isolated" 
d="M265 -247c-39.333 0 -70.167 9.33301 -92.5 28s-33.5 50.667 -33.5 96v46h208v-75h-128c0 -16 4 -28.333 12 -37s22 -13 42 -13h42v-45h-50zM54.999 140l285.001 -0.000976562c22.667 0 43.667 2.83301 63 8.5s36 14.167 50 25.5c13.333 11.333 23.666 25.333 30.999 42
s11 37.334 11 62.001v607h205v-140h-65v-462c0 -41.333 -6.16699 -81 -18.5 -119s-31.166 -68.667 -56.499 -92c-28.667 -26 -63.834 -44.5 -105.501 -55.5s-89.5 -16.5 -143.5 -16.5h-239zM197 716.999h140v-527h-140v527z" />
    <glyph glyph-name="uniFEFA" unicode="&#xfee0;&#xfe88;" horiz-adv-x="748" arabic-form="final" 
d="M55 140l285.003 0.00195312c22.667 0 43.667 2.83301 63 8.5s36 14.167 50 25.5c13.333 11.333 23.666 25.333 30.999 42s11 37.334 11 62.001v607h205v-140h-65v-462c0 -30.667 -3.66699 -61.334 -11 -92.001c30 -34 78 -51 144 -51v-140c-30.667 0 -56.5 3 -77.5 9
s-38.667 13.667 -53 23s-25.833 19.666 -34.5 30.999s-15.334 22.666 -20.001 33.999c-8 -10 -15.667 -18.333 -23 -25c-28.667 -26 -63.834 -44.5 -105.501 -55.5s-89.5 -16.5 -143.5 -16.5h-239zM197.003 717.002h140v-527h-140v527zM265.003 -246.998
c-39.333 0 -70.167 9.33301 -92.5 28s-33.5 50.667 -33.5 96v46h208v-75h-128c0 -16 4 -28.333 12 -37s22 -13 42 -13h42v-45h-50z" />
    <glyph glyph-name="uniFEFB" unicode="&#xfedf;&#xfe8e;" horiz-adv-x="746" arabic-form="isolated" 
d="M55 140l285.001 -0.000976562c22.667 0 43.667 2.83301 63 8.5s36 14.167 50 25.5c13.333 11.333 23.666 25.333 30.999 42s11 37.334 11 62.001v607h205v-140h-65v-462c0 -41.333 -6.16699 -81 -18.5 -119s-31.166 -68.667 -56.499 -92
c-28.667 -26 -63.834 -44.5 -105.501 -55.5s-89.5 -16.5 -143.5 -16.5h-239zM197.001 716.999h140v-527h-140v527z" />
    <glyph glyph-name="uniFEFC" unicode="&#xfee0;&#xfe8e;" horiz-adv-x="748" arabic-form="final" 
d="M55 140l285.003 0.00195312c22.667 0 43.667 2.83301 63 8.5s36 14.167 50 25.5c13.333 11.333 23.666 25.333 30.999 42s11 37.334 11 62.001v607h205v-140h-65v-462c0 -30.667 -3.66699 -61.334 -11 -92.001c30 -34 78 -51 144 -51v-140c-30.667 0 -56.5 3 -77.5 9
s-38.667 13.667 -53 23s-25.833 19.666 -34.5 30.999s-15.334 22.666 -20.001 33.999c-8 -10 -15.667 -18.333 -23 -25c-28.667 -26 -63.834 -44.5 -105.501 -55.5s-89.5 -16.5 -143.5 -16.5h-239zM197.003 717.002h140v-527h-140v527z" />
    <glyph glyph-name="uni06440671" unicode="&#xfedf;&#xfb51;" horiz-adv-x="719" 
d="M55 140l285.001 -0.000976562c22.667 0 43.667 2.83301 63 8.5s36 14.167 50 25.5c13.333 11.333 23.666 25.333 30.999 42s11 37.334 11 62.001v607h205v-140h-65v-462c0 -41.333 -6.16699 -81 -18.5 -119s-31.166 -68.667 -56.499 -92
c-28.667 -26 -63.834 -44.5 -105.501 -55.5s-89.5 -16.5 -143.5 -16.5h-239zM197.001 716.999h140v-527h-140v527zM126.001 798.999l69 0.000976562c0 12 2 23.5 6 34.5s10 20.667 18 29s17.667 15.166 29 20.499s24 8 38 8c34 0 61.333 -9 82 -27s31 -45 31 -81v-39h-273
v55zM284.001 846c-15.333 0 -26.501 -4.66699 -33.501 -14s-10.5 -20.333 -10.5 -33h89c0 12 -3.66699 22.833 -11 32.5s-18.666 14.5 -33.999 14.5z" />
    <glyph glyph-name="uni06440671.fina" unicode="&#xfee0;&#xfb51;" horiz-adv-x="746" 
d="M55 140l285.003 0.00195312c22.667 0 43.667 2.83301 63 8.5s36 14.167 50 25.5c13.333 11.333 23.666 25.333 30.999 42s11 37.334 11 62.001v607h205v-140h-65v-462c0 -30.667 -3.66699 -61.334 -11 -92.001c30 -34 78 -51 144 -51v-140c-30.667 0 -56.5 3 -77.5 9
s-38.667 13.667 -53 23s-25.833 19.666 -34.5 30.999s-15.334 22.666 -20.001 33.999c-8 -10 -15.667 -18.333 -23 -25c-28.667 -26 -63.834 -44.5 -105.501 -55.5s-89.5 -16.5 -143.5 -16.5h-239zM197.003 717.002h140v-527h-140v527zM126.003 799.002l69 0.000976562
c0 12 2 23.5 6 34.5s10 20.667 18 29s17.667 15.166 29 20.499s24 8 38 8c34 0 61.333 -9 82 -27s31 -45 31 -81v-39h-273v55zM284.003 846.003c-15.333 0 -26.501 -4.66699 -33.501 -14s-10.5 -20.333 -10.5 -33h89c0 12 -3.66699 22.833 -11 32.5
s-18.666 14.5 -33.999 14.5z" />
    <glyph glyph-name="uni0621" unicode="&#x621;" horiz-adv-x="543" arabic-form="isolated" 
d="M73 191c0 101.333 24.499 176.667 73.499 226s117.833 74 206.5 74h90v-140h-119c-33.333 0 -60.166 -11.667 -80.499 -35s-30.5 -56 -30.5 -98v-78h274v-140h-414v191z" />
    <glyph glyph-name="uni0622" unicode="&#x622;" horiz-adv-x="346" arabic-form="isolated" 
d="M134 690h140v-690h-140v690zM70 800h273v-65h-273v65z" />
    <glyph glyph-name="uni0623" unicode="&#x623;" horiz-adv-x="357" arabic-form="isolated" 
d="M145 690h140v-690h-140v690zM110 781c0 45.333 11.168 77.333 33.501 96s53.166 28 92.499 28h50v-45h-42c-20 0 -34 -4.33301 -42 -13s-12 -21 -12 -37h128v-75h-208v46z" />
    <glyph glyph-name="uni0624" unicode="&#x624;" horiz-adv-x="601" arabic-form="isolated" 
d="M555 38c0 -38 -4.16504 -72.835 -12.498 -104.502s-22.333 -58.834 -42 -81.501s-46 -40.334 -79 -53.001s-74.167 -19 -123.5 -19c-13.333 0 -25.666 0.5 -36.999 1.5s-22.5 2.5 -33.5 4.5s-22.5 4.33301 -34.5 7l-41 11l-10 141c27.333 -8.66699 52.666 -15 75.999 -19
s46.666 -6 69.999 -6c19.333 0 36.333 0.833008 51 2.5s27.167 5.33398 37.5 11.001s18.666 13.834 24.999 24.501s10.5 24.667 12.5 42h-16c-48 0 -92.833 5.33301 -134.5 16s-78 27.334 -109 50.001s-55.333 51.834 -73 87.501s-26.5 78.5 -26.5 128.5
c0 44 8.5 83.333 25.5 118s40.667 64 71 88s66.5 42.5 108.5 55.5s88 19.5 138 19.5h158zM195.002 281.998c0 -23.333 4.16602 -43.835 12.499 -61.502s19.833 -32.5 34.5 -44.5s31.834 -21 51.501 -27s40.834 -9 63.501 -9h59v283h-59
c-20.667 0 -40.834 -3.33301 -60.501 -10s-37 -16.167 -52 -28.5s-27 -27.166 -36 -44.499s-13.5 -36.666 -13.5 -57.999zM345.001 712.996c0 45.333 11.168 77.333 33.501 96s53.166 28 92.499 28h60v-45h-52c-20 0 -34 -4.33301 -42 -13s-12 -21 -12 -37v-27h138v-75h-218
v73z" />
    <glyph glyph-name="uni0625" unicode="&#x625;" horiz-adv-x="352" arabic-form="isolated" 
d="M236 -219c-39.333 0 -70.167 9.33301 -92.5 28s-33.5 50.667 -33.5 96v46h208v-75h-128c0 -16 4 -28.333 12 -37s22 -13 42 -13h42v-45h-50zM144.999 811h140v-811h-140v811z" />
    <glyph glyph-name="uni0626" unicode="&#x626;" horiz-adv-x="1083" arabic-form="isolated" 
d="M41 527c0 45.333 11.168 77.333 33.501 96s53.166 28 92.499 28h60v-45h-52c-20 0 -34 -4.33301 -42 -13s-12 -21 -12 -37v-27h138v-75h-218v73zM401.001 -125c-30 0 -57.167 1.49805 -81.5 4.49805s-46.833 7.83301 -67.5 14.5s-39.5 15.167 -56.5 25.5
s-33.167 22.833 -48.5 37.5c-24.667 23.333 -42 53.5 -52 90.5s-15 75.833 -15 116.5v219h140v-202c0 -30 3.16699 -55.5 9.5 -76.5s17.166 -38.167 32.499 -51.5c17.333 -14.667 39 -24.667 65 -30s54 -8 84 -8h146v282c0 48 6.83301 89.5 20.5 124.5s35.5 64.5 65.5 88.5
c23.333 18 51.333 31.333 84 40s68.334 13 107.001 13h189v-563h-140v423h-64c-17.333 0 -33 -1.83301 -47 -5.5s-26.667 -10.167 -38 -19.5s-20.333 -22.666 -27 -39.999s-10 -34.666 -10 -51.999v-431h-296z" />
    <glyph glyph-name="uni0627" unicode="&#x627;" horiz-adv-x="345" arabic-form="isolated" 
d="M130 811h140v-811h-140v811z" />
    <glyph glyph-name="uni0628" unicode="&#x628;" horiz-adv-x="863" arabic-form="isolated" 
d="M372 0c-30 0 -57.166 1.5 -81.499 4.5s-46.833 7.83301 -67.5 14.5s-39.5 15.167 -56.5 25.5s-33.167 22.833 -48.5 37.5c-24.667 23.333 -42 53.5 -52 90.5s-15 75.833 -15 116.5v189h140v-172c0 -30 3.16699 -55.5 9.5 -76.5s17.166 -38.167 32.499 -51.5
c17.333 -14.667 39 -24.667 65 -30s54 -8 84 -8h280v423h140v-563h-430zM472.001 -213c-22 0 -41.167 6.33301 -57.5 19s-24.5 31.334 -24.5 56.001c0 22 7.83301 39.833 23.5 53.5s35.167 20.5 58.5 20.5s42.833 -6.83301 58.5 -20.5s23.5 -31.5 23.5 -53.5
c0 -24.667 -8.16699 -43.334 -24.5 -56.001s-35.5 -19 -57.5 -19z" />
    <glyph glyph-name="uni0629" unicode="&#x629;" horiz-adv-x="613" arabic-form="isolated" 
d="M397 0c-50 0 -95.8311 5.66992 -137.498 17.0029s-77.667 28.666 -108 51.999s-54 52.666 -71 87.999s-25.5 76.666 -25.5 123.999c0 40.667 7.66699 78.167 23 112.5s37.666 64 66.999 89s65.166 44.667 107.499 59s90.5 21.5 144.5 21.5h20v50h140v-613h-160z
M417.002 140.003v283h-54c-20.667 0 -41 -3.16699 -61 -9.5s-38 -15.5 -54 -27.5s-28.833 -26.833 -38.5 -44.5s-14.5 -37.834 -14.5 -60.501c0 -23.333 4.5 -43.666 13.5 -60.999s21 -32 36 -44s32.167 -21 51.5 -27s39.333 -9 60 -9h61zM473.002 687.003
c-21.333 0 -39.6689 6.16699 -55.002 18.5s-23 30.166 -23 53.499c0 21.333 7.5 38.5 22.5 51.5s33.5 19.5 55.5 19.5c22.667 0 41.334 -6.5 56.001 -19.5s22 -30.167 22 -51.5c0 -23.333 -7.66699 -41.166 -23 -53.499s-33.666 -18.5 -54.999 -18.5zM255.999 687.003
c-21.333 0 -39.668 6.16699 -55.001 18.5s-23 30.166 -23 53.499c0 21.333 7.5 38.5 22.5 51.5s33.5 19.5 55.5 19.5s40.5 -6.5 55.5 -19.5s22.5 -30.167 22.5 -51.5c0 -23.333 -7.66699 -41.166 -23 -53.499s-33.666 -18.5 -54.999 -18.5z" />
    <glyph glyph-name="uni062A" unicode="&#x62a;" horiz-adv-x="863" arabic-form="isolated" 
d="M372 0c-30 0 -57.166 1.5 -81.499 4.5s-46.833 7.83301 -67.5 14.5s-39.5 15.167 -56.5 25.5s-33.167 22.833 -48.5 37.5c-24.667 23.333 -42 53.5 -52 90.5s-15 75.833 -15 116.5v189h140v-172c0 -30 3.16699 -55.5 9.5 -76.5s17.166 -38.167 32.499 -51.5
c17.333 -14.667 39 -24.667 65 -30s54 -8 84 -8h280v423h140v-563h-430zM323.001 595c-21.333 0 -39.668 6.16699 -55.001 18.5s-23 30.166 -23 53.499c0 21.333 7.5 38.5 22.5 51.5s33.5 19.5 55.5 19.5s40.5 -6.5 55.5 -19.5s22.5 -30.167 22.5 -51.5
c0 -23.333 -7.66699 -41.166 -23 -53.499s-33.666 -18.5 -54.999 -18.5zM539.999 595c-21.333 0 -39.6689 6.16699 -55.002 18.5s-23 30.166 -23 53.499c0 21.333 7.5 38.5 22.5 51.5s33.5 19.5 55.5 19.5c22.667 0 41.334 -6.5 56.001 -19.5s22 -30.167 22 -51.5
c0 -23.333 -7.66699 -41.166 -23 -53.499s-33.666 -18.5 -54.999 -18.5z" />
    <glyph glyph-name="uni062B" unicode="&#x62b;" horiz-adv-x="863" arabic-form="isolated" 
d="M372 0c-30 0 -57.166 1.5 -81.499 4.5s-46.833 7.83301 -67.5 14.5s-39.5 15.167 -56.5 25.5s-33.167 22.833 -48.5 37.5c-24.667 23.333 -42 53.5 -52 90.5s-15 75.833 -15 116.5v189h140v-172c0 -30 3.16699 -55.5 9.5 -76.5s17.166 -38.167 32.499 -51.5
c17.333 -14.667 39 -24.667 65 -30s54 -8 84 -8h280v423h140v-563h-430zM325.001 591c-20 0 -37.499 5.83301 -52.499 17.5s-22.5 29.167 -22.5 52.5c0 20.667 7.16699 37.334 21.5 50.001s32.166 19 53.499 19s39.333 -6.33301 54 -19s22 -29.334 22 -50.001
c0 -23.333 -7.66699 -40.833 -23 -52.5s-33 -17.5 -53 -17.5zM431.002 750c-17.333 0 -32.833 5.16699 -46.5 15.5s-20.5 25.5 -20.5 45.5c0 18 6.33301 32.667 19 44s28.667 17 48 17s35.333 -5.66699 48 -17s19 -26 19 -44c0 -20 -6.66699 -35.167 -20 -45.5
s-29 -15.5 -47 -15.5zM537.002 591c-20 0 -37.499 5.83301 -52.499 17.5s-22.5 29.167 -22.5 52.5c0 20.667 7.16699 37.334 21.5 50.001s32.166 19 53.499 19c22 0 40.167 -6.33301 54.5 -19s21.5 -29.334 21.5 -50.001c0 -23.333 -7.5 -40.833 -22.5 -52.5
s-32.833 -17.5 -53.5 -17.5z" />
    <glyph glyph-name="uni062C" unicode="&#x62c;" horiz-adv-x="598" arabic-form="isolated" 
d="M105 -220c-24.667 35.333 -44.166 73.8359 -58.499 115.503s-21.5 89.5 -21.5 143.5c0 37.333 3 71 9 101h370c5.33301 22 9.5 46 12.5 72s4.5 49.667 4.5 71c0 20.667 -3.83301 42.167 -11.5 64.5s-20.167 41.166 -37.5 56.499c-28.667 25.333 -68 38 -118 38
c-26.667 0 -51 -3.16699 -73 -9.5s-46 -17.833 -72 -34.5l-58 122c32.667 18.667 67 33.667 103 45s75 17 117 17c41.333 0 78.833 -6.66699 112.5 -20s62.5 -32.333 86.5 -57c26.667 -26.667 48.334 -59.5 65.001 -98.5s25 -83.833 25 -134.5
c0 -26.667 -1.66699 -53 -5 -79s-7.33301 -51 -12 -75s-9.83398 -46 -15.501 -66s-10.834 -37.333 -15.501 -52h-345v-15c0 -24.667 3.66699 -49.334 11 -74.001s19.333 -51.334 36 -80.001zM365.001 -212.997c-22 0 -41.167 6.33301 -57.5 19s-24.5 31.334 -24.5 56.001
c0 22 7.83301 39.833 23.5 53.5s35.167 20.5 58.5 20.5s42.833 -6.83301 58.5 -20.5s23.5 -31.5 23.5 -53.5c0 -24.667 -8.16699 -43.334 -24.5 -56.001s-35.5 -19 -57.5 -19z" />
    <glyph glyph-name="uni062D" unicode="&#x62d;" horiz-adv-x="598" arabic-form="isolated" 
d="M105 -220c-24.667 35.333 -44.166 73.8359 -58.499 115.503s-21.5 89.5 -21.5 143.5c0 37.333 3 71 9 101h370c5.33301 22 9.5 46 12.5 72s4.5 49.667 4.5 71c0 20.667 -3.83301 42.167 -11.5 64.5s-20.167 41.166 -37.5 56.499c-28.667 25.333 -68 38 -118 38
c-26.667 0 -51 -3.16699 -73 -9.5s-46 -17.833 -72 -34.5l-58 122c32.667 18.667 67 33.667 103 45s75 17 117 17c41.333 0 78.833 -6.66699 112.5 -20s62.5 -32.333 86.5 -57c26.667 -26.667 48.334 -59.5 65.001 -98.5s25 -83.833 25 -134.5
c0 -26.667 -1.66699 -53 -5 -79s-7.33301 -51 -12 -75s-9.83398 -46 -15.501 -66s-10.834 -37.333 -15.501 -52h-345v-15c0 -24.667 3.66699 -49.334 11 -74.001s19.333 -51.334 36 -80.001z" />
    <glyph glyph-name="uni062E" unicode="&#x62e;" horiz-adv-x="598" arabic-form="isolated" 
d="M245 660c-22 0 -41.167 6.33301 -57.5 19s-24.5 31.334 -24.5 56.001c0 22 7.83301 39.833 23.5 53.5s35.167 20.5 58.5 20.5s42.833 -6.83301 58.5 -20.5s23.5 -31.5 23.5 -53.5c0 -24.667 -8.16699 -43.334 -24.5 -56.001s-35.5 -19 -57.5 -19zM105 -220
c-24.667 35.333 -44.166 73.8359 -58.499 115.503s-21.5 89.5 -21.5 143.5c0 37.333 3 71 9 101h370c5.33301 22 9.5 46 12.5 72s4.5 49.667 4.5 71c0 20.667 -3.83301 42.167 -11.5 64.5s-20.167 41.166 -37.5 56.499c-28.667 25.333 -68 38 -118 38
c-26.667 0 -51 -3.16699 -73 -9.5s-46 -17.833 -72 -34.5l-58 122c32.667 18.667 67 33.667 103 45s75 17 117 17c41.333 0 78.833 -6.66699 112.5 -20s62.5 -32.333 86.5 -57c26.667 -26.667 48.334 -59.5 65.001 -98.5s25 -83.833 25 -134.5
c0 -26.667 -1.66699 -53 -5 -79s-7.33301 -51 -12 -75s-9.83398 -46 -15.501 -66s-10.834 -37.333 -15.501 -52h-345v-15c0 -24.667 3.66699 -49.334 11 -74.001s19.333 -51.334 36 -80.001z" />
    <glyph glyph-name="uni062F" unicode="&#x62f;" horiz-adv-x="575" arabic-form="isolated" 
d="M35 140l348.999 0.000976562v153c0 20 -2.16699 37.5 -6.5 52.5s-11.166 28.167 -20.499 39.5c-8.66699 11.333 -20.5 20.5 -35.5 27.5s-31.5 10.5 -49.5 10.5h-60v140h46c45.333 0 85 -5.83301 119 -17.5s63.667 -30.834 89 -57.501
c21.333 -22.667 36.333 -51.5 45 -86.5s13 -73.167 13 -114.5v-287h-489v140z" />
    <glyph glyph-name="uni0630" unicode="&#x630;" horiz-adv-x="575" arabic-form="isolated" 
d="M286 637c-22 0 -41.167 6.33301 -57.5 19s-24.5 31.334 -24.5 56.001c0 22 7.83301 39.833 23.5 53.5s35.167 20.5 58.5 20.5s42.833 -6.83301 58.5 -20.5s23.5 -31.5 23.5 -53.5c0 -24.667 -8.16699 -43.334 -24.5 -56.001s-35.5 -19 -57.5 -19zM35 140
l348.999 0.000976562v153c0 20 -2.16699 37.5 -6.5 52.5s-11.166 28.167 -20.499 39.5c-8.66699 11.333 -20.5 20.5 -35.5 27.5s-31.5 10.5 -49.5 10.5h-60v140h46c45.333 0 85 -5.83301 119 -17.5s63.667 -30.834 89 -57.501c21.333 -22.667 36.333 -51.5 45 -86.5
s13 -73.167 13 -114.5v-287h-489v140z" />
    <glyph glyph-name="uni0631" unicode="&#x631;" horiz-adv-x="371" arabic-form="isolated" 
d="M111 -220c-13.333 0 -26.332 0.830078 -38.999 2.49707s-23.334 3.83398 -32.001 6.50098l-10 140c13.333 -3.33301 25 -5.66602 35 -6.99902s20.333 -2 31 -2c28 0 47.5 7.66699 58.5 23s16.5 40.333 16.5 75v545h140v-525c0 -45.333 -3.66699 -84.166 -11 -116.499
s-19 -59 -35 -80s-36.667 -36.5 -62 -46.5s-56 -15 -92 -15z" />
    <glyph glyph-name="uni0632" unicode="&#x632;" horiz-adv-x="379" arabic-form="isolated" 
d="M111 -220c-13.333 0 -26.332 0.830078 -38.999 2.49707s-23.334 3.83398 -32.001 6.50098l-10 140c13.333 -3.33301 25 -5.66602 35 -6.99902s20.333 -2 31 -2c28 0 47.5 7.66699 58.5 23s16.5 40.333 16.5 75v545h140v-525c0 -45.333 -3.66699 -84.166 -11 -116.499
s-19 -59 -35 -80s-36.667 -36.5 -62 -46.5s-56 -15 -92 -15zM237.001 647.997c-22 0 -41.167 6.33301 -57.5 19s-24.5 31.334 -24.5 56.001c0 22 7.83301 39.833 23.5 53.5s35.167 20.5 58.5 20.5s42.833 -6.83301 58.5 -20.5s23.5 -31.5 23.5 -53.5
c0 -24.667 -8.16699 -43.334 -24.5 -56.001s-35.5 -19 -57.5 -19z" />
    <glyph glyph-name="uni0633" unicode="&#x633;" horiz-adv-x="1422" arabic-form="isolated" 
d="M1112 -10c-19.333 0 -38.332 1.49902 -56.999 4.49902s-36.667 8.16699 -54 15.5s-33.5 17.166 -48.5 29.499s-28.167 27.833 -39.5 46.5c-25.333 -26.667 -55.333 -47.667 -90 -63s-71 -23 -109 -23h-103v-125h-230c-30 0 -57.167 1.5 -81.5 4.5
s-46.833 7.83301 -67.5 14.5s-39.5 15.167 -56.5 25.5s-33.167 22.833 -48.5 37.5c-24.667 23.333 -42 53.5 -52 90.5s-15 75.833 -15 116.5v327h140v-310c0 -30 3.16699 -55.5 9.5 -76.5s17.166 -38.167 32.499 -51.5c17.333 -14.667 39 -24.667 65 -30s54 -8 84 -8h80v548
h140v-423h103c14.667 0 29.834 1.83301 45.501 5.5s30 10.334 43 20.001s23.5 22.5 31.5 38.5s12 36.333 12 61v248h140v-248c1.33301 -46 13.166 -80 35.499 -102s52.5 -33 90.5 -33c40 0 70 11.333 90 34s30 53.334 30 92.001v377h139v-359
c0 -96.667 -21.333 -168.167 -64 -214.5s-107.667 -69.5 -195 -69.5z" />
    <glyph glyph-name="uni0634" unicode="&#x634;" horiz-adv-x="1422" arabic-form="isolated" 
d="M1112 -10c-19.333 0 -38.333 1.49902 -57 4.49902s-36.667 8.16699 -54 15.5s-33.5 17.166 -48.5 29.499s-28.167 27.833 -39.5 46.5c-25.333 -26.667 -55.333 -47.667 -90 -63s-71 -23 -109 -23h-103v-125h-230c-30 0 -57.167 1.5 -81.5 4.5s-46.833 7.83301 -67.5 14.5
s-39.5 15.167 -56.5 25.5s-33.167 22.833 -48.5 37.5c-24.667 23.333 -42 53.5 -52 90.5s-15 75.833 -15 116.5v327h140v-310c0 -30 3.16699 -55.5 9.5 -76.5s17.166 -38.167 32.499 -51.5c17.333 -14.667 39 -24.667 65 -30s54 -8 84 -8h80v548h140v-423h103
c14.667 0 29.834 1.83301 45.501 5.5s30 10.334 43 20.001s23.5 22.5 31.5 38.5s12 36.333 12 61v248h140v-242c0 -48 11.5 -83.5 34.5 -106.5s53.5 -34.5 91.5 -34.5c40 0 70 11.333 90 34s30 53.334 30 92.001v377h139v-359c0 -96.667 -21.333 -168.167 -64 -214.5
s-107.667 -69.5 -195 -69.5zM1023 653.999c-20 0 -37.499 5.83301 -52.499 17.5s-22.5 29.167 -22.5 52.5c0 20.667 7.16699 37.334 21.5 50.001s32.166 19 53.499 19c22 0 40.167 -6.33301 54.5 -19s21.5 -29.334 21.5 -50.001c0 -23.333 -7.5 -40.833 -22.5 -52.5
s-32.833 -17.5 -53.5 -17.5zM811.001 653.999c-20 0 -37.499 5.83301 -52.499 17.5s-22.5 29.167 -22.5 52.5c0 20.667 7.16699 37.334 21.5 50.001s32.166 19 53.499 19s39.333 -6.33301 54 -19s22 -29.334 22 -50.001c0 -23.333 -7.66699 -40.833 -23 -52.5
s-33 -17.5 -53 -17.5zM917.002 812.999c-17.333 0 -32.833 5.16699 -46.5 15.5s-20.5 25.5 -20.5 45.5c0 18 6.33301 32.667 19 44s28.667 17 48 17s35.333 -5.66699 48 -17s19 -26 19 -44c0 -20 -6.66699 -35.167 -20 -45.5s-29 -15.5 -47 -15.5z" />
    <glyph glyph-name="uni0635" unicode="&#x635;" horiz-adv-x="1238" arabic-form="isolated" 
d="M382 -125c-30 0 -57.166 1.50098 -81.499 4.50098s-46.833 7.83301 -67.5 14.5s-39.5 15.167 -56.5 25.5s-33.167 22.833 -48.5 37.5c-24.667 23.333 -42 53.5 -52 90.5s-15 75.833 -15 116.5v327h140v-310c0 -30 3.16699 -55.5 9.5 -76.5s17.166 -38.167 32.499 -51.5
c17.333 -14.667 39 -24.667 65 -30s54 -8 84 -8h80v567h140v-69h309c45.333 0 85 -5.83301 119 -17.5s63.667 -30.834 89 -57.501c21.333 -22.667 36.333 -51.5 45 -86.5s13 -73.167 13 -114.5v-237h-575v-125h-230zM612.001 374.001l-0.000976562 -233.999h435v103
c0 20 -2.16699 37.5 -6.5 52.5s-11.166 28.167 -20.499 39.5c-8.66699 11.333 -20.5 20.666 -35.5 27.999s-31.5 11 -49.5 11h-323z" />
    <glyph glyph-name="uni0636" unicode="&#x636;" horiz-adv-x="1238" arabic-form="isolated" 
d="M382 -125c-30 0 -57.166 1.50098 -81.499 4.50098s-46.833 7.83301 -67.5 14.5s-39.5 15.167 -56.5 25.5s-33.167 22.833 -48.5 37.5c-24.667 23.333 -42 53.5 -52 90.5s-15 75.833 -15 116.5v327h140v-310c0 -30 3.16699 -55.5 9.5 -76.5s17.166 -38.167 32.499 -51.5
c17.333 -14.667 39 -24.667 65 -30s54 -8 84 -8h80v567h140v-69h309c45.333 0 85 -5.83301 119 -17.5s63.667 -30.834 89 -57.501c21.333 -22.667 36.333 -51.5 45 -86.5s13 -73.167 13 -114.5v-237h-575v-125h-230zM612.001 374.001l-0.000976562 -233.999h435v103
c0 20 -2.16699 37.5 -6.5 52.5s-11.166 28.167 -20.499 39.5c-8.66699 11.333 -20.5 20.666 -35.5 27.999s-31.5 11 -49.5 11h-323zM822 603.002c-22 0 -41.167 6.33301 -57.5 19s-24.5 31.334 -24.5 56.001c0 22 7.83301 39.833 23.5 53.5s35.167 20.5 58.5 20.5
s42.833 -6.83301 58.5 -20.5s23.5 -31.5 23.5 -53.5c0 -24.667 -8.16699 -43.334 -24.5 -56.001s-35.5 -19 -57.5 -19z" />
    <glyph glyph-name="uni0637" unicode="&#x637;" horiz-adv-x="879" arabic-form="isolated" 
d="M18 140l98 0.000976562v671h140v-298h305c45.333 0 85 -5.83301 119 -17.5s63.667 -30.834 89 -57.501c21.333 -22.667 36.333 -51.5 45 -86.5s13 -73.167 13 -114.5v-237h-809v140zM256 374.001l-0.000976562 -233.999h431v103c0 20 -2.16699 37.5 -6.5 52.5
s-11.166 28.167 -20.499 39.5c-8.66699 11.333 -20.5 20.666 -35.5 27.999s-31.5 11 -49.5 11h-319z" />
    <glyph glyph-name="uni0638" unicode="&#x638;" horiz-adv-x="879" arabic-form="isolated" 
d="M18 140l98 0.000976562v671h140v-298h305c45.333 0 85 -5.83301 119 -17.5s63.667 -30.834 89 -57.501c21.333 -22.667 36.333 -51.5 45 -86.5s13 -73.167 13 -114.5v-237h-809v140zM256 374.001l-0.000976562 -233.999h431v103c0 20 -2.16699 37.5 -6.5 52.5
s-11.166 28.167 -20.499 39.5c-8.66699 11.333 -20.5 20.666 -35.5 27.999s-31.5 11 -49.5 11h-319zM471.999 603.002c-22 0 -41.167 6.33301 -57.5 19s-24.5 31.334 -24.5 56.001c0 22 7.83301 39.833 23.5 53.5s35.167 20.5 58.5 20.5s42.833 -6.83301 58.5 -20.5
s23.5 -31.5 23.5 -53.5c0 -24.667 -8.16699 -43.334 -24.5 -56.001s-35.5 -19 -57.5 -19z" />
    <glyph glyph-name="uni0639" unicode="&#x639;" horiz-adv-x="610" arabic-form="isolated" 
d="M111 -220c-24.667 35.333 -44.168 73.8359 -58.501 115.503s-21.5 89.5 -21.5 143.5c0 37.333 3 71 9 101h75c-11.333 23.333 -21.166 49 -29.499 77s-12.5 58 -12.5 90c0 48 9.33301 90 28 126s42.667 66 72 90c23.333 19.333 50.5 34 81.5 44s64.5 15 100.5 15
c37.333 0 72.833 -4.83301 106.5 -14.5s67.5 -23.167 101.5 -40.5l-47 -127c-21.333 12 -44.833 22.167 -70.5 30.5s-50.167 12.5 -73.5 12.5c-46 0 -82.333 -11.333 -109 -34c-18 -15.333 -30.667 -32.5 -38 -51.5s-11 -39.5 -11 -61.5c0 -32 4.66699 -60.833 14 -86.5
s22.333 -48.834 39 -69.501h317v-140h-411v-15c0 -24.667 3.66699 -49.334 11 -74.001s19.333 -51.334 36 -80.001z" />
    <glyph glyph-name="uni063A" unicode="&#x63a;" horiz-adv-x="610" arabic-form="isolated" 
d="M111 -220c-24.667 35.333 -44.168 73.8359 -58.501 115.503s-21.5 89.5 -21.5 143.5c0 37.333 3 71 9 101h75c-11.333 23.333 -21.166 49 -29.499 77s-12.5 58 -12.5 90c0 48 9.33301 90 28 126s42.667 66 72 90c23.333 19.333 50.5 34 81.5 44s64.5 15 100.5 15
c37.333 0 72.833 -4.83301 106.5 -14.5s67.5 -23.167 101.5 -40.5l-47 -127c-21.333 12 -44.833 22.167 -70.5 30.5s-50.167 12.5 -73.5 12.5c-46 0 -82.333 -11.333 -109 -34c-18 -15.333 -30.667 -32.5 -38 -51.5s-11 -39.5 -11 -61.5c0 -32 4.66699 -60.833 14 -86.5
s22.333 -48.834 39 -69.501h317v-140h-411v-15c0 -24.667 3.66699 -49.334 11 -74.001s19.333 -51.334 36 -80.001zM341.999 666.003c-22 0 -41.167 6.33301 -57.5 19s-24.5 31.334 -24.5 56.001c0 22 7.83301 39.833 23.5 53.5s35.167 20.5 58.5 20.5
s42.833 -6.83301 58.5 -20.5s23.5 -31.5 23.5 -53.5c0 -24.667 -8.16699 -43.334 -24.5 -56.001s-35.5 -19 -57.5 -19z" />
    <glyph glyph-name="uni0641" unicode="&#x641;" horiz-adv-x="1058" arabic-form="isolated" 
d="M372 0c-30 0 -57.1631 1.50098 -81.4961 4.50098s-46.833 7.83301 -67.5 14.5s-39.5 15.167 -56.5 25.5s-33.167 22.833 -48.5 37.5c-24.667 23.333 -42 53.5 -52 90.5s-15 75.833 -15 116.5v189h140v-172c0 -30 3.16699 -55.5 9.5 -76.5s17.166 -38.167 32.499 -51.5
c17.333 -14.667 39 -24.667 65 -30s54 -8 84 -8h163c-14.667 19.333 -26.334 40.666 -35.001 63.999s-13 49.333 -13 78c0 44 8.16699 83.333 24.5 118s39.166 64.167 68.499 88.5s64.666 42.833 105.999 55.5s87 19 137 19h165v-563h-626zM637.004 282.001
c0 -30.667 6.83301 -57.999 20.5 -81.999s32.167 -44 55.5 -60h145v283h-59c-20 0 -39.833 -3 -59.5 -9s-37 -15 -52 -27s-27.167 -26.833 -36.5 -44.5s-14 -37.834 -14 -60.501zM805.004 648.002c-22 0 -41.167 6.33301 -57.5 19s-24.5 31.334 -24.5 56.001
c0 22 7.83301 39.833 23.5 53.5s35.167 20.5 58.5 20.5s42.833 -6.83301 58.5 -20.5s23.5 -31.5 23.5 -53.5c0 -24.667 -8.16699 -43.334 -24.5 -56.001s-35.5 -19 -57.5 -19z" />
    <glyph glyph-name="uni0642" unicode="&#x642;" horiz-adv-x="877" arabic-form="isolated" 
d="M373 -220c-30 0 -57.166 1.49805 -81.499 4.49805s-46.833 7.83301 -67.5 14.5s-39.5 15.167 -56.5 25.5s-33.167 22.833 -48.5 37.5c-24.667 23.333 -42 53.5 -52 90.5s-15 75.833 -15 116.5v219h140v-202c0 -30 3.16699 -55.5 9.5 -76.5s17.166 -38.167 32.499 -51.5
c17.333 -14.667 39 -24.667 65 -30s54 -8 84 -8h291v80h-18c-48 0 -92.833 5.33301 -134.5 16s-78 27.334 -109 50.001s-55.333 51.834 -73 87.501s-26.5 78.5 -26.5 128.5c0 44 8.5 83.333 25.5 118s40.667 64 71 88s66.5 42.5 108.5 55.5s88 19.5 138 19.5h158v-783h-441z
M453.001 281.998c0 -23.333 4.16602 -43.835 12.499 -61.502s19.833 -32.5 34.5 -44.5s31.834 -21 51.501 -27s40.834 -9 63.501 -9h59v283h-59c-20.667 0 -40.834 -3.33301 -60.501 -10s-37 -16.167 -52 -28.5s-27 -27.166 -36 -44.499s-13.5 -36.666 -13.5 -57.999z
M729 647.996c-21.333 0 -39.6689 6.16699 -55.002 18.5s-23 30.166 -23 53.499c0 21.333 7.5 38.5 22.5 51.5s33.5 19.5 55.5 19.5c22.667 0 41.334 -6.5 56.001 -19.5s22 -30.167 22 -51.5c0 -23.333 -7.66699 -41.166 -23 -53.499s-33.666 -18.5 -54.999 -18.5z
M511.997 647.996c-21.333 0 -39.668 6.16699 -55.001 18.5s-23 30.166 -23 53.499c0 21.333 7.5 38.5 22.5 51.5s33.5 19.5 55.5 19.5s40.5 -6.5 55.5 -19.5s22.5 -30.167 22.5 -51.5c0 -23.333 -7.66699 -41.166 -23 -53.499s-33.666 -18.5 -54.999 -18.5z" />
    <glyph glyph-name="uni0643" unicode="&#x643;" horiz-adv-x="938" arabic-form="isolated" 
d="M410 0c-30 0 -57.166 1.5 -81.499 4.5s-46.833 7.83301 -67.5 14.5s-39.5 15.167 -56.5 25.5s-33.167 22.833 -48.5 37.5c-24.667 23.333 -42 53.5 -52 90.5s-15 75.833 -15 116.5v189h140v-172c0 -30 3.16699 -55.5 9.5 -76.5s17.166 -38.167 32.499 -51.5
c17.333 -14.667 39 -24.667 65 -30s54 -8 84 -8h280v671h140v-811h-430zM364.001 422c0 45.333 11.168 77.333 33.501 96s53.166 28 92.499 28h60v-45h-52c-20 0 -34 -4.33301 -42 -13s-12 -21 -12 -37v-27h138v-75h-218v73z" />
    <glyph glyph-name="uni0644" unicode="&#x644;" horiz-adv-x="712" arabic-form="isolated" 
d="M376 -125c-30 0 -57.166 1.5 -81.499 4.5s-46.833 7.83301 -67.5 14.5s-39.5 15.167 -56.5 25.5s-33.167 22.833 -48.5 37.5c-24.667 23.333 -42 53.5 -52 90.5s-15 75.833 -15 116.5v327h140v-310c0 -30 3.16699 -55.5 9.5 -76.5s17.166 -38.167 32.499 -51.5
c17.333 -14.667 39 -24.667 65 -30s54 -8 84 -8h80v796h206v-140h-66v-796h-230z" />
    <glyph glyph-name="uni0645" unicode="&#x645;" horiz-adv-x="914" arabic-form="isolated" 
d="M572 -110c-33.333 0 -65.1689 5.33008 -95.502 15.9971s-58 25.334 -83 44.001s-46.667 40.834 -65 66.501s-32.166 53.5 -41.499 83.5c-37.333 -2.66699 -64.666 -16 -81.999 -40c-11.333 -15.333 -19.166 -34.333 -23.499 -57s-6.5 -47 -6.5 -73v-150h-140v152
c0 52 6 97 18 135s30.667 71 56 99c10.667 12 22.834 22.5 36.501 31.5s28 16.667 43 23s30.167 11.166 45.5 14.499s29.666 5 42.999 5c6 36 17.667 69.667 35 101s39.166 58.333 65.499 81s56 40.5 89 53.5s68.167 19.5 105.5 19.5c42 0 81.5 -7.83301 118.5 -23.5
s69.333 -37.167 97 -64.5s49.334 -59.666 65.001 -96.999s23.5 -77.666 23.5 -120.999c0 -42.667 -8.16699 -82.167 -24.5 -118.5s-38.5 -67.833 -66.5 -94.5s-60.333 -47.667 -97 -63s-75.334 -23 -116.001 -23zM571.997 29.9971c22.667 0 44 4.00098 64 12.001
s37.5 19.167 52.5 33.5s26.667 31.333 35 51s12.5 41.167 12.5 64.5s-4 45 -12 65s-19.333 37.333 -34 52s-32 26.167 -52 34.5s-42 12.5 -66 12.5c-23.333 0 -44.666 -4.33301 -63.999 -13s-36 -20.334 -50 -35.001s-25 -32 -33 -52s-12 -41.333 -12 -64
s4 -43.834 12 -63.501s19.167 -36.667 33.5 -51s31.166 -25.666 50.499 -33.999s40.333 -12.5 63 -12.5z" />
    <glyph glyph-name="uni0646" unicode="&#x646;" horiz-adv-x="667" arabic-form="isolated" 
d="M376 -125c-30 0 -57.166 1.5 -81.499 4.5s-46.833 7.83301 -67.5 14.5s-39.5 15.167 -56.5 25.5s-33.167 22.833 -48.5 37.5c-24.667 23.333 -42 53.5 -52 90.5s-15 75.833 -15 116.5v327h140v-310c0 -30 3.16699 -55.5 9.5 -76.5s17.166 -38.167 32.499 -51.5
c17.333 -14.667 39 -24.667 65 -30s54 -8 84 -8h80v476h140v-616h-230zM335.001 580c-22 0 -41.167 6.33301 -57.5 19s-24.5 31.334 -24.5 56.001c0 22 7.83301 39.833 23.5 53.5s35.167 20.5 58.5 20.5s42.833 -6.83301 58.5 -20.5s23.5 -31.5 23.5 -53.5
c0 -24.667 -8.16699 -43.334 -24.5 -56.001s-35.5 -19 -57.5 -19z" />
    <glyph glyph-name="uni0648" unicode="&#x648;" horiz-adv-x="616" arabic-form="isolated" 
d="M555 38c0 -38 -4.16504 -72.835 -12.498 -104.502s-22.333 -58.834 -42 -81.501s-46 -40.334 -79 -53.001s-74.167 -19 -123.5 -19c-13.333 0 -25.666 0.5 -36.999 1.5s-22.5 2.5 -33.5 4.5s-22.5 4.33301 -34.5 7l-41 11l-10 141c27.333 -8.66699 52.666 -15 75.999 -19
s46.666 -6 69.999 -6c19.333 0 36.333 0.833008 51 2.5s27.167 5.33398 37.5 11.001s18.666 13.834 24.999 24.501s10.5 24.667 12.5 42h-16c-48 0 -92.833 5.33301 -134.5 16s-78 27.334 -109 50.001s-55.333 51.834 -73 87.501s-26.5 78.5 -26.5 128.5
c0 44 8.5 83.333 25.5 118s40.667 64 71 88s66.5 42.5 108.5 55.5s88 19.5 138 19.5h158zM195.002 281.998c0 -23.333 4.16602 -43.835 12.499 -61.502s19.833 -32.5 34.5 -44.5s31.834 -21 51.501 -27s40.834 -9 63.501 -9h59v283h-59
c-20.667 0 -40.834 -3.33301 -60.501 -10s-37 -16.167 -52 -28.5s-27 -27.166 -36 -44.499s-13.5 -36.666 -13.5 -57.999z" />
    <glyph glyph-name="uni0649" unicode="&#x649;" horiz-adv-x="1053" arabic-form="isolated" 
d="M371 -125c-30 0 -57.167 1.49805 -81.5 4.49805s-46.833 7.83301 -67.5 14.5s-39.5 15.167 -56.5 25.5s-33.167 22.833 -48.5 37.5c-24.667 23.333 -42 53.5 -52 90.5s-15 75.833 -15 116.5v219h140v-202c0 -30 3.16699 -55.5 9.5 -76.5s17.166 -38.167 32.499 -51.5
c17.333 -14.667 39 -24.667 65 -30s54 -8 84 -8h146v282c0 48 6.83301 89.5 20.5 124.5s35.5 64.5 65.5 88.5c23.333 18 51.333 31.333 84 40s68.334 13 107.001 13h189v-563h-140v423h-64c-17.333 0 -33 -1.83301 -47 -5.5s-26.667 -10.167 -38 -19.5
s-20.333 -22.666 -27 -39.999s-10 -34.666 -10 -51.999v-431h-296z" />
    <glyph glyph-name="uni064A" unicode="&#x64a;" horiz-adv-x="984" arabic-form="isolated" 
d="M308 -125c-34.667 0 -64.833 1.16406 -90.5 3.49707s-49.334 6 -71.001 11s-42.167 11.833 -61.5 20.5s-40.333 19.334 -63 32.001l56 123c32.667 -18.667 63.5 -31.667 92.5 -39s59.833 -11 92.5 -11h195v282c0 48 6.83301 89.5 20.5 124.5s35.5 64.5 65.5 88.5
c23.333 18 51.333 31.333 84 40s68.334 13 107.001 13h189v-563h-140v423h-64c-17.333 0 -33 -1.83301 -47 -5.5s-26.667 -10.167 -38 -19.5s-20.333 -22.666 -27 -39.999s-10 -34.666 -10 -51.999v-431h-290zM287.001 92.9971c-22 0 -41.167 6.33301 -57.5 19
s-24.5 31.334 -24.5 56.001c0 22 7.83301 39.833 23.5 53.5s35.167 20.5 58.5 20.5s42.833 -6.83301 58.5 -20.5s23.5 -31.5 23.5 -53.5c0 -24.667 -8.16699 -43.334 -24.5 -56.001s-35.5 -19 -57.5 -19zM287.001 304.997c-22 0 -41.167 6.33301 -57.5 19
s-24.5 31.334 -24.5 56.001c0 22 7.83301 39.833 23.5 53.5s35.167 20.5 58.5 20.5s42.833 -6.83301 58.5 -20.5s23.5 -31.5 23.5 -53.5c0 -24.667 -8.16699 -43.334 -24.5 -56.001s-35.5 -19 -57.5 -19z" />
    <glyph glyph-name="uni066E.init" unicode="&#x66e;" horiz-adv-x="324" 
d="M0 140h124v423h140v-563h-264v140z" />
    <glyph glyph-name="uni066E.medi" unicode="&#x66e;" horiz-adv-x="352" 
d="M0 140h124v423h140v-423h107v-140h-371v140z" />
    <glyph glyph-name="uni066E.fina" unicode="&#x66e;" horiz-adv-x="891" 
d="M372 0c-30 0 -57.166 1.5 -81.499 4.5s-46.833 7.83301 -67.5 14.5s-39.5 15.167 -56.5 25.5s-33.167 22.833 -48.5 37.5c-24.667 23.333 -42 53.5 -52 90.5s-15 75.833 -15 116.5v189h140v-172c0 -30 3.16699 -55.5 9.5 -76.5s17.166 -38.167 32.499 -51.5
c17.333 -14.667 39 -24.667 65 -30s54 -8 84 -8h280v423h140v-423h108v-140h-538z" />
    <glyph glyph-name="uni066F.init" unicode="&#x66f;" horiz-adv-x="632" 
d="M0 140l134.003 0.000976562c-14.667 19.333 -26.334 40.666 -35.001 63.999s-13 49.333 -13 78c0 44 8.16699 83.333 24.5 118s39.166 64.167 68.499 88.5s64.666 42.833 105.999 55.5s87 19 137 19h165v-563h-587v140zM226.003 282.001
c0 -30.667 6.83301 -57.999 20.5 -81.999s32.167 -44 55.5 -60h145v283h-59c-20 0 -39.833 -3 -59.5 -9s-37 -15 -52 -27s-27.167 -26.833 -36.5 -44.5s-14 -37.834 -14 -60.501z" />
    <glyph glyph-name="uni066F.medi" unicode="&#x66f;" horiz-adv-x="660" 
d="M0 140l134.003 0.000976562c-14.667 19.333 -26.334 40.666 -35.001 63.999s-13 49.333 -13 78c0 44 8.16699 83.333 24.5 118s39.166 64.167 68.499 88.5s64.666 42.833 105.999 55.5s87 19 137 19h165v-423h93v-140h-680v140zM226.003 282.001
c0 -30.667 6.83301 -57.999 20.5 -81.999s32.167 -44 55.5 -60h145v283h-59c-20 0 -39.833 -3 -59.5 -9s-37 -15 -52 -27s-27.167 -26.833 -36.5 -44.5s-14 -37.834 -14 -60.501z" />
    <glyph glyph-name="uni066F.fina" unicode="&#x66f;" horiz-adv-x="903" 
d="M373 -220c-30 0 -57.166 1.49805 -81.499 4.49805s-46.833 7.83301 -67.5 14.5s-39.5 15.167 -56.5 25.5s-33.167 22.833 -48.5 37.5c-24.667 23.333 -42 53.5 -52 90.5s-15 75.833 -15 116.5v219h140v-202c0 -30 3.16699 -55.5 9.5 -76.5s17.166 -38.167 32.499 -51.5
c17.333 -14.667 39 -24.667 65 -30s54 -8 84 -8h291v80h-18c-48 0 -92.833 5.33301 -134.5 16s-78 27.334 -109 50.001s-55.333 51.834 -73 87.501s-26.5 78.5 -26.5 128.5c0 44 8.5 83.333 25.5 118s40.667 64 71 88s66.5 42.5 108.5 55.5s88 19.5 138 19.5h158v-423h108
v-140h-108v-220h-441zM453.001 281.998c0 -23.333 4.16602 -43.835 12.499 -61.502s19.833 -32.5 34.5 -44.5s31.834 -21 51.501 -27s40.834 -9 63.501 -9h59v283h-59c-20.667 0 -40.834 -3.33301 -60.501 -10s-37 -16.167 -52 -28.5s-27 -27.166 -36 -44.499
s-13.5 -36.666 -13.5 -57.999z" />
    <glyph glyph-name="uni0671" unicode="&#x671;" horiz-adv-x="343" arabic-form="isolated" 
d="M134 690h140v-690h-140v690zM70 790l69 0.000976562c0 12 2 23.5 6 34.5s10 20.667 18 29s17.667 15.166 29 20.499s24 8 38 8c34 0 61.333 -9 82 -27s31 -45 31 -81v-39h-273v55zM228 837.001c-15.333 0 -26.501 -4.66699 -33.501 -14s-10.5 -20.333 -10.5 -33h89
c0 12 -3.66699 22.833 -11 32.5s-18.666 14.5 -33.999 14.5z" />
    <glyph glyph-name="uni0679" unicode="&#x679;" horiz-adv-x="797" arabic-form="isolated" 
d="M372 0c-30 0 -57.166 1.5 -81.499 4.5s-46.833 7.83301 -67.5 14.5s-39.5 15.167 -56.5 25.5s-33.167 22.833 -48.5 37.5c-24.667 23.333 -42 53.5 -52 90.5s-15 75.833 -15 116.5v189h140v-172c0 -30 3.16699 -55.5 9.5 -76.5s17.166 -38.167 32.499 -51.5
c17.333 -14.667 39 -24.667 65 -30s54 -8 84 -8h280v423h140v-563h-430zM366.001 691h51c34 0 61.333 -9 82 -27s31 -45 31 -81v-39h-273v55h50v148h59v-56zM366.001 646l-0.000976562 -47h94c0 12 -3.66699 22.833 -11 32.5s-17.666 14.5 -30.999 14.5h-52z" />
    <glyph glyph-name="uni067E" unicode="&#x67e;" horiz-adv-x="863" arabic-form="isolated" 
d="M372 0c-30 0 -57.166 1.5 -81.499 4.5s-46.833 7.83301 -67.5 14.5s-39.5 15.167 -56.5 25.5s-33.167 22.833 -48.5 37.5c-24.667 23.333 -42 53.5 -52 90.5s-15 75.833 -15 116.5v189h140v-172c0 -30 3.16699 -55.5 9.5 -76.5s17.166 -38.167 32.499 -51.5
c17.333 -14.667 39 -24.667 65 -30s54 -8 84 -8h280v423h140v-563h-430zM382.001 -206c-20 0 -37.499 5.83301 -52.499 17.5s-22.5 29.167 -22.5 52.5c0 20 7.16699 36.333 21.5 49s32.166 19 53.499 19s39.333 -6.33301 54 -19s22 -29 22 -49
c0 -23.333 -7.66699 -40.833 -23 -52.5s-33 -17.5 -53 -17.5zM488.002 -341c-17.333 0 -32.833 5.16699 -46.5 15.5s-20.5 25.5 -20.5 45.5c0 18 6.33301 32.667 19 44s28.667 17 48 17s35.333 -5.66699 48 -17s19 -26 19 -44c0 -20 -6.66699 -35.167 -20 -45.5
s-29 -15.5 -47 -15.5zM594.002 -206c-20 0 -37.499 5.83301 -52.499 17.5s-22.5 29.167 -22.5 52.5c0 20 7.16699 36.333 21.5 49s32.166 19 53.499 19c22 0 40.167 -6.33301 54.5 -19s21.5 -29 21.5 -49c0 -23.333 -7.5 -40.833 -22.5 -52.5s-32.833 -17.5 -53.5 -17.5z
" />
    <glyph glyph-name="uni0686" unicode="&#x686;" horiz-adv-x="553" arabic-form="isolated" 
d="M34 0c-2 5.33301 -3.66504 11.335 -4.99805 18.002c-1.33301 5.33301 -2.33301 11.333 -3 18s-1 13.667 -1 21c0 9.33301 0.166992 17.5 0.5 24.5s0.833008 13.5 1.5 19.5s1.66699 12.167 3 18.5s2.66602 13.166 3.99902 20.499h370c5.33301 22 9.5 46 12.5 72
s4.5 49.667 4.5 71c0 20.667 -3.83301 42.167 -11.5 64.5s-20.167 41.166 -37.5 56.499c-28.667 25.333 -68 38 -118 38c-26.667 0 -51 -3.16699 -73 -9.5s-46 -17.833 -72 -34.5l-58 122c32.667 18.667 67 33.667 103 45s75 17 117 17c41.333 0 78.833 -6.66699 112.5 -20
s62.5 -32.333 86.5 -57c26.667 -26.667 48.334 -59.5 65.001 -98.5s25 -83.833 25 -134.5c0 -26.667 -1.66699 -53 -5 -79s-7.33301 -51 -12 -75s-9.83398 -46 -15.501 -66s-10.834 -37.333 -15.501 -52h-478zM173.002 -162.998c-20 0 -37.499 5.83301 -52.499 17.5
s-22.5 29.167 -22.5 52.5c0 20 7.16699 36.333 21.5 49s32.166 19 53.499 19s39.333 -6.33301 54 -19s22 -29 22 -49c0 -23.333 -7.66699 -40.833 -23 -52.5s-33 -17.5 -53 -17.5zM279.003 -297.998c-17.333 0 -32.833 5.16699 -46.5 15.5s-20.5 25.5 -20.5 45.5
c0 18 6.33301 32.667 19 44s28.667 17 48 17s35.333 -5.66699 48 -17s19 -26 19 -44c0 -20 -6.66699 -35.167 -20 -45.5s-29 -15.5 -47 -15.5zM385.003 -162.998c-20 0 -37.499 5.83301 -52.499 17.5s-22.5 29.167 -22.5 52.5c0 20 7.16699 36.333 21.5 49
s32.166 19 53.499 19c22 0 40.167 -6.33301 54.5 -19s21.5 -29 21.5 -49c0 -23.333 -7.5 -40.833 -22.5 -52.5s-32.833 -17.5 -53.5 -17.5z" />
    <glyph glyph-name="uni0688" unicode="&#x688;" horiz-adv-x="533" arabic-form="isolated" 
d="M35 140l348.999 0.000976562v153c0 20 -2.16699 37.5 -6.5 52.5s-11.166 28.167 -20.499 39.5c-8.66699 11.333 -20.5 20.5 -35.5 27.5s-31.5 10.5 -49.5 10.5h-60v140h46c45.333 0 85 -5.83301 119 -17.5s63.667 -30.834 89 -57.501
c21.333 -22.667 36.333 -51.5 45 -86.5s13 -73.167 13 -114.5v-287h-489v140zM238.999 792.001h51c34 0 61.333 -9 82 -27s31 -45 31 -81v-39h-273v55h50v148h59v-56zM238.999 747.001l-0.000976562 -47h94c0 12 -3.66699 22.833 -11 32.5s-17.666 14.5 -30.999 14.5h-52z
" />
    <glyph glyph-name="uni0691" unicode="&#x691;" horiz-adv-x="369" arabic-form="isolated" 
d="M111 -220c-13.333 0 -26.332 0.830078 -38.999 2.49707s-23.334 3.83398 -32.001 6.50098l-10 140c13.333 -3.33301 25 -5.66602 35 -6.99902s20.333 -2 31 -2c28 0 47.5 7.66699 58.5 23s16.5 40.333 16.5 75v545h140v-525c0 -45.333 -3.66699 -84.166 -11 -116.499
s-19 -59 -35 -80s-36.667 -36.5 -62 -46.5s-56 -15 -92 -15zM215.001 791.997h51c34 0 61.333 -9 82 -27s31 -45 31 -81v-39h-273v55h50v148h59v-56zM215.001 746.997l-0.000976562 -47h94c0 12 -3.66699 22.833 -11 32.5s-17.666 14.5 -30.999 14.5h-52z" />
    <glyph glyph-name="uni0698" unicode="&#x698;" horiz-adv-x="378" arabic-form="isolated" 
d="M112 -220c-13.333 0 -26.332 0.830078 -38.999 2.49707s-23.334 3.83398 -32.001 6.50098l-10 140c13.333 -3.33301 25 -5.66602 35 -6.99902s20.333 -2 31 -2c28 0 47.5 7.66699 58.5 23s16.5 40.333 16.5 75v545h140v-525c0 -45.333 -3.66699 -84.166 -11 -116.499
s-19 -59 -35 -80s-36.667 -36.5 -62 -46.5s-56 -15 -92 -15zM137.001 653.997c-20 0 -37.499 5.83301 -52.499 17.5s-22.5 29.167 -22.5 52.5c0 20.667 7.16699 37.334 21.5 50.001s32.166 19 53.499 19s39.333 -6.33301 54 -19s22 -29.334 22 -50.001
c0 -23.333 -7.66699 -40.833 -23 -52.5s-33 -17.5 -53 -17.5zM243.002 812.997c-17.333 0 -32.833 5.16699 -46.5 15.5s-20.5 25.5 -20.5 45.5c0 18 6.33301 32.667 19 44s28.667 17 48 17s35.333 -5.66699 48 -17s19 -26 19 -44c0 -20 -6.66699 -35.167 -20 -45.5
s-29 -15.5 -47 -15.5zM349.002 653.997c-20 0 -37.499 5.83301 -52.499 17.5s-22.5 29.167 -22.5 52.5c0 20.667 7.16699 37.334 21.5 50.001s32.166 19 53.499 19c22 0 40.167 -6.33301 54.5 -19s21.5 -29.334 21.5 -50.001c0 -23.333 -7.5 -40.833 -22.5 -52.5
s-32.833 -17.5 -53.5 -17.5z" />
    <glyph glyph-name="uni06A1.init" unicode="&#x6a1;" horiz-adv-x="632" 
d="M0 140l134.003 0.000976562c-14.667 19.333 -26.334 40.666 -35.001 63.999s-13 49.333 -13 78c0 44 8.16699 83.333 24.5 118s39.166 64.167 68.499 88.5s64.666 42.833 105.999 55.5s87 19 137 19h165v-563h-587v140zM226.003 282.001
c0 -30.667 6.83301 -57.999 20.5 -81.999s32.167 -44 55.5 -60h145v283h-59c-20 0 -39.833 -3 -59.5 -9s-37 -15 -52 -27s-27.167 -26.833 -36.5 -44.5s-14 -37.834 -14 -60.501z" />
    <glyph glyph-name="uni06A1.medi" unicode="&#x6a1;" horiz-adv-x="660" 
d="M0 140l134.003 0.000976562c-14.667 19.333 -26.334 40.666 -35.001 63.999s-13 49.333 -13 78c0 44 8.16699 83.333 24.5 118s39.166 64.167 68.499 88.5s64.666 42.833 105.999 55.5s87 19 137 19h165v-423h93v-140h-680v140zM226.003 282.001
c0 -30.667 6.83301 -57.999 20.5 -81.999s32.167 -44 55.5 -60h145v283h-59c-20 0 -39.833 -3 -59.5 -9s-37 -15 -52 -27s-27.167 -26.833 -36.5 -44.5s-14 -37.834 -14 -60.501z" />
    <glyph glyph-name="uni06A1.fina" unicode="&#x6a1;" horiz-adv-x="1148" 
d="M409 0c-30 0 -57.1631 1.50098 -81.4961 4.50098s-46.833 7.83301 -67.5 14.5s-39.5 15.167 -56.5 25.5s-33.167 22.833 -48.5 37.5c-24.667 23.333 -42 53.5 -52 90.5s-15 75.833 -15 116.5v189h140v-172c0 -30 3.16699 -55.5 9.5 -76.5s17.166 -38.167 32.499 -51.5
c17.333 -14.667 39 -24.667 65 -30s54 -8 84 -8h163c-14.667 19.333 -26.334 40.666 -35.001 63.999s-13 49.333 -13 78c0 44 8.16699 83.333 24.5 118s39.166 64.167 68.499 88.5s64.666 42.833 105.999 55.5s87 19 137 19h165v-423h108v-140h-734zM674.004 282.001
c0 -30.667 6.83301 -57.999 20.5 -81.999s32.167 -44 55.5 -60h145v283h-59c-20 0 -39.833 -3 -59.5 -9s-37 -15 -52 -27s-27.167 -26.833 -36.5 -44.5s-14 -37.834 -14 -60.501z" />
    <glyph glyph-name="uni06A4" unicode="&#x6a4;" horiz-adv-x="1058" arabic-form="isolated" 
d="M372 0c-30 0 -57.1631 1.50098 -81.4961 4.50098s-46.833 7.83301 -67.5 14.5s-39.5 15.167 -56.5 25.5s-33.167 22.833 -48.5 37.5c-24.667 23.333 -42 53.5 -52 90.5s-15 75.833 -15 116.5v189h140v-172c0 -30 3.16699 -55.5 9.5 -76.5s17.166 -38.167 32.499 -51.5
c17.333 -14.667 39 -24.667 65 -30s54 -8 84 -8h163c-14.667 19.333 -26.334 40.666 -35.001 63.999s-13 49.333 -13 78c0 44 8.16699 83.333 24.5 118s39.166 64.167 68.499 88.5s64.666 42.833 105.999 55.5s87 19 137 19h165v-563h-626zM637.004 282.001
c0 -30.667 6.83301 -57.999 20.5 -81.999s32.167 -44 55.5 -60h145v283h-59c-20 0 -39.833 -3 -59.5 -9s-37 -15 -52 -27s-27.167 -26.833 -36.5 -44.5s-14 -37.834 -14 -60.501zM912.004 654.002c-20 0 -37.499 5.83301 -52.499 17.5s-22.5 29.167 -22.5 52.5
c0 20.667 7.16699 37.334 21.5 50.001s32.166 19 53.499 19c22 0 40.167 -6.33301 54.5 -19s21.5 -29.334 21.5 -50.001c0 -23.333 -7.5 -40.833 -22.5 -52.5s-32.833 -17.5 -53.5 -17.5zM700.005 654.002c-20 0 -37.499 5.83301 -52.499 17.5s-22.5 29.167 -22.5 52.5
c0 20.667 7.16699 37.334 21.5 50.001s32.166 19 53.499 19s39.333 -6.33301 54 -19s22 -29.334 22 -50.001c0 -23.333 -7.66699 -40.833 -23 -52.5s-33 -17.5 -53 -17.5zM806.006 813.002c-17.333 0 -32.833 5.16699 -46.5 15.5s-20.5 25.5 -20.5 45.5
c0 18 6.33301 32.667 19 44s28.667 17 48 17s35.333 -5.66699 48 -17s19 -26 19 -44c0 -20 -6.66699 -35.167 -20 -45.5s-29 -15.5 -47 -15.5z" />
    <glyph glyph-name="uni06A9" unicode="&#x6a9;" horiz-adv-x="1035" arabic-form="isolated" 
d="M372 0c-59.333 0 -108.501 7.16602 -147.501 21.499s-72.833 35.5 -101.5 63.5c-24.667 24 -42.834 54 -54.501 90s-17.5 74.667 -17.5 116v188h140v-171c0 -58 15.667 -99.667 47 -125c17.333 -14.667 38.5 -25.5 63.5 -32.5s52.167 -10.5 81.5 -10.5h459v116
c0 17.333 -1.66699 32.833 -5 46.5s-9.66602 26.167 -18.999 37.5s-21.5 20.5 -36.5 27.5s-30.833 10.5 -47.5 10.5h-308c-13.333 17.333 -24.5 37.333 -33.5 60s-14.167 49.334 -15.5 80.001l153 293h168l-163 -293h179c42.667 0 79.834 -5.66699 111.501 -17
s59.5 -28.666 83.5 -51.999c48.667 -46.667 73 -116.334 73 -209.001v-240h-610z" />
    <glyph glyph-name="uni06AF" unicode="&#x6af;" horiz-adv-x="965" arabic-form="isolated" 
d="M323 518h-85l146 294h85zM982 0l0.000976562 240.001c0 92.667 -24.333 162.334 -73 209.001c-24 23.333 -51.833 40.666 -83.5 51.999s-68.834 17 -111.501 17h-179l163 293h-168l-153 -293c1.33301 -30.667 6.5 -57.334 15.5 -80.001s20.167 -42.667 33.5 -60h308
c16.667 0 32.5 -3.5 47.5 -10.5s27.167 -16.167 36.5 -27.5s15.666 -23.833 18.999 -37.5s5 -29.167 5 -46.5v-116h-459c-29.333 0 -56.5 3.5 -81.5 10.5s-46.167 17.833 -63.5 32.5c-31.333 25.333 -47 67 -47 125v171h-140v-188c0 -41.333 5.83301 -80 17.5 -116
s29.834 -66 54.501 -90c28.667 -28 62.5 -49.167 101.5 -63.5s88.167 -21.5 147.5 -21.5h610z" />
    <glyph glyph-name="uni06BA" unicode="&#x6ba;" horiz-adv-x="667" arabic-form="isolated" 
d="M376 -125c-30 0 -57.166 1.5 -81.499 4.5s-46.833 7.83301 -67.5 14.5s-39.5 15.167 -56.5 25.5s-33.167 22.833 -48.5 37.5c-24.667 23.333 -42 53.5 -52 90.5s-15 75.833 -15 116.5v327h140v-310c0 -30 3.16699 -55.5 9.5 -76.5s17.166 -38.167 32.499 -51.5
c17.333 -14.667 39 -24.667 65 -30s54 -8 84 -8h80v476h140v-616h-230z" />
    <glyph glyph-name="uni06BE" unicode="&#x6be;" horiz-adv-x="851" arabic-form="isolated" 
d="M85 140h113.995c-2 9.33301 -4 20.5 -6 33.5s-3 25.833 -3 38.5c0 74.667 18.333 131.834 55 171.501s87.334 59.5 152.001 59.5c30 0 57.833 -5.5 83.5 -16.5s47.834 -26.5 66.501 -46.5s33.167 -44.167 43.5 -72.5s15.5 -59.833 15.5 -94.5
c0 -12.667 -0.833008 -25.667 -2.5 -39s-3.5 -24.666 -5.5 -33.999h91c2.66699 17.333 4.66699 34 6 50s2 31 2 45c0 40 -4.16699 75.333 -12.5 106s-21.5 60 -39.5 88c-22.667 34 -52.5 59.667 -89.5 77s-83.833 26 -140.5 26c-42 0 -81.167 -7 -117.5 -21
s-67.833 -28.333 -94.5 -43l-47 127c45.333 22.667 93.333 41.334 144 56.001s101 22 151 22c36.667 0 70.334 -4 101.001 -12s58.5 -19 83.5 -33s47.333 -30.667 67 -50s37.167 -40 52.5 -62c28 -40.667 48.667 -86.5 62 -137.5s20 -106.833 20 -167.5
c0 -16.667 -1.16699 -34.334 -3.5 -53.001s-5.16602 -37.334 -8.49902 -56.001s-7.16602 -36.834 -11.499 -54.501s-8.83301 -33.5 -13.5 -47.5h-715v140zM314.995 215c0 -14.667 0.833984 -28.5 2.50098 -41.5s3.16699 -24.167 4.5 -33.5h152
c1.33301 9.33301 2.83301 20.5 4.5 33.5s2.5 26.833 2.5 41.5c0 32 -7.33301 57.167 -22 75.5s-35.334 27.5 -62.001 27.5c-28 0 -48.667 -9.16699 -62 -27.5s-20 -43.5 -20 -75.5z" />
    <glyph glyph-name="uni06C0" unicode="&#x6c0;" horiz-adv-x="572" arabic-form="isolated" 
d="M397 0c-50 0 -95.8311 5.66992 -137.498 17.0029s-77.667 28.666 -108 51.999s-54 52.666 -71 87.999s-25.5 76.666 -25.5 123.999c0 40.667 7.66699 78.167 23 112.5s37.666 64 66.999 89s65.166 44.667 107.499 59s90.5 21.5 144.5 21.5h20v50h140v-613h-160z
M417.002 140.003v283h-54c-20.667 0 -41 -3.16699 -61 -9.5s-38 -15.5 -54 -27.5s-28.833 -26.833 -38.5 -44.5s-14.5 -37.834 -14.5 -60.501c0 -23.333 4.5 -43.666 13.5 -60.999s21 -32 36 -44s32.167 -21 51.5 -27s39.333 -9 60 -9h61zM338.002 718.003
c0 45.333 11.168 77.333 33.501 96s53.166 28 92.499 28h60v-45h-52c-20 0 -34 -4.33301 -42 -13s-12 -21 -12 -37v-27h138v-75h-218v73z" />
    <glyph glyph-name="uni06C1" unicode="&#x6c1;" horiz-adv-x="572" arabic-form="isolated" 
d="M397 0c-50 0 -95.8311 5.66992 -137.498 17.0029s-77.667 28.666 -108 51.999s-54 52.666 -71 87.999s-25.5 76.666 -25.5 123.999c0 40.667 7.66699 78.167 23 112.5s37.666 64 66.999 89s65.166 44.667 107.499 59s90.5 21.5 144.5 21.5h20v50h140v-613h-160z
M417.002 140.003v283h-54c-20.667 0 -41 -3.16699 -61 -9.5s-38 -15.5 -54 -27.5s-28.833 -26.833 -38.5 -44.5s-14.5 -37.834 -14.5 -60.501c0 -23.333 4.5 -43.666 13.5 -60.999s21 -32 36 -44s32.167 -21 51.5 -27s39.333 -9 60 -9h61z" />
    <glyph glyph-name="uni06CC" unicode="&#x6cc;" horiz-adv-x="1044" arabic-form="isolated" 
d="M428 -125c-30 0 -57.167 1.49805 -81.5 4.49805s-46.833 7.83301 -67.5 14.5s-39.5 15.167 -56.5 25.5s-33.167 22.833 -48.5 37.5c-24.667 23.333 -42 53.5 -52 90.5s-15 75.833 -15 116.5v219h140v-202c0 -30 3.16699 -55.5 9.5 -76.5s17.166 -38.167 32.499 -51.5
c17.333 -14.667 39 -24.667 65 -30s54 -8 84 -8h146v282c0 48 6.83301 89.5 20.5 124.5s35.5 64.5 65.5 88.5c23.333 18 51.333 31.333 84 40s68.334 13 107.001 13h189v-563h-140v423h-64c-17.333 0 -33 -1.83301 -47 -5.5s-26.667 -10.167 -38 -19.5
s-20.333 -22.666 -27 -39.999s-10 -34.666 -10 -51.999v-431h-296z" />
    <glyph glyph-name="uni06D2" unicode="&#x6d2;" horiz-adv-x="986" arabic-form="isolated" 
d="M40 0l-0.00292969 197.999c0 84.667 20.667 150.334 62 197.001c24.667 27.333 53.667 47.5 87 60.5s73 19.5 119 19.5h43c17.333 0 31 4.33301 41 13s15 22 15 40v42h140v-49c0 -34.667 -4.33301 -63.834 -13 -87.501s-21.167 -42.834 -37.5 -57.501
s-36.166 -25.167 -59.499 -31.5s-49.666 -9.5 -78.999 -9.5h-66c-18 0 -34.667 -3.16699 -50 -9.5s-27.666 -15.5 -36.999 -27.5c-9.33301 -11.333 -15.833 -24.666 -19.5 -39.999s-5.5 -32.666 -5.5 -51.999v-66h694v-140h-834z" />
    <glyph glyph-name="uni06D3" unicode="&#x6d3;" horiz-adv-x="909" arabic-form="isolated" 
d="M40 0l-0.00292969 197.999c0 84.667 20.667 150.334 62 197.001c24.667 27.333 53.667 47.5 87 60.5s73 19.5 119 19.5h43c17.333 0 31 4.33301 41 13s15 22 15 40v42h140v-49c0 -34.667 -4.33301 -63.834 -13 -87.501s-21.167 -42.834 -37.5 -57.501
s-36.166 -25.167 -59.499 -31.5s-49.666 -9.5 -78.999 -9.5h-66c-18 0 -34.667 -3.16699 -50 -9.5s-27.666 -15.5 -36.999 -27.5c-9.33301 -11.333 -15.833 -24.666 -19.5 -39.999s-5.5 -32.666 -5.5 -51.999v-66h694v-140h-834zM142.997 672.999
c0 45.333 11.168 77.333 33.501 96s53.166 28 92.499 28h60v-45h-52c-20 0 -34 -4.33301 -42 -13s-12 -21 -12 -37v-27h138v-75h-218v73z" />
    <glyph glyph-name="uni06D5.fina" unicode="&#x6d5;" horiz-adv-x="629" 
d="M649 140l0.00195312 -139.997h-252c-50 0 -95.833 5.66699 -137.5 17s-77.667 28.666 -108 51.999s-54 52.666 -71 87.999s-25.5 76.666 -25.5 123.999c0 40.667 7.66699 78.167 23 112.5s37.666 64 66.999 89s65.166 44.667 107.499 59s90.5 21.5 144.5 21.5h20v50h140
v-473h92zM417.002 140.003v283h-54c-20.667 0 -41 -3.16699 -61 -9.5s-38 -15.5 -54 -27.5s-28.833 -26.833 -38.5 -44.5s-14.5 -37.834 -14.5 -60.501c0 -23.333 4.5 -43.666 13.5 -60.999s21 -32 36 -44s32.167 -21 51.5 -27s39.333 -9 60 -9h61z" />
    <glyph glyph-name="uniFB51" unicode="&#x671;" horiz-adv-x="384" arabic-form="final" 
d="M136 690h140v-550h128v-140h-268v690zM70 790l69 0.000976562c0 12 2 23.5 6 34.5s10 20.667 18 29s17.667 15.166 29 20.499s24 8 38 8c34 0 61.333 -9 82 -27s31 -45 31 -81v-39h-273v55zM228 837.001c-15.333 0 -26.501 -4.66699 -33.501 -14s-10.5 -20.333 -10.5 -33
h89c0 12 -3.66699 22.833 -11 32.5s-18.666 14.5 -33.999 14.5z" />
    <glyph glyph-name="uniFB57" unicode="&#x67e;" horiz-adv-x="891" arabic-form="final" 
d="M372 0c-30 0 -57.166 1.5 -81.499 4.5s-46.833 7.83301 -67.5 14.5s-39.5 15.167 -56.5 25.5s-33.167 22.833 -48.5 37.5c-24.667 23.333 -42 53.5 -52 90.5s-15 75.833 -15 116.5v189h140v-172c0 -30 3.16699 -55.5 9.5 -76.5s17.166 -38.167 32.499 -51.5
c17.333 -14.667 39 -24.667 65 -30s54 -8 84 -8h280v423h140v-423h108v-140h-538zM587.001 -206c-20 0 -37.499 5.83301 -52.499 17.5s-22.5 29.167 -22.5 52.5c0 20 7.16699 36.333 21.5 49s32.166 19 53.499 19c22 0 40.167 -6.33301 54.5 -19s21.5 -29 21.5 -49
c0 -23.333 -7.5 -40.833 -22.5 -52.5s-32.833 -17.5 -53.5 -17.5zM375.002 -206c-20 0 -37.499 5.83301 -52.499 17.5s-22.5 29.167 -22.5 52.5c0 20 7.16699 36.333 21.5 49s32.166 19 53.499 19s39.333 -6.33301 54 -19s22 -29 22 -49
c0 -23.333 -7.66699 -40.833 -23 -52.5s-33 -17.5 -53 -17.5zM481.003 -341c-17.333 0 -32.833 5.16699 -46.5 15.5s-20.5 25.5 -20.5 45.5c0 18 6.33301 32.667 19 44s28.667 17 48 17s35.333 -5.66699 48 -17s19 -26 19 -44c0 -20 -6.66699 -35.167 -20 -45.5
s-29 -15.5 -47 -15.5z" />
    <glyph glyph-name="uniFB58" unicode="&#x67e;" horiz-adv-x="424" arabic-form="initial" 
d="M120 -206c-20 0 -37.499 5.83301 -52.499 17.5s-22.5 29.167 -22.5 52.5c0 20 7.16699 36.333 21.5 49s32.166 19 53.499 19s39.333 -6.33301 54 -19s22 -29 22 -49c0 -23.333 -7.66699 -40.833 -23 -52.5s-33 -17.5 -53 -17.5zM226.001 -341
c-17.333 0 -32.833 5.16699 -46.5 15.5s-20.5 25.5 -20.5 45.5c0 18 6.33301 32.667 19 44s28.667 17 48 17s35.333 -5.66699 48 -17s19 -26 19 -44c0 -20 -6.66699 -35.167 -20 -45.5s-29 -15.5 -47 -15.5zM332.001 -206c-20 0 -37.499 5.83301 -52.499 17.5
s-22.5 29.167 -22.5 52.5c0 20 7.16699 36.333 21.5 49s32.166 19 53.499 19c22 0 40.167 -6.33301 54.5 -19s21.5 -29 21.5 -49c0 -23.333 -7.5 -40.833 -22.5 -52.5s-32.833 -17.5 -53.5 -17.5zM0.00195312 140h209v423h140v-563h-349v140z" />
    <glyph glyph-name="uniFB59" unicode="&#x67e;" horiz-adv-x="513" arabic-form="medial" 
d="M0 140h209v423h140v-423h184v-140h-533v140zM381 -206c-20 0 -37.499 5.83301 -52.499 17.5s-22.5 29.167 -22.5 52.5c0 20 7.16699 36.333 21.5 49s32.166 19 53.499 19c22 0 40.167 -6.33301 54.5 -19s21.5 -29 21.5 -49c0 -23.333 -7.5 -40.833 -22.5 -52.5
s-32.833 -17.5 -53.5 -17.5zM169.001 -206c-20 0 -37.499 5.83301 -52.499 17.5s-22.5 29.167 -22.5 52.5c0 20 7.16699 36.333 21.5 49s32.166 19 53.499 19s39.333 -6.33301 54 -19s22 -29 22 -49c0 -23.333 -7.66699 -40.833 -23 -52.5s-33 -17.5 -53 -17.5z
M275.002 -341c-17.333 0 -32.833 5.16699 -46.5 15.5s-20.5 25.5 -20.5 45.5c0 18 6.33301 32.667 19 44s28.667 17 48 17s35.333 -5.66699 48 -17s19 -26 19 -44c0 -20 -6.66699 -35.167 -20 -45.5s-29 -15.5 -47 -15.5z" />
    <glyph glyph-name="uniFB67" unicode="&#x679;" horiz-adv-x="836" arabic-form="final" 
d="M372 0c-30 0 -57.166 1.5 -81.499 4.5s-46.833 7.83301 -67.5 14.5s-39.5 15.167 -56.5 25.5s-33.167 22.833 -48.5 37.5c-24.667 23.333 -42 53.5 -52 90.5s-15 75.833 -15 116.5v189h140v-172c0 -30 3.16699 -55.5 9.5 -76.5s17.166 -38.167 32.499 -51.5
c17.333 -14.667 39 -24.667 65 -30s54 -8 84 -8h280v423h140v-423h107v-140h-537zM397.001 691h51c34 0 61.333 -9 82 -27s31 -45 31 -81v-39h-273v55h50v148h59v-56zM397.001 646l-0.000976562 -47h94c0 12 -3.66699 22.833 -11 32.5s-17.666 14.5 -30.999 14.5h-52z" />
    <glyph glyph-name="uniFB68" unicode="&#x679;" horiz-adv-x="424" arabic-form="initial" 
d="M0 140h209v423h140v-563h-349v140zM239 792h51c34 0 61.333 -9 82 -27s31 -45 31 -81v-39h-273v55h50v148h59v-56zM239 747l-0.000976562 -47h94c0 12 -3.66699 22.833 -11 32.5s-17.666 14.5 -30.999 14.5h-52z" />
    <glyph glyph-name="uniFB69" unicode="&#x679;" horiz-adv-x="485" arabic-form="medial" 
d="M0 140h209v423h140v-423h183v-140h-532v140zM239 792h51c34 0 61.333 -9 82 -27s31 -45 31 -81v-39h-273v55h50v148h59v-56zM239 747l-0.000976562 -47h94c0 12 -3.66699 22.833 -11 32.5s-17.666 14.5 -30.999 14.5h-52z" />
    <glyph glyph-name="uniFB6B" unicode="&#x6a4;" horiz-adv-x="1086" arabic-form="final" 
d="M372 0c-30 0 -57.1631 1.50098 -81.4961 4.50098s-46.833 7.83301 -67.5 14.5s-39.5 15.167 -56.5 25.5s-33.167 22.833 -48.5 37.5c-24.667 23.333 -42 53.5 -52 90.5s-15 75.833 -15 116.5v189h140v-172c0 -30 3.16699 -55.5 9.5 -76.5s17.166 -38.167 32.499 -51.5
c17.333 -14.667 39 -24.667 65 -30s54 -8 84 -8h163c-14.667 19.333 -26.334 40.666 -35.001 63.999s-13 49.333 -13 78c0 44 8.16699 83.333 24.5 118s39.166 64.167 68.499 88.5s64.666 42.833 105.999 55.5s87 19 137 19h165v-423h107v-140h-733zM637.004 282.001
c0 -30.667 6.83301 -57.999 20.5 -81.999s32.167 -44 55.5 -60h145v283h-59c-20 0 -39.833 -3 -59.5 -9s-37 -15 -52 -27s-27.167 -26.833 -36.5 -44.5s-14 -37.834 -14 -60.501zM913.004 654.002c-20 0 -37.499 5.83301 -52.499 17.5s-22.5 29.167 -22.5 52.5
c0 20.667 7.16699 37.334 21.5 50.001s32.166 19 53.499 19c22 0 40.167 -6.33301 54.5 -19s21.5 -29.334 21.5 -50.001c0 -23.333 -7.5 -40.833 -22.5 -52.5s-32.833 -17.5 -53.5 -17.5zM701.005 654.002c-20 0 -37.499 5.83301 -52.499 17.5s-22.5 29.167 -22.5 52.5
c0 20.667 7.16699 37.334 21.5 50.001s32.166 19 53.499 19s39.333 -6.33301 54 -19s22 -29.334 22 -50.001c0 -23.333 -7.66699 -40.833 -23 -52.5s-33 -17.5 -53 -17.5zM807.006 813.002c-17.333 0 -32.833 5.16699 -46.5 15.5s-20.5 25.5 -20.5 45.5
c0 18 6.33301 32.667 19 44s28.667 17 48 17s35.333 -5.66699 48 -17s19 -26 19 -44c0 -20 -6.66699 -35.167 -20 -45.5s-29 -15.5 -47 -15.5z" />
    <glyph glyph-name="uniFB6C" unicode="&#x6a4;" horiz-adv-x="632" arabic-form="initial" 
d="M0 140l134.003 0.000976562c-14.667 19.333 -26.334 40.666 -35.001 63.999s-13 49.333 -13 78c0 44 8.16699 83.333 24.5 118s39.166 64.167 68.499 88.5s64.666 42.833 105.999 55.5s87 19 137 19h165v-563h-587v140zM226.003 282.001
c0 -30.667 6.83301 -57.999 20.5 -81.999s32.167 -44 55.5 -60h145v283h-59c-20 0 -39.833 -3 -59.5 -9s-37 -15 -52 -27s-27.167 -26.833 -36.5 -44.5s-14 -37.834 -14 -60.501zM488.003 654.002c-20 0 -37.499 5.83301 -52.499 17.5s-22.5 29.167 -22.5 52.5
c0 20.667 7.16699 37.334 21.5 50.001s32.166 19 53.499 19c22 0 40.167 -6.33301 54.5 -19s21.5 -29.334 21.5 -50.001c0 -23.333 -7.5 -40.833 -22.5 -52.5s-32.833 -17.5 -53.5 -17.5zM276.004 654.002c-20 0 -37.499 5.83301 -52.499 17.5s-22.5 29.167 -22.5 52.5
c0 20.667 7.16699 37.334 21.5 50.001s32.166 19 53.499 19s39.333 -6.33301 54 -19s22 -29.334 22 -50.001c0 -23.333 -7.66699 -40.833 -23 -52.5s-33 -17.5 -53 -17.5zM382.005 813.002c-17.333 0 -32.833 5.16699 -46.5 15.5s-20.5 25.5 -20.5 45.5
c0 18 6.33301 32.667 19 44s28.667 17 48 17s35.333 -5.66699 48 -17s19 -26 19 -44c0 -20 -6.66699 -35.167 -20 -45.5s-29 -15.5 -47 -15.5z" />
    <glyph glyph-name="uniFB6D" unicode="&#x6a4;" horiz-adv-x="659" arabic-form="medial" 
d="M0 140l134.003 0.000976562c-14.667 19.333 -26.334 40.666 -35.001 63.999s-13 49.333 -13 78c0 44 8.16699 83.333 24.5 118s39.166 64.167 68.499 88.5s64.666 42.833 105.999 55.5s87 19 137 19h165v-423h92v-140h-679v140zM226.003 282.001
c0 -30.667 6.83301 -57.999 20.5 -81.999s32.167 -44 55.5 -60h145v283h-59c-20 0 -39.833 -3 -59.5 -9s-37 -15 -52 -27s-27.167 -26.833 -36.5 -44.5s-14 -37.834 -14 -60.501zM487.003 654.002c-20 0 -37.499 5.83301 -52.499 17.5s-22.5 29.167 -22.5 52.5
c0 20.667 7.16699 37.334 21.5 50.001s32.166 19 53.499 19c22 0 40.167 -6.33301 54.5 -19s21.5 -29.334 21.5 -50.001c0 -23.333 -7.5 -40.833 -22.5 -52.5s-32.833 -17.5 -53.5 -17.5zM275.004 654.002c-20 0 -37.499 5.83301 -52.499 17.5s-22.5 29.167 -22.5 52.5
c0 20.667 7.16699 37.334 21.5 50.001s32.166 19 53.499 19s39.333 -6.33301 54 -19s22 -29.334 22 -50.001c0 -23.333 -7.66699 -40.833 -23 -52.5s-33 -17.5 -53 -17.5zM381.005 813.002c-17.333 0 -32.833 5.16699 -46.5 15.5s-20.5 25.5 -20.5 45.5
c0 18 6.33301 32.667 19 44s28.667 17 48 17s35.333 -5.66699 48 -17s19 -26 19 -44c0 -20 -6.66699 -35.167 -20 -45.5s-29 -15.5 -47 -15.5z" />
    <glyph glyph-name="uniFB7B" unicode="&#x686;" horiz-adv-x="588" arabic-form="final" 
d="M34 0c-2 5.33301 -3.66699 11.335 -5 18.002c-1.33301 5.33301 -2.33301 11.333 -3 18s-1 13.667 -1 21c0 9.33301 0.166992 17.5 0.5 24.5s0.833008 13.5 1.5 19.5s1.66699 12.167 3 18.5s2.66602 13.166 3.99902 20.499h370c5.33301 22 9.5 46 12.5 72
s4.5 49.667 4.5 71c0 20.667 -3.83301 42.167 -11.5 64.5s-20.167 41.166 -37.5 56.499c-28.667 25.333 -68 38 -118 38c-26.667 0 -51 -3.16699 -73 -9.5s-46 -17.833 -72 -34.5l-58 122c32.667 18.667 67 33.667 103 45s75 17 117 17c41.333 0 78.833 -6.66699 112.5 -20
s62.5 -32.333 86.5 -57c26.667 -26.667 48.334 -59.5 65.001 -98.5s25 -83.833 25 -134.5c0 -22.667 -1.16699 -45 -3.5 -67s-5.5 -43.667 -9.5 -65h55v-140h-568zM404 -162.998c-20 0 -37.499 5.83301 -52.499 17.5s-22.5 29.167 -22.5 52.5c0 20 7.16699 36.333 21.5 49
s32.166 19 53.499 19c22 0 40.167 -6.33301 54.5 -19s21.5 -29 21.5 -49c0 -23.333 -7.5 -40.833 -22.5 -52.5s-32.833 -17.5 -53.5 -17.5zM192.001 -162.998c-20 0 -37.499 5.83301 -52.499 17.5s-22.5 29.167 -22.5 52.5c0 20 7.16699 36.333 21.5 49s32.166 19 53.499 19
s39.333 -6.33301 54 -19s22 -29 22 -49c0 -23.333 -7.66699 -40.833 -23 -52.5s-33 -17.5 -53 -17.5zM298.002 -297.998c-17.333 0 -32.833 5.16699 -46.5 15.5s-20.5 25.5 -20.5 45.5c0 18 6.33301 32.667 19 44s28.667 17 48 17s35.333 -5.66699 48 -17s19 -26 19 -44
c0 -20 -6.66699 -35.167 -20 -45.5s-29 -15.5 -47 -15.5z" />
    <glyph glyph-name="uniFB7C" unicode="&#x686;" horiz-adv-x="582" arabic-form="initial" 
d="M0 140l415.001 0.000976562c5.33301 22 9.5 46 12.5 72s4.5 49.667 4.5 71c0 20.667 -3.83301 42.167 -11.5 64.5s-20.167 41.166 -37.5 56.499c-28.667 25.333 -68 38 -118 38c-26.667 0 -51 -3.16699 -73 -9.5s-46 -17.833 -72 -34.5l-58 122
c32.667 18.667 67 33.667 103 45s75 17 117 17c41.333 0 78.833 -6.66699 112.5 -20s62.5 -32.333 86.5 -57c26.667 -26.667 48.334 -59.5 65.001 -98.5s25 -83.833 25 -134.5c0 -26.667 -1.66699 -53 -5 -79s-7.33301 -51 -12 -75s-9.83398 -46 -15.501 -66
s-10.834 -37.333 -15.501 -52h-523v140zM162.001 -162.999c-20 0 -37.499 5.83301 -52.499 17.5s-22.5 29.167 -22.5 52.5c0 20 7.16699 36.333 21.5 49s32.166 19 53.499 19s39.333 -6.33301 54 -19s22 -29 22 -49c0 -23.333 -7.66699 -40.833 -23 -52.5
s-33 -17.5 -53 -17.5zM268.002 -297.999c-17.333 0 -32.833 5.16699 -46.5 15.5s-20.5 25.5 -20.5 45.5c0 18 6.33301 32.667 19 44s28.667 17 48 17s35.333 -5.66699 48 -17s19 -26 19 -44c0 -20 -6.66699 -35.167 -20 -45.5s-29 -15.5 -47 -15.5zM374.002 -162.999
c-20 0 -37.499 5.83301 -52.499 17.5s-22.5 29.167 -22.5 52.5c0 20 7.16699 36.333 21.5 49s32.166 19 53.499 19c22 0 40.167 -6.33301 54.5 -19s21.5 -29 21.5 -49c0 -23.333 -7.5 -40.833 -22.5 -52.5s-32.833 -17.5 -53.5 -17.5z" />
    <glyph glyph-name="uniFB7D" unicode="&#x686;" horiz-adv-x="617" arabic-form="medial" 
d="M0 140l414.999 0.000976562c5.33301 22 9.5 46 12.5 72s4.5 49.667 4.5 71c0 20.667 -3.83301 42.167 -11.5 64.5s-20.167 41.166 -37.5 56.499c-28.667 25.333 -68 38 -118 38c-26.667 0 -51 -3.16699 -73 -9.5s-46 -17.833 -72 -34.5l-58 122
c32.667 18.667 67 33.667 103 45s75 17 117 17c41.333 0 78.833 -6.66699 112.5 -20s62.5 -32.333 86.5 -57c26.667 -26.667 48.334 -59.5 65.001 -98.5s25 -83.833 25 -134.5c0 -22.667 -1.16699 -45 -3.5 -67s-5.5 -43.667 -9.5 -65h69v-140h-627v140zM373.999 -162.999
c-20 0 -37.499 5.83301 -52.499 17.5s-22.5 29.167 -22.5 52.5c0 20 7.16699 36.333 21.5 49s32.166 19 53.499 19c22 0 40.167 -6.33301 54.5 -19s21.5 -29 21.5 -49c0 -23.333 -7.5 -40.833 -22.5 -52.5s-32.833 -17.5 -53.5 -17.5zM162 -162.999
c-20 0 -37.499 5.83301 -52.499 17.5s-22.5 29.167 -22.5 52.5c0 20 7.16699 36.333 21.5 49s32.166 19 53.499 19s39.333 -6.33301 54 -19s22 -29 22 -49c0 -23.333 -7.66699 -40.833 -23 -52.5s-33 -17.5 -53 -17.5zM268.001 -297.999
c-17.333 0 -32.833 5.16699 -46.5 15.5s-20.5 25.5 -20.5 45.5c0 18 6.33301 32.667 19 44s28.667 17 48 17s35.333 -5.66699 48 -17s19 -26 19 -44c0 -20 -6.66699 -35.167 -20 -45.5s-29 -15.5 -47 -15.5z" />
    <glyph glyph-name="uniFB89" unicode="&#x688;" horiz-adv-x="582" arabic-form="final" 
d="M35 140l348.999 0.000976562v153c0 20 -2.16699 37.5 -6.5 52.5s-11.166 28.167 -20.499 39.5c-8.66699 11.333 -20.5 20.5 -35.5 27.5s-31.5 10.5 -49.5 10.5h-60v140h46c45.333 0 85 -5.83301 119 -17.5s63.667 -30.834 89 -57.501
c21.333 -22.667 36.333 -51.5 45 -86.5s13 -73.167 13 -114.5v-147h110v-140h-599v140zM238.999 792.001h51c34 0 61.333 -9 82 -27s31 -45 31 -81v-39h-273v55h50v148h59v-56zM238.999 747.001l-0.000976562 -47h94c0 12 -3.66699 22.833 -11 32.5
s-17.666 14.5 -30.999 14.5h-52z" />
    <glyph glyph-name="uniFB8B" unicode="&#x698;" horiz-adv-x="402" arabic-form="final" 
d="M112 -220c-13.333 0 -26.332 0.831055 -38.999 2.49805s-23.334 3.83398 -32.001 6.50098l-10 140c13.333 -3.33301 25 -5.66602 35 -6.99902s20.333 -2 31 -2c28 0 47.5 7.66699 58.5 23s16.5 40.333 16.5 75v545h140v-423h110v-140h-111
c-4 -77.333 -21.667 -133.333 -53 -168s-80 -52 -146 -52zM349.001 653.998c-20 0 -37.499 5.83301 -52.499 17.5s-22.5 29.167 -22.5 52.5c0 20.667 7.16699 37.334 21.5 50.001s32.166 19 53.499 19c22 0 40.167 -6.33301 54.5 -19s21.5 -29.334 21.5 -50.001
c0 -23.333 -7.5 -40.833 -22.5 -52.5s-32.833 -17.5 -53.5 -17.5zM137.002 653.998c-20 0 -37.499 5.83301 -52.499 17.5s-22.5 29.167 -22.5 52.5c0 20.667 7.16699 37.334 21.5 50.001s32.166 19 53.499 19s39.333 -6.33301 54 -19s22 -29.334 22 -50.001
c0 -23.333 -7.66699 -40.833 -23 -52.5s-33 -17.5 -53 -17.5zM243.003 812.998c-17.333 0 -32.833 5.16699 -46.5 15.5s-20.5 25.5 -20.5 45.5c0 18 6.33301 32.667 19 44s28.667 17 48 17s35.333 -5.66699 48 -17s19 -26 19 -44c0 -20 -6.66699 -35.167 -20 -45.5
s-29 -15.5 -47 -15.5z" />
    <glyph glyph-name="uniFB8D" unicode="&#x691;" horiz-adv-x="401" arabic-form="final" 
d="M111 -220c-13.333 0 -26.332 0.831055 -38.999 2.49805s-23.334 3.83398 -32.001 6.50098l-10 140c13.333 -3.33301 25 -5.66602 35 -6.99902s20.333 -2 31 -2c28 0 47.5 7.66699 58.5 23s16.5 40.333 16.5 75v545h140v-423h110v-140h-111
c-4 -77.333 -21.667 -133.333 -53 -168s-80 -52 -146 -52zM215.001 791.998h51c34 0 61.333 -9 82 -27s31 -45 31 -81v-39h-273v55h50v148h59v-56zM215.001 746.998l-0.000976562 -47h94c0 12 -3.66699 22.833 -11 32.5s-17.666 14.5 -30.999 14.5h-52z" />
    <glyph glyph-name="uniFB8F" unicode="&#x6a9;" horiz-adv-x="1014" arabic-form="final" 
d="M372 0c-59.333 0 -108.501 7.16602 -147.501 21.499s-72.833 35.5 -101.5 63.5c-24.667 24 -42.834 54 -54.501 90s-17.5 74.667 -17.5 116v188h140v-171c0 -58 15.667 -99.667 47 -125c17.333 -14.667 38.5 -25.5 63.5 -32.5s52.167 -10.5 81.5 -10.5h459v116
c0 17.333 -1.66699 32.833 -5 46.5s-9.66602 26.167 -18.999 37.5s-21.5 20.5 -36.5 27.5s-30.833 10.5 -47.5 10.5h-308c-13.333 17.333 -24.5 37.333 -33.5 60s-14.167 49.334 -15.5 80.001l153 293h168l-163 -293h179c42.667 0 79.834 -5.66699 111.501 -17
s59.5 -28.666 83.5 -51.999c48.667 -46.667 73 -116.334 73 -209.001v-100h108v-140h-718z" />
    <glyph glyph-name="uniFB90" unicode="&#x6a9;" horiz-adv-x="816" arabic-form="initial" 
d="M0 140l622.999 0.00195312v107c0 20 -2.16699 37.5 -6.5 52.5s-11.166 28.167 -20.499 39.5c-8.66699 11.333 -20.5 20.666 -35.5 27.999s-31.5 11 -49.5 11h-418c-12.667 16.667 -23.5 36.5 -32.5 59.5s-14.167 49.5 -15.5 79.5l162 294h150l-155 -294h295
c45.333 0 85 -5.83301 119 -17.5s63.667 -30.834 89 -57.501c21.333 -22.667 36.333 -51.5 45 -86.5s13 -73.167 13 -114.5v-241h-763v140z" />
    <glyph glyph-name="uniFB91" unicode="&#x6a9;" horiz-adv-x="851" arabic-form="medial" 
d="M0 140l622.999 0.00195312v107c0 20 -2.16699 37.5 -6.5 52.5s-11.166 28.167 -20.499 39.5c-8.66699 11.333 -20.5 20.666 -35.5 27.999s-31.5 11 -49.5 11h-418c-12.667 16.667 -23.5 36.5 -32.5 59.5s-14.167 49.5 -15.5 79.5l162 294h150l-155 -294h295
c45.333 0 85 -5.83301 119 -17.5s63.667 -30.834 89 -57.501c21.333 -22.667 36.333 -51.5 45 -86.5s13 -73.167 13 -114.5v-101h107v-140h-870v140z" />
    <glyph glyph-name="uniFB93" unicode="&#x6af;" horiz-adv-x="1014" arabic-form="final" 
d="M1090 0l0.000976562 140.001h-108v100c0 92.667 -24.333 162.334 -73 209.001c-24 23.333 -51.833 40.666 -83.5 51.999s-68.834 17 -111.501 17h-179l163 293h-168l-153 -293c1.33301 -30.667 6.5 -57.334 15.5 -80.001s20.167 -42.667 33.5 -60h308
c16.667 0 32.5 -3.5 47.5 -10.5s27.167 -16.167 36.5 -27.5s15.666 -23.833 18.999 -37.5s5 -29.167 5 -46.5v-116h-459c-29.333 0 -56.5 3.5 -81.5 10.5s-46.167 17.833 -63.5 32.5c-31.333 25.333 -47 67 -47 125v171h-140v-188c0 -41.333 5.83301 -80 17.5 -116
s29.834 -66 54.501 -90c28.667 -28 62.5 -49.167 101.5 -63.5s88.167 -21.5 147.5 -21.5h718zM323.001 518.001h-85l146 294h85z" />
    <glyph glyph-name="uniFB94" unicode="&#x6af;" horiz-adv-x="861" arabic-form="initial" 
d="M87 518h-85l146 294h85zM0 0l843.001 -0.00195312v241c0 41.333 -4.33301 79.5 -13 114.5s-23.667 63.833 -45 86.5c-25.333 26.667 -55 45.834 -89 57.501s-73.667 17.5 -119 17.5h-295l155 294h-150l-162 -294c1.33301 -30 6.5 -56.5 15.5 -79.5
s19.833 -42.833 32.5 -59.5h418c18 0 34.5 -3.66699 49.5 -11s26.833 -16.666 35.5 -27.999c9.33301 -11.333 16.166 -24.5 20.499 -39.5s6.5 -32.5 6.5 -52.5v-107h-703v-140z" />
    <glyph glyph-name="uniFB95" unicode="&#x6af;" horiz-adv-x="910" arabic-form="medial" 
d="M0 0l951.001 -0.00195312v140h-108v101c0 41.333 -4.33301 79.5 -13 114.5s-23.667 63.833 -45 86.5c-25.333 26.667 -55 45.834 -89 57.501s-73.667 17.5 -119 17.5h-295l155 294h-150l-162 -294c1.33301 -30 6.5 -56.5 15.5 -79.5s19.833 -42.833 32.5 -59.5h418
c18 0 34.5 -3.66699 49.5 -11s26.833 -16.666 35.5 -27.999c9.33301 -11.333 16.166 -24.5 20.499 -39.5s6.5 -32.5 6.5 -52.5v-107h-703v-140zM88.001 517.998h-85l146 294h85z" />
    <glyph glyph-name="uniFB9F" unicode="&#x6ba;" horiz-adv-x="695" arabic-form="final" 
d="M376 -125c-30 0 -57.166 1.5 -81.499 4.5s-46.833 7.83301 -67.5 14.5s-39.5 15.167 -56.5 25.5s-33.167 22.833 -48.5 37.5c-24.667 23.333 -42 53.5 -52 90.5s-15 75.833 -15 116.5v327h140v-310c0 -30 3.16699 -55.5 9.5 -76.5s17.166 -38.167 32.499 -51.5
c17.333 -14.667 39 -24.667 65 -30s54 -8 84 -8h80v476h140v-351h108v-140h-108v-125h-230z" />
    <glyph glyph-name="uniFBA5" unicode="&#x6c0;" horiz-adv-x="629" arabic-form="final" 
d="M397 0c-50 0 -95.8311 5.66992 -137.498 17.0029s-77.667 28.666 -108 51.999s-54 52.666 -71 87.999s-25.5 76.666 -25.5 123.999c0 40.667 7.66699 78.167 23 112.5s37.666 64 66.999 89s65.166 44.667 107.499 59s90.5 21.5 144.5 21.5h20v50h140v-473h92v-140h-252z
M417.002 140.003v283h-54c-20.667 0 -41 -3.16699 -61 -9.5s-38 -15.5 -54 -27.5s-28.833 -26.833 -38.5 -44.5s-14.5 -37.834 -14.5 -60.501c0 -23.333 4.5 -43.666 13.5 -60.999s21 -32 36 -44s32.167 -21 51.5 -27s39.333 -9 60 -9h61zM341.002 718.003
c0 45.333 11.168 77.333 33.501 96s53.166 28 92.499 28h60v-45h-52c-20 0 -34 -4.33301 -42 -13s-12 -21 -12 -37v-27h138v-75h-218v73z" />
    <glyph glyph-name="uniFBA7" unicode="&#x6c1;" horiz-adv-x="592" arabic-form="final" 
d="M371 0l0.000976562 423.999h-63c-17.333 0 -33 -1.83301 -47 -5.5s-26.667 -10.167 -38 -19.5s-20.333 -21.333 -27 -36s-10 -30.667 -10 -48v-167h-140v148c0 48.667 7 90.334 21 125.001s36 64 66 88c23.333 18.667 51.166 32.5 83.499 41.5s67.833 13.5 106.5 13.5
h188v-424h101v-140h-241z" />
    <glyph glyph-name="uniFBA8" unicode="&#x6c1;" horiz-adv-x="324" arabic-form="initial" 
d="M64 -220l52 175l147 -7l-97 -174zM0 140h124v423h140v-563h-264v140z" />
    <glyph glyph-name="uniFBA9" unicode="&#x6c1;" horiz-adv-x="836" arabic-form="medial" 
d="M597 -220l52 174h147l-97 -174h-102zM365 -220c-39.333 0 -76.334 4 -111.001 12s-63.667 20.667 -87 38c-21.333 16.667 -39.166 37.667 -53.499 63s-21.5 54 -21.5 86v21h-92v140h92v271h140v-412c0 -17.333 3.5 -33.333 10.5 -48s16.167 -26.667 27.5 -36
c21.333 -16.667 49 -25 83 -25h45v250h458v-140h-318v-220h-173z" />
    <glyph glyph-name="uniFBAB" unicode="&#x6be;" horiz-adv-x="889" arabic-form="final" 
d="M85 140l113.997 -0.00195312c-2 9.33301 -4 20.5 -6 33.5s-3 25.833 -3 38.5c0 74.667 18.333 131.834 55 171.501s87.334 59.5 152.001 59.5c30 0 57.833 -5.5 83.5 -16.5s47.834 -26.5 66.501 -46.5s33.167 -44.167 43.5 -72.5s15.5 -59.833 15.5 -94.5
c0 -12.667 -0.833008 -25.667 -2.5 -39s-3.5 -24.666 -5.5 -33.999h91c2.66699 17.333 4.66699 34 6 50s2 31 2 45c0 40 -4.16699 75.333 -12.5 106s-21.5 60 -39.5 88c-22.667 34 -52.5 59.667 -89.5 77s-83.833 26 -140.5 26c-42 0 -81.167 -7 -117.5 -21
s-67.833 -28.333 -94.5 -43l-47 127c45.333 22.667 93.333 41.334 144 56.001s101 22 151 22c36.667 0 70.334 -4 101.001 -12s58.5 -19 83.5 -33s47.333 -30.667 67 -50s37.167 -40 52.5 -62c28 -40.667 48.667 -86.5 62 -137.5s20 -106.833 20 -167.5
c0 -22.667 -2 -46.334 -6 -71.001h106v-140h-852v140zM314.997 214.998c0 -14.667 0.833984 -28.5 2.50098 -41.5s3.16699 -24.167 4.5 -33.5h152c1.33301 9.33301 2.83301 20.5 4.5 33.5s2.5 26.833 2.5 41.5c0 32 -7.33301 57.167 -22 75.5s-35.334 27.5 -62.001 27.5
c-28 0 -48.667 -9.16699 -62 -27.5s-20 -43.5 -20 -75.5z" />
    <glyph glyph-name="uniFBAC" unicode="&#x6be;" horiz-adv-x="766" arabic-form="initial" 
d="M0 140h113.995c-2 9.33301 -4 20.5 -6 33.5s-3 25.833 -3 38.5c0 74.667 18.333 131.834 55 171.501s87.334 59.5 152.001 59.5c30 0 57.833 -5.5 83.5 -16.5s47.834 -26.5 66.501 -46.5s33.167 -44.167 43.5 -72.5s15.5 -59.833 15.5 -94.5
c0 -12.667 -0.833008 -25.667 -2.5 -39s-3.5 -24.666 -5.5 -33.999h91c2.66699 17.333 4.66699 34 6 50s2 31 2 45c0 40 -4.16699 75.333 -12.5 106s-21.5 60 -39.5 88c-22.667 34 -52.5 59.667 -89.5 77s-83.833 26 -140.5 26c-42 0 -81.167 -7 -117.5 -21
s-67.833 -28.333 -94.5 -43l-47 127c45.333 22.667 93.333 41.334 144 56.001s101 22 151 22c36.667 0 70.334 -4 101.001 -12s58.5 -19 83.5 -33s47.333 -30.667 67 -50s37.167 -40 52.5 -62c28 -40.667 48.667 -86.5 62 -137.5s20 -106.833 20 -167.5
c0 -16.667 -1.16699 -34.334 -3.5 -53.001s-5.16602 -37.334 -8.49902 -56.001s-7.16602 -36.834 -11.499 -54.501s-8.83301 -33.5 -13.5 -47.5h-715v140zM229.995 215c0 -14.667 0.833984 -28.5 2.50098 -41.5s3.16699 -24.167 4.5 -33.5h152
c1.33301 9.33301 2.83301 20.5 4.5 33.5s2.5 26.833 2.5 41.5c0 32 -7.33301 57.167 -22 75.5s-35.334 27.5 -62.001 27.5c-28 0 -48.667 -9.16699 -62 -27.5s-20 -43.5 -20 -75.5z" />
    <glyph glyph-name="uniFBAD" unicode="&#x6be;" horiz-adv-x="804" arabic-form="medial" 
d="M0 140l113.997 -0.00195312c-2 9.33301 -4 20.5 -6 33.5s-3 25.833 -3 38.5c0 74.667 18.333 131.834 55 171.501s87.334 59.5 152.001 59.5c30 0 57.833 -5.5 83.5 -16.5s47.834 -26.5 66.501 -46.5s33.167 -44.167 43.5 -72.5s15.5 -59.833 15.5 -94.5
c0 -12.667 -0.833008 -25.667 -2.5 -39s-3.5 -24.666 -5.5 -33.999h91c2.66699 17.333 4.66699 34 6 50s2 31 2 45c0 40 -4.16699 75.333 -12.5 106s-21.5 60 -39.5 88c-22.667 34 -52.5 59.667 -89.5 77s-83.833 26 -140.5 26c-42 0 -81.167 -7 -117.5 -21
s-67.833 -28.333 -94.5 -43l-47 127c45.333 22.667 93.333 41.334 144 56.001s101 22 151 22c36.667 0 70.334 -4 101.001 -12s58.5 -19 83.5 -33s47.333 -30.667 67 -50s37.167 -40 52.5 -62c28 -40.667 48.667 -86.5 62 -137.5s20 -106.833 20 -167.5
c0 -22.667 -2 -46.334 -6 -71.001h107v-140h-853v140zM229.997 214.998c0 -14.667 0.833984 -28.5 2.50098 -41.5s3.16699 -24.167 4.5 -33.5h152c1.33301 9.33301 2.83301 20.5 4.5 33.5s2.5 26.833 2.5 41.5c0 32 -7.33301 57.167 -22 75.5s-35.334 27.5 -62.001 27.5
c-28 0 -48.667 -9.16699 -62 -27.5s-20 -43.5 -20 -75.5z" />
    <glyph glyph-name="uniFBAF" unicode="&#x6d2;" horiz-adv-x="782" arabic-form="final" 
d="M801 0l-602.999 -0.000976562c0 -14 2 -27.667 6 -41s12.333 -24.666 25 -33.999c10 -7.33301 21 -13.333 33 -18s27.667 -7 47 -7h297v-120h-309c-46 0 -85.833 6.33301 -119.5 19s-62.5 32.667 -86.5 60c-20.667 23.333 -35.334 51.833 -44.001 85.5
s-13 71.5 -13 113.5v82h767v-140z" />
    <glyph glyph-name="uniFBB1" unicode="&#x6d3;" horiz-adv-x="655" arabic-form="final" 
d="M801 0l-602.999 -0.000976562c0 -14 2 -27.667 6 -41s12.333 -24.666 25 -33.999c10 -7.33301 21 -13.333 33 -18s27.667 -7 47 -7h297v-120h-309c-46 0 -85.833 6.33301 -119.5 19s-62.5 32.667 -86.5 60c-20.667 23.333 -35.334 51.833 -44.001 85.5
s-13 71.5 -13 113.5v82h767v-140zM28.001 288.999c0 45.333 11.168 77.333 33.501 96s53.166 28 92.499 28h60v-45h-52c-20 0 -34 -4.33301 -42 -13s-12 -21 -12 -37v-27h138v-75h-218v73z" />
    <glyph glyph-name="uniFBE8" unicode="&#x649;" horiz-adv-x="324" arabic-form="initial" 
d="M0 140h124v423h140v-563h-264v140z" />
    <glyph glyph-name="uniFBE9" unicode="&#x649;" horiz-adv-x="352" arabic-form="medial" 
d="M0 140h124v423h140v-423h107v-140h-371v140z" />
    <glyph glyph-name="uniFBFD" unicode="&#x6cc;" horiz-adv-x="1083" arabic-form="final" 
d="M428 -125c-30 0 -57.167 1.49805 -81.5 4.49805s-46.833 7.83301 -67.5 14.5s-39.5 15.167 -56.5 25.5s-33.167 22.833 -48.5 37.5c-24.667 23.333 -42 53.5 -52 90.5s-15 75.833 -15 116.5v219h140v-202c0 -30 3.16699 -55.5 9.5 -76.5s17.166 -38.167 32.499 -51.5
c17.333 -14.667 39 -24.667 65 -30s54 -8 84 -8h146v282c0 48 6.83301 89.5 20.5 124.5s35.5 64.5 65.5 88.5c23.333 18 51.333 31.333 84 40s68.334 13 107.001 13h189v-423h108v-140h-248v423h-64c-17.333 0 -33 -1.83301 -47 -5.5s-26.667 -10.167 -38 -19.5
s-20.333 -22.666 -27 -39.999s-10 -34.666 -10 -51.999v-431h-296z" />
    <glyph glyph-name="uniFBFE" unicode="&#x6cc;" horiz-adv-x="426" arabic-form="initial" 
d="M112 -213c-21.333 0 -39.668 6 -55.001 18s-23 29.667 -23 53c0 21.333 7.5 38.666 22.5 51.999s33.5 20 55.5 20s40.5 -6.66699 55.5 -20s22.5 -30.666 22.5 -51.999c0 -23.333 -7.66699 -41 -23 -53s-33.666 -18 -54.999 -18zM328.998 -213
c-21.333 0 -39.6689 6 -55.002 18s-23 29.667 -23 53c0 21.333 7.5 38.666 22.5 51.999s33.5 20 55.5 20c22.667 0 41.334 -6.66699 56.001 -20s22 -30.666 22 -51.999c0 -23.333 -7.66699 -41 -23 -53s-33.666 -18 -54.999 -18zM0.995117 140h209v423h140v-563h-349v140z
" />
    <glyph glyph-name="uniFBFF" unicode="&#x6cc;" horiz-adv-x="513" arabic-form="medial" 
d="M0 140h209v423h140v-423h184v-140h-533v140zM380 -213c-21.333 0 -39.6689 6 -55.002 18s-23 29.667 -23 53c0 21.333 7.5 38.666 22.5 51.999s33.5 20 55.5 20c22.667 0 41.334 -6.66699 56.001 -20s22 -30.666 22 -51.999c0 -23.333 -7.66699 -41 -23 -53
s-33.666 -18 -54.999 -18zM162.997 -213c-21.333 0 -39.668 6 -55.001 18s-23 29.667 -23 53c0 21.333 7.5 38.666 22.5 51.999s33.5 20 55.5 20s40.5 -6.66699 55.5 -20s22.5 -30.666 22.5 -51.999c0 -23.333 -7.66699 -41 -23 -53s-33.666 -18 -54.999 -18z" />
    <glyph glyph-name="uniFC5E" unicode="&#xfc5e;" arabic-form="isolated" 
d="M-151 272l47.001 19l25 -70l47 7c-4 10 -6 20.333 -6 31c0 22 6.5 41.833 19.5 59.5s34.167 26.5 63.5 26.5c22 0 39.833 -7.5 53.5 -22.5s20.5 -34.5 20.5 -58.5c0 -8.66699 -0.333008 -18 -1 -28s-2.33398 -21.667 -5.00098 -35l-223 -35zM-38.999 0
c-16.667 0 -31.666 4.83496 -44.999 14.502s-22.333 26.167 -27 49.5l-11 56l49 10l10 -54c2.66699 -11.333 6.5 -18.833 11.5 -22.5s10.5 -5.5 16.5 -5.5c9.33301 0 16.666 3.5 21.999 10.5s8 17.167 8 30.5c0 6.66699 -0.666992 14.5 -2 23.5s-3 18.5 -5 28.5l50 7l10 -54
c3.33301 -16.667 12.333 -25 27 -25c18.667 0 28 9.66699 28 29c0 8.66699 -1 18.667 -3 30s-5.66699 23.333 -11 36l50 11c2 -10.667 4 -20.334 6 -29.001l4 -23c1.33301 -8 2 -14.667 2 -20c0 -26.667 -7 -46.834 -21 -60.501s-33.667 -20.5 -59 -20.5
c-9.33301 0 -17.833 2.5 -25.5 7.5s-13.5 10.5 -17.5 16.5c-5.33301 -12 -13.5 -22.667 -24.5 -32s-25.167 -14 -42.5 -14zM6.00195 262.002c0 -10 1.33203 -19 3.99902 -27l60 10c0.666992 2.66699 1 8 1 16c0 9.33301 -2.66699 17.5 -8 24.5s-13.666 10.5 -24.999 10.5
c-8.66699 0 -16.167 -3 -22.5 -9s-9.5 -14.333 -9.5 -25z" />
    <glyph glyph-name="uniFC5F" unicode="&#xfc5f;" arabic-form="isolated" 
d="M-54 161c-16.667 0 -31.666 4.83496 -44.999 14.502s-22.333 26.167 -27 49.5l-11 56l49 10l10 -54c2.66699 -11.333 6.5 -18.833 11.5 -22.5s10.5 -5.5 16.5 -5.5c9.33301 0 16.666 3.5 21.999 10.5s8 17.167 8 30.5c0 6.66699 -0.666992 14.5 -2 23.5s-3 18.5 -5 28.5
l50 7l10 -54c3.33301 -16.667 12.333 -25 27 -25c18.667 0 28 9.66699 28 29c0 8.66699 -1 18.667 -3 30s-5.66699 23.333 -11 36l50 11c2 -10.667 4 -20.334 6 -29.001l4 -23c1.33301 -8 2 -14.667 2 -20c0 -26.667 -7 -46.834 -21 -60.501s-33.667 -20.5 -59 -20.5
c-9.33301 0 -17.833 2.5 -25.5 7.5s-13.5 10.5 -17.5 16.5c-5.33301 -12 -13.5 -22.667 -24.5 -32s-25.167 -14 -42.5 -14zM-84.999 47.002l224 32v-47l-224 -32v47zM-85.999 129.002l224 32v-47l-224 -32v47z" />
    <glyph glyph-name="uniFC60" unicode="&#xfc60;" arabic-form="isolated" 
d="M-52 0c-16.667 0 -31.666 4.83496 -44.999 14.502s-22.333 26.167 -27 49.5l-11 56l49 10l10 -54c2.66699 -11.333 6.5 -18.833 11.5 -22.5s10.5 -5.5 16.5 -5.5c9.33301 0 16.666 3.5 21.999 10.5s8 17.167 8 30.5c0 6.66699 -0.666992 14.5 -2 23.5s-3 18.5 -5 28.5
l50 7l10 -54c3.33301 -16.667 12.333 -25 27 -25c18.667 0 28 9.66699 28 29c0 8.66699 -1 18.667 -3 30s-5.66699 23.333 -11 36l50 11c2 -10.667 4 -20.334 6 -29.001l4 -23c1.33301 -8 2 -14.667 2 -20c0 -26.667 -7 -46.834 -21 -60.501s-33.667 -20.5 -59 -20.5
c-9.33301 0 -17.833 2.5 -25.5 7.5s-13.5 10.5 -17.5 16.5c-5.33301 -12 -13.5 -22.667 -24.5 -32s-25.167 -14 -42.5 -14zM-124.999 246.002l224 32v-50l-224 -32v50z" />
    <glyph glyph-name="uniFC61" unicode="&#xfc61;" arabic-form="isolated" 
d="M-121 223l79 13c-4 10 -6 20.333 -6 31c0 22 6.33301 41.833 19 59.5s33.667 26.5 63 26.5c22.667 0 40.834 -7.5 54.501 -22.5s20.5 -34.5 20.5 -58.5c0 -8.66699 -0.333008 -18 -1 -28s-2.33398 -21.667 -5.00098 -35l-219 -33zM-52 0
c-16.667 0 -31.666 4.83496 -44.999 14.502s-22.333 26.167 -27 49.5l-11 56l49 10l10 -54c2.66699 -11.333 6.5 -18.833 11.5 -22.5s10.5 -5.5 16.5 -5.5c9.33301 0 16.666 3.5 21.999 10.5s8 17.167 8 30.5c0 6.66699 -0.666992 14.5 -2 23.5s-3 18.5 -5 28.5l50 7l10 -54
c3.33301 -16.667 12.333 -25 27 -25c18.667 0 28 9.66699 28 29c0 8.66699 -1 18.667 -3 30s-5.66699 23.333 -11 36l50 11c2 -10.667 4 -20.334 6 -29.001l4 -23c1.33301 -8 2 -14.667 2 -20c0 -26.667 -7 -46.834 -21 -60.501s-33.667 -20.5 -59 -20.5
c-9.33301 0 -17.833 2.5 -25.5 7.5s-13.5 10.5 -17.5 16.5c-5.33301 -12 -13.5 -22.667 -24.5 -32s-25.167 -14 -42.5 -14zM-4.99902 270.002c0 -10.667 1.33105 -19.666 3.99805 -26.999l60 10c1.33301 5.33301 2 10.666 2 15.999c0 9.33301 -2.66699 17.5 -8 24.5
s-13.666 10.5 -24.999 10.5c-9.33301 0 -17.166 -3 -23.499 -9s-9.5 -14.333 -9.5 -25z" />
    <glyph glyph-name="uniFC62" unicode="&#xfc62;" arabic-form="isolated" 
d="M-53 91c-16.667 0 -31.666 4.83496 -44.999 14.502s-22.333 26.167 -27 49.5l-11 56l49 10l10 -54c2.66699 -11.333 6.5 -18.833 11.5 -22.5s10.5 -5.5 16.5 -5.5c9.33301 0 16.666 3.5 21.999 10.5s8 17.167 8 30.5c0 6.66699 -0.666992 14.5 -2 23.5s-3 18.5 -5 28.5
l50 7l10 -54c3.33301 -16.667 12.333 -25 27 -25c18.667 0 28 9.66699 28 29c0 8.66699 -1 18.667 -3 30s-5.66699 23.333 -11 36l50 11c2 -10.667 4 -20.334 6 -29.001l4 -23c1.33301 -8 2 -14.667 2 -20c0 -26.667 -7 -46.834 -21 -60.501s-33.667 -20.5 -59 -20.5
c-9.33301 0 -17.833 2.5 -25.5 7.5s-13.5 10.5 -17.5 16.5c-5.33301 -12 -13.5 -22.667 -24.5 -32s-25.167 -14 -42.5 -14zM-85.999 50.002l224 32v-50l-224 -32v50z" />
    <glyph glyph-name="uniFC63" unicode="&#xfc63;" arabic-form="isolated" 
d="M-52 0c-16.667 0 -31.666 4.83496 -44.999 14.502s-22.333 26.167 -27 49.5l-11 56l49 10l10 -54c2.66699 -11.333 6.5 -18.833 11.5 -22.5s10.5 -5.5 16.5 -5.5c9.33301 0 16.666 3.5 21.999 10.5s8 17.167 8 30.5c0 6.66699 -0.666992 14.5 -2 23.5s-3 18.5 -5 28.5
l50 7l10 -54c3.33301 -16.667 12.333 -25 27 -25c18.667 0 28 9.66699 28 29c0 8.66699 -1 18.667 -3 30s-5.66699 23.333 -11 36l50 11c2 -10.667 4 -20.334 6 -29.001l4 -23c1.33301 -8 2 -14.667 2 -20c0 -26.667 -7 -46.834 -21 -60.501s-33.667 -20.5 -59 -20.5
c-9.33301 0 -17.833 2.5 -25.5 7.5s-13.5 10.5 -17.5 16.5c-5.33301 -12 -13.5 -22.667 -24.5 -32s-25.167 -14 -42.5 -14zM-35.999 394.002h56v-186l-56 -8v194z" />
    <glyph glyph-name="uniFE70" unicode="&#xfe70;" arabic-form="isolated" 
d="M-16 767l224 32v-47l-224 -32v47zM-17 849l224 32v-47l-224 -32v47z" />
    <glyph glyph-name="uniFE72" unicode="&#xfe72;" arabic-form="isolated" 
d="M-27 816l47.001 19l25 -70l47 7c-4 10 -6 20.333 -6 31c0 22 6.5 41.833 19.5 59.5s34.167 26.5 63.5 26.5c22 0 39.833 -7.5 53.5 -22.5s20.5 -34.5 20.5 -58.5c0 -8.66699 -0.333008 -18 -1 -28s-2.33398 -21.667 -5.00098 -35l-223 -35zM130.001 806
c0 -10 1.33203 -19 3.99902 -27l60 10c0.666992 2.66699 1 8 1 16c0 9.33301 -2.66699 17.5 -8 24.5s-13.666 10.5 -24.999 10.5c-8.66699 0 -16.167 -3 -22.5 -9s-9.5 -14.333 -9.5 -25z" />
    <glyph glyph-name="uniFE74" unicode="&#xfe74;" arabic-form="isolated" 
d="M-16 -179l224 32v-47l-224 -32v47zM-17 -97l224 32v-47l-224 -32v47z" />
    <glyph glyph-name="uniFE76" unicode="&#xfe76;" arabic-form="isolated" 
d="M-11 745l224 32v-50l-224 -32v50z" />
    <glyph glyph-name="uniFE78" unicode="&#xfe78;" arabic-form="isolated" 
d="M-18 759l79 13c-4 10 -6 20.333 -6 31c0 22 6.33301 41.833 19 59.5s33.667 26.5 63 26.5c22.667 0 40.834 -7.5 54.501 -22.5s20.5 -34.5 20.5 -58.5c0 -8.66699 -0.333008 -18 -1 -28s-2.33398 -21.667 -5.00098 -35l-219 -33zM98 806
c0 -10.667 1.33105 -19.666 3.99805 -26.999l60 10c1.33301 5.33301 2 10.666 2 15.999c0 9.33301 -2.66699 17.5 -8 24.5s-13.666 10.5 -24.999 10.5c-9.33301 0 -17.166 -3 -23.499 -9s-9.5 -14.333 -9.5 -25z" />
    <glyph glyph-name="uniFE7A" unicode="&#xfe7a;" arabic-form="isolated" 
d="M-11 -176l224 32v-50l-224 -32v50z" />
    <glyph glyph-name="uniFE7C" unicode="&#xfe7c;" arabic-form="isolated" 
d="M43 698c-16.667 0 -31.666 4.83496 -44.999 14.502s-22.333 26.167 -27 49.5l-11 56l49 10l10 -54c2.66699 -11.333 6.5 -18.833 11.5 -22.5s10.5 -5.5 16.5 -5.5c9.33301 0 16.666 3.5 21.999 10.5s8 17.167 8 30.5c0 6.66699 -0.666992 14.5 -2 23.5s-3 18.5 -5 28.5
l50 7l10 -54c3.33301 -16.667 12.333 -25 27 -25c18.667 0 28 9.66699 28 29c0 8.66699 -1 18.667 -3 30s-5.66699 23.333 -11 36l50 11c2 -10.667 4 -20.334 6 -29.001l4 -23c1.33301 -8 2 -14.667 2 -20c0 -26.667 -7 -46.834 -21 -60.501s-33.667 -20.5 -59 -20.5
c-9.33301 0 -17.833 2.5 -25.5 7.5s-13.5 10.5 -17.5 16.5c-5.33301 -12 -13.5 -22.667 -24.5 -32s-25.167 -14 -42.5 -14z" />
    <glyph glyph-name="uniFE7E" unicode="&#xfe7e;" arabic-form="isolated" 
d="M64 701c-24.667 0 -44.167 7 -58.5 21s-21.5 36.667 -21.5 68c0 28.667 8 51 24 67s36.667 24 62 24c26 0 46.167 -8.16699 60.5 -24.5s21.5 -38.5 21.5 -66.5s-8.33301 -49.833 -25 -65.5s-37.667 -23.5 -63 -23.5zM67 748c9.33301 0 17.833 2.66699 25.5 8
s11.5 16.333 11.5 33c0 15.333 -3.66699 26.5 -11 33.5s-16 10.5 -26 10.5c-7.33301 0 -15 -3 -23 -9s-12 -17 -12 -33c0 -18 3.5 -29.667 10.5 -35s15.167 -8 24.5 -8z" />
    <glyph glyph-name="uniFE82" unicode="&#x622;" horiz-adv-x="385" arabic-form="final" 
d="M137 690h140v-550h128v-140h-268v690zM70 800h273v-65h-273v65z" />
    <glyph glyph-name="uniFE84" unicode="&#x623;" horiz-adv-x="393" arabic-form="final" 
d="M110 781c0 45.333 11.168 77.333 33.501 96s53.166 28 92.499 28h50v-45h-42c-20 0 -34 -4.33301 -42 -13s-12 -21 -12 -37h128v-75h-208v46zM145.001 690h140v-550h128v-140h-268v690z" />
    <glyph glyph-name="uniFE86" unicode="&#x624;" horiz-adv-x="629" arabic-form="final" 
d="M555 140l93.002 -0.00390625v-140h-95c-2.66699 -32.667 -9 -62.5 -19 -89.5s-25 -50.167 -45 -69.5s-45.667 -34.333 -77 -45s-69.333 -16 -114 -16c-13.333 0 -25.666 0.5 -36.999 1.5s-22.5 2.5 -33.5 4.5s-22.5 4.33301 -34.5 7l-41 11l-10 141
c27.333 -8.66699 52.666 -15 75.999 -19s46.666 -6 69.999 -6c19.333 0 36.333 0.833008 51 2.5s27.167 5.33398 37.5 11.001s18.666 13.834 24.999 24.501s10.5 24.667 12.5 42h-16c-48 0 -92.833 5.33301 -134.5 16s-78 27.334 -109 50.001s-55.333 51.834 -73 87.501
s-26.5 78.5 -26.5 128.5c0 44 8.5 83.333 25.5 118s40.667 64 71 88s66.5 42.5 108.5 55.5s88 19.5 138 19.5h158zM195.002 281.996c0 -23.333 4.16602 -43.835 12.499 -61.502s19.833 -32.5 34.5 -44.5s31.834 -21 51.501 -27s40.834 -9 63.501 -9h59v283h-59
c-20.667 0 -40.834 -3.33301 -60.501 -10s-37 -16.167 -52 -28.5s-27 -27.166 -36 -44.499s-13.5 -36.666 -13.5 -57.999zM345.001 713.994c0 45.333 11.168 77.333 33.501 96s53.166 28 92.499 28h60v-45h-52c-20 0 -34 -4.33301 -42 -13s-12 -21 -12 -37v-27h138v-75h-218
v73z" />
    <glyph glyph-name="uniFE88" unicode="&#x625;" horiz-adv-x="389" arabic-form="final" 
d="M236 -219c-39.333 0 -70.167 9.33301 -92.5 28s-33.5 50.667 -33.5 96v46h208v-75h-128c0 -16 4 -28.333 12 -37s22 -13 42 -13h42v-45h-50zM140.999 811h140v-671h128v-140h-268v811z" />
    <glyph glyph-name="uniFE8A" unicode="&#x626;" horiz-adv-x="1111" arabic-form="final" 
d="M401 -125c-30 0 -57.167 1.49805 -81.5 4.49805s-46.833 7.83301 -67.5 14.5s-39.5 15.167 -56.5 25.5s-33.167 22.833 -48.5 37.5c-24.667 23.333 -42 53.5 -52 90.5s-15 75.833 -15 116.5v219h140v-202c0 -30 3.16699 -55.5 9.5 -76.5s17.166 -38.167 32.499 -51.5
c17.333 -14.667 39 -24.667 65 -30s54 -8 84 -8h146v282c0 48 6.83301 89.5 20.5 124.5s35.5 64.5 65.5 88.5c23.333 18 51.333 31.333 84 40s68.334 13 107.001 13h189v-423h107v-140h-247v423h-64c-17.333 0 -33 -1.83301 -47 -5.5s-26.667 -10.167 -38 -19.5
s-20.333 -22.666 -27 -39.999s-10 -34.666 -10 -51.999v-431h-296zM41 526.998c0 45.333 11.168 77.333 33.501 96s53.166 28 92.499 28h60v-45h-52c-20 0 -34 -4.33301 -42 -13s-12 -21 -12 -37v-27h138v-75h-218v73z" />
    <glyph glyph-name="uniFE8B" unicode="&#x626;" horiz-adv-x="324" arabic-form="initial" 
d="M82 713c0 45.333 11.168 77.333 33.501 96s53.166 28 92.499 28h60v-45h-52c-20 0 -34 -4.33301 -42 -13s-12 -21 -12 -37v-27h138v-75h-218v73zM0.000976562 140h124v423h140v-563h-264v140z" />
    <glyph glyph-name="uniFE8C" unicode="&#x626;" horiz-adv-x="352" arabic-form="medial" 
d="M0 140h124v423h140v-423h107v-140h-371v140zM80 713c0 45.333 11.168 77.333 33.501 96s53.166 28 92.499 28h60v-45h-52c-20 0 -34 -4.33301 -42 -13s-12 -21 -12 -37v-27h138v-75h-218v73z" />
    <glyph glyph-name="uniFE8E" unicode="&#x627;" horiz-adv-x="378" arabic-form="final" 
d="M130 811h140v-671h128v-140h-268v811z" />
    <glyph glyph-name="uniFE90" unicode="&#x628;" horiz-adv-x="891" arabic-form="final" 
d="M372 0c-30 0 -57.166 1.5 -81.499 4.5s-46.833 7.83301 -67.5 14.5s-39.5 15.167 -56.5 25.5s-33.167 22.833 -48.5 37.5c-24.667 23.333 -42 53.5 -52 90.5s-15 75.833 -15 116.5v189h140v-172c0 -30 3.16699 -55.5 9.5 -76.5s17.166 -38.167 32.499 -51.5
c17.333 -14.667 39 -24.667 65 -30s54 -8 84 -8h280v423h140v-423h108v-140h-538zM479.001 -213c-22 0 -41.167 6.33301 -57.5 19s-24.5 31.334 -24.5 56.001c0 22 7.83301 39.833 23.5 53.5s35.167 20.5 58.5 20.5s42.833 -6.83301 58.5 -20.5s23.5 -31.5 23.5 -53.5
c0 -24.667 -8.16699 -43.334 -24.5 -56.001s-35.5 -19 -57.5 -19z" />
    <glyph glyph-name="uniFE91" unicode="&#x628;" horiz-adv-x="324" arabic-form="initial" 
d="M196 -213c-22 0 -41.167 6.33301 -57.5 19s-24.5 31.334 -24.5 56.001c0 22 7.83301 39.833 23.5 53.5s35.167 20.5 58.5 20.5s42.833 -6.83301 58.5 -20.5s23.5 -31.5 23.5 -53.5c0 -24.667 -8.16699 -43.334 -24.5 -56.001s-35.5 -19 -57.5 -19zM0 140h124v423h140
v-563h-264v140z" />
    <glyph glyph-name="uniFE92" unicode="&#x628;" horiz-adv-x="352" arabic-form="medial" 
d="M0 140h124v423h140v-423h107v-140h-371v140zM194 -213c-22 0 -41.167 6.33301 -57.5 19s-24.5 31.334 -24.5 56.001c0 22 7.83301 39.833 23.5 53.5s35.167 20.5 58.5 20.5s42.833 -6.83301 58.5 -20.5s23.5 -31.5 23.5 -53.5c0 -24.667 -8.16699 -43.334 -24.5 -56.001
s-35.5 -19 -57.5 -19z" />
    <glyph glyph-name="uniFE94" unicode="&#x629;" horiz-adv-x="630" arabic-form="final" 
d="M649 140l0.00195312 -139.997h-252c-50 0 -95.833 5.66699 -137.5 17s-77.667 28.666 -108 51.999s-54 52.666 -71 87.999s-25.5 76.666 -25.5 123.999c0 40.667 7.66699 78.167 23 112.5s37.666 64 66.999 89s65.166 44.667 107.499 59s90.5 21.5 144.5 21.5h20v50h140
v-473h92zM417.002 140.003v283h-54c-20.667 0 -41 -3.16699 -61 -9.5s-38 -15.5 -54 -27.5s-28.833 -26.833 -38.5 -44.5s-14.5 -37.834 -14.5 -60.501c0 -23.333 4.5 -43.666 13.5 -60.999s21 -32 36 -44s32.167 -21 51.5 -27s39.333 -9 60 -9h61zM473.002 687.003
c-21.333 0 -39.6689 6.16699 -55.002 18.5s-23 30.166 -23 53.499c0 21.333 7.5 38.5 22.5 51.5s33.5 19.5 55.5 19.5c22.667 0 41.334 -6.5 56.001 -19.5s22 -30.167 22 -51.5c0 -23.333 -7.66699 -41.166 -23 -53.499s-33.666 -18.5 -54.999 -18.5zM255.999 687.003
c-21.333 0 -39.668 6.16699 -55.001 18.5s-23 30.166 -23 53.499c0 21.333 7.5 38.5 22.5 51.5s33.5 19.5 55.5 19.5s40.5 -6.5 55.5 -19.5s22.5 -30.167 22.5 -51.5c0 -23.333 -7.66699 -41.166 -23 -53.499s-33.666 -18.5 -54.999 -18.5z" />
    <glyph glyph-name="uniFE96" unicode="&#x62a;" horiz-adv-x="891" arabic-form="final" 
d="M372 0c-30 0 -57.166 1.5 -81.499 4.5s-46.833 7.83301 -67.5 14.5s-39.5 15.167 -56.5 25.5s-33.167 22.833 -48.5 37.5c-24.667 23.333 -42 53.5 -52 90.5s-15 75.833 -15 116.5v189h140v-172c0 -30 3.16699 -55.5 9.5 -76.5s17.166 -38.167 32.499 -51.5
c17.333 -14.667 39 -24.667 65 -30s54 -8 84 -8h280v423h140v-423h108v-140h-538zM547.001 595c-21.333 0 -39.6689 6.16699 -55.002 18.5s-23 30.166 -23 53.499c0 21.333 7.5 38.5 22.5 51.5s33.5 19.5 55.5 19.5c22.667 0 41.334 -6.5 56.001 -19.5s22 -30.167 22 -51.5
c0 -23.333 -7.66699 -41.166 -23 -53.499s-33.666 -18.5 -54.999 -18.5zM329.998 595c-21.333 0 -39.668 6.16699 -55.001 18.5s-23 30.166 -23 53.499c0 21.333 7.5 38.5 22.5 51.5s33.5 19.5 55.5 19.5s40.5 -6.5 55.5 -19.5s22.5 -30.167 22.5 -51.5
c0 -23.333 -7.66699 -41.166 -23 -53.499s-33.666 -18.5 -54.999 -18.5z" />
    <glyph glyph-name="uniFE97" unicode="&#x62a;" horiz-adv-x="424" arabic-form="initial" 
d="M0 140h209v423h140v-563h-349v140zM165 648c-21.333 0 -39.668 6.16699 -55.001 18.5s-23 30.166 -23 53.499c0 21.333 7.5 38.5 22.5 51.5s33.5 19.5 55.5 19.5s40.5 -6.5 55.5 -19.5s22.5 -30.167 22.5 -51.5c0 -23.333 -7.66699 -41.166 -23 -53.499
s-33.666 -18.5 -54.999 -18.5zM381.998 648c-21.333 0 -39.6689 6.16699 -55.002 18.5s-23 30.166 -23 53.499c0 21.333 7.5 38.5 22.5 51.5s33.5 19.5 55.5 19.5c22.667 0 41.334 -6.5 56.001 -19.5s22 -30.167 22 -51.5c0 -23.333 -7.66699 -41.166 -23 -53.499
s-33.666 -18.5 -54.999 -18.5z" />
    <glyph glyph-name="uniFE98" unicode="&#x62a;" horiz-adv-x="513" arabic-form="medial" 
d="M0 140h209v423h140v-423h184v-140h-533v140zM381 648c-21.333 0 -39.6689 6.16699 -55.002 18.5s-23 30.166 -23 53.499c0 21.333 7.5 38.5 22.5 51.5s33.5 19.5 55.5 19.5c22.667 0 41.334 -6.5 56.001 -19.5s22 -30.167 22 -51.5
c0 -23.333 -7.66699 -41.166 -23 -53.499s-33.666 -18.5 -54.999 -18.5zM163.997 648c-21.333 0 -39.668 6.16699 -55.001 18.5s-23 30.166 -23 53.499c0 21.333 7.5 38.5 22.5 51.5s33.5 19.5 55.5 19.5s40.5 -6.5 55.5 -19.5s22.5 -30.167 22.5 -51.5
c0 -23.333 -7.66699 -41.166 -23 -53.499s-33.666 -18.5 -54.999 -18.5z" />
    <glyph glyph-name="uniFE9A" unicode="&#x62b;" horiz-adv-x="891" arabic-form="final" 
d="M372 0c-30 0 -57.166 1.5 -81.499 4.5s-46.833 7.83301 -67.5 14.5s-39.5 15.167 -56.5 25.5s-33.167 22.833 -48.5 37.5c-24.667 23.333 -42 53.5 -52 90.5s-15 75.833 -15 116.5v189h140v-172c0 -30 3.16699 -55.5 9.5 -76.5s17.166 -38.167 32.499 -51.5
c17.333 -14.667 39 -24.667 65 -30s54 -8 84 -8h280v423h140v-423h108v-140h-538zM546.001 601c-20 0 -37.499 5.83301 -52.499 17.5s-22.5 29.167 -22.5 52.5c0 20.667 7.16699 37.334 21.5 50.001s32.166 19 53.499 19c22 0 40.167 -6.33301 54.5 -19
s21.5 -29.334 21.5 -50.001c0 -23.333 -7.5 -40.833 -22.5 -52.5s-32.833 -17.5 -53.5 -17.5zM334.002 601c-20 0 -37.499 5.83301 -52.499 17.5s-22.5 29.167 -22.5 52.5c0 20.667 7.16699 37.334 21.5 50.001s32.166 19 53.499 19s39.333 -6.33301 54 -19
s22 -29.334 22 -50.001c0 -23.333 -7.66699 -40.833 -23 -52.5s-33 -17.5 -53 -17.5zM440.003 760c-17.333 0 -32.833 5.16699 -46.5 15.5s-20.5 25.5 -20.5 45.5c0 18 6.33301 32.667 19 44s28.667 17 48 17s35.333 -5.66699 48 -17s19 -26 19 -44
c0 -20 -6.66699 -35.167 -20 -45.5s-29 -15.5 -47 -15.5z" />
    <glyph glyph-name="uniFE9B" unicode="&#x62b;" horiz-adv-x="424" arabic-form="initial" 
d="M162 654c-20 0 -37.499 5.83301 -52.499 17.5s-22.5 29.167 -22.5 52.5c0 20.667 7.16699 37.334 21.5 50.001s32.166 19 53.499 19s39.333 -6.33301 54 -19s22 -29.334 22 -50.001c0 -23.333 -7.66699 -40.833 -23 -52.5s-33 -17.5 -53 -17.5zM268.001 813
c-17.333 0 -32.833 5.16699 -46.5 15.5s-20.5 25.5 -20.5 45.5c0 18 6.33301 32.667 19 44s28.667 17 48 17s35.333 -5.66699 48 -17s19 -26 19 -44c0 -20 -6.66699 -35.167 -20 -45.5s-29 -15.5 -47 -15.5zM374.001 654c-20 0 -37.499 5.83301 -52.499 17.5
s-22.5 29.167 -22.5 52.5c0 20.667 7.16699 37.334 21.5 50.001s32.166 19 53.499 19c22 0 40.167 -6.33301 54.5 -19s21.5 -29.334 21.5 -50.001c0 -23.333 -7.5 -40.833 -22.5 -52.5s-32.833 -17.5 -53.5 -17.5zM0.00195312 140h209v423h140v-563h-349v140z" />
    <glyph glyph-name="uniFE9C" unicode="&#x62b;" horiz-adv-x="513" arabic-form="medial" 
d="M0 140h209v423h140v-423h184v-140h-533v140zM375 654c-20 0 -37.499 5.83301 -52.499 17.5s-22.5 29.167 -22.5 52.5c0 20.667 7.16699 37.334 21.5 50.001s32.166 19 53.499 19c22 0 40.167 -6.33301 54.5 -19s21.5 -29.334 21.5 -50.001
c0 -23.333 -7.5 -40.833 -22.5 -52.5s-32.833 -17.5 -53.5 -17.5zM163.001 654c-20 0 -37.499 5.83301 -52.499 17.5s-22.5 29.167 -22.5 52.5c0 20.667 7.16699 37.334 21.5 50.001s32.166 19 53.499 19s39.333 -6.33301 54 -19s22 -29.334 22 -50.001
c0 -23.333 -7.66699 -40.833 -23 -52.5s-33 -17.5 -53 -17.5zM269.002 813c-17.333 0 -32.833 5.16699 -46.5 15.5s-20.5 25.5 -20.5 45.5c0 18 6.33301 32.667 19 44s28.667 17 48 17s35.333 -5.66699 48 -17s19 -26 19 -44c0 -20 -6.66699 -35.167 -20 -45.5
s-29 -15.5 -47 -15.5z" />
    <glyph glyph-name="uniFE9E" unicode="&#x62c;" horiz-adv-x="627" arabic-form="final" 
d="M105 -220c-24.667 35.333 -44.168 73.8359 -58.501 115.503s-21.5 89.5 -21.5 143.5c0 37.333 3 71 9 101h370c5.33301 22 9.5 46 12.5 72s4.5 49.667 4.5 71c0 20.667 -3.83301 42.167 -11.5 64.5s-20.167 41.166 -37.5 56.499c-28.667 25.333 -68 38 -118 38
c-26.667 0 -51 -3.16699 -73 -9.5s-46 -17.833 -72 -34.5l-58 122c32.667 18.667 67 33.667 103 45s75 17 117 17c41.333 0 78.833 -6.66699 112.5 -20s62.5 -32.333 86.5 -57c26.667 -26.667 48.334 -59.5 65.001 -98.5s25 -83.833 25 -134.5
c0 -22.667 -1.16699 -45 -3.5 -67s-5.5 -43.667 -9.5 -65h99v-140h-479v-15c0 -24.667 3.66699 -49.334 11 -74.001s19.333 -51.334 36 -80.001zM375.999 -212.997c-22 0 -41.167 6.33301 -57.5 19s-24.5 31.334 -24.5 56.001c0 22 7.83301 39.833 23.5 53.5
s35.167 20.5 58.5 20.5s42.833 -6.83301 58.5 -20.5s23.5 -31.5 23.5 -53.5c0 -24.667 -8.16699 -43.334 -24.5 -56.001s-35.5 -19 -57.5 -19z" />
    <glyph glyph-name="uniFE9F" unicode="&#x62c;" horiz-adv-x="617" arabic-form="initial" 
d="M0 140l415.001 0.000976562c5.33301 22 9.5 46 12.5 72s4.5 49.667 4.5 71c0 20.667 -3.83301 42.167 -11.5 64.5s-20.167 41.166 -37.5 56.499c-28.667 25.333 -68 38 -118 38c-26.667 0 -51 -3.16699 -73 -9.5s-46 -17.833 -72 -34.5l-58 122
c32.667 18.667 67 33.667 103 45s75 17 117 17c41.333 0 78.833 -6.66699 112.5 -20s62.5 -32.333 86.5 -57c26.667 -26.667 48.334 -59.5 65.001 -98.5s25 -83.833 25 -134.5c0 -26.667 -1.66699 -53 -5 -79s-7.33301 -51 -12 -75s-9.83398 -46 -15.501 -66
s-10.834 -37.333 -15.501 -52h-523v140zM274.001 -212.999c-22 0 -41.167 6.33301 -57.5 19s-24.5 31.334 -24.5 56.001c0 22 7.83301 39.833 23.5 53.5s35.167 20.5 58.5 20.5s42.833 -6.83301 58.5 -20.5s23.5 -31.5 23.5 -53.5c0 -24.667 -8.16699 -43.334 -24.5 -56.001
s-35.5 -19 -57.5 -19z" />
    <glyph glyph-name="uniFEA0" unicode="&#x62c;" horiz-adv-x="647" arabic-form="medial" 
d="M0 140l414.999 0.000976562c5.33301 22 9.5 46 12.5 72s4.5 49.667 4.5 71c0 20.667 -3.83301 42.167 -11.5 64.5s-20.167 41.166 -37.5 56.499c-28.667 25.333 -68 38 -118 38c-26.667 0 -51 -3.16699 -73 -9.5s-46 -17.833 -72 -34.5l-58 122
c32.667 18.667 67 33.667 103 45s75 17 117 17c41.333 0 78.833 -6.66699 112.5 -20s62.5 -32.333 86.5 -57c26.667 -26.667 48.334 -59.5 65.001 -98.5s25 -83.833 25 -134.5c0 -22.667 -1.16699 -45 -3.5 -67s-5.5 -43.667 -9.5 -65h108v-140h-666v140zM273.999 -212.999
c-22 0 -41.167 6.33301 -57.5 19s-24.5 31.334 -24.5 56.001c0 22 7.83301 39.833 23.5 53.5s35.167 20.5 58.5 20.5s42.833 -6.83301 58.5 -20.5s23.5 -31.5 23.5 -53.5c0 -24.667 -8.16699 -43.334 -24.5 -56.001s-35.5 -19 -57.5 -19z" />
    <glyph glyph-name="uniFEA2" unicode="&#x62d;" horiz-adv-x="627" arabic-form="final" 
d="M167 -15c0 -24.667 3.66602 -49.3311 10.999 -73.998s19.333 -51.334 36 -80.001l-109 -51c-24.667 35.333 -44.167 73.833 -58.5 115.5s-21.5 89.5 -21.5 143.5c0 37.333 3 71 9 101h370c5.33301 22 9.5 46 12.5 72s4.5 49.667 4.5 71
c0 20.667 -3.83301 42.167 -11.5 64.5s-20.167 41.166 -37.5 56.499c-28.667 25.333 -68 38 -118 38c-26.667 0 -51 -3.16699 -73 -9.5s-46 -17.833 -72 -34.5l-58 122c32.667 18.667 67 33.667 103 45s75 17 117 17c41.333 0 78.833 -6.66699 112.5 -20
s62.5 -32.333 86.5 -57c26.667 -26.667 48.334 -59.5 65.001 -98.5s25 -83.833 25 -134.5c0 -22.667 -1.16699 -45 -3.5 -67s-5.5 -43.667 -9.5 -65h99v-140h-479v-15z" />
    <glyph glyph-name="uniFEA3" unicode="&#x62d;" horiz-adv-x="617" arabic-form="initial" 
d="M0 140l415.001 0.000976562c5.33301 22 9.5 46 12.5 72s4.5 49.667 4.5 71c0 20.667 -3.83301 42.167 -11.5 64.5s-20.167 41.166 -37.5 56.499c-28.667 25.333 -68 38 -118 38c-26.667 0 -51 -3.16699 -73 -9.5s-46 -17.833 -72 -34.5l-58 122
c32.667 18.667 67 33.667 103 45s75 17 117 17c41.333 0 78.833 -6.66699 112.5 -20s62.5 -32.333 86.5 -57c26.667 -26.667 48.334 -59.5 65.001 -98.5s25 -83.833 25 -134.5c0 -26.667 -1.66699 -53 -5 -79s-7.33301 -51 -12 -75s-9.83398 -46 -15.501 -66
s-10.834 -37.333 -15.501 -52h-523v140z" />
    <glyph glyph-name="uniFEA4" unicode="&#x62d;" horiz-adv-x="647" arabic-form="medial" 
d="M0 140l414.999 0.000976562c5.33301 22 9.5 46 12.5 72s4.5 49.667 4.5 71c0 20.667 -3.83301 42.167 -11.5 64.5s-20.167 41.166 -37.5 56.499c-28.667 25.333 -68 38 -118 38c-26.667 0 -51 -3.16699 -73 -9.5s-46 -17.833 -72 -34.5l-58 122
c32.667 18.667 67 33.667 103 45s75 17 117 17c41.333 0 78.833 -6.66699 112.5 -20s62.5 -32.333 86.5 -57c26.667 -26.667 48.334 -59.5 65.001 -98.5s25 -83.833 25 -134.5c0 -22.667 -1.16699 -45 -3.5 -67s-5.5 -43.667 -9.5 -65h108v-140h-666v140z" />
    <glyph glyph-name="uniFEA6" unicode="&#x62e;" horiz-adv-x="602" arabic-form="final" 
d="M143 -15c0 -24.667 3.66602 -49.3311 10.999 -73.998s19.333 -51.334 36 -80.001l-109 -51c-24.667 35.333 -44.167 73.833 -58.5 115.5s-21.5 89.5 -21.5 143.5c0 37.333 3 71 9 101h370c5.33301 22 9.5 46 12.5 72s4.5 49.667 4.5 71
c0 20.667 -3.83301 42.167 -11.5 64.5s-20.167 41.166 -37.5 56.499c-28.667 25.333 -68 38 -118 38c-26.667 0 -51 -3.16699 -73 -9.5s-46 -17.833 -72 -34.5l-58 122c32.667 18.667 67 33.667 103 45s75 17 117 17c41.333 0 78.833 -6.66699 112.5 -20
s62.5 -32.333 86.5 -57c26.667 -26.667 48.334 -59.5 65.001 -98.5s25 -83.833 25 -134.5c0 -22.667 -1.16699 -45 -3.5 -67s-5.5 -43.667 -9.5 -65h99v-140h-479v-15zM219.999 660.003c-22 0 -41.167 6.33301 -57.5 19s-24.5 31.334 -24.5 56.001
c0 22 7.83301 39.833 23.5 53.5s35.167 20.5 58.5 20.5s42.833 -6.83301 58.5 -20.5s23.5 -31.5 23.5 -53.5c0 -24.667 -8.16699 -43.334 -24.5 -56.001s-35.5 -19 -57.5 -19z" />
    <glyph glyph-name="uniFEA7" unicode="&#x62e;" horiz-adv-x="617" arabic-form="initial" 
d="M0 140l415.001 0.000976562c5.33301 22 9.5 46 12.5 72s4.5 49.667 4.5 71c0 20.667 -3.83301 42.167 -11.5 64.5s-20.167 41.166 -37.5 56.499c-28.667 25.333 -68 38 -118 38c-26.667 0 -51 -3.16699 -73 -9.5s-46 -17.833 -72 -34.5l-58 122
c32.667 18.667 67 33.667 103 45s75 17 117 17c41.333 0 78.833 -6.66699 112.5 -20s62.5 -32.333 86.5 -57c26.667 -26.667 48.334 -59.5 65.001 -98.5s25 -83.833 25 -134.5c0 -26.667 -1.66699 -53 -5 -79s-7.33301 -51 -12 -75s-9.83398 -46 -15.501 -66
s-10.834 -37.333 -15.501 -52h-523v140zM264.001 666.001c-22 0 -41.167 6.33301 -57.5 19s-24.5 31.334 -24.5 56.001c0 22 7.83301 39.833 23.5 53.5s35.167 20.5 58.5 20.5s42.833 -6.83301 58.5 -20.5s23.5 -31.5 23.5 -53.5c0 -24.667 -8.16699 -43.334 -24.5 -56.001
s-35.5 -19 -57.5 -19z" />
    <glyph glyph-name="uniFEA8" unicode="&#x62e;" horiz-adv-x="607" arabic-form="medial" 
d="M-40 140l414.999 0.000976562c5.33301 22 9.5 46 12.5 72s4.5 49.667 4.5 71c0 20.667 -3.83301 42.167 -11.5 64.5s-20.167 41.166 -37.5 56.499c-28.667 25.333 -68 38 -118 38c-26.667 0 -51 -3.16699 -73 -9.5s-46 -17.833 -72 -34.5l-58 122
c32.667 18.667 67 33.667 103 45s75 17 117 17c41.333 0 78.833 -6.66699 112.5 -20s62.5 -32.333 86.5 -57c26.667 -26.667 48.334 -59.5 65.001 -98.5s25 -83.833 25 -134.5c0 -22.667 -1.16699 -45 -3.5 -67s-5.5 -43.667 -9.5 -65h108v-140h-666v140zM223.999 666.001
c-22 0 -41.167 6.33301 -57.5 19s-24.5 31.334 -24.5 56.001c0 22 7.83301 39.833 23.5 53.5s35.167 20.5 58.5 20.5s42.833 -6.83301 58.5 -20.5s23.5 -31.5 23.5 -53.5c0 -24.667 -8.16699 -43.334 -24.5 -56.001s-35.5 -19 -57.5 -19z" />
    <glyph glyph-name="uniFEAA" unicode="&#x62f;" horiz-adv-x="613" arabic-form="final" 
d="M35 140l348.999 0.000976562v153c0 20 -2.16699 37.5 -6.5 52.5s-11.166 28.167 -20.499 39.5c-8.66699 11.333 -20.5 20.5 -35.5 27.5s-31.5 10.5 -49.5 10.5h-60v140h46c45.333 0 85 -5.83301 119 -17.5s63.667 -30.834 89 -57.501
c21.333 -22.667 36.333 -51.5 45 -86.5s13 -73.167 13 -114.5v-147h108v-140h-597v140z" />
    <glyph glyph-name="uniFEAC" unicode="&#x630;" horiz-adv-x="613" arabic-form="final" 
d="M35 140l348.999 0.000976562v153c0 20 -2.16699 37.5 -6.5 52.5s-11.166 28.167 -20.499 39.5c-8.66699 11.333 -20.5 20.5 -35.5 27.5s-31.5 10.5 -49.5 10.5h-60v140h46c45.333 0 85 -5.83301 119 -17.5s63.667 -30.834 89 -57.501
c21.333 -22.667 36.333 -51.5 45 -86.5s13 -73.167 13 -114.5v-147h108v-140h-597v140zM285.999 637.001c-22 0 -41.167 6.33301 -57.5 19s-24.5 31.334 -24.5 56.001c0 22 7.83301 39.833 23.5 53.5s35.167 20.5 58.5 20.5s42.833 -6.83301 58.5 -20.5
s23.5 -31.5 23.5 -53.5c0 -24.667 -8.16699 -43.334 -24.5 -56.001s-35.5 -19 -57.5 -19z" />
    <glyph glyph-name="uniFEAE" unicode="&#x631;" horiz-adv-x="399" arabic-form="final" 
d="M111 -220c-13.333 0 -26.332 0.831055 -38.999 2.49805s-23.334 3.83398 -32.001 6.50098l-10 140c13.333 -3.33301 25 -5.66602 35 -6.99902s20.333 -2 31 -2c28 0 47.5 7.66699 58.5 23s16.5 40.333 16.5 75v545h140v-423h108v-140h-109
c-4 -77.333 -21.667 -133.333 -53 -168s-80 -52 -146 -52z" />
    <glyph glyph-name="uniFEB0" unicode="&#x632;" horiz-adv-x="399" arabic-form="final" 
d="M111 -220c-13.333 0 -26.332 0.831055 -38.999 2.49805s-23.334 3.83398 -32.001 6.50098l-10 140c13.333 -3.33301 25 -5.66602 35 -6.99902s20.333 -2 31 -2c28 0 47.5 7.66699 58.5 23s16.5 40.333 16.5 75v545h140v-423h108v-140h-109
c-4 -77.333 -21.667 -133.333 -53 -168s-80 -52 -146 -52zM238.001 647.998c-22 0 -41.167 6.33301 -57.5 19s-24.5 31.334 -24.5 56.001c0 22 7.83301 39.833 23.5 53.5s35.167 20.5 58.5 20.5s42.833 -6.83301 58.5 -20.5s23.5 -31.5 23.5 -53.5
c0 -24.667 -8.16699 -43.334 -24.5 -56.001s-35.5 -19 -57.5 -19z" />
    <glyph glyph-name="uniFEB2" unicode="&#x633;" horiz-adv-x="1475" arabic-form="final" 
d="M986 271c0 -48 11.5 -83.5039 34.5 -106.504s53.5 -34.5 91.5 -34.5c40 0 70 11.333 90 34s30 53.334 30 92.001v377h139v-359c0 -35.333 -3 -67 -9 -95c16 -13.333 36.833 -23.166 62.5 -29.499s51.167 -9.5 76.5 -9.5v-140c-27.333 0 -50.833 2.33301 -70.5 7
s-36.5 10.834 -50.5 18.501s-25.5 16.334 -34.5 26.001s-16.5 19.5 -22.5 29.5c-42 -60.667 -112.333 -91 -211 -91c-19.333 0 -38.333 1.5 -57 4.5s-36.667 8.16699 -54 15.5s-33.5 17.166 -48.5 29.499s-28.167 27.833 -39.5 46.5
c-25.333 -26.667 -55.333 -47.667 -90 -63s-71 -23 -109 -23h-103v-125h-230c-30 0 -57.167 1.5 -81.5 4.5s-46.833 7.83301 -67.5 14.5s-39.5 15.167 -56.5 25.5s-33.167 22.833 -48.5 37.5c-24.667 23.333 -42 53.5 -52 90.5s-15 75.833 -15 116.5v327h140v-310
c0 -30 3.16699 -55.5 9.5 -76.5s17.166 -38.167 32.499 -51.5c17.333 -14.667 39 -24.667 65 -30s54 -8 84 -8h80v548h140v-423h103c14.667 0 29.834 1.83301 45.501 5.5s30 10.334 43 20.001s23.5 22.5 31.5 38.5s12 36.333 12 61v248h140v-242z" />
    <glyph glyph-name="uniFEB3" unicode="&#x633;" horiz-adv-x="1168" arabic-form="initial" 
d="M0 140l218 -0.000976562v373h140v-373h102c14.667 0 29.834 1.83301 45.501 5.5s30 10.334 43 20.001s23.5 22.5 31.5 38.5s12 36.333 12 61v248h140v-248c1.33301 -46 13.166 -80 35.499 -102s52.5 -33 90.5 -33c40 0 70 11.333 90 34s30 53.334 30 92.001v377h139v-359
c0 -96.667 -21.333 -168.167 -64 -214.5s-107.667 -69.5 -195 -69.5c-19.333 0 -38.333 1.5 -57 4.5s-36.667 8.16699 -54 15.5s-33.5 17.166 -48.5 29.499s-28.167 27.833 -39.5 46.5c-25.333 -26.667 -55.333 -47.667 -90 -63s-71 -23 -109 -23h-460v140z" />
    <glyph glyph-name="uniFEB4" unicode="&#x633;" horiz-adv-x="1230" arabic-form="medial" 
d="M733 271c0 -48 11.499 -83.502 34.499 -106.502s53.5 -34.5 91.5 -34.5c40 0 70 11.333 90 34s30 53.334 30 92.001v377h139v-359c0 -16 -0.666992 -31.167 -2 -45.5s-3 -28.166 -5 -41.499c29.333 -31.333 76 -47 140 -47v-140c-27.333 -0 -51 2.33301 -71 7
s-37 11 -51 19s-25.5 17 -34.5 27s-16.5 20 -22.5 30c-42 -62 -113 -93 -213 -93c-19.333 0 -38.333 1.5 -57 4.5s-36.667 8.16699 -54 15.5s-33.5 17.166 -48.5 29.499s-28.167 27.833 -39.5 46.5c-25.333 -26.667 -55.333 -47.667 -90 -63s-71 -23 -109 -23h-460v140h218
v373h140v-373h102c14.667 0 29.834 1.83301 45.501 5.5s30 10.334 43 20.001s23.5 22.5 31.5 38.5s12 36.333 12 61v248h140v-242z" />
    <glyph glyph-name="uniFEB6" unicode="&#x634;" horiz-adv-x="1475" arabic-form="final" 
d="M986 271v-6.00391v-1c1.33301 -45.333 13.333 -79 36 -101s52.667 -33 90 -33c40 0 70 11.333 90 34s30 53.334 30 92.001v377h139v-359c0 -35.333 -3 -67 -9 -95c16 -13.333 36.833 -23.166 62.5 -29.499s51.167 -9.5 76.5 -9.5v-140c-27.333 0 -50.833 2.33301 -70.5 7
s-36.5 10.834 -50.5 18.501s-25.5 16.334 -34.5 26.001s-16.5 19.5 -22.5 29.5c-42 -60.667 -112.333 -91 -211 -91c-19.333 0 -38.333 1.5 -57 4.5s-36.667 8.16699 -54 15.5s-33.5 17.166 -48.5 29.499s-28.167 27.833 -39.5 46.5
c-25.333 -26.667 -55.333 -47.667 -90 -63s-71 -23 -109 -23h-103v-125h-230c-30 0 -57.167 1.5 -81.5 4.5s-46.833 7.83301 -67.5 14.5s-39.5 15.167 -56.5 25.5s-33.167 22.833 -48.5 37.5c-24.667 23.333 -42 53.5 -52 90.5s-15 75.833 -15 116.5v327h140v-310
c0 -30 3.16699 -55.5 9.5 -76.5s17.166 -38.167 32.499 -51.5c17.333 -14.667 39 -24.667 65 -30s54 -8 84 -8h80v548h140v-423h103c14.667 0 29.834 1.83301 45.501 5.5s30 10.334 43 20.001s23.5 22.5 31.5 38.5s12 36.333 12 61v248h140v-242zM1023 653.996
c-20 0 -37.499 5.83301 -52.499 17.5s-22.5 29.167 -22.5 52.5c0 20.667 7.16699 37.334 21.5 50.001s32.166 19 53.499 19c22 0 40.167 -6.33301 54.5 -19s21.5 -29.334 21.5 -50.001c0 -23.333 -7.5 -40.833 -22.5 -52.5s-32.833 -17.5 -53.5 -17.5zM811.001 653.996
c-20 0 -37.499 5.83301 -52.499 17.5s-22.5 29.167 -22.5 52.5c0 20.667 7.16699 37.334 21.5 50.001s32.166 19 53.499 19s39.333 -6.33301 54 -19s22 -29.334 22 -50.001c0 -23.333 -7.66699 -40.833 -23 -52.5s-33 -17.5 -53 -17.5zM917.002 812.996
c-17.333 0 -32.833 5.16699 -46.5 15.5s-20.5 25.5 -20.5 45.5c0 18 6.33301 32.667 19 44s28.667 17 48 17s35.333 -5.66699 48 -17s19 -26 19 -44c0 -20 -6.66699 -35.167 -20 -45.5s-29 -15.5 -47 -15.5z" />
    <glyph glyph-name="uniFEB7" unicode="&#x634;" horiz-adv-x="1168" arabic-form="initial" 
d="M0 140l217.999 -0.000976562v373h140v-373h102c14.667 0 29.834 1.83301 45.501 5.5s30 10.334 43 20.001s23.5 22.5 31.5 38.5s12 36.333 12 61v248h140v-242c0 -48 11.5 -83.5 34.5 -106.5s53.5 -34.5 91.5 -34.5c40 0 70 11.333 90 34s30 53.334 30 92.001v377h139
v-359c0 -96.667 -21.333 -168.167 -64 -214.5s-107.667 -69.5 -195 -69.5c-19.333 0 -38.333 1.5 -57 4.5s-36.667 8.16699 -54 15.5s-33.5 17.166 -48.5 29.499s-28.167 27.833 -39.5 46.5c-25.333 -26.667 -55.333 -47.667 -90 -63s-71 -23 -109 -23h-460v140z
M767.999 653.999c-20 0 -37.499 5.83301 -52.499 17.5s-22.5 29.167 -22.5 52.5c0 20.667 7.16699 37.334 21.5 50.001s32.166 19 53.499 19c22 0 40.167 -6.33301 54.5 -19s21.5 -29.334 21.5 -50.001c0 -23.333 -7.5 -40.833 -22.5 -52.5s-32.833 -17.5 -53.5 -17.5z
M556 653.999c-20 0 -37.499 5.83301 -52.499 17.5s-22.5 29.167 -22.5 52.5c0 20.667 7.16699 37.334 21.5 50.001s32.166 19 53.499 19s39.333 -6.33301 54 -19s22 -29.334 22 -50.001c0 -23.333 -7.66699 -40.833 -23 -52.5s-33 -17.5 -53 -17.5zM662.001 812.999
c-17.333 0 -32.833 5.16699 -46.5 15.5s-20.5 25.5 -20.5 45.5c0 18 6.33301 32.667 19 44s28.667 17 48 17s35.333 -5.66699 48 -17s19 -26 19 -44c0 -20 -6.66699 -35.167 -20 -45.5s-29 -15.5 -47 -15.5z" />
    <glyph glyph-name="uniFEB8" unicode="&#x634;" horiz-adv-x="1229" arabic-form="medial" 
d="M733 265l-0.000976562 -1.00195c1.33301 -45.333 13.333 -79 36 -101s52.667 -33 90 -33c40 0 70 11.333 90 34s30 53.334 30 92.001v377h139v-359c0 -17.333 -0.666992 -33.666 -2 -48.999s-3.33301 -30 -6 -44c15.333 -13.333 36.333 -23.5 63 -30.5
s52.667 -10.5 78 -10.5v-140c-27.333 -0 -51 2.33301 -71 7s-37.167 11 -51.5 19s-26 17 -35 27s-16.5 20 -22.5 30c-41.333 -62 -112 -93 -212 -93c-19.333 0 -38.333 1.5 -57 4.5s-36.667 8.16699 -54 15.5s-33.5 17.166 -48.5 29.499s-28.167 27.833 -39.5 46.5
c-25.333 -26.667 -55.333 -47.667 -90 -63s-71 -23 -109 -23h-460v140h218v373h140v-373h102c14.667 0 29.834 1.83301 45.501 5.5s30 10.334 43 20.001s23.5 22.5 31.5 38.5s12 36.333 12 61v248h140v-248zM766.999 653.998c-20 0 -37.499 5.83301 -52.499 17.5
s-22.5 29.167 -22.5 52.5c0 20.667 7.16699 37.334 21.5 50.001s32.166 19 53.499 19c22 0 40.167 -6.33301 54.5 -19s21.5 -29.334 21.5 -50.001c0 -23.333 -7.5 -40.833 -22.5 -52.5s-32.833 -17.5 -53.5 -17.5zM555 653.998c-20 0 -37.499 5.83301 -52.499 17.5
s-22.5 29.167 -22.5 52.5c0 20.667 7.16699 37.334 21.5 50.001s32.166 19 53.499 19s39.333 -6.33301 54 -19s22 -29.334 22 -50.001c0 -23.333 -7.66699 -40.833 -23 -52.5s-33 -17.5 -53 -17.5zM661.001 812.998c-17.333 0 -32.833 5.16699 -46.5 15.5
s-20.5 25.5 -20.5 45.5c0 18 6.33301 32.667 19 44s28.667 17 48 17s35.333 -5.66699 48 -17s19 -26 19 -44c0 -20 -6.66699 -35.167 -20 -45.5s-29 -15.5 -47 -15.5z" />
    <glyph glyph-name="uniFEBA" unicode="&#x635;" horiz-adv-x="1275" arabic-form="final" 
d="M382 -125c-30 0 -57.166 1.50098 -81.499 4.50098s-46.833 7.83301 -67.5 14.5s-39.5 15.167 -56.5 25.5s-33.167 22.833 -48.5 37.5c-24.667 23.333 -42 53.5 -52 90.5s-15 75.833 -15 116.5v327h140v-310c0 -30 3.16699 -55.5 9.5 -76.5s17.166 -38.167 32.499 -51.5
c17.333 -14.667 39 -24.667 65 -30s54 -8 84 -8h80v567h140v-69h309c45.333 0 85 -5.83301 119 -17.5s63.667 -30.834 89 -57.501c21.333 -22.667 36.333 -51.5 45 -86.5s13 -73.167 13 -114.5v-97h108v-140h-683v-125h-230zM612.001 374.001l-0.000976562 -233.999h435v103
c0 20 -2.16699 37.5 -6.5 52.5s-11.166 28.167 -20.499 39.5c-8.66699 11.333 -20.5 20.666 -35.5 27.999s-31.5 11 -49.5 11h-323z" />
    <glyph glyph-name="uniFEBB" unicode="&#x635;" horiz-adv-x="860" arabic-form="initial" 
d="M0 140l98 0.000976562v423h140v-50h305c45.333 0 85 -5.83301 119 -17.5s63.667 -30.834 89 -57.501c21.333 -22.667 36.333 -51.5 45 -86.5s13 -73.167 13 -114.5v-237h-809v140zM238 374.001l-0.000976562 -233.999h431v103c0 20 -2.16699 37.5 -6.5 52.5
s-11.166 28.167 -20.499 39.5c-8.66699 11.333 -20.5 20.666 -35.5 27.999s-31.5 11 -49.5 11h-319z" />
    <glyph glyph-name="uniFEBC" unicode="&#x635;" horiz-adv-x="898" arabic-form="medial" 
d="M0 140l98 0.000976562v423h140v-50h305c45.333 0 85 -5.83301 119 -17.5s63.667 -30.834 89 -57.501c21.333 -22.667 36.333 -51.5 45 -86.5s13 -73.167 13 -114.5v-97h108v-140h-917v140zM238 374.001l-0.000976562 -233.999h431v103c0 20 -2.16699 37.5 -6.5 52.5
s-11.166 28.167 -20.499 39.5c-8.66699 11.333 -20.5 20.666 -35.5 27.999s-31.5 11 -49.5 11h-319z" />
    <glyph glyph-name="uniFEBE" unicode="&#x636;" horiz-adv-x="1275" arabic-form="final" 
d="M382 -125c-30 0 -57.166 1.50098 -81.499 4.50098s-46.833 7.83301 -67.5 14.5s-39.5 15.167 -56.5 25.5s-33.167 22.833 -48.5 37.5c-24.667 23.333 -42 53.5 -52 90.5s-15 75.833 -15 116.5v327h140v-310c0 -30 3.16699 -55.5 9.5 -76.5s17.166 -38.167 32.499 -51.5
c17.333 -14.667 39 -24.667 65 -30s54 -8 84 -8h80v567h140v-69h309c45.333 0 85 -5.83301 119 -17.5s63.667 -30.834 89 -57.501c21.333 -22.667 36.333 -51.5 45 -86.5s13 -73.167 13 -114.5v-97h108v-140h-683v-125h-230zM612.001 374.001l-0.000976562 -233.999h435v103
c0 20 -2.16699 37.5 -6.5 52.5s-11.166 28.167 -20.499 39.5c-8.66699 11.333 -20.5 20.666 -35.5 27.999s-31.5 11 -49.5 11h-323zM819 603.002c-22 0 -41.167 6.33301 -57.5 19s-24.5 31.334 -24.5 56.001c0 22 7.83301 39.833 23.5 53.5s35.167 20.5 58.5 20.5
s42.833 -6.83301 58.5 -20.5s23.5 -31.5 23.5 -53.5c0 -24.667 -8.16699 -43.334 -24.5 -56.001s-35.5 -19 -57.5 -19z" />
    <glyph glyph-name="uniFEBF" unicode="&#x636;" horiz-adv-x="860" arabic-form="initial" 
d="M0 140l98 0.000976562v423h140v-50h305c45.333 0 85 -5.83301 119 -17.5s63.667 -30.834 89 -57.501c21.333 -22.667 36.333 -51.5 45 -86.5s13 -73.167 13 -114.5v-237h-809v140zM238 374.001l-0.000976562 -233.999h431v103c0 20 -2.16699 37.5 -6.5 52.5
s-11.166 28.167 -20.499 39.5c-8.66699 11.333 -20.5 20.666 -35.5 27.999s-31.5 11 -49.5 11h-319zM449.999 603.002c-22 0 -41.167 6.33301 -57.5 19s-24.5 31.334 -24.5 56.001c0 22 7.83301 39.833 23.5 53.5s35.167 20.5 58.5 20.5s42.833 -6.83301 58.5 -20.5
s23.5 -31.5 23.5 -53.5c0 -24.667 -8.16699 -43.334 -24.5 -56.001s-35.5 -19 -57.5 -19z" />
    <glyph glyph-name="uniFEC0" unicode="&#x636;" horiz-adv-x="898" arabic-form="medial" 
d="M0 140l98 0.000976562v423h140v-50h305c45.333 0 85 -5.83301 119 -17.5s63.667 -30.834 89 -57.501c21.333 -22.667 36.333 -51.5 45 -86.5s13 -73.167 13 -114.5v-97h108v-140h-917v140zM238 374.001l-0.000976562 -233.999h431v103c0 20 -2.16699 37.5 -6.5 52.5
s-11.166 28.167 -20.499 39.5c-8.66699 11.333 -20.5 20.666 -35.5 27.999s-31.5 11 -49.5 11h-319zM449.999 603.002c-22 0 -41.167 6.33301 -57.5 19s-24.5 31.334 -24.5 56.001c0 22 7.83301 39.833 23.5 53.5s35.167 20.5 58.5 20.5s42.833 -6.83301 58.5 -20.5
s23.5 -31.5 23.5 -53.5c0 -24.667 -8.16699 -43.334 -24.5 -56.001s-35.5 -19 -57.5 -19z" />
    <glyph glyph-name="uniFEC2" unicode="&#x637;" horiz-adv-x="916" arabic-form="final" 
d="M18 140l98 0.000976562v671h140v-298h305c45.333 0 85 -5.83301 119 -17.5s63.667 -30.834 89 -57.501c21.333 -22.667 36.333 -51.5 45 -86.5s13 -73.167 13 -114.5v-97h109v-140h-918v140zM256 374.001l-0.000976562 -233.999h431v103c0 20 -2.16699 37.5 -6.5 52.5
s-11.166 28.167 -20.499 39.5c-8.66699 11.333 -20.5 20.666 -35.5 27.999s-31.5 11 -49.5 11h-319z" />
    <glyph glyph-name="uniFEC3" unicode="&#x637;" horiz-adv-x="860" arabic-form="initial" 
d="M0 140l98 0.000976562v671h140v-298h305c45.333 0 85 -5.83301 119 -17.5s63.667 -30.834 89 -57.501c21.333 -22.667 36.333 -51.5 45 -86.5s13 -73.167 13 -114.5v-237h-809v140zM238 374.001l-0.000976562 -233.999h431v103c0 20 -2.16699 37.5 -6.5 52.5
s-11.166 28.167 -20.499 39.5c-8.66699 11.333 -20.5 20.666 -35.5 27.999s-31.5 11 -49.5 11h-319z" />
    <glyph glyph-name="uniFEC4" unicode="&#x637;" horiz-adv-x="898" arabic-form="medial" 
d="M0 140l98 0.000976562v671h140v-298h305c45.333 0 85 -5.83301 119 -17.5s63.667 -30.834 89 -57.501c21.333 -22.667 36.333 -51.5 45 -86.5s13 -73.167 13 -114.5v-97h108v-140h-917v140zM238 374.001l-0.000976562 -233.999h431v103c0 20 -2.16699 37.5 -6.5 52.5
s-11.166 28.167 -20.499 39.5c-8.66699 11.333 -20.5 20.666 -35.5 27.999s-31.5 11 -49.5 11h-319z" />
    <glyph glyph-name="uniFEC6" unicode="&#x638;" horiz-adv-x="916" arabic-form="final" 
d="M18 140l98 0.000976562v671h140v-298h305c45.333 0 85 -5.83301 119 -17.5s63.667 -30.834 89 -57.501c21.333 -22.667 36.333 -51.5 45 -86.5s13 -73.167 13 -114.5v-97h109v-140h-918v140zM256 374.001l-0.000976562 -233.999h431v103c0 20 -2.16699 37.5 -6.5 52.5
s-11.166 28.167 -20.499 39.5c-8.66699 11.333 -20.5 20.666 -35.5 27.999s-31.5 11 -49.5 11h-319zM471.999 603.002c-22 0 -41.167 6.33301 -57.5 19s-24.5 31.334 -24.5 56.001c0 22 7.83301 39.833 23.5 53.5s35.167 20.5 58.5 20.5s42.833 -6.83301 58.5 -20.5
s23.5 -31.5 23.5 -53.5c0 -24.667 -8.16699 -43.334 -24.5 -56.001s-35.5 -19 -57.5 -19z" />
    <glyph glyph-name="uniFEC7" unicode="&#x638;" horiz-adv-x="860" arabic-form="initial" 
d="M0 140l98 0.000976562v671h140v-298h305c45.333 0 85 -5.83301 119 -17.5s63.667 -30.834 89 -57.501c21.333 -22.667 36.333 -51.5 45 -86.5s13 -73.167 13 -114.5v-237h-809v140zM238 374.001l-0.000976562 -233.999h431v103c0 20 -2.16699 37.5 -6.5 52.5
s-11.166 28.167 -20.499 39.5c-8.66699 11.333 -20.5 20.666 -35.5 27.999s-31.5 11 -49.5 11h-319zM452.999 603.002c-22 0 -41.167 6.33301 -57.5 19s-24.5 31.334 -24.5 56.001c0 22 7.83301 39.833 23.5 53.5s35.167 20.5 58.5 20.5s42.833 -6.83301 58.5 -20.5
s23.5 -31.5 23.5 -53.5c0 -24.667 -8.16699 -43.334 -24.5 -56.001s-35.5 -19 -57.5 -19z" />
    <glyph glyph-name="uniFEC8" unicode="&#x638;" horiz-adv-x="898" arabic-form="medial" 
d="M0 140l98 0.000976562v671h140v-298h305c45.333 0 85 -5.83301 119 -17.5s63.667 -30.834 89 -57.501c21.333 -22.667 36.333 -51.5 45 -86.5s13 -73.167 13 -114.5v-97h108v-140h-917v140zM238 374.001l-0.000976562 -233.999h431v103c0 20 -2.16699 37.5 -6.5 52.5
s-11.166 28.167 -20.499 39.5c-8.66699 11.333 -20.5 20.666 -35.5 27.999s-31.5 11 -49.5 11h-319zM452.999 603.002c-22 0 -41.167 6.33301 -57.5 19s-24.5 31.334 -24.5 56.001c0 22 7.83301 39.833 23.5 53.5s35.167 20.5 58.5 20.5s42.833 -6.83301 58.5 -20.5
s23.5 -31.5 23.5 -53.5c0 -24.667 -8.16699 -43.334 -24.5 -56.001s-35.5 -19 -57.5 -19z" />
    <glyph glyph-name="uniFECA" unicode="&#x639;" horiz-adv-x="731" arabic-form="final" 
d="M120 -220c-24.667 35.333 -44.168 73.835 -58.501 115.502s-21.5 89.5 -21.5 143.5c0 37.333 3 71 9 101h148l-124 318c24 20.667 48.167 39.667 72.5 57s49 32.333 74 45s50.833 22.5 77.5 29.5s54.334 10.5 83.001 10.5c58 0 112.333 -13.333 163 -40s99 -61 145 -103
l-120 -317h183v-140h-569v-15c0 -24.667 3.66699 -49.334 11 -74.001s19.333 -51.334 36 -80.001zM379.999 452.002c-28 0 -53.668 -4.33203 -77.001 -12.999s-47.666 -22.334 -72.999 -41.001l91 -258h120l91 259c-28 19.333 -53.167 33 -75.5 41s-47.833 12 -76.5 12z" />
    <glyph glyph-name="uniFECB" unicode="&#x639;" horiz-adv-x="616" arabic-form="initial" 
d="M0 140l108.999 0.000976562c-11.333 23.333 -21.166 49 -29.499 77s-12.5 58 -12.5 90c0 48 9.33301 90 28 126s42.667 66 72 90c23.333 19.333 50.5 34 81.5 44s64.5 15 100.5 15c37.333 0 72.833 -4.83301 106.5 -14.5s67.5 -23.167 101.5 -40.5l-47 -127
c-21.333 12 -44.833 22.167 -70.5 30.5s-50.167 12.5 -73.5 12.5c-46 0 -82.333 -11.333 -109 -34c-18 -15.333 -30.667 -32.5 -38 -51.5s-11 -39.5 -11 -61.5c0 -32 4.66699 -60.833 14 -86.5s22.333 -48.834 39 -69.501h317v-140h-578v140z" />
    <glyph glyph-name="uniFECC" unicode="&#x639;" horiz-adv-x="704" arabic-form="medial" 
d="M0 140h168.999l-124 318c24 20.667 48.167 39.667 72.5 57s49 32.333 74 45s50.833 22.5 77.5 29.5s54.334 10.5 83.001 10.5c58 0 112.333 -13.333 163 -40s99 -61 145 -103l-120 -317h184v-140h-724v140zM351.999 452c-28 0 -53.668 -4.33203 -77.001 -12.999
s-47.666 -22.334 -72.999 -41.001l91 -258h120l91 259c-28 19.333 -53.167 33 -75.5 41s-47.833 12 -76.5 12z" />
    <glyph glyph-name="uniFECE" unicode="&#x63a;" horiz-adv-x="731" arabic-form="final" 
d="M120 -220c-24.667 35.333 -44.168 73.835 -58.501 115.502s-21.5 89.5 -21.5 143.5c0 37.333 3 71 9 101h148l-124 318c24 20.667 48.167 39.667 72.5 57s49 32.333 74 45s50.833 22.5 77.5 29.5s54.334 10.5 83.001 10.5c58 0 112.333 -13.333 163 -40s99 -61 145 -103
l-120 -317h183v-140h-569v-15c0 -24.667 3.66699 -49.334 11 -74.001s19.333 -51.334 36 -80.001zM379.999 452.002c-28 0 -53.668 -4.33203 -77.001 -12.999s-47.666 -22.334 -72.999 -41.001l91 -258h120l91 259c-28 19.333 -53.167 33 -75.5 41s-47.833 12 -76.5 12z
M373.998 666.003c-22 0 -41.167 6.33301 -57.5 19s-24.5 31.334 -24.5 56.001c0 22 7.83301 39.833 23.5 53.5s35.167 20.5 58.5 20.5s42.833 -6.83301 58.5 -20.5s23.5 -31.5 23.5 -53.5c0 -24.667 -8.16699 -43.334 -24.5 -56.001s-35.5 -19 -57.5 -19z" />
    <glyph glyph-name="uniFECF" unicode="&#x63a;" horiz-adv-x="616" arabic-form="initial" 
d="M0 140l108.999 0.000976562c-11.333 23.333 -21.166 49 -29.499 77s-12.5 58 -12.5 90c0 48 9.33301 90 28 126s42.667 66 72 90c23.333 19.333 50.5 34 81.5 44s64.5 15 100.5 15c37.333 0 72.833 -4.83301 106.5 -14.5s67.5 -23.167 101.5 -40.5l-47 -127
c-21.333 12 -44.833 22.167 -70.5 30.5s-50.167 12.5 -73.5 12.5c-46 0 -82.333 -11.333 -109 -34c-18 -15.333 -30.667 -32.5 -38 -51.5s-11 -39.5 -11 -61.5c0 -32 4.66699 -60.833 14 -86.5s22.333 -48.834 39 -69.501h317v-140h-578v140zM329.999 666.001
c-22 0 -41.167 6.33301 -57.5 19s-24.5 31.334 -24.5 56.001c0 22 7.83301 39.833 23.5 53.5s35.167 20.5 58.5 20.5s42.833 -6.83301 58.5 -20.5s23.5 -31.5 23.5 -53.5c0 -24.667 -8.16699 -43.334 -24.5 -56.001s-35.5 -19 -57.5 -19z" />
    <glyph glyph-name="uniFED0" unicode="&#x63a;" horiz-adv-x="704" arabic-form="medial" 
d="M0 140h168.999l-124 318c24 20.667 48.167 39.667 72.5 57s49 32.333 74 45s50.833 22.5 77.5 29.5s54.334 10.5 83.001 10.5c58 0 112.333 -13.333 163 -40s99 -61 145 -103l-120 -317h184v-140h-724v140zM351.999 452c-28 0 -53.668 -4.33203 -77.001 -12.999
s-47.666 -22.334 -72.999 -41.001l91 -258h120l91 259c-28 19.333 -53.167 33 -75.5 41s-47.833 12 -76.5 12zM349.998 666.001c-22 0 -41.167 6.33301 -57.5 19s-24.5 31.334 -24.5 56.001c0 22 7.83301 39.833 23.5 53.5s35.167 20.5 58.5 20.5
s42.833 -6.83301 58.5 -20.5s23.5 -31.5 23.5 -53.5c0 -24.667 -8.16699 -43.334 -24.5 -56.001s-35.5 -19 -57.5 -19z" />
    <glyph glyph-name="uniFED2" unicode="&#x641;" horiz-adv-x="1086" arabic-form="final" 
d="M372 0c-30 0 -57.1631 1.50098 -81.4961 4.50098s-46.833 7.83301 -67.5 14.5s-39.5 15.167 -56.5 25.5s-33.167 22.833 -48.5 37.5c-24.667 23.333 -42 53.5 -52 90.5s-15 75.833 -15 116.5v189h140v-172c0 -30 3.16699 -55.5 9.5 -76.5s17.166 -38.167 32.499 -51.5
c17.333 -14.667 39 -24.667 65 -30s54 -8 84 -8h163c-14.667 19.333 -26.334 40.666 -35.001 63.999s-13 49.333 -13 78c0 44 8.16699 83.333 24.5 118s39.166 64.167 68.499 88.5s64.666 42.833 105.999 55.5s87 19 137 19h165v-423h107v-140h-733zM637.004 282.001
c0 -30.667 6.83301 -57.999 20.5 -81.999s32.167 -44 55.5 -60h145v283h-59c-20 0 -39.833 -3 -59.5 -9s-37 -15 -52 -27s-27.167 -26.833 -36.5 -44.5s-14 -37.834 -14 -60.501zM805.004 648.002c-22 0 -41.167 6.33301 -57.5 19s-24.5 31.334 -24.5 56.001
c0 22 7.83301 39.833 23.5 53.5s35.167 20.5 58.5 20.5s42.833 -6.83301 58.5 -20.5s23.5 -31.5 23.5 -53.5c0 -24.667 -8.16699 -43.334 -24.5 -56.001s-35.5 -19 -57.5 -19z" />
    <glyph glyph-name="uniFED3" unicode="&#x641;" horiz-adv-x="632" arabic-form="initial" 
d="M0 140l134.003 0.000976562c-14.667 19.333 -26.334 40.666 -35.001 63.999s-13 49.333 -13 78c0 44 8.16699 83.333 24.5 118s39.166 64.167 68.499 88.5s64.666 42.833 105.999 55.5s87 19 137 19h165v-563h-587v140zM226.003 282.001
c0 -30.667 6.83301 -57.999 20.5 -81.999s32.167 -44 55.5 -60h145v283h-59c-20 0 -39.833 -3 -59.5 -9s-37 -15 -52 -27s-27.167 -26.833 -36.5 -44.5s-14 -37.834 -14 -60.501zM380.003 648.002c-22 0 -41.167 6.33301 -57.5 19s-24.5 31.334 -24.5 56.001
c0 22 7.83301 39.833 23.5 53.5s35.167 20.5 58.5 20.5s42.833 -6.83301 58.5 -20.5s23.5 -31.5 23.5 -53.5c0 -24.667 -8.16699 -43.334 -24.5 -56.001s-35.5 -19 -57.5 -19z" />
    <glyph glyph-name="uniFED4" unicode="&#x641;" horiz-adv-x="660" arabic-form="medial" 
d="M0 140l134.003 0.000976562c-14.667 19.333 -26.334 40.666 -35.001 63.999s-13 49.333 -13 78c0 44 8.16699 83.333 24.5 118s39.166 64.167 68.499 88.5s64.666 42.833 105.999 55.5s87 19 137 19h165v-423h93v-140h-680v140zM226.003 282.001
c0 -30.667 6.83301 -57.999 20.5 -81.999s32.167 -44 55.5 -60h145v283h-59c-20 0 -39.833 -3 -59.5 -9s-37 -15 -52 -27s-27.167 -26.833 -36.5 -44.5s-14 -37.834 -14 -60.501zM379.003 648.002c-22 0 -41.167 6.33301 -57.5 19s-24.5 31.334 -24.5 56.001
c0 22 7.83301 39.833 23.5 53.5s35.167 20.5 58.5 20.5s42.833 -6.83301 58.5 -20.5s23.5 -31.5 23.5 -53.5c0 -24.667 -8.16699 -43.334 -24.5 -56.001s-35.5 -19 -57.5 -19z" />
    <glyph glyph-name="uniFED6" unicode="&#x642;" horiz-adv-x="903" arabic-form="final" 
d="M373 -220c-30 0 -57.166 1.49805 -81.499 4.49805s-46.833 7.83301 -67.5 14.5s-39.5 15.167 -56.5 25.5s-33.167 22.833 -48.5 37.5c-24.667 23.333 -42 53.5 -52 90.5s-15 75.833 -15 116.5v219h140v-202c0 -30 3.16699 -55.5 9.5 -76.5s17.166 -38.167 32.499 -51.5
c17.333 -14.667 39 -24.667 65 -30s54 -8 84 -8h291v80h-18c-48 0 -92.833 5.33301 -134.5 16s-78 27.334 -109 50.001s-55.333 51.834 -73 87.501s-26.5 78.5 -26.5 128.5c0 44 8.5 83.333 25.5 118s40.667 64 71 88s66.5 42.5 108.5 55.5s88 19.5 138 19.5h158v-423h108
v-140h-108v-220h-441zM453.001 281.998c0 -23.333 4.16602 -43.835 12.499 -61.502s19.833 -32.5 34.5 -44.5s31.834 -21 51.501 -27s40.834 -9 63.501 -9h59v283h-59c-20.667 0 -40.834 -3.33301 -60.501 -10s-37 -16.167 -52 -28.5s-27 -27.166 -36 -44.499
s-13.5 -36.666 -13.5 -57.999zM732 647.996c-21.333 0 -39.6689 6.16699 -55.002 18.5s-23 30.166 -23 53.499c0 21.333 7.5 38.5 22.5 51.5s33.5 19.5 55.5 19.5c22.667 0 41.334 -6.5 56.001 -19.5s22 -30.167 22 -51.5c0 -23.333 -7.66699 -41.166 -23 -53.499
s-33.666 -18.5 -54.999 -18.5zM514.997 647.996c-21.333 0 -39.668 6.16699 -55.001 18.5s-23 30.166 -23 53.499c0 21.333 7.5 38.5 22.5 51.5s33.5 19.5 55.5 19.5s40.5 -6.5 55.5 -19.5s22.5 -30.167 22.5 -51.5c0 -23.333 -7.66699 -41.166 -23 -53.499
s-33.666 -18.5 -54.999 -18.5z" />
    <glyph glyph-name="uniFED7" unicode="&#x642;" horiz-adv-x="632" arabic-form="initial" 
d="M0 140l134.003 0.000976562c-14.667 19.333 -26.334 40.666 -35.001 63.999s-13 49.333 -13 78c0 44 8.16699 83.333 24.5 118s39.166 64.167 68.499 88.5s64.666 42.833 105.999 55.5s87 19 137 19h165v-563h-587v140zM226.003 282.001
c0 -30.667 6.83301 -57.999 20.5 -81.999s32.167 -44 55.5 -60h145v283h-59c-20 0 -39.833 -3 -59.5 -9s-37 -15 -52 -27s-27.167 -26.833 -36.5 -44.5s-14 -37.834 -14 -60.501zM490.003 648.002c-21.333 0 -39.6689 6.16699 -55.002 18.5s-23 30.166 -23 53.499
c0 21.333 7.5 38.5 22.5 51.5s33.5 19.5 55.5 19.5c22.667 0 41.334 -6.5 56.001 -19.5s22 -30.167 22 -51.5c0 -23.333 -7.66699 -41.166 -23 -53.499s-33.666 -18.5 -54.999 -18.5zM273 648.002c-21.333 0 -39.668 6.16699 -55.001 18.5s-23 30.166 -23 53.499
c0 21.333 7.5 38.5 22.5 51.5s33.5 19.5 55.5 19.5s40.5 -6.5 55.5 -19.5s22.5 -30.167 22.5 -51.5c0 -23.333 -7.66699 -41.166 -23 -53.499s-33.666 -18.5 -54.999 -18.5z" />
    <glyph glyph-name="uniFED8" unicode="&#x642;" horiz-adv-x="659" arabic-form="medial" 
d="M0 140l134.003 0.000976562c-14.667 19.333 -26.334 40.666 -35.001 63.999s-13 49.333 -13 78c0 44 8.16699 83.333 24.5 118s39.166 64.167 68.499 88.5s64.666 42.833 105.999 55.5s87 19 137 19h165v-423h92v-140h-679v140zM226.003 282.001
c0 -30.667 6.83301 -57.999 20.5 -81.999s32.167 -44 55.5 -60h145v283h-59c-20 0 -39.833 -3 -59.5 -9s-37 -15 -52 -27s-27.167 -26.833 -36.5 -44.5s-14 -37.834 -14 -60.501zM490.003 648.002c-21.333 0 -39.6689 6.16699 -55.002 18.5s-23 30.166 -23 53.499
c0 21.333 7.5 38.5 22.5 51.5s33.5 19.5 55.5 19.5c22.667 0 41.334 -6.5 56.001 -19.5s22 -30.167 22 -51.5c0 -23.333 -7.66699 -41.166 -23 -53.499s-33.666 -18.5 -54.999 -18.5zM273 648.002c-21.333 0 -39.668 6.16699 -55.001 18.5s-23 30.166 -23 53.499
c0 21.333 7.5 38.5 22.5 51.5s33.5 19.5 55.5 19.5s40.5 -6.5 55.5 -19.5s22.5 -30.167 22.5 -51.5c0 -23.333 -7.66699 -41.166 -23 -53.499s-33.666 -18.5 -54.999 -18.5z" />
    <glyph glyph-name="uniFEDA" unicode="&#x643;" horiz-adv-x="953" arabic-form="final" 
d="M410 0c-30 0 -57.166 1.5 -81.499 4.5s-46.833 7.83301 -67.5 14.5s-39.5 15.167 -56.5 25.5s-33.167 22.833 -48.5 37.5c-24.667 23.333 -42 53.5 -52 90.5s-15 75.833 -15 116.5v189h140v-172c0 -30 3.16699 -55.5 9.5 -76.5s17.166 -38.167 32.499 -51.5
c17.333 -14.667 39 -24.667 65 -30s54 -8 84 -8h280v671h140v-671h108v-140h-538zM364.001 422c0 45.333 11.168 77.333 33.501 96s53.166 28 92.499 28h60v-45h-52c-20 0 -34 -4.33301 -42 -13s-12 -21 -12 -37v-27h138v-75h-218v73z" />
    <glyph glyph-name="uniFEDB" unicode="&#x643;" horiz-adv-x="816" arabic-form="initial" 
d="M0 140l622.999 0.00195312v107c0 20 -2.16699 37.5 -6.5 52.5s-11.166 28.167 -20.499 39.5c-8.66699 11.333 -20.5 20.666 -35.5 27.999s-31.5 11 -49.5 11h-418c-12.667 16.667 -23.5 36.5 -32.5 59.5s-14.167 49.5 -15.5 79.5l162 294h150l-155 -294h295
c45.333 0 85 -5.83301 119 -17.5s63.667 -30.834 89 -57.501c21.333 -22.667 36.333 -51.5 45 -86.5s13 -73.167 13 -114.5v-241h-763v140z" />
    <glyph glyph-name="uniFEDC" unicode="&#x643;" horiz-adv-x="851" arabic-form="medial" 
d="M0 140l622.999 0.00195312v107c0 20 -2.16699 37.5 -6.5 52.5s-11.166 28.167 -20.499 39.5c-8.66699 11.333 -20.5 20.666 -35.5 27.999s-31.5 11 -49.5 11h-418c-12.667 16.667 -23.5 36.5 -32.5 59.5s-14.167 49.5 -15.5 79.5l162 294h150l-155 -294h295
c45.333 0 85 -5.83301 119 -17.5s63.667 -30.834 89 -57.501c21.333 -22.667 36.333 -51.5 45 -86.5s13 -73.167 13 -114.5v-101h107v-140h-870v140z" />
    <glyph glyph-name="uniFEDE" unicode="&#x644;" horiz-adv-x="714" arabic-form="final" 
d="M376 -125c-30 0 -57.166 1.5 -81.499 4.5s-46.833 7.83301 -67.5 14.5s-39.5 15.167 -56.5 25.5s-33.167 22.833 -48.5 37.5c-24.667 23.333 -42 53.5 -52 90.5s-15 75.833 -15 116.5v327h140v-310c0 -30 3.16699 -55.5 9.5 -76.5s17.166 -38.167 32.499 -51.5
c17.333 -14.667 39 -24.667 65 -30s54 -8 84 -8h80v796h206v-140h-66v-531h128v-140h-128v-125h-230z" />
    <glyph glyph-name="uniFEDF" unicode="&#x644;" horiz-adv-x="343" arabic-form="initial" 
d="M0 140h98v671h205v-140h-65v-671h-238v140z" />
    <glyph glyph-name="uniFEE0" unicode="&#x644;" horiz-adv-x="346" arabic-form="medial" 
d="M0 140h98v671h140v-671h128v-140h-366v140z" />
    <glyph glyph-name="uniFEE2" unicode="&#x645;" horiz-adv-x="962" arabic-form="final" 
d="M572 -110c-33.333 0 -65.1699 5.33008 -95.5029 15.9971s-58 25.334 -83 44.001s-46.667 40.834 -65 66.501s-32.166 53.5 -41.499 83.5c-37.333 -2.66699 -64.666 -16 -81.999 -40c-11.333 -15.333 -19.166 -34.333 -23.499 -57s-6.5 -47 -6.5 -73v-150h-140v152
c0 52 6 97 18 135s30.667 71 56 99c10.667 12 22.834 22.5 36.501 31.5s28 16.667 43 23s30.167 11.166 45.5 14.499s29.666 5 42.999 5c6 36 17.667 69.667 35 101s39.166 58.333 65.499 81s56 40.5 89 53.5s68.167 19.5 105.5 19.5c42 0 81.5 -7.83301 118.5 -23.5
s69.333 -37.167 97 -64.5s49.334 -59.666 65.001 -96.999s23.5 -77.666 23.5 -120.999c0 -8.66699 -0.333008 -17 -1 -25s-1.66699 -16 -3 -24h110v-140h-175c-28 -34 -62.5 -60.833 -103.5 -80.5s-84.833 -29.5 -131.5 -29.5zM571.996 29.9971
c22.667 0 44 4.00098 64 12.001s37.5 19.167 52.5 33.5s26.667 31.333 35 51s12.5 41.167 12.5 64.5s-4 45 -12 65s-19.333 37.333 -34 52s-32 26.167 -52 34.5s-42 12.5 -66 12.5c-23.333 0 -44.666 -4.33301 -63.999 -13s-36 -20.334 -50 -35.001s-25 -32 -33 -52
s-12 -41.333 -12 -64s4 -43.834 12 -63.501s19.167 -36.667 33.5 -51s31.166 -25.666 50.499 -33.999s40.333 -12.5 63 -12.5z" />
    <glyph glyph-name="uniFEE3" unicode="&#x645;" horiz-adv-x="730" arabic-form="initial" 
d="M0 140l97.001 -0.00195312c-2.66699 10 -4.5 20.333 -5.5 31s-1.5 21.667 -1.5 33c0 42.667 7.83301 82.5 23.5 119.5s37 69.333 64 97s58.667 49.5 95 65.5s75.166 24 116.499 24c42 0 81.5 -7.83301 118.5 -23.5s69.333 -37.167 97 -64.5
s49.334 -59.666 65.001 -96.999s23.5 -77.666 23.5 -120.999c0 -42.667 -8.16699 -82.167 -24.5 -118.5s-38.5 -67.833 -66.5 -94.5s-60.333 -47.667 -97 -63s-75.334 -23 -116.001 -23c-42.667 0 -82.667 8.5 -120 25.5s-70 40.167 -98 69.5h-171v140zM389.001 44.998
c22.667 0 44 4.00098 64 12.001s37.5 19.167 52.5 33.5s26.667 31.333 35 51s12.5 41.167 12.5 64.5s-4 45 -12 65s-19.333 37.333 -34 52s-32 26.167 -52 34.5s-42 12.5 -66 12.5c-23.333 0 -44.666 -4.33301 -63.999 -13s-36 -20.334 -50 -35.001s-25 -32 -33 -52
s-12 -41.333 -12 -64s4 -43.834 12 -63.501s19.167 -36.667 33.5 -51s31.166 -25.666 50.499 -33.999s40.333 -12.5 63 -12.5z" />
    <glyph glyph-name="uniFEE4" unicode="&#x645;" horiz-adv-x="778" arabic-form="medial" 
d="M0 140l96.999 -0.00195312c-2.66699 10 -4.5 20.333 -5.5 31s-1.5 21.667 -1.5 33c0 42.667 7.83301 82.5 23.5 119.5s37 69.333 64 97s58.667 49.5 95 65.5s75.166 24 116.499 24c42 0 81.5 -7.83301 118.5 -23.5s69.333 -37.167 97 -64.5
s49.334 -59.666 65.001 -96.999s23.5 -77.666 23.5 -120.999c0 -11.333 -0.666992 -22.333 -2 -33s-3 -21 -5 -31h112v-140h-187c-28 -30 -61.167 -53.333 -99.5 -70s-79.166 -25 -122.499 -25c-42.667 0 -82.667 8.5 -120 25.5s-70 40.167 -98 69.5h-171v140z
M388.999 44.998c22.667 0 44 4.00098 64 12.001s37.5 19.167 52.5 33.5s26.667 31.333 35 51s12.5 41.167 12.5 64.5s-4 45 -12 65s-19.333 37.333 -34 52s-32 26.167 -52 34.5s-42 12.5 -66 12.5c-23.333 0 -44.666 -4.33301 -63.999 -13s-36 -20.334 -50 -35.001
s-25 -32 -33 -52s-12 -41.333 -12 -64s4 -43.834 12 -63.501s19.167 -36.667 33.5 -51s31.166 -25.666 50.499 -33.999s40.333 -12.5 63 -12.5z" />
    <glyph glyph-name="uniFEE6" unicode="&#x646;" horiz-adv-x="695" arabic-form="final" 
d="M376 -125c-30 0 -57.166 1.5 -81.499 4.5s-46.833 7.83301 -67.5 14.5s-39.5 15.167 -56.5 25.5s-33.167 22.833 -48.5 37.5c-24.667 23.333 -42 53.5 -52 90.5s-15 75.833 -15 116.5v327h140v-310c0 -30 3.16699 -55.5 9.5 -76.5s17.166 -38.167 32.499 -51.5
c17.333 -14.667 39 -24.667 65 -30s54 -8 84 -8h80v476h140v-351h108v-140h-108v-125h-230zM338.001 580c-22 0 -41.167 6.33301 -57.5 19s-24.5 31.334 -24.5 56.001c0 22 7.83301 39.833 23.5 53.5s35.167 20.5 58.5 20.5s42.833 -6.83301 58.5 -20.5
s23.5 -31.5 23.5 -53.5c0 -24.667 -8.16699 -43.334 -24.5 -56.001s-35.5 -19 -57.5 -19z" />
    <glyph glyph-name="uniFEE7" unicode="&#x646;" horiz-adv-x="324" arabic-form="initial" 
d="M191 648c-22 0 -41.167 6.33301 -57.5 19s-24.5 31.334 -24.5 56.001c0 22 7.83301 39.833 23.5 53.5s35.167 20.5 58.5 20.5s42.833 -6.83301 58.5 -20.5s23.5 -31.5 23.5 -53.5c0 -24.667 -8.16699 -43.334 -24.5 -56.001s-35.5 -19 -57.5 -19zM0 140h124v423h140v-563
h-264v140z" />
    <glyph glyph-name="uniFEE8" unicode="&#x646;" horiz-adv-x="352" arabic-form="medial" 
d="M0 140h124v423h140v-423h107v-140h-371v140zM190 648c-22 0 -41.167 6.33301 -57.5 19s-24.5 31.334 -24.5 56.001c0 22 7.83301 39.833 23.5 53.5s35.167 20.5 58.5 20.5s42.833 -6.83301 58.5 -20.5s23.5 -31.5 23.5 -53.5c0 -24.667 -8.16699 -43.334 -24.5 -56.001
s-35.5 -19 -57.5 -19z" />
    <glyph glyph-name="uniFEE9" unicode="&#x647;" horiz-adv-x="618" arabic-form="isolated" 
d="M397 0c-50 0 -95.8311 5.66992 -137.498 17.0029s-77.667 28.666 -108 51.999s-54 52.666 -71 87.999s-25.5 76.666 -25.5 123.999c0 40.667 7.66699 78.167 23 112.5s37.666 64 66.999 89s65.166 44.667 107.499 59s90.5 21.5 144.5 21.5h20v50h140v-613h-160z
M417.002 140.003v283h-54c-20.667 0 -41 -3.16699 -61 -9.5s-38 -15.5 -54 -27.5s-28.833 -26.833 -38.5 -44.5s-14.5 -37.834 -14.5 -60.501c0 -23.333 4.5 -43.666 13.5 -60.999s21 -32 36 -44s32.167 -21 51.5 -27s39.333 -9 60 -9h61z" />
    <glyph glyph-name="uniFEEA" unicode="&#x647;" horiz-adv-x="630" arabic-form="final" 
d="M649 140l0.00195312 -139.997h-252c-50 0 -95.833 5.66699 -137.5 17s-77.667 28.666 -108 51.999s-54 52.666 -71 87.999s-25.5 76.666 -25.5 123.999c0 40.667 7.66699 78.167 23 112.5s37.666 64 66.999 89s65.166 44.667 107.499 59s90.5 21.5 144.5 21.5h20v50h140
v-473h92zM417.002 140.003v283h-54c-20.667 0 -41 -3.16699 -61 -9.5s-38 -15.5 -54 -27.5s-28.833 -26.833 -38.5 -44.5s-14.5 -37.834 -14.5 -60.501c0 -23.333 4.5 -43.666 13.5 -60.999s21 -32 36 -44s32.167 -21 51.5 -27s39.333 -9 60 -9h61z" />
    <glyph glyph-name="uniFEEB" unicode="&#x647;" horiz-adv-x="806" arabic-form="initial" 
d="M0 140h113.995c-2 9.33301 -4 20.5 -6 33.5s-3 25.833 -3 38.5c0 74.667 18.333 131.834 55 171.501s87.334 59.5 152.001 59.5c30 0 57.833 -5.5 83.5 -16.5s47.834 -26.5 66.501 -46.5s33.167 -44.167 43.5 -72.5s15.5 -59.833 15.5 -94.5
c0 -12.667 -0.833008 -25.667 -2.5 -39s-3.5 -24.666 -5.5 -33.999h91c2.66699 17.333 4.66699 34 6 50s2 31 2 45c0 40 -4.16699 75.333 -12.5 106s-21.5 60 -39.5 88c-22.667 34 -52.5 59.667 -89.5 77s-83.833 26 -140.5 26c-42 0 -81.167 -7 -117.5 -21
s-67.833 -28.333 -94.5 -43l-47 127c45.333 22.667 93.333 41.334 144 56.001s101 22 151 22c36.667 0 70.334 -4 101.001 -12s58.5 -19 83.5 -33s47.333 -30.667 67 -50s37.167 -40 52.5 -62c28 -40.667 48.667 -86.5 62 -137.5s20 -106.833 20 -167.5
c0 -16.667 -1.16699 -34.334 -3.5 -53.001s-5.16602 -37.334 -8.49902 -56.001s-7.16602 -36.834 -11.499 -54.501s-8.83301 -33.5 -13.5 -47.5h-715v140zM229.995 215c0 -14.667 0.833984 -28.5 2.50098 -41.5s3.16699 -24.167 4.5 -33.5h152
c1.33301 9.33301 2.83301 20.5 4.5 33.5s2.5 26.833 2.5 41.5c0 32 -7.33301 57.167 -22 75.5s-35.334 27.5 -62.001 27.5c-28 0 -48.667 -9.16699 -62 -27.5s-20 -43.5 -20 -75.5z" />
    <glyph glyph-name="uniFEEC" unicode="&#x647;" horiz-adv-x="822" arabic-form="medial" 
d="M0 140l113.997 -0.00195312c-2 9.33301 -4 20.5 -6 33.5s-3 25.833 -3 38.5c0 74.667 18.333 131.834 55 171.501s87.334 59.5 152.001 59.5c30 0 57.833 -5.5 83.5 -16.5s47.834 -26.5 66.501 -46.5s33.167 -44.167 43.5 -72.5s15.5 -59.833 15.5 -94.5
c0 -12.667 -0.833008 -25.667 -2.5 -39s-3.5 -24.666 -5.5 -33.999h91c2.66699 17.333 4.66699 34 6 50s2 31 2 45c0 40 -4.16699 75.333 -12.5 106s-21.5 60 -39.5 88c-22.667 34 -52.5 59.667 -89.5 77s-83.833 26 -140.5 26c-42 0 -81.167 -7 -117.5 -21
s-67.833 -28.333 -94.5 -43l-47 127c45.333 22.667 93.333 41.334 144 56.001s101 22 151 22c36.667 0 70.334 -4 101.001 -12s58.5 -19 83.5 -33s47.333 -30.667 67 -50s37.167 -40 52.5 -62c28 -40.667 48.667 -86.5 62 -137.5s20 -106.833 20 -167.5
c0 -22.667 -2 -46.334 -6 -71.001h96v-140h-842v140zM229.997 214.998c0 -14.667 0.833984 -28.5 2.50098 -41.5s3.16699 -24.167 4.5 -33.5h152c1.33301 9.33301 2.83301 20.5 4.5 33.5s2.5 26.833 2.5 41.5c0 32 -7.33301 57.167 -22 75.5s-35.334 27.5 -62.001 27.5
c-28 0 -48.667 -9.16699 -62 -27.5s-20 -43.5 -20 -75.5z" />
    <glyph glyph-name="uniFEEE" unicode="&#x648;" horiz-adv-x="629" arabic-form="final" 
d="M555 140l93.002 -0.00390625v-140h-95c-2.66699 -32.667 -9 -62.5 -19 -89.5s-25 -50.167 -45 -69.5s-45.667 -34.333 -77 -45s-69.333 -16 -114 -16c-13.333 0 -25.666 0.5 -36.999 1.5s-22.5 2.5 -33.5 4.5s-22.5 4.33301 -34.5 7l-41 11l-10 141
c27.333 -8.66699 52.666 -15 75.999 -19s46.666 -6 69.999 -6c19.333 0 36.333 0.833008 51 2.5s27.167 5.33398 37.5 11.001s18.666 13.834 24.999 24.501s10.5 24.667 12.5 42h-16c-48 0 -92.833 5.33301 -134.5 16s-78 27.334 -109 50.001s-55.333 51.834 -73 87.501
s-26.5 78.5 -26.5 128.5c0 44 8.5 83.333 25.5 118s40.667 64 71 88s66.5 42.5 108.5 55.5s88 19.5 138 19.5h158zM195.002 281.996c0 -23.333 4.16602 -43.835 12.499 -61.502s19.833 -32.5 34.5 -44.5s31.834 -21 51.501 -27s40.834 -9 63.501 -9h59v283h-59
c-20.667 0 -40.834 -3.33301 -60.501 -10s-37 -16.167 -52 -28.5s-27 -27.166 -36 -44.499s-13.5 -36.666 -13.5 -57.999z" />
    <glyph glyph-name="uniFEF0" unicode="&#x649;" horiz-adv-x="1081" arabic-form="final" 
d="M371 -125c-30 0 -57.167 1.49805 -81.5 4.49805s-46.833 7.83301 -67.5 14.5s-39.5 15.167 -56.5 25.5s-33.167 22.833 -48.5 37.5c-24.667 23.333 -42 53.5 -52 90.5s-15 75.833 -15 116.5v219h140v-202c0 -30 3.16699 -55.5 9.5 -76.5s17.166 -38.167 32.499 -51.5
c17.333 -14.667 39 -24.667 65 -30s54 -8 84 -8h146v282c0 48 6.83301 89.5 20.5 124.5s35.5 64.5 65.5 88.5c23.333 18 51.333 31.333 84 40s68.334 13 107.001 13h189v-423h107v-140h-247v423h-64c-17.333 0 -33 -1.83301 -47 -5.5s-26.667 -10.167 -38 -19.5
s-20.333 -22.666 -27 -39.999s-10 -34.666 -10 -51.999v-431h-296z" />
    <glyph glyph-name="uniFEF2" unicode="&#x64a;" horiz-adv-x="1012" arabic-form="final" 
d="M784 423l-63.999 -0.00292969c-17.333 0 -33 -1.83301 -47 -5.5s-26.667 -10.167 -38 -19.5s-20.333 -22.666 -27 -39.999s-10 -34.666 -10 -51.999v-431h-290c-34.667 0 -64.834 1.16699 -90.501 3.5s-49.334 6 -71.001 11s-42.167 11.833 -61.5 20.5
s-40.333 19.334 -63 32.001l56 123c32.667 -18.667 63.5 -31.667 92.5 -39s59.833 -11 92.5 -11h195v282c0 48 6.83301 89.5 20.5 124.5s35.5 64.5 65.5 88.5c23.333 18 51.333 31.333 84 40s68.334 13 107.001 13h189v-423h107v-140h-247v423zM287.001 92.9971
c-22 0 -41.167 6.33301 -57.5 19s-24.5 31.334 -24.5 56.001c0 22 7.83301 39.833 23.5 53.5s35.167 20.5 58.5 20.5s42.833 -6.83301 58.5 -20.5s23.5 -31.5 23.5 -53.5c0 -24.667 -8.16699 -43.334 -24.5 -56.001s-35.5 -19 -57.5 -19zM287.001 304.997
c-22 0 -41.167 6.33301 -57.5 19s-24.5 31.334 -24.5 56.001c0 22 7.83301 39.833 23.5 53.5s35.167 20.5 58.5 20.5s42.833 -6.83301 58.5 -20.5s23.5 -31.5 23.5 -53.5c0 -24.667 -8.16699 -43.334 -24.5 -56.001s-35.5 -19 -57.5 -19z" />
    <glyph glyph-name="uniFEF3" unicode="&#x64a;" horiz-adv-x="426" arabic-form="initial" 
d="M112 -213c-21.333 0 -39.668 6 -55.001 18s-23 29.667 -23 53c0 21.333 7.5 38.666 22.5 51.999s33.5 20 55.5 20s40.5 -6.66699 55.5 -20s22.5 -30.666 22.5 -51.999c0 -23.333 -7.66699 -41 -23 -53s-33.666 -18 -54.999 -18zM328.998 -213
c-21.333 0 -39.6689 6 -55.002 18s-23 29.667 -23 53c0 21.333 7.5 38.666 22.5 51.999s33.5 20 55.5 20c22.667 0 41.334 -6.66699 56.001 -20s22 -30.666 22 -51.999c0 -23.333 -7.66699 -41 -23 -53s-33.666 -18 -54.999 -18zM0.995117 140h209v423h140v-563h-349v140z
" />
    <glyph glyph-name="uniFEF4" unicode="&#x64a;" horiz-adv-x="513" arabic-form="medial" 
d="M0 140h209v423h140v-423h184v-140h-533v140zM380 -213c-21.333 0 -39.6689 6 -55.002 18s-23 29.667 -23 53c0 21.333 7.5 38.666 22.5 51.999s33.5 20 55.5 20c22.667 0 41.334 -6.66699 56.001 -20s22 -30.666 22 -51.999c0 -23.333 -7.66699 -41 -23 -53
s-33.666 -18 -54.999 -18zM162.997 -213c-21.333 0 -39.668 6 -55.001 18s-23 29.667 -23 53c0 21.333 7.5 38.666 22.5 51.999s33.5 20 55.5 20s40.5 -6.66699 55.5 -20s22.5 -30.666 22.5 -51.999c0 -23.333 -7.66699 -41 -23 -53s-33.666 -18 -54.999 -18z" />
    <glyph glyph-name=".notdef" horiz-adv-x="500" 
 />
    <glyph glyph-name=".null" horiz-adv-x="500" 
 />
    <glyph glyph-name=".null" horiz-adv-x="500" 
 />
    <glyph glyph-name="space" unicode=" " horiz-adv-x="300" 
 />
    <glyph glyph-name="space" unicode="&#xa0;" horiz-adv-x="300" 
 />
    <glyph glyph-name="exclam" unicode="!" horiz-adv-x="349" 
d="M174 -11c-12 0 -23.5 1.83301 -34.5 5.5s-20.833 9 -29.5 16s-15.667 15.5 -21 25.5s-8 21 -8 33s2.66699 23.167 8 33.5s12.333 19 21 26s18.5 12.5 29.5 16.5s22.5 6 34.5 6c11.333 0 22.5 -2 33.5 -6s20.667 -9.5 29 -16.5s15.166 -15.667 20.499 -26s8 -21.5 8 -33.5
s-2.66699 -23 -8 -33s-12.166 -18.5 -20.499 -25.5s-18 -12.333 -29 -16s-22.167 -5.5 -33.5 -5.5zM103 811h140v-574h-140v574z" />
    <glyph glyph-name="quotedbl" unicode="&#x22;" horiz-adv-x="483" 
d="M47 811h150l-26 -320h-97zM286 811h149l-26 -320h-96z" />
    <glyph glyph-name="numbersign" unicode="#" horiz-adv-x="826" 
d="M246 607l28 204h107l-28 -204h174l28 204h106l-28 -204h163l-19 -107h-158l-25 -183h162l-19 -107h-157l-28 -210h-107l28 210h-174l-28 -210h-106l28 210h-163l19 107h158l25 183h-162l19 107h157zM314 317h174l25 183h-174z" />
    <glyph glyph-name="dollar" unicode="$" horiz-adv-x="720" 
d="M302 -10c-50 3.33301 -97.8359 11.165 -143.503 23.498s-83.5 27.833 -113.5 46.5l57 127c14 -9.33301 30.333 -17.833 49 -25.5s38.5 -14.167 59.5 -19.5s42.5 -9.66602 64.5 -12.999s43.667 -5 65 -5c24.667 0 47.5 2 68.5 6s39.167 10.333 54.5 19
s27.5 19.834 36.5 33.501s13.5 29.834 13.5 48.501c0 16.667 -3.66699 31.334 -11 44.001s-17.666 23.5 -30.999 32.5s-29.5 16.833 -48.5 23.5s-40.167 13 -63.5 19l-67 17c-74 18 -129.667 47.667 -167 89s-56 92.333 -56 153c0 58.667 21 106.5 63 143.5
s98.667 60.167 170 69.5v107h117v-106c42.667 -4.66699 84.167 -13.167 124.5 -25.5s74.833 -27.166 103.5 -44.499l-57 -127c-30 19.333 -65.667 34.666 -107 45.999s-81.666 17 -120.999 17c-18 0 -35.667 -1.66699 -53 -5s-32.666 -8.33301 -45.999 -15
s-24.166 -15.167 -32.499 -25.5s-12.5 -22.833 -12.5 -37.5c0 -26.667 10.167 -47.834 30.5 -63.501s53.166 -29.5 98.499 -41.5l68 -17c34 -8.66699 66.167 -20 96.5 -34s56.833 -31.167 79.5 -51.5s40.667 -44.5 54 -72.5s20 -60 20 -96c0 -33.333 -6 -63.5 -18 -90.5
s-28.833 -50.5 -50.5 -70.5s-47.667 -36.333 -78 -49s-63.5 -21.334 -99.5 -26.001v-112h-117v108z" />
    <glyph glyph-name="percent" unicode="%" horiz-adv-x="1077" 
d="M241 346c-32 0 -59.833 5.66699 -83.5 17s-43.5 27.5 -59.5 48.5s-28 46.167 -36 75.5s-12 62.333 -12 99s4 69.667 12 99s20 54.5 36 75.5s35.833 37.167 59.5 48.5s51.5 17 83.5 17s60 -5.66699 84 -17s44 -27.5 60 -48.5s28 -46.167 36 -75.5s12 -62.333 12 -99
s-4 -69.667 -12 -99s-20 -54.5 -36 -75.5s-36 -37.167 -60 -48.5s-52 -17 -84 -17zM241 460c23.333 0 42 9.66699 56 29s21 51.666 21 96.999s-7 77.833 -21 97.5s-32.667 29.5 -56 29.5s-42 -9.83301 -56 -29.5s-21 -52.167 -21 -97.5s7 -77.666 21 -96.999
s32.667 -29 56 -29zM184 1l567 810h143l-567 -810h-143zM835 -13c-32 0 -59.833 5.66699 -83.5 17s-43.5 27.5 -59.5 48.5s-28 46.167 -36 75.5s-12 62.333 -12 99s4 69.667 12 99s20 54.5 36 75.5s35.833 37.167 59.5 48.5s51.5 17 83.5 17s60 -5.66699 84 -17
s44 -27.5 60 -48.5s28 -46.167 36 -75.5s12 -62.333 12 -99s-4 -69.667 -12 -99s-20 -54.5 -36 -75.5s-36 -37.167 -60 -48.5s-52 -17 -84 -17zM835 101c23.333 0 42 9.66699 56 29s21 51.666 21 96.999s-7 77.833 -21 97.5s-32.667 29.5 -56 29.5s-42 -9.83301 -56 -29.5
s-21 -52.167 -21 -97.5s7 -77.666 21 -96.999s32.667 -29 56 -29z" />
    <glyph glyph-name="ampersand" unicode="&#x26;" horiz-adv-x="879" 
d="M333 -12c-46 0 -87.502 5.67188 -124.502 17.0049s-68.667 27.666 -95 48.999s-46.666 47.166 -60.999 77.499s-21.5 64.5 -21.5 102.5c0 56 16.5 103.833 49.5 143.5s85.5 72.167 157.5 97.5c-25.333 29.333 -45.666 58 -60.999 86s-23 58 -23 90
c0 26 5.83301 49.667 17.5 71s28 39.833 49 55.5s46.333 27.667 76 36s62.167 12.5 97.5 12.5c39.333 0 74 -4.66699 104 -14s55.333 -22.5 76 -39.5s36.167 -37.333 46.5 -61s15.5 -49.834 15.5 -78.501c0 -18 -3.16699 -36.667 -9.5 -56s-16.333 -38.333 -30 -57
s-31.167 -36.334 -52.5 -53.001s-47.333 -31.334 -78 -44.001l136 -147c16 26 29.5 53.5 40.5 82.5s19.167 58.5 24.5 88.5h146c-8 -47.333 -22.167 -94 -42.5 -140s-45.833 -89 -76.5 -129l165 -178h-177l-80 84c-37.333 -30 -78.5 -53.5 -123.5 -70.5
s-93.5 -25.5 -145.5 -25.5zM336.998 118.005c34 0 65.833 5.33398 95.5 16.001s56.834 25.334 81.501 44.001l-191 204c-54 -16 -91.667 -35.333 -113 -58s-32 -49.667 -32 -81c0 -19.333 4 -36.833 12 -52.5s19.167 -28.834 33.5 -39.501s31.166 -18.834 50.499 -24.501
s40.333 -8.5 63 -8.5zM299.998 643.006c0 -22 7.99902 -42.999 23.999 -62.999s35 -41.667 57 -65c42.667 14 72.834 31.167 90.501 51.5s26.5 41.166 26.5 62.499c0 26 -10 45.667 -30 59s-43 20 -69 20s-49 -5.16699 -69 -15.5s-30 -26.833 -30 -49.5z" />
    <glyph glyph-name="quotesingle" unicode="'" horiz-adv-x="244" 
d="M47 811h150l-26 -320h-97z" />
    <glyph glyph-name="parenleft" unicode="(" horiz-adv-x="326" 
d="M45 297c0 52.667 4.5 104.168 13.5 154.501s20.667 97.666 35 141.999s30.5 85.166 48.5 122.499s35.667 69 53 95h138c-20 -33.333 -39 -69.666 -57 -108.999s-33.833 -80.833 -47.5 -124.5s-24.334 -89.167 -32.001 -136.5s-11.5 -95.333 -11.5 -144
c0 -48 3.83301 -95.833 11.5 -143.5s18.334 -93.5 32.001 -137.5s29.5 -86 47.5 -126s37 -76.667 57 -110h-138c-17.333 26 -35 57.833 -53 95.5s-34.167 79 -48.5 124s-26 92.833 -35 143.5s-13.5 102 -13.5 154z" />
    <glyph glyph-name="parenright" unicode=")" horiz-adv-x="325" 
d="M280 297c0 -52 -4.5 -103.334 -13.5 -154.001s-20.5 -98.5 -34.5 -143.5s-29.833 -86.333 -47.5 -124s-35.167 -69.5 -52.5 -95.5h-139c20 33.333 39.167 70 57.5 110s34.166 82 47.499 126s24 89.833 32 137.5s12 95.5 12 143.5c0 48.667 -4 96.5 -12 143.5
s-18.667 92.5 -32 136.5s-29.166 85.667 -47.499 125s-37.5 75.666 -57.5 108.999h139c17.333 -26 34.833 -57.667 52.5 -95s33.5 -78.166 47.5 -122.499s25.5 -91.666 34.5 -141.999s13.5 -101.833 13.5 -154.5z" />
    <glyph glyph-name="asterisk" unicode="*" horiz-adv-x="478" 
d="M280 671l139 48l29 -80l-139 -47l85 -117l-68 -51l-88 119l-83 -119l-71 49l84 118l-138 48l28 80l137 -48v140h85v-140z" />
    <glyph glyph-name="plus" unicode="+" horiz-adv-x="675" 
d="M267 220h-221v130h221v213h141v-213h220v-130h-220v-220h-141v220z" />
    <glyph glyph-name="comma" unicode="," horiz-adv-x="301" 
d="M112 137h148l-130 -303h-113z" />
    <glyph glyph-name="hyphen" unicode="-" horiz-adv-x="408" 
d="M46 350h316v-130h-316v130z" />
    <glyph glyph-name="period" unicode="." horiz-adv-x="288" 
d="M144 -11c-12 0 -23.5 1.83301 -34.5 5.5s-20.667 8.83398 -29 15.501s-15.166 15 -20.499 25s-8 21 -8 33c0 12.667 2.66699 24 8 34s12.166 18.5 20.499 25.5s18 12.5 29 16.5s22.5 6 34.5 6s23.5 -2 34.5 -6s20.667 -9.5 29 -16.5s15.166 -15.5 20.499 -25.5
s8 -21.333 8 -34c0 -12 -2.66699 -23 -8 -33s-12.166 -18.333 -20.499 -25s-18 -11.834 -29 -15.501s-22.5 -5.5 -34.5 -5.5z" />
    <glyph glyph-name="slash" unicode="/" horiz-adv-x="617" 
d="M514 811h133l-541 -961h-136z" />
    <glyph glyph-name="zero" unicode="0" horiz-adv-x="688" 
d="M344 126c46 0 80.833 19 104.5 57s35.5 91.333 35.5 160s-11.833 122 -35.5 160s-58.5 57 -104.5 57s-81 -19 -105 -57s-36 -91.333 -36 -160s12 -122 36 -160s59 -57 105 -57zM344 -11c-47.333 0 -88.833 8.83301 -124.5 26.5s-65.5 42.167 -89.5 73.5
s-42 68.666 -54 111.999s-18 90.666 -18 141.999s6 98.666 18 141.999s30 80.666 54 111.999s53.833 55.833 89.5 73.5s77.167 26.5 124.5 26.5c46.667 0 87.834 -8.83301 123.501 -26.5s65.5 -42.167 89.5 -73.5s42.167 -68.666 54.5 -111.999s18.5 -90.666 18.5 -141.999
s-6.16699 -98.666 -18.5 -141.999s-30.5 -80.666 -54.5 -111.999s-53.833 -55.833 -89.5 -73.5s-76.834 -26.5 -123.501 -26.5z" />
    <glyph glyph-name="one" unicode="1" horiz-adv-x="400" 
d="M177 523l-157 -35v128l297 66v-682h-140v523z" />
    <glyph glyph-name="two" unicode="2" horiz-adv-x="606" 
d="M267 560c-30.667 0 -58.501 -5.33105 -83.501 -15.998s-49.167 -25 -72.5 -43l-63 123c30 22.667 65.833 40.5 107.5 53.5s84.5 19.5 128.5 19.5c34.667 0 67.334 -4 98.001 -12s57.5 -20.167 80.5 -36.5s41.333 -37 55 -62s20.5 -54.5 20.5 -88.5
c0 -32.667 -6.16699 -64 -18.5 -94s-30.333 -60 -54 -90s-53 -60 -88 -90s-74.833 -61.333 -119.5 -94h287v-130h-499v125l125 92c40.667 30.667 77.334 60.667 110.001 90s59 57.833 79 85.5s30 53.5 30 77.5c0 15.333 -3.33301 28.666 -10 39.999
s-15.667 20.666 -27 27.999s-24.333 12.833 -39 16.5s-30.334 5.5 -47.001 5.5z" />
    <glyph glyph-name="three" unicode="3" horiz-adv-x="611" 
d="M267 -11c-21.333 0 -43.001 1.66699 -65.001 5s-43.667 8.16602 -65 14.499s-41.666 13.833 -60.999 22.5s-36.333 18.667 -51 30l62 125c23.333 -18.667 48.833 -33.334 76.5 -44.001s56.5 -16 86.5 -16c19.333 0 38 1.66699 56 5s33.833 8.5 47.5 15.5
s24.667 15.833 33 26.5s12.5 23.334 12.5 38.001c0 15.333 -4 27.833 -12 37.5s-19 17.167 -33 22.5s-30.833 9 -50.5 11s-41.167 3 -64.5 3h-23v132h21c24.667 0 46.167 0.833008 64.5 2.5s33.5 4.83398 45.5 9.50098s20.833 11.167 26.5 19.5s8.5 19.166 8.5 32.499
c0 25.333 -12.167 44.833 -36.5 58.5s-55.166 20.5 -92.499 20.5c-30 0 -58.5 -5.33301 -85.5 -16s-52.167 -25 -75.5 -43l-62 124c30 22 66.5 39.5 109.5 52.5s85.833 19.5 128.5 19.5c38 0 72.833 -4.33301 104.5 -13s59 -21.167 82 -37.5s40.833 -36.333 53.5 -60
s19 -50.5 19 -80.5c0 -17.333 -2.16699 -34 -6.5 -50s-10.333 -30.5 -18 -43.5s-16.667 -24.5 -27 -34.5s-21.5 -17.333 -33.5 -22c30 -11.333 54.667 -30.333 74 -57s29 -62 29 -106c0 -32.667 -6.83301 -61.667 -20.5 -87s-32.834 -46.666 -57.501 -63.999
s-54 -30.5 -88 -39.5s-71.333 -13.5 -112 -13.5z" />
    <glyph glyph-name="four" unicode="4" horiz-adv-x="676" 
d="M380 155h-343v129l304 390h179v-389h102v-130h-102v-155h-140v155zM380 285v260l-200 -260h200z" />
    <glyph glyph-name="five" unicode="5" horiz-adv-x="650" 
d="M309 -11c-47.333 0 -93 6.33008 -137 18.9971s-84.667 30.334 -122 53.001l63 126c11.333 -9.33301 24.333 -17.666 39 -24.999s30 -13.666 46 -18.999s32 -9.33301 48 -12s31.667 -4 47 -4c18 0 35.833 1.5 53.5 4.5s33.334 8.33301 47.001 16s24.667 17.667 33 30
s12.5 27.833 12.5 46.5c0 18 -3.66699 33 -11 45s-17.333 21.833 -30 29.5s-27.834 13.167 -45.501 16.5s-36.5 5 -56.5 5c-16 0 -33 -1.16699 -51 -3.5s-35.833 -5.16602 -53.5 -8.49902s-34.834 -7.33301 -51.501 -12s-31.667 -9.33398 -45 -14.001l48 392h404v-130h-291
l-13 -103c14 2.66699 28.167 4.5 42.5 5.5s28.833 1.5 43.5 1.5c32 0 63.167 -3.5 93.5 -10.5s57.5 -19.167 81.5 -36.5s43.333 -40.5 58 -69.5s22 -65.5 22 -109.5c0 -38 -7.33301 -71.5 -22 -100.5s-34.5 -53.333 -59.5 -73s-54.167 -34.5 -87.5 -44.5
s-68.666 -15 -105.999 -15z" />
    <glyph glyph-name="six" unicode="6" horiz-adv-x="626" 
d="M313 -11c-34.667 0 -68.001 5.99805 -100.001 17.998s-60.167 29 -84.5 51s-43.666 48.333 -57.999 79s-21.5 64.334 -21.5 101.001c0 48.667 8.66699 92.334 26 131.001s40.333 76.667 69 114l146 191h180l-153 -185c4.66699 0.666992 9.16699 1.16699 13.5 1.5
s8.83301 0.5 13.5 0.5c28 0 55.833 -5.83301 83.5 -17.5s52.5 -28.5 74.5 -50.5s39.833 -48.667 53.5 -80s20.5 -66.333 20.5 -105c0 -36.667 -7.16699 -70.167 -21.5 -100.5s-33.666 -56.5 -57.999 -78.5s-52.333 -39.167 -84 -51.5s-64.834 -18.5 -99.501 -18.5z
M312.999 125.998c36.667 0 65.5 11.333 86.5 34s31.5 50.334 31.5 83.001c0 32 -10.5 59.333 -31.5 82s-49.833 34 -86.5 34c-37.333 0 -66.5 -11.333 -87.5 -34s-31.5 -50 -31.5 -82c0 -32.667 10.5 -60.334 31.5 -83.001s50.167 -34 87.5 -34z" />
    <glyph glyph-name="seven" unicode="7" horiz-adv-x="593" 
d="M391 545h-354v129h511v-129l-326 -545h-168z" />
    <glyph glyph-name="eight" unicode="8" horiz-adv-x="674" 
d="M337 697c31.333 0 62.0029 -3.83301 92.0029 -11.5s56.667 -19.334 80 -35.001s42.166 -35.334 56.499 -59.001s21.5 -51.5 21.5 -83.5c0 -16.667 -2.33301 -33 -7 -49s-10.834 -30.5 -18.501 -43.5s-16.167 -24.333 -25.5 -34s-19 -16.834 -29 -21.501
c12.667 -6 25 -14 37 -24s22.667 -22 32 -36s17 -30 23 -48s9 -38 9 -60c0 -36 -8.16699 -66.833 -24.5 -92.5s-37.5 -46.667 -63.5 -63s-55 -28.333 -87 -36s-64 -11.5 -96 -11.5s-64 3.83301 -96 11.5s-61 19.667 -87 36s-47.167 37.333 -63.5 63s-24.5 56.5 -24.5 92.5
c0 22 2.83301 42 8.5 60s13.334 34 23.001 48s20.5 26 32.5 36s24.333 18 37 24c-10 4.66699 -19.667 11.834 -29 21.501s-17.833 21 -25.5 34s-13.834 27.5 -18.501 43.5s-7 32.333 -7 49c0 32 7.16699 59.833 21.5 83.5s33.166 43.334 56.499 59.001s50 27.334 80 35.001
s60.667 11.5 92 11.5zM337.003 299c-37.333 0 -67.333 -7.83301 -90 -23.5s-34 -36.834 -34 -63.501c0 -26 11.5 -46.833 34.5 -62.5s52.833 -23.5 89.5 -23.5s66.5 7.83301 89.5 23.5s34.5 36.5 34.5 62.5c0 26.667 -11.333 47.834 -34 63.501s-52.667 23.5 -90 23.5z
M337.003 560c-30 0 -55.333 -6.33301 -76 -19s-31 -30 -31 -52c0 -19.333 9.33301 -36 28 -50s45 -21 79 -21s60.167 7 78.5 21s27.5 30.667 27.5 50c0 22 -10.167 39.333 -30.5 52s-45.5 19 -75.5 19z" />
    <glyph glyph-name="nine" unicode="9" horiz-adv-x="626" 
d="M313 697c34.667 0 67.835 -6 99.502 -18s59.667 -29 84 -51s43.666 -48.333 57.999 -79s21.5 -64.334 21.5 -101.001c0 -48.667 -8.83301 -92.167 -26.5 -130.5s-40.167 -76.5 -67.5 -114.5l-146 -203h-180l152 198c-4 -1.33301 -8.33301 -2 -13 -2h-14
c-27.333 0 -54.833 5.83301 -82.5 17.5s-52.5 28.334 -74.5 50.001s-40 48 -54 79s-21 66.167 -21 105.5c0 36.667 7.16699 70.167 21.5 100.5s33.666 56.5 57.999 78.5s52.333 39.167 84 51.5s65.167 18.5 100.5 18.5zM313.001 560c-37.333 0 -66.5 -11.167 -87.5 -33.5
s-31.5 -49.833 -31.5 -82.5s10.5 -60.334 31.5 -83.001s50.167 -34 87.5 -34c36.667 0 65.5 11.333 86.5 34s31.5 50.334 31.5 83.001s-10.333 60.167 -31 82.5s-49.667 33.5 -87 33.5z" />
    <glyph glyph-name="colon" unicode=":" horiz-adv-x="297" 
d="M149 -11c-12 0 -23.5 1.83301 -34.5 5.5s-20.667 8.83398 -29 15.501s-15.166 15 -20.499 25s-8 21 -8 33c0 12.667 2.66699 24 8 34s12.166 18.5 20.499 25.5s18 12.5 29 16.5s22.5 6 34.5 6c11.333 0 22.5 -2 33.5 -6s20.667 -9.5 29 -16.5s15.166 -15.5 20.499 -25.5
s8 -21.333 8 -34c0 -12 -2.66699 -23 -8 -33s-12.166 -18.333 -20.499 -25s-18 -11.834 -29 -15.501s-22.167 -5.5 -33.5 -5.5zM149 380c-12 0 -23.5 1.83301 -34.5 5.5s-20.667 9 -29 16s-15.166 15.5 -20.499 25.5s-8 21.333 -8 34c0 12 2.66699 23 8 33
s12.166 18.5 20.499 25.5s18 12.5 29 16.5s22.5 6 34.5 6c11.333 0 22.5 -2 33.5 -6s20.667 -9.5 29 -16.5s15.166 -15.5 20.499 -25.5s8 -21 8 -33c0 -12.667 -2.66699 -24 -8 -34s-12.166 -18.5 -20.499 -25.5s-18 -12.333 -29 -16s-22.167 -5.5 -33.5 -5.5z" />
    <glyph glyph-name="semicolon" unicode=";" horiz-adv-x="315" 
d="M112 137h148l-130 -303h-113zM181 380c-12 0 -23.5 1.83301 -34.5 5.5s-20.667 9 -29 16s-15.166 15.5 -20.499 25.5s-8 21.333 -8 34c0 12 2.66699 23 8 33s12.166 18.5 20.499 25.5s18 12.5 29 16.5s22.5 6 34.5 6c11.333 0 22.5 -2 33.5 -6s20.833 -9.5 29.5 -16.5
s15.667 -15.5 21 -25.5s8 -21 8 -33c0 -12.667 -2.66699 -24 -8 -34s-12.333 -18.5 -21 -25.5s-18.5 -12.333 -29.5 -16s-22.167 -5.5 -33.5 -5.5z" />
    <glyph glyph-name="less" unicode="&#x3c;" horiz-adv-x="677" 
d="M631 576v-133l-435 -163l435 -160v-134l-585 228v134z" />
    <glyph glyph-name="equal" unicode="=" horiz-adv-x="609" 
d="M46 479h517v-130h-517v130zM46 222h517v-131h-517v131z" />
    <glyph glyph-name="greater" unicode="&#x3e;" horiz-adv-x="677" 
d="M631 348v-134l-585 -228v142l435 152l-435 156v140z" />
    <glyph glyph-name="question" unicode="?" horiz-adv-x="568" 
d="M229 -12c-12 0 -23.667 2 -35 6s-21.333 9.5 -30 16.5s-15.667 15.667 -21 26s-8 21.833 -8 34.5s2.66699 24.167 8 34.5s12.333 19.166 21 26.499s18.667 13 30 17s23 6 35 6s23.667 -2 35 -6s21.5 -9.66699 30.5 -17s16.167 -16.166 21.5 -26.499s8 -21.833 8 -34.5
s-2.66699 -24.167 -8 -34.5s-12.5 -19 -21.5 -26s-19.167 -12.5 -30.5 -16.5s-23 -6 -35 -6zM226 689c-31.333 0 -62.3359 -3.82812 -93.0029 -11.4951s-60 -17.5 -88 -29.5l18 145c22.667 9.33301 48 17.166 76 23.499s61.667 9.5 101 9.5c40 0 77.5 -5.83301 112.5 -17.5
s65.333 -28.334 91 -50.001s45.834 -47.834 60.501 -78.501s22 -65 22 -103c0 -35.333 -6 -66.833 -18 -94.5s-28 -51.834 -48 -72.501s-43.5 -37.834 -70.5 -51.501s-55.5 -23.834 -85.5 -30.501v-91h-140v197h12c26.667 0 52.334 2.16699 77.001 6.5
s46.334 11.666 65.001 21.999s33.5 23.833 44.5 40.5s16.5 37 16.5 61c0 19.333 -4.5 36.833 -13.5 52.5s-20.833 28.834 -35.5 39.501s-31 18.834 -49 24.501s-36.333 8.5 -55 8.5z" />
    <glyph glyph-name="at" unicode="@" horiz-adv-x="939" 
d="M686 177c-30 0 -55.5068 8.83105 -76.5068 26.498s-33.833 43.834 -38.5 78.501c-17.333 -32.667 -40.166 -57.834 -68.499 -75.501s-63.166 -26.5 -104.499 -26.5c-22 0 -43.167 4 -63.5 12s-38.166 20.333 -53.499 37s-27.666 37.834 -36.999 63.501
s-14 56.167 -14 91.5c0 32.667 5.33301 64.834 16 96.501s26 60 46 85s44.333 45 73 60s61.334 22.5 98.001 22.5c31.333 0 58.333 -7.83301 81 -23.5s39.334 -36.834 50.001 -63.501c2 11.333 3.5 22.833 4.5 34.5s2.16699 22.834 3.5 33.501h81l-33 -248
c-2 -17.333 -3 -32.666 -3 -45.999c0 -26 4 -45.167 12 -57.5s21 -18.5 39 -18.5c14.667 0 28.667 4.5 42 13.5s25 22.167 35 39.5s17.833 38.5 23.5 63.5s8.5 53.5 8.5 85.5c0 47.333 -7.66699 89 -23 125s-37 66 -65 90s-61.5 42.167 -100.5 54.5
s-81.833 18.5 -128.5 18.5c-52.667 0 -100.834 -9 -144.501 -27s-81 -42.667 -112 -74s-55 -68.5 -72 -111.5s-25.5 -89.5 -25.5 -139.5c0 -46.667 7 -89.667 21 -129s34.333 -73.333 61 -102s59.167 -51.167 97.5 -67.5s81.833 -24.5 130.5 -24.5
c34.667 0 71.834 4 111.501 12s75.834 20.333 108.501 37l32 -80c-19.333 -8.66699 -39.833 -16.5 -61.5 -23.5s-43.5 -12.833 -65.5 -17.5s-43.667 -8.16699 -65 -10.5s-41.333 -3.5 -60 -3.5c-60 0 -114.5 10.333 -163.5 31s-91.167 49.334 -126.5 86.001
s-62.666 80.167 -81.999 130.5s-29 105.166 -29 164.499c0 60.667 11.5 117.167 34.5 169.5s54.5 97.666 94.5 135.999s87.167 68.333 141.5 90s113.166 32.5 176.499 32.5c55.333 0 107.333 -7.16699 156 -21.5s91.334 -36.5 128.001 -66.5s65.5 -67.833 86.5 -113.5
s31.5 -99.5 31.5 -161.5c0 -46 -6 -87 -18 -123s-27.833 -66.167 -47.5 -90.5s-41.834 -42.833 -66.501 -55.5s-50 -19 -76 -19zM463.993 562.998c-21.333 0 -40.332 -4.99805 -56.999 -14.998s-30.834 -23.167 -42.501 -39.5s-20.667 -35.5 -27 -57.5s-9.5 -45 -9.5 -69
c0 -40 8.16699 -69.667 24.5 -89s40.166 -29 71.499 -29c22 0 41.667 5 59 15s32 23.667 44 41s21 37.166 27 59.499s9 46.166 9 71.499c0 36 -8.66699 63.667 -26 83s-41.666 29 -72.999 29z" />
    <glyph glyph-name="A" unicode="A" horiz-adv-x="795" 
d="M785 0h-151l-69 191h-336l-68 -191h-151l300 811h175zM277 326h240l-120 337z" />
    <glyph glyph-name="B" unicode="B" horiz-adv-x="764" 
d="M672 607c0 -34 -9.16699 -66.667 -27.5 -98s-46.833 -55.666 -85.5 -72.999c27.333 -8 50.833 -19 70.5 -33s35.667 -29.833 48 -47.5s21.5 -36.5 27.5 -56.5s9 -40.333 9 -61c0 -42.667 -8.5 -79 -25.5 -109s-39.167 -54.5 -66.5 -73.5s-58.833 -33 -94.5 -42
s-71.834 -13.5 -108.501 -13.5h-319v811h279c50.667 0 94.334 -5.33301 131.001 -16s67 -25.167 91 -43.5s41.833 -39.833 53.5 -64.5s17.5 -51.334 17.5 -80.001zM565 241c0 21.333 -3.83203 39 -11.499 53s-18.834 25 -33.501 33s-32.5 13.667 -53.5 17s-44.833 5 -71.5 5
h-151v-215h155c56.667 0 98.5 8.5 125.5 25.5s40.5 44.167 40.5 81.5zM523.001 582c0 28 -11.667 50.833 -35 68.5s-62.666 26.5 -117.999 26.5h-126v-193h126c53.333 0 92.166 8 116.499 24s36.5 40.667 36.5 74z" />
    <glyph glyph-name="C" unicode="C" horiz-adv-x="774" 
d="M471 689c-36.667 0 -71.5 -5.66992 -104.5 -17.0029s-62 -28.666 -87 -51.999s-44.833 -52.666 -59.5 -87.999s-22 -77 -22 -125s7.33301 -89.667 22 -125s34.5 -64.833 59.5 -88.5s54 -41.167 87 -52.5s67.833 -17 104.5 -17c40 0 77.167 5.5 111.5 16.5
s66.166 25.833 95.499 44.5l56 -128c-34.667 -21.333 -75.334 -38.166 -122.001 -50.499s-95.667 -18.5 -147 -18.5c-64 0 -122 10.5 -174 31.5s-96.167 50.333 -132.5 88s-64.333 82 -84 133s-29.5 106.5 -29.5 166.5s9.83301 115.5 29.5 166.5s47.667 95.333 84 133
s80.5 67 132.5 88s110 31.5 174 31.5c51.333 0 100.333 -6.33301 147 -19s87.334 -29.667 122.001 -51l-56 -127c-29.333 18 -61.166 32.5 -95.499 43.5s-71.5 16.5 -111.5 16.5z" />
    <glyph glyph-name="D" unicode="D" horiz-adv-x="830" 
d="M311 134c49.333 0 93.833 4.83203 133.5 14.499s73.5 25.5 101.5 47.5s49.5 50.5 64.5 85.5s22.5 77.833 22.5 128.5c0 47.333 -7.66699 87.833 -23 121.5s-36.833 61.334 -64.5 83.001s-61 37.5 -100 47.5s-82.167 15 -129.5 15h-72v-543h67zM100 810.999
l214 -0.000976562c67.333 0 129.833 -8.5 187.5 -25.5s107.5 -42.167 149.5 -75.5s74.833 -75.166 98.5 -125.499s35.5 -108.5 35.5 -174.5c0 -65.333 -11.5 -123.5 -34.5 -174.5s-55 -94 -96 -129s-90 -61.5 -147 -79.5s-119.5 -27 -187.5 -27h-220v811z" />
    <glyph glyph-name="E" unicode="E" horiz-adv-x="685" 
d="M100 811h518v-134h-374v-193h339v-136h-339v-214h376v-134h-520v811z" />
    <glyph glyph-name="F" unicode="F" horiz-adv-x="647" 
d="M100 0v811h517v-134h-373v-193h337v-136h-337v-348h-144z" />
    <glyph glyph-name="G" unicode="G" horiz-adv-x="881" 
d="M465 -12c-64 0 -122.002 10.4971 -174.002 31.4971s-96.167 50.333 -132.5 88s-64.333 82 -84 133s-29.5 106.5 -29.5 166.5s9.83301 115.5 29.5 166.5s47.667 95.333 84 133s80.5 67 132.5 88s110 31.5 174 31.5c58.667 0 114 -6.33301 166 -19s95.333 -29.667 130 -51
l-55 -127c-29.333 18 -64 32.5 -104 43.5s-83.667 16.5 -131 16.5c-36.667 0 -71.5 -5.66699 -104.5 -17s-62 -28.666 -87 -51.999s-44.833 -52.666 -59.5 -87.999s-22 -77 -22 -125s7.33301 -89.667 22 -125s34.5 -64.833 59.5 -88.5s54 -41.167 87 -52.5
s67.833 -17 104.5 -17c28.667 0 57.334 3 86.001 9s55.334 14.667 80.001 26v146h-181v136h325v-379c-19.333 -12 -41.833 -22.5 -67.5 -31.5s-52.5 -16.667 -80.5 -23s-56.5 -11.166 -85.5 -14.499s-56.5 -5 -82.5 -5z" />
    <glyph glyph-name="H" unicode="H" horiz-adv-x="878" 
d="M100 0v811h144v-327h389v327h145v-811h-145v348h-389v-348h-144z" />
    <glyph glyph-name="I" unicode="I" horiz-adv-x="344" 
d="M100 0v811h144v-811h-144z" />
    <glyph glyph-name="J" unicode="J" horiz-adv-x="518" 
d="M53 157c17.333 -10 36.334 -18.001 57.001 -24.001s43 -9 67 -9c30.667 0 54.5 8.83301 71.5 26.5s25.5 47.834 25.5 90.501v570h144v-576c0 -44 -5 -81.667 -15 -113s-24.167 -56.833 -42.5 -76.5s-40.833 -34.167 -67.5 -43.5s-56.334 -14 -89.001 -14
c-44.667 0 -84.5 4.66699 -119.5 14s-63.167 20 -84.5 32z" />
    <glyph glyph-name="K" unicode="K" horiz-adv-x="766" 
d="M100 0v811h144v-405l316 405h176l-326 -402l346 -409h-181l-331 404v-404h-144z" />
    <glyph glyph-name="L" unicode="L" horiz-adv-x="638" 
d="M245 134h373v-134h-518v811h145v-677z" />
    <glyph glyph-name="M" unicode="M" horiz-adv-x="1042" 
d="M432 0l-188 692v-692h-144v811h244l177 -683l179 683h242v-811h-144v692l-187 -692h-179z" />
    <glyph glyph-name="N" unicode="N" horiz-adv-x="859" 
d="M242 676v-676h-142v811h222l296 -676v676h141v-811h-221z" />
    <glyph glyph-name="O" unicode="O" horiz-adv-x="932" 
d="M887 407c0 -59.333 -10.333 -114.5 -31 -165.5s-49.667 -95.333 -87 -133s-81.666 -67.167 -132.999 -88.5s-108 -32 -170 -32s-118.667 10.667 -170 32s-95.666 50.833 -132.999 88.5s-66.333 82 -87 133s-31 106.167 -31 165.5c0 58.667 10.333 113.667 31 165
s49.667 95.666 87 132.999s81.666 66.833 132.999 88.5s108 32.5 170 32.5s118.667 -10.833 170 -32.5s95.666 -51.167 132.999 -88.5s66.333 -81.666 87 -132.999s31 -106.333 31 -165zM735 407c0 42.667 -6.83301 81.334 -20.5 116.001s-32.5 64.334 -56.5 89.001
s-52.333 43.667 -85 57s-68.334 20 -107.001 20c-38 0 -73.333 -6.66699 -106 -20s-61 -32.333 -85 -57s-42.833 -54.334 -56.5 -89.001s-20.5 -73.334 -20.5 -116.001s6.83301 -81.334 20.5 -116.001s32.5 -64.334 56.5 -89.001s52.333 -43.667 85 -57s68 -20 106 -20
c38.667 0 74.334 6.66699 107.001 20s61 32.333 85 57s42.833 54.334 56.5 89.001s20.5 73.334 20.5 116.001z" />
    <glyph glyph-name="P" unicode="P" horiz-adv-x="721" 
d="M244 303v-303h-144v811h304c52 0 96.667 -7 134 -21s68 -32.5 92 -55.5s41.833 -49.333 53.5 -79s17.5 -60.5 17.5 -92.5c0 -34 -6 -66.667 -18 -98s-30.333 -59 -55 -83s-55.667 -43.167 -93 -57.5s-81 -21.5 -131 -21.5h-160zM244 677l-0.000976562 -240h129
c26 0 49.833 2 71.5 6s40.334 10.667 56.001 20s27.667 22 36 38s12.5 35.667 12.5 59c0 40 -14.333 69.5 -43 88.5s-73 28.5 -133 28.5h-129z" />
    <glyph glyph-name="Q" unicode="Q" horiz-adv-x="932" 
d="M887 407c0 -64.667 -11.999 -124.167 -35.999 -178.5s-58 -100.5 -102 -138.5l127 -134l-70 -70l-139 148c-60 -30.667 -127 -46 -201 -46c-62 0 -118.667 10.667 -170 32s-95.666 50.833 -132.999 88.5s-66.333 82 -87 133s-31 106.167 -31 165.5
c0 58.667 10.333 113.667 31 165s49.667 95.666 87 132.999s81.666 66.833 132.999 88.5s108 32.5 170 32.5s118.667 -10.833 170 -32.5s95.666 -51.167 132.999 -88.5s66.333 -81.666 87 -132.999s31 -106.333 31 -165zM735.001 407
c0 42.667 -6.83203 81.3369 -20.499 116.004s-32.5 64.334 -56.5 89.001s-52.333 43.667 -85 57s-68.334 20 -107.001 20c-38 0 -73.333 -6.66699 -106 -20s-61 -32.333 -85 -57s-42.833 -54.334 -56.5 -89.001s-20.5 -73.334 -20.5 -116.001s6.83301 -81.334 20.5 -116.001
s32.5 -64.334 56.5 -89.001s52.333 -43.834 85 -57.501s68 -20.5 106 -20.5c35.333 0 68.333 5.66699 99 17l-85 91l71 68l100 -106c26 25.333 46.5 55.833 61.5 91.5s22.5 76.167 22.5 121.5z" />
    <glyph glyph-name="R" unicode="R" horiz-adv-x="782" 
d="M387 320l-143 -0.000976562v-320h-144v811h304c52.667 0 97.667 -6.83301 135 -20.5s68 -32 92 -55s41.5 -49.167 52.5 -78.5s16.5 -59.666 16.5 -90.999c0 -23.333 -3 -46.333 -9 -69s-15.5 -44 -28.5 -64s-30 -38 -51 -54s-46.5 -29 -76.5 -39l212 -340h-162z
M244 676.999v-232h128c26.667 0 50.834 1.66699 72.501 5s40.167 9.5 55.5 18.5s27.166 21.167 35.499 36.5s12.5 34.666 12.5 57.999c0 40.667 -14.333 69.834 -43 87.501s-73 26.5 -133 26.5h-128z" />
    <glyph glyph-name="S" unicode="S" horiz-adv-x="720" 
d="M102 187c14 -9.33301 30.3301 -17.834 48.9971 -25.501s38.5 -14.167 59.5 -19.5s42.5 -9.66602 64.5 -12.999s43.667 -5 65 -5c24.667 0 47.5 2 68.5 6s39.167 10.333 54.5 19s27.5 19.834 36.5 33.501s13.5 29.834 13.5 48.501c0 16.667 -3.66699 31 -11 43
s-17.666 22.333 -30.999 31s-29.5 16 -48.5 22s-40.167 12 -63.5 18l-67 17c-74 18 -129.667 47.667 -167 89s-56 92.333 -56 153c0 32.667 7 62.667 21 90s34 50.833 60 70.5s57 34.834 93 45.501s76 16 120 16c25.333 0 51.166 -1.83301 77.499 -5.5
s51.833 -8.83398 76.5 -15.501s48.167 -14.334 70.5 -23.001s42.166 -18.334 59.499 -29.001l-57 -127c-30 19.333 -65.667 34.666 -107 45.999s-81.666 17 -120.999 17c-19.333 0 -37.666 -1.83301 -54.999 -5.5s-32.666 -9.16699 -45.999 -16.5s-23.833 -16.5 -31.5 -27.5
s-11.5 -23.833 -11.5 -38.5c0 -26.667 10.167 -48 30.5 -64s53.166 -29.667 98.499 -41l68 -17c34 -8.66699 66.167 -19.667 96.5 -33s56.833 -30 79.5 -50s40.667 -43.667 54 -71s20 -59 20 -95c0 -39.333 -8.16699 -74 -24.5 -104s-38.666 -55.167 -66.999 -75.5
s-62.166 -35.833 -101.499 -46.5s-82 -16 -128 -16c-28 0 -56.167 1.83301 -84.5 5.5s-55.5 8.66699 -81.5 15s-50.333 13.833 -73 22.5s-42.667 18.334 -60 29.001z" />
    <glyph glyph-name="T" unicode="T" horiz-adv-x="725" 
d="M290 677h-270v134h685v-134h-270v-677h-145v677z" />
    <glyph glyph-name="U" unicode="U" horiz-adv-x="876" 
d="M438 -12c-63.333 0 -116.998 8.5 -160.998 25.5s-79.833 40.333 -107.5 70s-47.834 64.667 -60.501 105s-19 83.5 -19 129.5v493h144v-460c0 -37.333 3.5 -70.166 10.5 -98.499s18.5 -52 34.5 -71s37 -33.333 63 -43s58 -14.5 96 -14.5c37.333 0 69 4.83301 95 14.5
s47 24 63 43s27.667 42.667 35 71s11 61.166 11 98.499v460h144v-493c0 -46 -6.33301 -89.167 -19 -129.5s-32.834 -75.333 -60.501 -105s-63.5 -53 -107.5 -70s-97.667 -25.5 -161 -25.5z" />
    <glyph glyph-name="V" unicode="V" horiz-adv-x="781" 
d="M20 811h159l211 -663l212 663h159l-276 -811h-189z" />
    <glyph glyph-name="W" unicode="W" horiz-adv-x="1072" 
d="M750 169l132 642h160l-187 -811h-201l-118 674l-118 -674h-201l-187 811h159l132 -642l114 642h201z" />
    <glyph glyph-name="X" unicode="X" horiz-adv-x="803" 
d="M482 422l301 -422h-167l-218 305l-218 -305h-160l298 417l-281 394h168l197 -277l198 277h161z" />
    <glyph glyph-name="Y" unicode="Y" horiz-adv-x="750" 
d="M568 811h167l-287 -507v-304h-145v304l-288 507h167l193 -365z" />
    <glyph glyph-name="Z" unicode="Z" horiz-adv-x="754" 
d="M90 811h588v-133l-449 -544h460v-134h-634v133l450 544h-415v134z" />
    <glyph glyph-name="bracketleft" unicode="[" horiz-adv-x="336" 
d="M81 811h240v-101h-100v-829h100v-101h-240v1031z" />
    <glyph glyph-name="backslash" unicode="\" horiz-adv-x="617" 
d="M647 -150h-136l-541 961h133z" />
    <glyph glyph-name="bracketright" unicode="]" horiz-adv-x="336" 
d="M255 -220h-240v101h100v829h-100v101h240v-1031z" />
    <glyph glyph-name="asciicircum" unicode="^" horiz-adv-x="556" 
d="M550 409h-123l-149 304l-150 -304h-122l206 402h131z" />
    <glyph glyph-name="underscore" unicode="_" horiz-adv-x="606" 
d="M46 0h515v-131h-515v131z" />
    <glyph glyph-name="grave" unicode="`" horiz-adv-x="287" 
d="M15 811h140l117 -140h-114z" />
    <glyph glyph-name="a" unicode="a" horiz-adv-x="632" 
d="M422 244c-13.333 3.33301 -28.6689 6.16602 -46.002 8.49902s-33.666 3.5 -48.999 3.5c-18 0 -34.833 -1.16699 -50.5 -3.5s-29.5 -6.33301 -41.5 -12s-21.5 -13.167 -28.5 -22.5s-10.5 -20.666 -10.5 -33.999c0 -26 11.833 -44.167 35.5 -54.5
s52.834 -15.5 87.501 -15.5c17.333 0 35 1.33301 53 4s34.667 6.66699 50 12v114zM316.997 -12c-35.333 0 -69.1641 3.33301 -101.497 10s-60.666 17.334 -84.999 32.001s-43.833 33.834 -58.5 57.501s-22 52.834 -22 87.501c0 31.333 6.5 59 19.5 83s31 44 54 60
s50.667 28 83 36s67.5 12 105.5 12c15.333 0 32.166 -0.5 50.499 -1.5s38.166 -3.16699 59.499 -6.5v8c0 32 -12 53.667 -36 65s-55.333 17 -94 17c-14.667 0 -30.667 -1.33301 -48 -4s-34.833 -6.33398 -52.5 -11.001s-34.834 -10 -51.501 -16s-32 -12.333 -46 -19l18 143
c22.667 11.333 51.667 21.166 87 29.499s72.666 12.5 111.999 12.5c36 0 69.333 -4 100 -12s57.167 -20.667 79.5 -38s39.833 -40.333 52.5 -69s19 -63.334 19 -104.001v-328c-36 -14 -75.333 -24.833 -118 -32.5s-85 -11.5 -127 -11.5z" />
    <glyph glyph-name="b" unicode="b" horiz-adv-x="668" 
d="M221 136c32.667 -7.33301 61.667 -11.001 87 -11.001c55.333 0 99.333 12.833 132 38.5s49 65.834 49 120.501s-16.333 95.334 -49 122.001s-76.667 40 -132 40c-13.333 0 -27 -0.833008 -41 -2.5s-29.333 -4.83398 -46 -9.50098v-298zM221 574.999
c19.333 2.66699 36.999 4.66699 52.999 6s30.667 2 44 2c48 0 91.5 -7.66699 130.5 -23s72.333 -36.5 100 -63.5s49 -58.667 64 -95s22.5 -75.5 22.5 -117.5s-7.33301 -81 -22 -117s-36 -67.333 -64 -94s-62.333 -47.5 -103 -62.5s-87 -22.5 -139 -22.5
c-81.333 0 -156.666 9.66699 -225.999 29v794h140v-236z" />
    <glyph glyph-name="c" unicode="c" horiz-adv-x="558" 
d="M33 285c0 42.667 7.5 82.1689 22.5 118.502s36 67.833 63 94.5s59 47.5 96 62.5s77.167 22.5 120.5 22.5c38.667 0 73.667 -4 105 -12s61.333 -19.333 90 -34l-56 -126c-18.667 10.667 -39 19.167 -61 25.5s-46 9.5 -72 9.5c-24 0 -46 -3.83301 -66 -11.5
s-37 -18.667 -51 -33s-24.833 -31.333 -32.5 -51s-11.5 -41.5 -11.5 -65.5s3.83301 -45.833 11.5 -65.5s18.5 -36.5 32.5 -50.5s31 -24.833 51 -32.5s42 -11.5 66 -11.5c26 0 50 3 72 9s42.333 14.667 61 26l56 -127c-28.667 -14.667 -58.667 -25.834 -90 -33.501
s-66.333 -11.5 -105 -11.5c-43.333 0 -83.5 7.5 -120.5 22.5s-69 35.667 -96 62s-48 57.666 -63 93.999s-22.5 75.833 -22.5 118.5z" />
    <glyph glyph-name="d" unicode="d" horiz-adv-x="669" 
d="M180 284c0 -54.667 16.333 -94.833 49 -120.5s76.667 -38.5 132 -38.5c25.333 0 54.333 3.66699 87 11v298c-17.333 4.66699 -33 7.83398 -47 9.50098s-27.333 2.5 -40 2.5c-55.333 0 -99.333 -13.333 -132 -40s-49 -67.334 -49 -122.001zM448 811.001h140.001v-794
c-70 -19.333 -145.333 -29 -226 -29c-52 0 -98.333 7.5 -139 22.5s-75.167 35.833 -103.5 62.5s-49.833 58 -64.5 94s-22 75 -22 117s7.5 81.167 22.5 117.5s36.5 68 64.5 95s61.5 48.167 100.5 63.5s82.5 23 130.5 23c12.667 0 27.167 -0.666992 43.5 -2
s34.166 -3.33301 53.499 -6v236z" />
    <glyph glyph-name="e" unicode="e" horiz-adv-x="651" 
d="M361 125c14.667 0 30.1699 1.33496 46.5029 4.00195s32 6.16699 47 10.5s28.833 9.5 41.5 15.5s22.667 12.667 30 20l62 -125c-30 -16.667 -64.667 -31.167 -104 -43.5s-86.666 -18.5 -141.999 -18.5c-44.667 0 -85.834 7.5 -123.501 22.5s-70.334 35.833 -98.001 62.5
s-49.167 58.167 -64.5 94.5s-23 75.5 -23 117.5c0 43.333 7.83301 83.333 23.5 120s37 68.167 64 94.5s58.667 46.833 95 61.5s75.166 22 116.499 22c43.333 0 83.166 -7.66699 119.499 -23s67.5 -37.833 93.5 -67.5s46 -65.834 60 -108.501s20 -91 18 -145h-446
c9.33301 -38.667 28.833 -67.334 58.5 -86.001s66.5 -28 110.5 -28h15zM330.003 459.002c-38 0 -70 -9.83301 -96 -29.5s-43.333 -44.5 -52 -74.5h294c-7.33301 34.667 -24 60.667 -50 78s-58 26 -96 26z" />
    <glyph glyph-name="f" unicode="f" horiz-adv-x="509" 
d="M25 563l106 -0.00195312v54c0 67.333 17.833 116.5 53.5 147.5s92.5 46.5 170.5 46.5h134v-130h-133c-18 0 -32.5 -1.83301 -43.5 -5.5s-19.667 -9.16699 -26 -16.5s-10.5 -16.666 -12.5 -27.999s-3 -24.666 -3 -39.999v-28h214v-130h-214v-433h-140v433h-106v130z" />
    <glyph glyph-name="g" unicode="g" horiz-adv-x="669" 
d="M448 434c-15.333 3.33301 -30.333 6.16797 -45 8.50098s-28.667 3.5 -42 3.5c-55.333 0 -99.333 -12.333 -132 -37s-49 -63.334 -49 -116.001c0 -52 16.333 -90.667 49 -116s76.667 -38 132 -38c12.667 0 26 0.833008 40 2.5s29.667 4.5 47 8.5v284zM33 293.002
c0 41.333 7.33398 79.666 22.001 114.999s36.167 66 64.5 92s62.833 46.333 103.5 61s87 22 139 22c81.333 0 156.666 -10 225.999 -30v-510c0 -50 -4.83301 -92 -14.5 -126s-25.834 -61.5 -48.501 -82.5s-52.667 -36.167 -90 -45.5s-84 -14 -140 -14
c-11.333 0 -24 0.666992 -38 2s-28.333 3.16602 -43 5.49902s-29 5 -43 8s-26.667 6.16699 -38 9.5l-30 146c14 -6 29.5 -11.5 46.5 -16.5s34.5 -9.5 52.5 -13.5s35.5 -7 52.5 -9s32.5 -3 46.5 -3c21.333 0 41 1.83301 59 5.5s33.5 9.33398 46.5 17.001
s23.167 17.334 30.5 29.001s11 25.834 11 42.501v12c-19.333 -3.33301 -37.166 -5.5 -53.499 -6.5s-30.833 -1.5 -43.5 -1.5c-48 0 -91.5 7.5 -130.5 22.5s-72.5 35.5 -100.5 61.5s-49.5 56.667 -64.5 92s-22.5 73.666 -22.5 114.999z" />
    <glyph glyph-name="h" unicode="h" horiz-adv-x="664" 
d="M221 571c21.333 3.33301 41.667 6.16699 61 8.5s36.666 3.5 51.999 3.5c36 0 69.833 -3.33301 101.5 -10s59.167 -18.667 82.5 -36s41.833 -41 55.5 -71s20.5 -68 20.5 -114v-352h-140v312c0 51.333 -10.667 86.5 -32 105.5s-52.666 28.5 -93.999 28.5
c-15.333 0 -32 -1 -50 -3s-37 -4.66699 -57 -8v-435h-140v811h140v-240z" />
    <glyph glyph-name="i" unicode="i" horiz-adv-x="301" 
d="M81 563h140v-563h-140v563zM151 651c-22 0 -41.166 6.33301 -57.499 19s-24.5 31.334 -24.5 56.001c0 22 7.83301 39.833 23.5 53.5s35.167 20.5 58.5 20.5s42.666 -6.83301 57.999 -20.5s23 -31.5 23 -53.5c0 -22.667 -7.5 -40.834 -22.5 -54.501
s-34.5 -20.5 -58.5 -20.5z" />
    <glyph glyph-name="j" unicode="j" horiz-adv-x="322" 
d="M27 -225c-8 0 -16.502 0.500977 -25.502 1.50098s-17.5 2.5 -25.5 4.5l-16 130c12.667 -3.33301 23.834 -5.5 33.501 -6.5s19.167 -1.5 28.5 -1.5c30.667 0 51.5 9.66699 62.5 29s16.5 52.333 16.5 99v532h140v-515c0 -49.333 -3.16699 -91.333 -9.5 -126
s-17.666 -62.834 -33.999 -84.501s-38.333 -37.5 -66 -47.5s-62.5 -15 -104.5 -15zM170.998 651.001c-22 0 -41.166 6.33301 -57.499 19s-24.5 31.334 -24.5 56.001c0 22 7.83301 39.833 23.5 53.5s35.167 20.5 58.5 20.5s42.666 -6.83301 57.999 -20.5s23 -31.5 23 -53.5
c0 -22.667 -7.5 -40.834 -22.5 -54.501s-34.5 -20.5 -58.5 -20.5z" />
    <glyph glyph-name="k" unicode="k" horiz-adv-x="609" 
d="M81 0v811h140v-525l209 277h166l-211 -279l224 -284h-168l-220 278v-278h-140z" />
    <glyph glyph-name="l" unicode="l" horiz-adv-x="302" 
d="M81 0v811h140v-811h-140z" />
    <glyph glyph-name="m" unicode="m" horiz-adv-x="979" 
d="M769 313c0 51.333 -8.83496 86.333 -26.502 105s-45.834 28 -84.501 28c-15.333 0 -32.5 -2 -51.5 -6s-37.167 -10 -54.5 -18c2 -4 4 -10.333 6 -19s3.66699 -18 5 -28s2.33301 -20.167 3 -30.5s1 -19.5 1 -27.5v-317h-140v313c0 26 -2.16699 47.5 -6.5 64.5
s-11.166 30.5 -20.499 40.5s-21.166 17.167 -35.499 21.5s-31.5 6.5 -51.5 6.5c-15.333 0 -29.666 -1.33301 -42.999 -4l-49 -8v-434h-140v552c44.667 8 87.667 15.167 129 21.5s76.333 9.5 105 9.5c30 0 59.333 -3 88 -9s52.334 -16.667 71.001 -32
c29.333 12 61.166 21.833 95.499 29.5s65.5 11.5 93.5 11.5c34.667 0 67 -3.33301 97 -10s56 -18.667 78 -36s39.333 -41 52 -71s19 -68 19 -114v-352h-140v313z" />
    <glyph glyph-name="n" unicode="n" horiz-adv-x="664" 
d="M81 554c22 4 44.667 7.83301 68 11.5s46.166 6.66699 68.499 9s43.5 4.33301 63.5 6s37.667 2.5 53 2.5c36 0 69.833 -3.33301 101.5 -10s59.167 -18.667 82.5 -36s41.833 -41 55.5 -71s20.5 -68 20.5 -114v-352h-140v312c0 51.333 -10.667 86.5 -32 105.5
s-52.666 28.5 -93.999 28.5c-15.333 0 -32 -1 -50 -3s-37 -4.66699 -57 -8v-435h-140v554z" />
    <glyph glyph-name="o" unicode="o" horiz-adv-x="676" 
d="M338 -12c-43.333 0 -83.5 7.66699 -120.5 23s-69.167 36.166 -96.5 62.499s-48.833 57.666 -64.5 93.999s-23.5 75.5 -23.5 117.5s7.83301 81 23.5 117s37.167 67.5 64.5 94.5s59.5 48.167 96.5 63.5s77.167 23 120.5 23s83.5 -7.66699 120.5 -23
s69.167 -36.5 96.5 -63.5s48.833 -58.5 64.5 -94.5s23.5 -75 23.5 -117s-7.83301 -81.167 -23.5 -117.5s-37.167 -67.666 -64.5 -93.999s-59.5 -47.166 -96.5 -62.499s-77.167 -23 -120.5 -23zM338 125c24.667 0 46.667 4.16699 66 12.5s35.833 19.666 49.5 33.999
s24.167 31.333 31.5 51s11 40.5 11 62.5s-3.66699 42.833 -11 62.5s-17.833 36.667 -31.5 51s-30.167 25.833 -49.5 34.5s-41.333 13 -66 13s-46.667 -4.33301 -66 -13s-35.833 -20.167 -49.5 -34.5s-24.167 -31.333 -31.5 -51s-11 -40.5 -11 -62.5
s3.66699 -42.833 11 -62.5s17.833 -36.667 31.5 -51s30.167 -25.666 49.5 -33.999s41.333 -12.5 66 -12.5z" />
    <glyph glyph-name="p" unicode="p" horiz-adv-x="669" 
d="M221 136c17.333 -4 33 -6.83398 47 -8.50098s27.667 -2.5 41 -2.5c55.333 0 99.333 13.333 132 40s49 67 49 121c0 54.667 -16.333 95 -49 121s-76.667 39 -132 39c-14 0 -28.333 -1.16699 -43 -3.5s-29.667 -5.16602 -45 -8.49902v-298zM221 -220.001
l-140.001 -0.00195312v773c34.667 10 71 17.5 109 22.5s77 7.5 117 7.5c52 0 98.333 -7.66699 139 -23s75.167 -36.166 103.5 -62.499s49.833 -57.666 64.5 -93.999s22 -75.5 22 -117.5s-7.5 -81.167 -22.5 -117.5s-36.333 -67.833 -64 -94.5s-61.167 -47.667 -100.5 -63
s-83 -23 -131 -23c-12.667 0 -27.167 0.5 -43.5 1.5s-34.166 3.16699 -53.499 6.5v-216z" />
    <glyph glyph-name="q" unicode="q" horiz-adv-x="669" 
d="M180 286c0 -54 16.333 -94.332 49 -120.999s76.667 -40 132 -40c12.667 0 26 0.833008 40 2.5s29.667 4.5 47 8.5v298c-15.333 3.33301 -30.333 6.16602 -45 8.49902s-28.667 3.5 -42 3.5c-55.333 0 -99.333 -13 -132 -39s-49 -66.333 -49 -121zM448 -3.99902
c-19.333 -3.33301 -37.166 -5.49805 -53.499 -6.49805s-30.833 -1.5 -43.5 -1.5c-48 0 -91.5 7.66699 -130.5 23s-72.5 36.333 -100.5 63s-49.5 58.167 -64.5 94.5s-22.5 75.5 -22.5 117.5s7.33301 81.167 22 117.5s36.167 67.666 64.5 93.999s62.833 47.166 103.5 62.499
s87 23 139 23c81.333 0 156.666 -10 225.999 -30v-773h-140v216z" />
    <glyph glyph-name="r" unicode="r" horiz-adv-x="438" 
d="M408 438l-80 -0.000976562c-5.33301 0 -13.166 -0.166992 -23.499 -0.5s-21 -1 -32 -2s-21.333 -2.16699 -31 -3.5s-16.5 -2.66602 -20.5 -3.99902v-428h-140v548c17.333 3.33301 36 6.5 56 9.5s39.667 5.5 59 7.5s38.166 3.66699 56.499 5s34.833 2 49.5 2h106v-134z
" />
    <glyph glyph-name="s" unicode="s" horiz-adv-x="599" 
d="M296 125c28.667 0 53.332 3.33496 73.999 10.002s31 18 31 34c0 14.667 -6.5 26 -19.5 34s-37.5 15.667 -73.5 23l-45 8c-64 12 -114 32 -150 60s-54 66.333 -54 115c0 53.333 20.833 95.666 62.5 126.999s99.167 47 172.5 47c44.667 0 87.834 -4.33301 129.501 -13
s78.167 -21.667 109.5 -39l-51 -130c-12.667 6.66699 -27 12.834 -43 18.501s-32.667 10.5 -50 14.5s-34.833 7 -52.5 9s-34.5 3 -50.5 3c-58.667 0 -88 -12.333 -88 -37c0 -12.667 6.66699 -23.167 20 -31.5s37.666 -15.833 72.999 -22.5l44 -8
c76.667 -14.667 131.5 -36.667 164.5 -66s49.5 -69.333 49.5 -120c0 -24.667 -5.33301 -47.5 -16 -68.5s-26.667 -39.333 -48 -55s-48.166 -27.834 -80.499 -36.501s-69.833 -13 -112.5 -13c-22.667 0 -45.5 1.33301 -68.5 4s-45.5 6.5 -67.5 11.5s-42.833 11 -62.5 18
s-37.5 15.167 -53.5 24.5l53 136c25.333 -16.667 56 -30.334 92 -41.001s73 -16 111 -16z" />
    <glyph glyph-name="t" unicode="t" horiz-adv-x="529" 
d="M20 563l106 -0.000976562v206h140v-206h214v-130h-214v-204c0 -19.333 1.66699 -35.333 5 -48s9 -22.667 17 -30s18.333 -12.666 31 -15.999s28.334 -5 47.001 -5h118v-130h-133c-39.333 0 -73 3 -101 9s-51.333 16 -70 30s-32.334 32.333 -41.001 55s-13 51 -13 85v254
h-106v130z" />
    <glyph glyph-name="u" unicode="u" horiz-adv-x="642" 
d="M421 563l140.001 0.000976562v-534c-20 -6.66699 -39.333 -12.5 -58 -17.5s-37.5 -9.33301 -56.5 -13s-38.833 -6.33398 -59.5 -8.00098s-43 -2.5 -67 -2.5c-36 0 -69.5 3.83301 -100.5 11.5s-58 20.5 -81 38.5s-41 41.667 -54 71s-19.5 66 -19.5 110v344h140v-304
c0 -51.333 8.66699 -86.5 26 -105.5s45.666 -28.5 84.999 -28.5c15.333 0 31.5 1 48.5 3s35.833 5.66699 56.5 11v424z" />
    <glyph glyph-name="v" unicode="v" horiz-adv-x="600" 
d="M204 0l-194 563h147l143 -430l143 430h147l-194 -563h-192z" />
    <glyph glyph-name="w" unicode="w" horiz-adv-x="904" 
d="M547 0l-95 436l-96 -436h-188l-153 563h153l103 -430l96 430h169l97 -430l102 430h154l-150 -563h-192z" />
    <glyph glyph-name="x" unicode="x" horiz-adv-x="635" 
d="M401 289l223 -289h-165l-141 182l-142 -182h-165l224 290l-211 273h166l128 -166l128 166h167z" />
    <glyph glyph-name="y" unicode="y" horiz-adv-x="643" 
d="M77 -54c14 -6 29.501 -11.5029 46.501 -16.5029s34.5 -9.5 52.5 -13.5s35.5 -7 52.5 -9s32.5 -3 46.5 -3c21.333 0 41 1.83301 59 5.5s33.5 9.33398 46.5 17.001s23.167 17.334 30.5 29.001s11 25.834 11 42.501v12c-38 -8 -75.333 -12 -112 -12
c-36 0 -69 3.33301 -99 10s-55.833 18.667 -77.5 36s-38.5 41 -50.5 71s-18 68 -18 114v335h141v-295c0 -26 2.16699 -47.5 6.5 -64.5s11 -30.667 20 -41s20.5 -17.666 34.5 -21.999s30.667 -6.5 50 -6.5c15.333 0 31.5 1 48.5 3s35.833 6 56.5 12v414h140v-521
c0 -50 -4.83301 -92 -14.5 -126s-25.834 -61.5 -48.501 -82.5s-52.667 -36.167 -90 -45.5s-84 -14 -140 -14c-11.333 0 -24 0.666992 -38 2s-28.333 3.16602 -43 5.49902s-29 5 -43 8s-26.667 6.16699 -38 9.5z" />
    <glyph glyph-name="z" unicode="z" horiz-adv-x="583" 
d="M64 563h459v-129l-305 -304h315v-130h-493v130l311 303h-287v130z" />
    <glyph glyph-name="braceleft" unicode="{" horiz-adv-x="365" 
d="M291 -220c-34.667 0 -63.334 2.49902 -86.001 7.49902s-40.834 13.833 -54.501 26.5s-23.334 30 -29.001 52s-8.5 49.667 -8.5 83v170c0 17.333 -1 33.666 -3 48.999s-5.83301 28.5 -11.5 39.5s-14 19.833 -25 26.5s-25.5 10.334 -43.5 11.001v102
c18 0.666992 32.5 4.33398 43.5 11.001s19.333 15.667 25 27s9.5 24.5 11.5 39.5s3 31.5 3 49.5v168c0 33.333 2.83301 61 8.5 83s15.334 39.333 29.001 52s31.834 21.5 54.501 26.5s51.334 7.5 86.001 7.5h59v-101h-32c-15.333 0 -27.333 -1 -36 -3
s-15.167 -5.66699 -19.5 -11s-7 -12.833 -8 -22.5s-1.5 -22.167 -1.5 -37.5v-176c0 -28 -2.33301 -51.5 -7 -70.5s-11.334 -34.667 -20.001 -47s-18.834 -21.833 -30.501 -28.5s-24.5 -12 -38.5 -16v-2c14 -4 26.833 -9.5 38.5 -16.5s21.834 -16.667 30.501 -29
s15.334 -28 20.001 -47s7 -42.5 7 -70.5v-178c0 -15.333 0.5 -27.833 1.5 -37.5s3.66699 -17.167 8 -22.5s10.833 -9 19.5 -11s20.667 -3 36 -3h32v-101h-59z" />
    <glyph glyph-name="bar" unicode="|" horiz-adv-x="301" 
d="M81 811h140v-1031h-140v1031z" />
    <glyph glyph-name="braceright" unicode="}" horiz-adv-x="365" 
d="M73 -220l-58 0.000976562v101h23c15.333 0 27.833 1 37.5 3s17.167 5.66699 22.5 11s8.83301 12.833 10.5 22.5s2.5 22.167 2.5 37.5v178c0 28 2.33301 51.5 7 70.5s11.334 34.667 20.001 47s18.834 22 30.501 29s24.5 12.5 38.5 16.5v2c-14 4 -26.833 9.33301 -38.5 16
s-21.834 16.167 -30.501 28.5s-15.334 28 -20.001 47s-7 42.5 -7 70.5v176c0 15.333 -0.833008 27.833 -2.5 37.5s-5.16699 17.167 -10.5 22.5s-12.833 9 -22.5 11s-22.167 3 -37.5 3h-23v101h58c34.667 0 63.334 -2.5 86.001 -7.5s40.834 -13.833 54.501 -26.5
s23.334 -30 29.001 -52s8.5 -49.667 8.5 -83v-168c0 -18 1 -34.5 3 -49.5s6 -28.167 12 -39.5s14.5 -20.333 25.5 -27s25.5 -10.334 43.5 -11.001v-102c-18 -0.666992 -32.5 -4.33398 -43.5 -11.001s-19.5 -15.5 -25.5 -26.5s-10 -24.167 -12 -39.5s-3 -31.666 -3 -48.999
v-170c0 -33.333 -2.83301 -61 -8.5 -83s-15.334 -39.333 -29.001 -52s-31.834 -21.5 -54.501 -26.5s-51.334 -7.5 -86.001 -7.5z" />
    <glyph glyph-name="asciitilde" unicode="~" horiz-adv-x="620" 
d="M414 307c18.667 0 33.3311 5.5 43.998 16.5s17.667 31.5 21 61.5h101c-0.666992 -65.333 -12.667 -115.5 -36 -150.5s-59 -52.5 -107 -52.5c-22.667 0 -44.167 4 -64.5 12s-40 17 -59 27s-37.333 19 -55 27s-34.834 12 -51.501 12c-18.667 0 -33.5 -5.5 -44.5 -16.5
s-18.167 -31.5 -21.5 -61.5h-100c0 64.667 11.833 114.667 35.5 150s59.167 53 106.5 53c24.667 0 47.834 -4 69.501 -12s41.834 -17 60.501 -27l54 -27c16.667 -8 32.334 -12 47.001 -12z" />
    <glyph glyph-name="exclamdown" unicode="&#xa1;" horiz-adv-x="349" 
d="M172 613c12 0 23.5 -1.83301 34.5 -5.5s20.833 -9 29.5 -16s15.667 -15.5 21 -25.5s8 -21 8 -33s-2.66699 -23.167 -8 -33.5s-12.333 -19 -21 -26s-18.5 -12.5 -29.5 -16.5s-22.5 -6 -34.5 -6c-11.333 0 -22.5 2 -33.5 6s-20.833 9.5 -29.5 16.5s-15.5 15.667 -20.5 26
s-7.5 21.5 -7.5 33.5s2.5 23 7.5 33s11.833 18.5 20.5 25.5s18.5 12.333 29.5 16s22.167 5.5 33.5 5.5zM243 -220h-140v585h140v-585z" />
    <glyph glyph-name="cent" unicode="&#xa2;" horiz-adv-x="558" 
d="M310 -11c-40 2.66699 -77 11.9971 -111 27.9971s-63.333 37 -88 63s-43.834 56.5 -57.501 91.5s-20.5 72.833 -20.5 113.5c0 40 6.83301 77.5 20.5 112.5s32.834 65.667 57.501 92s54 47.5 88 63.5s71 25.667 111 29v96h47v-96c34 -1.33301 64.833 -5.83301 92.5 -13.5
s54.5 -18.167 80.5 -31.5l-56 -126c-16.667 9.33301 -34.667 17 -54 23s-40.333 9.66699 -63 11v-320c44.667 2.66699 83.667 14.334 117 35.001l56 -127c-26 -13.333 -52.833 -23.666 -80.5 -30.999s-58.5 -11.666 -92.5 -12.999v-98h-47v98zM180 284.997
c0 -43.333 11.667 -79 35 -107s55 -45 95 -51v316c-40 -6 -71.667 -23.167 -95 -51.5s-35 -63.833 -35 -106.5z" />
    <glyph glyph-name="sterling" unicode="&#xa3;" horiz-adv-x="715" 
d="M405 826c44 0 88.834 -5.33398 134.501 -16.001s85.5 -25.334 119.5 -44.001l-56 -124c-23.333 14 -51.333 25.333 -84 34s-65.667 13 -99 13c-19.333 0 -39 -1.33301 -59 -4s-38.167 -7.5 -54.5 -14.5s-29.833 -16.833 -40.5 -29.5s-16 -28.667 -16 -48
c0 -13.333 2.33301 -26 7 -38s10.667 -24 18 -36s15.5 -23.833 24.5 -35.5s17.833 -23.834 26.5 -36.501h226v-130h-180c-1.33301 -16.667 -5.83301 -33 -13.5 -49s-17.334 -31.333 -29.001 -46s-25 -28.5 -40 -41.5s-30.167 -24.5 -45.5 -34.5l1 -2
c17.333 5.33301 33 9 47 11s27.333 3 40 3c17.333 0 33.5 -1.83301 48.5 -5.5s29.833 -7.66699 44.5 -12s29.5 -8.33301 44.5 -12s31.167 -5.5 48.5 -5.5c20 0 40.167 2 60.5 6s41.5 11.333 63.5 22l43 -127c-26 -11.333 -53.333 -20.166 -82 -26.499s-60 -9.5 -94 -9.5
c-21.333 0 -41.333 2.16699 -60 6.5s-37.334 9.33301 -56.001 15s-37.667 10.667 -57 15s-39.666 6.5 -60.999 6.5s-45.833 -2.66699 -73.5 -8s-58.5 -16.666 -92.5 -33.999l-52 125c20 10 40 21.167 60 33.5s37.833 26.5 53.5 42.5s28.334 34.333 38.001 55
s14.5 44.334 14.5 71.001v1h-173v130h122l-24 38c-8.66699 12.667 -16.334 25.667 -23.001 39s-12.167 27.5 -16.5 42.5s-6.5 31.167 -6.5 48.5c0 37.333 9.16699 69.333 27.5 96s42 48.5 71 65.5s61.5 29.5 97.5 37.5s71.667 12 107 12z" />
    <glyph glyph-name="currency" unicode="&#xa4;" horiz-adv-x="578" 
d="M289 550c32 0 59.667 -4.16699 83 -12.5s42.666 -18.833 57.999 -31.5l62 57l74 -74l-60 -55c11.333 -16.667 20.5 -36 27.5 -58s10.5 -47.333 10.5 -76s-3.5 -54 -10.5 -76s-16.167 -41.333 -27.5 -58l60 -55l-74 -74l-62 57
c-15.333 -12.667 -34.666 -23.167 -57.999 -31.5s-51 -12.5 -83 -12.5s-59.667 4.16699 -83 12.5s-42.666 18.833 -57.999 31.5l-62 -57l-74 74l60 55c-11.333 16.667 -20.5 36 -27.5 58s-10.5 47.333 -10.5 76s3.5 54 10.5 76s16.167 41.333 27.5 58l-60 55l74 74l62 -57
c15.333 12.667 34.666 23.167 57.999 31.5s51 12.5 83 12.5zM289 146c22 0 42.6699 4 62.0029 12s36.166 19 50.499 33s25.666 30.333 33.999 49s12.5 38.667 12.5 60c0 22.667 -4 43.5 -12 62.5s-19 35.167 -33 48.5s-30.833 23.833 -50.5 31.5s-40.834 11.5 -63.501 11.5
c-23.333 0 -44.666 -3.83301 -63.999 -11.5s-36 -18.167 -50 -31.5s-25 -29.5 -33 -48.5s-12 -39.833 -12 -62.5c0 -21.333 4 -41.333 12 -60s19.167 -35 33.5 -49s31.166 -25 50.499 -33s40.333 -12 63 -12z" />
    <glyph glyph-name="yen" unicode="&#xa5;" horiz-adv-x="750" 
d="M102 351h180l-267 460h150l210 -372l210 372h150l-266 -460h178v-96h-201v-70h201v-105h-201v-80h-141v80h-203v105h203v70h-203v96z" />
    <glyph glyph-name="brokenbar" unicode="&#xa6;" horiz-adv-x="301" 
d="M81 811h140v-400h-140v400zM81 180h140v-400h-140v400z" />
    <glyph glyph-name="section" unicode="&#xa7;" horiz-adv-x="730" 
d="M112 645c0 29.333 6.50391 55.1699 19.5039 77.5029s30.667 41.166 53 56.499s48.166 26.833 77.499 34.5s60.666 11.5 93.999 11.5c46 0 89.167 -5.16699 129.5 -15.5s75.5 -24.166 105.5 -41.499l-50 -117c-23.333 15.333 -51 28.333 -83 39s-64.667 16 -98 16
c-34 0 -61.333 -5 -82 -15s-31 -24.667 -31 -44c0 -15.333 6.66699 -29.833 20 -43.5s36.666 -29.167 69.999 -46.5l162 -82c28 -14 53.5 -28.167 76.5 -42.5s42.5 -29.5 58.5 -45.5s28.5 -33.5 37.5 -52.5s13.5 -40.167 13.5 -63.5c0 -21.333 -3.33301 -40.833 -10 -58.5
s-15.834 -34 -27.501 -49s-25.167 -28.5 -40.5 -40.5s-31.666 -22.333 -48.999 -31c18 -17.333 31.833 -36.333 41.5 -57s14.5 -43.667 14.5 -69c0 -31.333 -6.5 -59 -19.5 -83s-30.833 -44.167 -53.5 -60.5s-49.334 -28.833 -80.001 -37.5s-64 -13 -100 -13
c-46 0 -89 5.16699 -129 15.5s-75.333 24.166 -106 41.499l51 116c27.333 -18 56.333 -31.333 87 -40s62 -13 94 -13c16.667 0 32.167 1.5 46.5 4.5s27 7.66699 38 14s19.667 14.166 26 23.499s9.5 20.333 9.5 33c0 18 -8.66699 35.667 -26 53s-47 36.666 -89 57.999
l-142 71c-55.333 28 -98.5 58 -129.5 90s-46.5 71.333 -46.5 118c0 36 12.167 68.5 36.5 97.5s53.833 52.5 88.5 70.5c-18.667 17.333 -33 35.833 -43 55.5s-15 41.167 -15 64.5zM430.004 176.004c6 -3.33301 12 -6.5 18 -9.5s12 -6.16699 18 -9.5
c23.333 12.667 42.333 27 57 43s22 34.333 22 55c0 12 -1.83301 23.167 -5.5 33.5s-9.66699 20.166 -18 29.499s-19.333 18.833 -33 28.5s-30.5 19.5 -50.5 29.5l-174 86c-23.333 -11.333 -42.5 -24.666 -57.5 -39.999s-22.5 -33.333 -22.5 -54
c0 -25.333 7.5 -46.5 22.5 -63.5s40.167 -34.833 75.5 -53.5z" />
    <glyph glyph-name="dieresis" unicode="&#xa8;" horiz-adv-x="447" 
d="M89 800c21.333 0 39.167 -6.16699 53.5 -18.5s21.5 -28.5 21.5 -48.5c0 -22 -7.66699 -39 -23 -51c-14 -12 -31.333 -18 -52 -18c-19.333 0 -36.5 6 -51.5 18s-22.5 29 -22.5 51c0 20 7 36.167 21 48.5s31.667 18.5 53 18.5zM358.001 800c21.333 0 39 -6.16699 53 -18.5
s21 -28.5 21 -48.5c0 -22.667 -7.33301 -39.667 -22 -51c-14 -12 -31.333 -18 -52 -18c-20 0 -37.333 6 -52 18s-22 29 -22 51c0 20 7 36.167 21 48.5s31.667 18.5 53 18.5z" />
    <glyph glyph-name="copyright" unicode="&#xa9;" horiz-adv-x="929" 
d="M45 405c0 62 10.833 119 32.5 171s51.5 96.5 89.5 133.5s82.5 65.833 133.5 86.5s105.833 31 164.5 31c58 0 112.333 -10.333 163 -31s95 -49.5 133 -86.5s68 -81.5 90 -133.5s33 -109 33 -171s-11 -118.833 -33 -170.5s-52 -95.834 -90 -132.501
s-82.333 -65.167 -133 -85.5s-105 -30.5 -163 -30.5c-58.667 0 -113.5 10.167 -164.5 30.5s-95.5 48.833 -133.5 85.5s-67.833 80.834 -89.5 132.501s-32.5 108.5 -32.5 170.5zM127 405c0 -51.333 8.66699 -98.166 26 -140.499s41 -78.833 71 -109.5
s65.667 -54.334 107 -71.001s86 -25 134 -25s92.667 8.33301 134 25s77 40.334 107 71.001s53.5 67.167 70.5 109.5s25.5 89.166 25.5 140.499c0 52 -8.5 99.167 -25.5 141.5s-40.5 78.833 -70.5 109.5s-65.667 54.334 -107 71.001s-86 25 -134 25
s-92.667 -8.33301 -134 -25s-77 -40.334 -107 -71.001s-53.667 -67.167 -71 -109.5s-26 -89.5 -26 -141.5zM235 409c0 35.333 5.83301 67.6699 17.5 97.0029s28.167 54.5 49.5 75.5s46.666 37.167 75.999 48.5s62 17 98 17c30.667 0 59.5 -3.83301 86.5 -11.5
s50.833 -18.167 71.5 -31.5l-35 -87c-17.333 11.333 -36 20.166 -56 26.499s-41.667 9.5 -65 9.5c-19.333 0 -37.333 -3.33301 -54 -10s-31.167 -16.167 -43.5 -28.5s-22 -27.333 -29 -45s-10.5 -37.834 -10.5 -60.501c0 -22 3.5 -42 10.5 -60s16.667 -33.333 29 -46
s26.833 -22.334 43.5 -29.001s34.667 -10 54 -10c23.333 0 44.833 3.16699 64.5 9.5s38.167 14.833 55.5 25.5l36 -85c-20.667 -13.333 -44.5 -23.833 -71.5 -31.5s-55.833 -11.5 -86.5 -11.5c-36 0 -68.667 5.83301 -98 17.5s-54.666 28 -75.999 49s-37.833 46 -49.5 75
s-17.5 61.167 -17.5 96.5z" />
    <glyph glyph-name="ordfeminine" unicode="&#xaa;" horiz-adv-x="457" 
d="M287 594c-9.33301 2 -20.168 3.66699 -32.501 5s-22.166 2 -29.499 2c-22.667 0 -42.5 -2.66699 -59.5 -8s-25.5 -16 -25.5 -32c0 -16.667 7.5 -28.167 22.5 -34.5s33.833 -9.5 56.5 -9.5c22 0 44.667 3 68 9v68zM216.998 429c-23.333 0 -45.665 2.16699 -66.998 6.5
s-40.166 11.5 -56.499 21.5s-29.333 23 -39 39s-14.5 35.667 -14.5 59c0 20.667 4.33301 39.167 13 55.5s20.667 30 36 41s33.666 19.333 54.999 25s44.666 8.5 69.999 8.5c7.33301 0 17.666 -0.5 30.999 -1.5s27.333 -2.5 42 -4.5v8c0 20 -8.16699 32.833 -24.5 38.5
s-36.5 8.5 -60.5 8.5c-17.333 0 -37.833 -3.16699 -61.5 -9.5s-47.167 -14.166 -70.5 -23.499l10 94c17.333 7.33301 38 14 62 20s47.667 9 71 9c24 0 46.333 -2.66699 67 -8s38.5 -13.833 53.5 -25.5s26.833 -26.834 35.5 -45.501s13 -41.667 13 -69v-212
c-25.333 -9.33301 -52.5 -17.5 -81.5 -24.5s-56.833 -10.5 -83.5 -10.5z" />
    <glyph glyph-name="guillemotleft" unicode="&#xab;" horiz-adv-x="610" 
d="M26 288l156 256h147l-151 -255l150 -258h-145zM283 288l156 256h145l-150 -255l149 -258h-144z" />
    <glyph glyph-name="logicalnot" unicode="&#xac;" horiz-adv-x="712" 
d="M491 332h-445v130h585v-351h-140v221z" />
    <glyph glyph-name="registered" unicode="&#xae;" horiz-adv-x="929" 
d="M45 405c0 62 10.833 119 32.5 171s51.5 96.5 89.5 133.5s82.5 65.833 133.5 86.5s105.833 31 164.5 31c58 0 112.333 -10.333 163 -31s95 -49.5 133 -86.5s68 -81.5 90 -133.5s33 -109 33 -171s-11 -118.833 -33 -170.5s-52 -95.834 -90 -132.501
s-82.333 -65.167 -133 -85.5s-105 -30.5 -163 -30.5c-58.667 0 -113.5 10.167 -164.5 30.5s-95.5 48.833 -133.5 85.5s-67.833 80.834 -89.5 132.501s-32.5 108.5 -32.5 170.5zM127 405c0 -51.333 8.66699 -98.166 26 -140.499s41 -78.833 71 -109.5
s65.667 -54.334 107 -71.001s86 -25 134 -25s92.667 8.33301 134 25s77 40.334 107 71.001s53.5 67.167 70.5 109.5s25.5 89.166 25.5 140.499c0 52 -8.5 99.167 -25.5 141.5s-40.5 78.833 -70.5 109.5s-65.667 54.334 -107 71.001s-86 25 -134 25
s-92.667 -8.33301 -134 -25s-77 -40.334 -107 -71.001s-53.667 -67.167 -71 -109.5s-26 -89.5 -26 -141.5zM395 366l-0.000976562 -168.002h-96v445h155c28.667 0 55.167 -2 79.5 -6s45.5 -11.167 63.5 -21.5s32.167 -24.666 42.5 -42.999s15.5 -41.5 15.5 -69.5
c0 -32.667 -7.66699 -58.667 -23 -78s-35.666 -33.666 -60.999 -42.999l105 -184h-108l-94 168h-14h-65zM556.999 502.998c0 19.333 -6.83203 33.5 -20.499 42.5s-32.834 13.5 -57.501 13.5h-84v-109h85c27.333 0 47 4.5 59 13.5s18 22.167 18 39.5z" />
    <glyph glyph-name="macron" unicode="&#xaf;" horiz-adv-x="324" 
d="M15 694v86h294v-86h-294z" />
    <glyph glyph-name="degree" unicode="&#xb0;" horiz-adv-x="439" 
d="M30 634c0 26.667 5 51.667 15 75s23.5 43.666 40.5 60.999s37 31 60 41s47.5 15 73.5 15c26.667 0 51.5 -5 74.5 -15s43 -23.667 60 -41s30.5 -37.666 40.5 -60.999s15 -48.333 15 -75c0 -26 -5 -50.5 -15 -73.5s-23.5 -43 -40.5 -60s-37 -30.5 -60 -40.5
s-47.833 -15 -74.5 -15c-26 0 -50.5 5 -73.5 15s-43 23.5 -60 40.5s-30.5 37 -40.5 60s-15 47.5 -15 73.5zM116 634c0 -31.333 9.5 -57.5 28.5 -78.5s43.833 -31.5 74.5 -31.5c31.333 0 56.666 10.5 75.999 31.5s29 47.167 29 78.5c0 32 -9.66699 58.667 -29 80
s-44.666 32 -75.999 32c-30.667 0 -55.5 -10.667 -74.5 -32s-28.5 -48 -28.5 -80z" />
    <glyph glyph-name="plusminus" unicode="&#xb1;" horiz-adv-x="676" 
d="M268 300h-222v105h222v158h140v-158h221v-105h-221v-162h-140v162zM46 106h582v-106h-582v106z" />
    <glyph glyph-name="uni00B2" unicode="&#xb2;" horiz-adv-x="336" 
d="M158 755c-15.333 0 -29.333 -2.50293 -42 -7.50293s-24.667 -12.167 -36 -21.5l-26 49c14 11.333 30.5 20 49.5 26s39.167 9 60.5 9c32 0 59.5 -7.66699 82.5 -23s34.5 -38.666 34.5 -69.999c0 -32.667 -12.5 -63 -37.5 -91s-61.5 -59.333 -109.5 -94h152v-52h-236v50
l65 48c20.667 16 39 31.333 55 46s28.667 28.834 38 42.501s14 26.834 14 39.501c0 17.333 -6.33301 29.833 -19 37.5s-27.667 11.5 -45 11.5z" />
    <glyph glyph-name="uni00B3" unicode="&#xb3;" horiz-adv-x="343" 
d="M163 474c-20.667 0 -41.002 3.00195 -61.002 9.00195s-37.333 14.667 -52 26l26 49c11.333 -9.33301 23.833 -16.5 37.5 -21.5s28.167 -7.5 43.5 -7.5c20.667 0 38.667 3.83301 54 11.5s23 19.5 23 35.5c0 18 -7.66699 29.833 -23 35.5s-35.333 8.5 -60 8.5h-9v53h8
c26 0 45.167 2.66699 57.5 8s18.5 15.666 18.5 30.999c0 14 -6.33301 24.667 -19 32s-28.667 11 -48 11c-15.333 0 -29.666 -2.5 -42.999 -7.5s-25.666 -12.167 -36.999 -21.5l-26 49c14.667 10.667 31.834 19.167 51.501 25.5s39.5 9.5 59.5 9.5
c35.333 0 64.166 -7.66699 86.499 -23s33.5 -37 33.5 -65c0 -18 -4.5 -33.5 -13.5 -46.5s-19.833 -22.167 -32.5 -27.5c15.333 -4.66699 28.333 -13.334 39 -26.001s16 -30 16 -52c0 -32 -12.167 -56 -36.5 -72s-55.5 -24 -93.5 -24z" />
    <glyph glyph-name="acute" unicode="&#xb4;" horiz-adv-x="287" 
d="M129 671h-114l118 140h139z" />
    <glyph glyph-name="mu" unicode="&#xb5;" horiz-adv-x="675" 
d="M72 -215c3.33301 21.333 6 44.333 8 69s3 53 3 85v624h140v-260c0 -60 9.66699 -104.833 29 -134.5s47.666 -44.5 84.999 -44.5c38 0 67 15.333 87 46s30 75 30 133v260h140v-563h-125v99c-13.333 -30.667 -32.166 -56.167 -56.499 -76.5s-56.833 -31.5 -97.5 -33.5
c-28.667 -0.666992 -51.5 6 -68.5 20s-29.833 31.333 -38.5 52v-109c0 -34 -0.833008 -64.833 -2.5 -92.5s-4.16699 -52.5 -7.5 -74.5h-126z" />
    <glyph glyph-name="paragraph" unicode="&#xb6;" horiz-adv-x="646" 
d="M33 596c0 33.333 6.49902 63.333 19.499 90s31.333 49.167 55 67.5s52.334 32.5 86.001 42.5s71.5 15 113.5 15h258v-894h-95v804h-122v-804h-95v467c-26 2 -52 7.5 -78 16.5s-49.5 22.167 -70.5 39.5s-38.167 38.833 -51.5 64.5s-20 56.167 -20 91.5z" />
    <glyph glyph-name="periodcentered" unicode="&#xb7;" horiz-adv-x="315" 
d="M158 201c-23.333 0 -43.166 8 -59.499 24s-24.5 35.667 -24.5 59c0 22.667 8.16699 42 24.5 58s36.166 24 59.499 24c22.667 0 42 -8 58 -24s24 -35.333 24 -58c0 -23.333 -8 -43 -24 -59s-35.333 -24 -58 -24z" />
    <glyph glyph-name="cedilla" unicode="&#xb8;" horiz-adv-x="252" 
d="M20 -153c7.33301 -3.33301 19.335 -6.83301 36.002 -10.5s31.667 -5.5 45 -5.5c15.333 0 29.833 2.33301 43.5 7s20.5 14 20.5 28c0 14.667 -7 24.334 -21 29.001s-29.667 7 -47 7c-12.667 0 -24.834 -0.833008 -36.501 -2.5s-21.167 -3.16699 -28.5 -4.5l63 106h55
l-34 -57c10.667 0.666992 22.5 0.333984 35.5 -0.999023s25.167 -4.83301 36.5 -10.5s20.666 -13.5 27.999 -23.5s11 -23 11 -39c0 -16.667 -3.33301 -30.834 -10 -42.501s-15.667 -21.334 -27 -29.001s-24.333 -13.167 -39 -16.5s-30 -5 -46 -5
c-15.333 0 -29 0.833008 -41 2.5s-25.333 5.16699 -40 10.5z" />
    <glyph glyph-name="uni00B9" unicode="&#xb9;" horiz-adv-x="230" 
d="M124 744l-74 -17v51l130 29v-327h-56v264z" />
    <glyph glyph-name="ordmasculine" unicode="&#xba;" horiz-adv-x="467" 
d="M233 428c-28.667 0 -55.334 5.16699 -80.001 15.5s-46 24.333 -64 42s-32.167 38.5 -42.5 62.5s-15.5 50 -15.5 78c0 27.333 5.16699 53 15.5 77s24.5 45 42.5 63s39.333 32.167 64 42.5s51.334 15.5 80.001 15.5s55.334 -5.16699 80.001 -15.5s46.167 -24.5 64.5 -42.5
s32.666 -39 42.999 -63s15.5 -49.667 15.5 -77c0 -28 -5.16699 -54 -15.5 -78s-24.666 -44.833 -42.999 -62.5s-39.833 -31.667 -64.5 -42s-51.334 -15.5 -80.001 -15.5zM233 521c32.667 0 58.167 9.83301 76.5 29.5s27.5 44.834 27.5 75.501
c0 28.667 -9.16699 53.334 -27.5 74.001s-43.833 31 -76.5 31c-32 0 -57.167 -10.333 -75.5 -31s-27.5 -45.334 -27.5 -74.001c0 -30.667 9.16699 -55.834 27.5 -75.501s43.5 -29.5 75.5 -29.5z" />
    <glyph glyph-name="guillemotright" unicode="&#xbb;" horiz-adv-x="610" 
d="M427 31h-145l150 258l-151 255h147l156 -256zM171 31h-144l149 258l-150 255h145l156 -256z" />
    <glyph glyph-name="onequarter" unicode="&#xbc;" horiz-adv-x="987" 
d="M887 151v-71h-52v-80h-90v80h-215v39l218 342h87v-310h52zM745 331h-2l-103 -180h105v180zM711 746l-404 -777l-69 35l405 776zM100 678v76h160v-452h-96v376h-64z" />
    </font>
</defs>
</svg>
